<svg width="597" height="107" viewBox="0 0 597 107" fill="none" xmlns="http://www.w3.org/2000/svg">
<path d="M77.2291 7.25C83.8684 7.25 88.8289 9.08154 92.263 12.7446C95.5445 16.1788 97.1853 21.1774 97.1853 27.7022C97.1853 34.2271 95.5445 39.1494 92.263 42.6599C88.8289 46.323 83.8684 48.1545 77.2291 48.1545H62.2715V7.25H77.2291ZM68.9871 42.3928H75.9699C81.0448 42.3928 84.7842 41.2099 87.1118 38.8441C89.4012 36.4402 90.546 32.7008 90.546 27.7022C90.546 22.7037 89.4012 18.7735 87.1118 16.484C84.7461 14.1565 81.0448 12.9736 75.9699 12.9736H68.9871V42.3928Z" fill="white"/>
<path d="M127.749 21.0248C129.581 22.9327 130.497 25.6418 130.497 29.2668V48.1546H124.43V44.2625C123.285 45.7507 121.873 46.8191 120.194 47.6204C118.286 48.4598 116.073 48.9177 113.517 48.9177C110.426 48.9177 108.022 48.1164 106.267 46.552C104.435 44.9494 103.52 42.9652 103.52 40.485C103.52 37.1653 104.779 34.6088 107.412 32.8154C109.815 31.0983 113.173 30.1825 117.523 30.0681L124.01 29.9154V28.7707C124.01 24.8787 121.911 22.9708 117.638 22.9708C115.806 22.9708 114.394 23.2761 113.288 23.9248C112.029 24.6879 111.189 25.8326 110.808 27.3589L104.359 26.8629C105.008 23.5814 106.572 21.1775 109.167 19.6893C111.342 18.3157 114.318 17.667 118.096 17.667C122.445 17.667 125.727 18.7736 127.788 20.9485L127.749 21.0248ZM117.943 34.7996C112.754 34.914 110.159 36.7456 110.159 40.2942C110.159 41.3244 110.579 42.2021 111.494 42.8507C112.41 43.5376 113.555 43.9573 115.005 43.9573C117.523 43.9573 119.622 43.1941 121.377 41.7823C123.094 40.2942 124.01 38.4245 124.01 36.1351V34.6469L117.981 34.7996H117.943Z" fill="white"/>
<path d="M143.012 18.5443L150.873 39.607L158.351 18.5443H165.449L149.423 59.4488H142.44L147.629 47.4292L135.915 18.5061H143.012V18.5443Z" fill="white"/>
<path d="M33.6524 65.1736V70.8972H20.2592V106.04H13.5436V70.8972H0.150391V65.1736H33.6524Z" fill="white"/>
<path d="M64.2189 80.0539C66.9281 82.9539 68.2636 86.6933 68.2636 91.2721C68.2636 95.851 66.8899 99.5141 64.2571 102.376C61.5098 105.352 57.8467 106.84 53.3823 106.84C48.9179 106.84 45.2548 105.352 42.5075 102.376C39.7983 99.5141 38.501 95.8128 38.501 91.2721C38.501 86.7314 39.8365 82.992 42.5838 80.0539C45.293 77.0777 48.8797 75.6277 53.3823 75.6277C57.8848 75.6277 61.4334 77.0777 64.1808 80.0539H64.2189ZM47.0863 84.1749C45.8272 86.0064 45.1785 88.4103 45.1785 91.2721C45.1785 94.1339 45.8272 96.4997 47.0863 98.293C48.5745 100.43 50.635 101.498 53.3823 101.498C56.1296 101.498 58.1901 100.392 59.6782 98.293C60.9374 96.4233 61.6242 94.0576 61.6242 91.2721C61.6242 88.4867 60.9374 86.0064 59.6782 84.1749C58.1901 81.9999 56.0914 80.9697 53.3823 80.9697C50.6731 80.9697 48.5745 81.9999 47.0863 84.1749Z" fill="white"/>
<path d="M82.2661 76.467V94.4772C82.2661 96.8811 82.724 98.5982 83.7542 99.7429C84.7845 100.849 86.3871 101.422 88.6765 101.422C90.1265 101.422 91.462 100.773 92.7975 99.5903C94.0948 98.3311 95.0869 96.6903 95.6593 94.5535V76.467H102.184V106.039H95.6593V102.223C93.1409 105.314 90.0501 106.84 86.3871 106.84C79.2898 106.84 75.7412 102.834 75.7412 94.897V76.467H82.2661Z" fill="white"/>
<path d="M128.438 76.3908V82.9157C126.95 82.4578 125.576 82.267 124.203 82.267C122.486 82.267 120.959 82.9157 119.586 84.2512C117.983 85.8157 117.22 87.7998 117.22 90.3182V106.001H110.771V76.429H117.22V80.6644C118.021 79.1763 118.937 78.0316 120.044 77.2303C121.341 76.1237 122.905 75.6277 124.737 75.6277C126.187 75.6277 127.446 75.8566 128.476 76.3908H128.438Z" fill="white"/>
<path d="M207.194 85.4334L193.343 98.2924L190.71 95.5069L197.273 87.9518H152.477V82.9151H197.273L190.71 75.3599L193.343 72.5745L207.194 85.4716V85.4334Z" fill="white"/>
<path d="M47.6897 8.08017C53.1073 13.4168 55.8542 19.9186 55.8542 27.5102C55.8542 35.1018 53.1073 41.5283 47.6897 46.9402C42.1959 52.2768 35.5956 54.9828 27.9653 54.9828C20.3349 54.9828 13.6583 52.2768 8.24079 46.9402C2.82323 41.6035 -3.45238e-09 35.0642 -2.70862e-09 27.5102C-1.96486e-09 19.9561 2.70878 13.4168 8.20263 8.08017C13.6202 2.66834 20.1823 1.98713e-09 27.9271 2.74967e-09C35.6719 3.51222e-09 42.1577 2.66834 47.6516 8.08017L47.6897 8.08017ZM17.0157 14.5443L17.0157 21.3091C20.106 20.4071 22.9674 18.9414 25.4854 16.9496L25.4854 46.6771L32.429 46.6771L32.429 8.56874L27.1641 8.56874C24.3027 11.6129 20.9072 13.6423 17.0157 14.5443Z" fill="white"/>
<path d="M234.896 39.5813C235.566 45.2745 235.441 50.8852 234.31 55.6295C233.891 57.7335 232.3 58.5999 230.29 57.8573C228.279 57.1972 227.86 55.547 228.614 53.6493C230.08 49.9363 231.378 45.3157 231.63 39.705C231.755 38.5911 232.3 37.9311 233.305 37.9723C234.226 37.9723 234.771 38.5086 234.896 39.54V39.5813ZM243.272 31.5365V87.0659C243.272 89.0462 242.142 90.1188 240.048 90.1188C237.954 90.1188 236.823 89.0049 236.823 87.0659V31.5365C236.823 29.5563 237.954 28.4836 240.048 28.4836C242.142 28.4836 243.272 29.5563 243.272 31.5365ZM245.743 47.2547C245.492 44.0368 244.822 40.5714 244.068 37.4773C243.859 36.4871 244.319 35.7445 245.157 35.497C246.037 35.2495 246.748 35.6208 247.167 36.4871C248.759 39.2512 249.973 42.8404 250.727 46.1408C251.146 47.8736 250.476 48.9874 248.801 49.4C247.209 49.73 245.995 49.0699 245.785 47.296L245.743 47.2547ZM288.252 87.0659C287.708 89.2524 286.242 90.0363 283.561 89.5C278.745 88.5924 273.175 86.9422 268.066 83.9718C261.951 87.1484 254.873 89.1287 247.335 89.995C246.078 90.1188 245.241 89.7888 245.073 88.7574C244.864 87.6847 245.199 86.9009 246.539 86.5709C252.905 85.1682 258.559 83.1879 263.249 80.7539C259.815 77.9898 256.758 74.5656 254.538 70.1926H251.272C250.015 70.1926 249.261 69.45 249.261 68.2123C249.261 67.0159 250.015 66.3146 251.272 66.3146H278.871C282.431 66.3146 283.896 68.8312 281.886 71.8428C279.792 75.0607 277.112 77.866 274.055 80.2176C277.489 81.414 281.174 82.1978 285.111 82.7754C288.001 83.1879 288.88 84.8794 288.252 87.0659ZM251.272 50.2663H282.431C284.692 50.2663 285.99 51.504 285.99 53.773V60.1676C285.99 62.3954 284.734 63.5918 282.431 63.5918H251.272C249.01 63.5918 247.712 62.3954 247.712 60.1676V53.773C247.712 51.5453 248.968 50.2663 251.272 50.2663ZM252.402 44.2431V34.2181C252.402 31.9903 253.659 30.7114 255.962 30.7114H277.614C279.876 30.7114 281.174 31.9491 281.174 34.2181V44.2431C281.174 46.4709 279.918 47.7498 277.614 47.7498H255.962C253.701 47.7498 252.402 46.5121 252.402 44.2431ZM253.743 58.9712C253.743 59.425 254.078 59.755 254.538 59.755H258.684V54.0618H254.538C254.078 54.0618 253.743 54.3919 253.743 54.8457V58.9299V58.9712ZM258.559 37.3122H274.976V35.2495C274.976 34.7957 274.641 34.4656 274.18 34.4656H259.355C258.81 34.4656 258.559 34.7957 258.559 35.2495V37.3122ZM258.559 43.1292C258.559 43.583 258.81 43.9131 259.355 43.9131H274.18C274.641 43.9131 274.976 43.583 274.976 43.1292V40.9014H258.559V43.1292ZM268.066 77.6597C270.746 75.6795 272.882 73.493 274.641 71.1414C274.976 70.6051 274.85 70.1513 274.18 70.1513H258.684C261.365 73.328 264.506 75.762 268.066 77.6597ZM264.296 59.755H269.113V54.0618H264.296V59.755ZM274.766 59.755H279.122C279.583 59.755 279.918 59.425 279.918 58.9712V54.8869C279.918 54.4331 279.583 54.1031 279.122 54.1031H274.766V59.7963V59.755Z" fill="white"/>
<path d="M330.843 55.5464C330.843 65.7777 330.592 74.4825 329.838 82.3622C329.251 88.8806 324.142 91.1496 316.017 87.3129C314.928 86.7765 314.593 85.9927 314.886 85.0851C315.221 84.095 315.891 83.7649 317.106 83.9712C323.053 84.9613 323.556 84.3012 323.891 81.4546C324.477 75.8439 324.812 65.4064 324.812 56.8253C324.812 56.289 324.477 56.0415 324.016 56.0415H319.744C319.2 72.8736 316.855 81.5371 309.484 89.0456C308.688 89.9119 307.683 89.9532 307.013 89.2931C306.133 88.633 306.091 87.7667 306.762 86.7765C312.332 78.278 313.546 68.418 313.546 44.5725H308.06C306.72 44.5725 305.966 43.7887 305.966 42.5098C305.966 41.2309 306.72 40.5295 308.06 40.5295H316.771V31.4122C316.771 29.3494 318.027 28.1943 320.205 28.1943C322.383 28.1943 323.639 29.3907 323.639 31.4122V40.5295H330.885C332.225 40.5295 332.979 41.2721 332.979 42.5098C332.979 43.83 332.225 44.5725 330.885 44.5725H319.954V51.9572H327.409C329.67 51.9572 330.968 53.1949 330.968 55.5052L330.843 55.5464ZM330.927 50.8433C330.173 50.1832 330.131 49.2756 330.801 48.3268C334.57 43.5824 336.706 37.5179 338.046 30.8758C338.591 28.483 340.308 27.6992 342.611 28.1117C344.831 28.5656 345.543 30.2983 344.956 32.6086C344.538 34.1763 343.951 35.7852 343.281 37.3529H362.588C364.012 37.3529 364.808 38.0955 364.808 39.3331C364.808 40.7358 364.012 41.5197 362.588 41.5197H341.187C339.261 44.9026 336.706 48.1205 333.481 50.7608C332.56 51.5447 331.68 51.5447 330.927 50.8433ZM364.054 87.7667C362.379 89.6644 360.243 89.8294 358.149 87.9729C351.867 82.3622 346.799 72.1722 346.213 53.8137C344.747 54.0612 343.281 54.35 341.774 54.4738V80.547C343.993 80.0107 346.129 79.4331 348.139 78.8143C349.605 78.3605 350.275 78.6905 350.736 79.5981C351.197 80.5058 350.987 81.3721 349.815 82.156C346.003 84.7138 339.889 87.1066 335.282 88.0142C333.188 88.468 331.597 87.7667 331.178 85.8277C330.633 83.6412 331.513 82.4448 333.942 81.9909C334.403 81.9084 334.863 81.8672 335.366 81.7434V51.7509C335.366 49.7707 336.497 48.6981 338.591 48.6981C340.391 48.6981 341.48 49.4819 341.732 51.0083C346.297 49.4819 351.113 47.2541 354.547 44.9851C356.474 43.6649 358.233 43.995 359.321 45.5214C360.452 47.0479 360.243 48.8218 358.065 49.9357C355.803 51.0496 352.956 52.0397 349.94 52.8236C350.275 56.9078 350.82 60.662 351.699 64.045C353.584 62.3123 355.259 60.4145 356.809 58.3518C358.149 56.619 359.698 56.454 361.248 57.6917C362.798 58.9293 362.672 60.662 361.039 62.1885C358.819 64.2925 356.097 66.2315 352.872 67.6754C354.966 73.2861 358.233 77.9067 363.258 81.8672C365.394 83.5999 365.729 85.7039 364.138 87.6016L364.054 87.7667Z" fill="white"/>
<path d="M383.906 55.5036C383.906 53.6058 384.995 52.4507 387.005 52.4507H438.225C440.235 52.4507 441.324 53.5646 441.324 55.5036C441.324 57.4426 440.235 58.5564 438.225 58.5564H387.005C384.995 58.5564 383.906 57.4838 383.906 55.5036Z" fill="white"/>
<path d="M468.966 85.8688V34.5474C468.966 32.2372 470.306 30.917 472.651 30.917H507.119C509.464 30.917 510.804 32.2372 510.804 34.5474V85.7863C510.804 88.0966 509.548 89.293 507.203 89.293C504.857 89.293 503.601 88.0966 503.601 85.7863V81.7433H476.253V85.8276C476.253 88.0553 474.997 89.2517 472.651 89.2517C470.306 89.2517 469.05 88.0553 469.05 85.8276L468.966 85.8688ZM503.559 53.5248V36.2802C503.559 35.8263 503.224 35.4963 502.763 35.4963H477.007C476.546 35.4963 476.211 35.8263 476.211 36.2802V53.5248H503.559ZM503.559 77.164V57.9391H476.211V77.164H503.559Z" fill="white"/>
<path d="M593.353 87.9725C586.317 88.4263 576.935 88.5501 569.271 88.2201C558.885 87.8075 552.645 86.5699 548.624 79.5152C548.289 78.9377 547.829 78.9789 547.535 79.5978C545.944 82.8569 544.729 85.4147 542.259 88.1788C540.709 89.9115 539.034 89.9528 537.568 88.3851C536.018 86.8587 536.228 85.291 537.903 83.7645C540.332 81.6605 542.677 79.5565 544.353 77.37V63.1782C544.353 62.7244 544.017 62.3944 543.557 62.3944H538.406C537.065 62.3944 536.312 61.6105 536.312 60.3316C536.312 59.0527 537.065 58.3514 538.406 58.3514H547.242C549.588 58.3514 550.844 59.6715 550.844 61.8993V76.8337C553.943 81.4542 560.351 82.6506 568.015 82.6506C577.271 82.7331 586.065 81.9905 593.101 81.2067C595.656 80.8767 596.996 82.0731 596.996 84.3008C597.08 86.5286 595.865 87.8075 593.394 88.0138L593.353 87.9725ZM538.196 44.5721C537.4 43.7883 537.317 43.0457 537.777 42.1794C538.322 41.3955 539.117 41.1067 540.123 41.643C543.054 42.8394 546.405 44.9434 549.294 47.3362C551.179 48.7389 551.388 50.5541 549.755 52.2043C548.164 53.8546 546.488 53.7308 544.855 51.8743C542.97 49.3165 540.416 46.6762 538.154 44.5309L538.196 44.5721ZM539.62 32.1131C538.866 31.3293 538.824 30.5454 539.285 29.8028C539.829 29.0602 540.541 28.8127 541.505 29.2252C544.394 30.3391 547.787 32.3194 550.676 34.5884C552.477 35.9911 552.603 37.6825 551.137 39.3327C549.671 40.983 547.912 40.9004 546.363 39.0852C544.436 36.6924 542.133 34.3821 539.578 32.1544L539.62 32.1131ZM551.682 40.6942C551.682 39.4565 552.435 38.7139 553.692 38.7139H559.723V30.8342C559.723 28.9365 560.853 27.8638 562.947 27.8638C565.041 27.8638 566.088 28.9365 566.088 30.8342V38.7139H572.119C573.376 38.7139 574.13 39.4565 574.13 40.6942C574.13 42.0143 573.376 42.7569 572.119 42.7569H563.743C563.743 44.9847 563.659 47.1712 563.617 49.1515H570.193C572.538 49.1515 573.878 50.4716 573.794 52.9057C573.585 64.4571 573.208 71.1405 572.706 74.4821C571.826 80.6291 566.088 81.743 559.89 77.865C559.011 77.2875 558.801 76.5449 559.094 75.6373C559.429 74.8534 560.183 74.4409 561.314 74.7296C565.753 75.8023 566.465 75.596 566.884 73.0794C567.345 70.0266 567.806 64.0858 567.889 54.0608C567.889 53.4833 567.554 53.1945 567.094 53.1945H563.324C562.571 64.0033 560.309 71.0992 555.283 77.2462C554.488 78.1538 553.692 78.3188 552.812 77.7C552.017 77.1224 551.891 76.2973 552.477 75.266C556.498 68.0051 557.587 60.8679 557.629 42.7569H553.692C552.435 42.7569 551.682 41.9731 551.682 40.6942ZM572.58 45.191C575.386 40.6942 576.6 36.0323 577.48 30.4629C577.815 28.2764 579.155 27.6163 581.249 27.9051C583.343 28.2351 584.265 29.8028 583.678 31.9481C583.218 33.392 582.757 34.8772 582.212 36.1561H594.609C595.865 36.1561 596.619 36.8987 596.619 38.1364C596.619 39.4565 595.865 40.1991 594.609 40.1991H580.412C579.071 42.7569 577.522 45.0672 575.595 47.2537C574.8 48.1613 573.92 48.3264 573.124 47.7075C572.329 47.13 572.119 46.3049 572.664 45.191H572.58ZM582.882 72.8732V63.7558H576.433C575.093 63.7558 574.339 63.0132 574.339 61.693C574.339 60.3729 575.093 59.7128 576.433 59.7128H582.882V55.6698C582.882 53.8133 584.013 52.7819 585.982 52.7819H586.317C586.987 51.668 587.531 50.4716 587.908 49.399C588.118 48.9452 587.992 48.4914 587.364 48.4914H578.904C577.564 48.4914 576.81 47.7488 576.81 46.5111C576.81 45.2735 577.564 44.5309 578.904 44.5309H591.049C594.19 44.5309 595.07 46.6349 593.52 49.2752C592.306 51.4618 590.588 53.6895 589.039 55.216V59.7128H594.735C596.075 59.7128 596.829 60.4554 596.829 61.693C596.829 62.9307 596.075 63.7558 594.735 63.7558H589.039V74.9359C589.039 80.0103 583.594 81.7843 576.098 78.1126C575.009 77.5762 574.674 76.7924 574.967 75.8848C575.302 75.0184 576.056 74.6471 577.229 74.8122C582.254 75.6785 582.841 75.1422 582.841 72.9144L582.882 72.8732Z" fill="white"/>
</svg>
