<svg width="241" height="65" viewBox="0 0 241 65" fill="none" xmlns="http://www.w3.org/2000/svg">
<path d="M0 32.5C0 14.5507 14.5507 0 32.5 0H208.5C226.449 0 241 14.5507 241 32.5C241 50.4493 226.449 65 208.5 65H32.5C14.5508 65 0 50.4493 0 32.5Z" fill="#F8F8F8"/>
<g clip-path="url(#clip0_7583_4388)">
<path d="M32.0001 27.3369C31.9818 26.8045 32.147 26.5658 32.8077 26.07C34.3311 24.9133 35.6159 23.7932 36.7172 22.5447C37.7083 21.4246 38.4975 19.8272 38.4975 18.6154C38.4975 16.9812 37.2862 16.1733 36.0197 16.1366C34.9185 16.1366 34.0191 16.7058 33.4685 17.2566C33.083 17.6055 32.6242 17.679 32.2571 17.275C31.9267 16.9261 31.9818 16.412 32.4223 16.0264C33.1564 15.3471 34.4596 14.5943 36.295 14.6126C38.6077 14.6126 40.6266 15.7878 40.6266 18.4685C40.6266 20.4331 39.2317 22.306 38.3874 23.1873C37.3229 24.289 35.4691 25.9415 34.5514 26.5658C34.4229 26.6576 34.4779 26.7861 34.6248 26.7861H40.333C40.8102 26.7861 41.0855 27.0248 41.0855 27.5022C41.0855 28.0163 40.8102 28.3101 40.333 28.3101H33.1014C32.3305 28.3101 32.0001 27.8878 32.0001 27.3369Z" fill="#4B4B4B"/>
<path d="M43.9671 21.4611C43.9671 17.3666 45.6741 14.5757 49.088 14.5757C52.5019 14.5757 53.9886 17.3482 53.9702 21.4428C53.9702 25.6291 52.7221 28.6404 49.0145 28.6404C45.307 28.6404 43.9671 25.6108 43.9671 21.4611ZM51.6759 21.4611C51.6392 18.2663 51.0702 16.0446 49.0329 16.0629C47.1424 16.0813 46.243 18.2846 46.2614 21.4428C46.2614 24.7845 47.069 27.1347 49.0329 27.1347C51.1253 27.1347 51.6943 24.7845 51.6759 21.4611Z" fill="#4B4B4B"/>
<path d="M56.8885 27.3369C56.8702 26.8045 57.0354 26.5658 57.6961 26.07C59.2195 24.9133 60.5043 23.7932 61.6056 22.5447C62.5967 21.4246 63.386 19.8272 63.386 18.6154C63.386 16.9812 62.1746 16.1733 60.9081 16.1366C59.8069 16.1366 58.9075 16.7058 58.3569 17.2566C57.9714 17.6055 57.5126 17.679 57.1455 17.275C56.8151 16.9261 56.8702 16.412 57.3107 16.0264C58.0449 15.3471 59.348 14.5943 61.1835 14.6126C63.4961 14.6126 65.5151 15.7878 65.5151 18.4685C65.5151 20.4331 64.1201 22.306 63.2758 23.1873C62.2113 24.289 60.3575 25.9415 59.4398 26.5658C59.3113 26.6576 59.3664 26.7861 59.5132 26.7861H65.2214C65.6986 26.7861 65.9739 27.0248 65.9739 27.5022C65.9739 28.0163 65.6986 28.3101 65.2214 28.3101H57.9898C57.2189 28.3101 56.8885 27.8878 56.8885 27.3369Z" fill="#4B4B4B"/>
<path d="M69.0024 22.4525C69.0024 18.1927 70.8011 15.1448 74.2334 14.6674C75.4998 14.4838 76.6561 14.6674 77.3352 14.9795C77.7207 15.1631 77.8859 15.5487 77.739 15.9343C77.5738 16.3566 77.17 16.5586 76.6928 16.375C75.8852 16.0445 75.1327 16.0445 74.472 16.2281C72.3429 16.7238 71.0948 18.9639 71.1865 21.4426C71.8657 20.4144 72.8384 19.8085 74.4353 19.6983C76.9131 19.5514 78.5833 21.2958 78.5833 23.7378C78.5833 26.3451 77.2068 28.7137 73.9213 28.6402C70.3973 28.5668 69.0024 25.9595 69.0024 22.4525ZM76.546 24.0499C76.546 21.9751 75.4447 21.1305 74.1599 21.1856C72.8751 21.2407 71.7188 22.2689 71.3701 23.3889C71.3334 23.7562 71.3517 24.1234 71.4068 24.5641C71.5903 26.1431 72.5631 27.1713 73.958 27.1713C75.4998 27.1713 76.5276 26.0513 76.546 24.0499Z" fill="#4B4B4B"/>
<path d="M46.9772 43.0722C46.3715 43.4578 45.7842 43.3109 45.4354 42.6131C45.1785 42.1174 44.9032 41.6216 44.5912 41.1259C41.4342 41.8603 37.121 42.3745 33.3583 42.6131C32.5874 42.6499 32.2387 42.2276 32.2387 41.5666C32.2387 40.9423 32.514 40.5751 33.34 40.5751H34.7532C35.9096 39.0694 37.1393 37.0864 38.0937 35.0667C38.3874 34.4424 38.9564 34.1854 39.6355 34.5159C40.3513 34.8464 40.4247 35.4706 40.0026 36.1316C38.9197 37.7474 37.6349 39.2898 36.3317 40.5567C38.9013 40.4832 41.4159 40.318 43.912 40.0609C43.4532 39.3632 42.9393 38.6471 42.3886 37.9494C42.1684 37.674 42.1867 37.3986 42.407 37.215C42.6272 36.9946 42.8842 37.0313 43.1595 37.2333C44.6095 38.3533 46.2063 40.0793 47.2158 41.4748C47.6747 42.099 47.5829 42.6866 46.9772 43.0722ZM45.8209 44.7614V50.8022C45.8209 51.4265 45.4722 51.7203 44.8298 51.7203C44.1874 51.7203 43.8203 51.4265 43.8203 50.8022V50.3065H36.0564V50.7839C36.0564 51.4265 35.671 51.7019 35.0469 51.7019C34.4229 51.7019 34.0558 51.4265 34.0558 50.7839V44.7614C34.0558 44.1371 34.4045 43.7883 35.0286 43.7883H44.8481C45.4722 43.7883 45.8209 44.1371 45.8209 44.7614ZM43.8203 49.1497V45.147C43.8203 45.0185 43.7285 44.9267 43.6 44.9267H36.2767C36.1482 44.9267 36.0564 45.0185 36.0564 45.147V49.1497H43.8203Z" fill="#4B4B4B"/>
<path d="M52.8506 41.7321C52.355 41.1629 51.6392 40.4468 51.0702 39.8041C50.8683 39.6022 50.85 39.3268 50.9784 39.1248C51.1253 38.8861 51.3455 38.8126 51.6576 38.9595C52.3917 39.3084 53.4196 40.0061 54.0436 40.5019C54.5208 40.9058 54.5575 41.3832 54.1354 41.8239C53.7132 42.2645 53.2727 42.2095 52.8506 41.7321ZM51.3822 35.4525C51.162 35.2138 51.1803 35.0119 51.3272 34.7915C51.4924 34.5712 51.7126 34.5528 51.9696 34.6814C52.667 35.0302 53.6398 35.728 54.3373 36.3522C54.7411 36.6827 54.7594 37.1601 54.3373 37.5641C53.9151 37.9864 53.4379 37.9129 53.0708 37.4356C52.5753 36.7929 51.9329 36.0401 51.3822 35.4525ZM54.7594 44.4679C54.4107 46.5243 53.9335 48.6359 53.2911 50.3802C53.0525 51.0779 52.5386 51.2983 51.8962 51.0045C51.2538 50.6923 51.1253 50.1599 51.4557 49.5356C52.2632 47.9932 53.1259 46.102 53.7866 44.2108C53.9151 43.862 54.1354 43.7885 54.4107 43.862C54.6677 43.9354 54.8145 44.119 54.7594 44.4679ZM55.0531 37.3988C55.3468 36.646 55.567 35.8014 55.7322 35.0302C55.824 34.5896 56.136 34.4427 56.5398 34.5528C56.9436 34.6447 57.1455 34.9384 56.9987 35.3607C56.76 36.0401 56.3746 36.7562 56.0075 37.3437C56.3012 37.307 56.5765 37.2887 56.8518 37.2336C56.9987 36.9398 57.1455 36.6277 57.2556 36.3339C57.4208 35.9299 57.7512 35.783 58.1733 35.9667C58.5404 36.1319 58.6322 36.4808 58.4486 36.8296C57.9714 37.7477 57.2923 38.7208 56.5765 39.5104C56.9619 39.4736 57.3474 39.4002 57.7145 39.3268L57.6043 38.9595C57.5493 38.7392 57.586 38.5923 57.7695 38.5189C57.9531 38.4271 58.1366 38.4821 58.2651 38.6658C58.5955 39.1248 58.8708 39.6389 59.036 40.0428C59.1645 40.3733 58.9809 40.612 58.6872 40.7222C58.3569 40.8507 58.0632 40.7222 57.9714 40.3917C57.9714 40.2632 57.9164 40.1346 57.898 40.0061C57.1088 40.3917 56.0993 40.7038 55.1999 40.8691C54.8512 40.9242 54.5392 40.7957 54.4841 40.3917C54.4107 39.9694 54.6126 39.694 54.9613 39.6756C55.1449 39.6756 55.3101 39.6756 55.4936 39.6389C55.8056 39.1982 56.0993 38.7025 56.3746 38.1884C55.9708 38.3353 55.567 38.4454 55.1632 38.5189C54.8696 38.5556 54.5575 38.4087 54.5025 38.0415C54.4658 37.6192 54.6493 37.4172 55.0531 37.3988ZM56.0075 41.4016C56.0075 42.0075 55.8607 42.6869 55.6588 43.2561C55.5303 43.6049 55.2183 43.7334 54.8696 43.5682C54.5208 43.4213 54.429 43.0908 54.6126 42.7603C54.8696 42.2645 55.0898 41.7688 55.2917 41.2363C55.3835 40.9793 55.5303 40.9058 55.7506 40.9425C55.9525 40.9976 56.0259 41.1262 56.0075 41.4016ZM66.7998 48.3237C66.7081 48.9847 66.5429 49.7559 66.3226 50.4536C65.8454 52.0143 63.7714 52.1429 61.055 50.7841C60.798 50.6556 60.7062 50.4169 60.798 50.1599C60.8898 49.9212 61.11 49.8294 61.422 49.9028C64.1385 50.4353 64.4689 50.3986 64.634 49.9212C64.7809 49.4621 64.9094 48.948 64.9828 48.5257C64.9828 48.3788 64.9094 48.287 64.7625 48.287H56.705C55.879 48.287 55.567 47.9382 55.7506 47.3322C55.8974 46.7998 56.0626 46.3958 56.2094 45.9919C56.3746 45.5696 56.6499 45.386 57.2189 45.386H64.0651C64.1752 45.386 64.2486 45.3125 64.2486 45.2023V44.7249C64.2486 44.6148 64.1752 44.5413 64.0651 44.5413H56.2278C55.8974 44.5413 55.6955 44.3394 55.6955 44.0089C55.6955 43.6967 55.8974 43.4947 56.2278 43.4947H65.0378C65.6619 43.4947 66.0106 43.8436 66.0106 44.4679V45.4594C66.0106 46.0837 65.6619 46.4325 65.0378 46.4325H58.0265C57.898 46.4325 57.8062 46.506 57.7695 46.6162C57.7328 46.7447 57.6961 46.8732 57.6778 47.0017C57.6411 47.167 57.7145 47.2404 57.8429 47.2404H65.9005C66.5796 47.2404 66.8916 47.6444 66.7998 48.3237ZM56.3379 42.6869C56.3563 42.1727 56.3379 41.7504 56.2828 41.2363C56.2828 40.9976 56.3746 40.8507 56.5765 40.814C56.7968 40.7773 56.9252 40.8875 57.017 41.0894C57.2373 41.6219 57.329 42.0259 57.4575 42.5583C57.5309 42.9072 57.3841 43.1642 56.9803 43.2193C56.5581 43.2561 56.3195 43.0724 56.3379 42.6869ZM57.7695 42.4114C57.6594 41.9157 57.4942 41.4567 57.329 41.016C57.2556 40.7957 57.329 40.6488 57.4759 40.5753C57.6411 40.5019 57.7879 40.5386 57.9164 40.6855C58.2467 41.0711 58.5404 41.5485 58.7607 42.0442C58.9075 42.338 58.8157 42.6318 58.467 42.7603C58.0999 42.9256 57.8429 42.7603 57.7695 42.4114ZM58.6322 36.4624C58.6322 36.1503 58.8157 35.985 59.1094 35.985H60.1923V35.1404C60.1923 34.6814 60.4493 34.4243 60.9448 34.4243C61.4404 34.4243 61.7157 34.6814 61.7157 35.1404V35.985H62.7803C63.0923 35.985 63.2575 36.1503 63.2575 36.4624C63.2575 36.7562 63.0923 36.9398 62.7803 36.9398H59.1094C58.8157 36.9398 58.6322 36.7562 58.6322 36.4624ZM59.0176 40.9976C59.0176 40.4468 59.3296 40.153 59.8803 40.153H62.0644C62.5967 40.153 62.9087 40.4468 62.9087 40.9976V42.2645C62.9087 42.797 62.5967 43.1092 62.0644 43.1092H59.8803C59.3296 43.1092 59.0176 42.797 59.0176 42.2645V40.9976ZM59.5315 38.3169C59.2562 38.3169 59.0727 38.17 59.0727 37.8762C59.0727 37.5641 59.2562 37.4172 59.5315 37.4172H62.3765C62.6518 37.4172 62.8353 37.5641 62.8353 37.8762C62.8353 38.17 62.6518 38.3169 62.3765 38.3169H59.5315ZM59.0727 39.2166C59.0727 38.9044 59.2562 38.7576 59.5315 38.7576H62.3765C62.6518 38.7576 62.8353 38.9044 62.8353 39.2166C62.8353 39.5104 62.6518 39.6573 62.3765 39.6573H59.5315C59.2562 39.6573 59.0727 39.5104 59.0727 39.2166ZM60.2107 42.0442C60.2107 42.1544 60.2841 42.2278 60.3942 42.2278H61.5322C61.6423 42.2278 61.7157 42.1544 61.7157 42.0442V41.218C61.7157 41.1078 61.6423 41.0343 61.5322 41.0343H60.3942C60.2841 41.0343 60.2107 41.1078 60.2107 41.218V42.0442ZM67.1669 40.6855C66.8366 40.8324 66.5796 40.7406 66.4878 40.4652C66.4328 40.2815 66.3593 40.1163 66.3043 39.951C65.4783 40.355 64.5239 40.6304 63.6613 40.7589C63.2758 40.8324 63.0005 40.6671 62.9454 40.2815C62.8904 39.8592 63.0739 39.6205 63.4777 39.6022C63.5878 39.6022 63.7163 39.6022 63.8265 39.6022C64.1201 39.1799 64.4321 38.7392 64.7258 38.2618C64.3587 38.372 64.01 38.4454 63.6796 38.5005C63.3125 38.5739 63.0189 38.4087 62.9822 38.0415C62.9454 37.6192 63.1106 37.4172 63.5328 37.3988H63.6062C63.8815 36.6644 64.0834 35.8381 64.2486 35.067C64.3587 34.6263 64.6707 34.4794 65.0745 34.5712C65.4783 34.6447 65.6802 34.9568 65.5334 35.3791C65.2948 36.0401 64.9277 36.7745 64.5606 37.3437C64.7992 37.3437 65.0378 37.307 65.2581 37.2887C65.4233 36.9765 65.5701 36.6644 65.6986 36.3522C65.8638 35.985 66.1942 35.8749 66.5612 36.0217C66.9283 36.187 67.0752 36.5175 66.8549 36.9031C66.3961 37.7661 65.6435 38.7025 64.9094 39.492C65.2948 39.4369 65.6802 39.3818 66.0473 39.3084L65.9372 39.0513C65.8271 38.8126 65.9005 38.6658 66.1024 38.5556C66.2859 38.4454 66.4511 38.5005 66.598 38.6658C66.965 39.1248 67.2771 39.5838 67.4422 39.9878C67.5891 40.3183 67.479 40.5753 67.1669 40.7038V40.6855ZM63.3492 43.2928C62.9822 43.1459 62.9454 42.8705 63.0739 42.5583C63.2758 42.1177 63.4227 41.6586 63.5511 41.1629C63.6246 40.9242 63.7714 40.8507 63.9916 40.8875C64.1935 40.9242 64.2853 41.0527 64.2853 41.273C64.2853 41.8606 64.2486 42.5032 64.1201 42.9439C64.01 43.2928 63.7163 43.4397 63.3492 43.2928ZM64.7075 42.7603C64.7075 42.2462 64.6707 41.7321 64.634 41.1812C64.634 40.9793 64.7075 40.8324 64.9094 40.7957C65.1296 40.7406 65.2764 40.8324 65.3499 41.016C65.5518 41.5668 65.6986 42.0993 65.7904 42.595C65.8454 42.9439 65.7537 43.1826 65.3499 43.2377C64.9277 43.2928 64.7075 43.1459 64.7075 42.7603ZM67.3138 42.136C67.4422 42.4482 67.3872 42.7052 67.0385 42.8521C66.6897 42.999 66.3961 42.8888 66.3043 42.54C66.1574 42.0075 65.9739 41.4383 65.772 40.9793C65.6986 40.7589 65.772 40.5937 65.9188 40.5202C66.1024 40.4468 66.2309 40.4835 66.3777 40.6488C66.7448 41.0527 67.0935 41.6035 67.3138 42.136Z" fill="#4B4B4B"/>
<path d="M70.8194 42.7049C70.746 41.4747 70.5625 40.1527 70.2505 38.7022C70.1954 38.39 70.3055 38.1881 70.5441 38.0963C70.8011 38.0228 71.003 38.133 71.1315 38.4084C71.7739 39.7671 72.196 41.1075 72.4163 42.4662C72.4897 43.0354 72.2694 43.3659 71.7371 43.4394C71.2232 43.5128 70.8561 43.2741 70.8194 42.7049ZM74.9859 48.6907C74.6188 47.8644 74.215 47.0198 73.8662 46.3588C73.389 48.3969 72.508 50.0494 71.1131 51.4816C70.8745 51.7386 70.6359 51.7386 70.434 51.555C70.2505 51.3347 70.2321 51.096 70.3973 50.8573C71.8106 48.6907 72.5998 46.1201 72.5998 41.0524V35.1952C72.5998 34.6444 72.9118 34.3506 73.4625 34.3506C74.0131 34.3506 74.3435 34.6444 74.3435 35.1952V40.2445C74.6371 39.7671 74.8941 39.2714 75.1327 38.7389C75.3529 38.2064 75.7935 38.0595 76.2156 38.2982C76.6928 38.5737 76.7295 38.996 76.3991 39.455C75.7935 40.2812 75.0776 41.0524 74.3435 41.6033C74.3435 42.9069 74.2517 44.082 74.1049 45.147C74.9675 45.8998 75.8485 46.8913 76.4542 47.8828C76.7662 48.3969 76.6561 48.8559 76.1605 49.1497C75.665 49.4618 75.2428 49.2966 74.9859 48.6907ZM86.7143 42.558C86.3655 43.1456 85.8149 43.2741 85.2092 42.8151C84.5301 42.301 83.906 41.7134 83.3371 41.0341C83.2453 41.1075 83.1168 41.1442 82.97 41.1442H78.4732C78.3631 41.1442 78.2529 41.1259 78.1795 41.0708C77.427 41.897 76.546 42.6315 75.4998 43.219C75.1878 43.3843 74.9492 43.3292 74.784 43.0722C74.6371 42.8518 74.7105 42.6131 74.9675 42.4111C76.0871 41.5665 76.9865 40.5383 77.6472 39.4734C77.1333 38.8858 76.5643 38.3533 76.1422 37.9861C75.9219 37.8025 75.9219 37.6005 76.0504 37.3802C76.1789 37.1782 76.3808 37.1231 76.6377 37.2333C77.1333 37.4353 77.7574 37.8025 78.3263 38.2432C78.5466 37.7658 78.7118 37.2884 78.8403 36.8293C78.877 36.6825 78.8036 36.5907 78.6567 36.5907H76.3257C75.9586 36.5907 75.7567 36.3703 75.7567 36.0215C75.7567 35.691 75.9586 35.489 76.3257 35.489H78.8586C79.189 35.1952 79.6111 35.1034 80.0516 35.2503C80.5105 35.4155 80.8042 35.8929 80.6206 36.5907C80.327 37.729 79.7947 38.9225 79.0055 40.0426H82.6029C81.7219 38.7022 81.0611 37.0497 80.7491 34.9565C80.694 34.6444 80.8225 34.4608 81.0978 34.424C81.3732 34.3689 81.5934 34.5158 81.6668 34.8096C81.8504 35.489 82.0523 36.1133 82.2909 36.6825C82.5845 36.3703 82.8966 36.0031 83.2086 35.5624C83.5206 35.1218 83.906 35.0667 84.3282 35.4155C84.7136 35.7828 84.6953 36.2051 84.2364 36.5907C83.7409 36.9762 83.2086 37.3251 82.713 37.5822C82.9333 37.9494 83.1535 38.3166 83.4105 38.6471C83.8326 38.2982 84.2731 37.8576 84.6769 37.3985C85.0257 37.0313 85.4295 36.9946 85.8149 37.3618C86.2003 37.7474 86.1453 38.1881 85.6314 38.5553C85.1541 38.9225 84.5852 39.2163 84.0896 39.4183C84.6953 40.0426 85.4111 40.575 86.2554 41.0708C86.8978 41.438 87.0813 41.9521 86.7143 42.558ZM86.6776 50.5268C86.6776 50.894 86.4757 51.096 86.1086 51.096H75.5916C75.2245 51.096 75.0226 50.894 75.0226 50.5268C75.0226 50.1596 75.2245 49.9576 75.5916 49.9576H78.6567C78.6567 49.9576 78.5282 49.774 78.4732 49.6455C78.1979 48.911 77.8491 48.1949 77.5371 47.5523C77.4086 47.2769 77.4453 47.0565 77.6656 46.9096C77.8675 46.7444 78.1061 46.7811 78.3263 46.9831C78.932 47.5339 79.5194 48.1398 79.9782 48.8376C80.2719 49.2966 80.2352 49.6638 79.8865 49.9576H81.5751C81.9238 49.1864 82.2175 48.3602 82.4744 47.5339C82.658 46.928 83.1168 46.726 83.7225 47.0014C84.2915 47.2585 84.42 47.7543 84.0529 48.3235C83.6674 48.8926 83.2269 49.4618 82.7864 49.9576H86.1086C86.4757 49.9576 86.6776 50.1596 86.6776 50.5268ZM77.996 46.5975C77.3719 46.5975 77.0232 46.2486 77.0232 45.6244V43.421C77.0232 42.7967 77.3719 42.4479 77.996 42.4479H83.594C84.2181 42.4479 84.5668 42.7967 84.5668 43.421V45.6244C84.5668 46.2486 84.2181 46.5975 83.594 46.5975H77.996ZM78.7852 45.2571C78.7852 45.3857 78.877 45.4775 79.0055 45.4775H82.5845C82.713 45.4775 82.8048 45.3857 82.8048 45.2571V43.8066C82.8048 43.6781 82.713 43.5863 82.5845 43.5863H79.0055C78.877 43.5863 78.7852 43.6781 78.7852 43.8066V45.2571Z" fill="#4B4B4B"/>
<path d="M105.986 39.8588C105.839 40.5382 105.326 40.7769 104.683 40.5933C104.463 40.5198 104.261 40.4647 104.041 40.3729C104.096 40.5014 104.114 40.6483 104.114 40.8136V43.5127C104.114 44.137 103.765 44.4858 103.141 44.4858H92.3307C91.7067 44.4858 91.3579 44.137 91.3579 43.5127V40.8136C91.3579 40.63 91.3946 40.4647 91.4497 40.3178C91.0275 40.4647 90.6054 40.5933 90.1833 40.7034C89.8345 40.7952 89.6143 40.7034 89.5225 40.4096C89.4124 40.1159 89.5225 39.8955 89.8529 39.7486C92.8263 38.5368 95.194 36.921 96.9927 34.6626C97.3965 34.1668 97.9104 34.075 98.4427 34.4423C98.8832 34.736 98.9933 35.14 98.8098 35.5072C100.755 37.123 103.086 38.1145 105.289 38.6102C105.913 38.7571 106.151 39.1978 105.986 39.8588ZM103.013 46.3954V50.9306C103.013 51.4814 102.683 51.7936 102.095 51.7936C101.508 51.7936 101.177 51.4814 101.177 50.9306V50.8388H94.3313V50.9306C94.3313 51.4814 94.0193 51.7936 93.4136 51.7936C92.8079 51.7936 92.4959 51.4814 92.4959 50.9306V46.3954C92.4959 45.7711 92.8446 45.4222 93.4687 45.4222H102.04C102.664 45.4222 103.013 45.7711 103.013 46.3954ZM102.793 39.8404C102.058 39.4916 101.343 39.0509 100.645 38.5552C100.608 38.8122 100.443 38.9591 100.131 38.9591H95.506C95.2857 38.9591 95.1022 38.8673 95.0288 38.6837C94.313 39.1244 93.5421 39.5099 92.7345 39.8404H102.793ZM93.3035 43.4576H95.1206C95.1206 43.4576 94.937 43.2923 94.8636 43.1455C94.5516 42.5395 94.1661 41.9153 93.8358 41.4379C93.6889 41.1992 93.7256 40.9972 93.8908 40.8503H93.3035C93.175 40.8503 93.0832 40.9421 93.0832 41.0706V43.2373C93.0832 43.3658 93.175 43.4576 93.3035 43.4576ZM94.3313 46.7259V47.6072H101.177V46.7259C101.177 46.5974 101.086 46.5056 100.957 46.5056H94.5516C94.4231 46.5056 94.3313 46.5974 94.3313 46.7259ZM101.177 49.7555V48.6355H94.3313V49.7555H101.177ZM96.9009 40.8503H94.4965C94.9921 41.1992 95.5794 41.7684 96.0383 42.3008C96.3687 42.7048 96.3503 43.0904 95.9282 43.3842C95.8914 43.4209 95.8547 43.4392 95.7997 43.4576H96.9009V40.8503ZM96.2585 37.8942H99.8193C99.2319 37.3984 98.6813 36.8476 98.1857 36.26C97.6351 36.8292 96.9927 37.38 96.2585 37.8942ZM99.287 42.87C99.599 42.3927 99.9477 41.8051 100.26 41.1808C100.333 41.0339 100.425 40.9238 100.517 40.8503H98.5712V43.4576H99.3237C99.1585 43.274 99.1218 43.1087 99.287 42.87ZM102.352 41.0706C102.352 40.9421 102.26 40.8503 102.132 40.8503H101.251C101.673 41.089 101.746 41.493 101.453 41.8969C100.957 42.5763 100.443 43.072 99.9845 43.4576H102.132C102.26 43.4576 102.352 43.3658 102.352 43.2373V41.0706Z" fill="#4B4B4B"/>
<path d="M113.365 42.6865V50.7287C113.365 51.353 113.016 51.6835 112.374 51.6835C111.731 51.6835 111.382 51.353 111.382 50.7287V44.8899C110.795 45.4407 110.189 45.8997 109.584 46.2669C109.29 46.4506 109.015 46.4322 108.85 46.1751C108.666 45.9181 108.666 45.6427 108.941 45.404C110.538 43.9718 112.208 41.7868 113.512 38.8307H109.639C109.235 38.8307 108.996 38.592 108.996 38.2064C108.996 37.8208 109.235 37.5637 109.639 37.5637H114.007C114.301 36.7926 114.558 35.9847 114.778 35.1217C114.943 34.4974 115.402 34.222 116.118 34.4056C116.815 34.5892 116.999 35.0666 116.834 35.6725C116.65 36.3152 116.448 36.9395 116.21 37.5637H124.359C124.744 37.5637 124.983 37.8024 124.983 38.2064C124.983 38.6103 124.744 38.8307 124.359 38.8307H115.659C115.017 40.2445 114.227 41.5481 113.365 42.6865ZM125.075 50.3798C125.075 50.7838 124.836 51.0225 124.414 51.0225H114.558C114.136 51.0225 113.897 50.8022 113.897 50.3798C113.897 49.9575 114.136 49.7188 114.558 49.7188H118.431V44.9266H115.2C114.796 44.9266 114.558 44.7062 114.558 44.3023C114.558 43.8983 114.796 43.678 115.2 43.678H118.431V40.5015C118.431 39.8772 118.779 39.5284 119.422 39.5284C120.064 39.5284 120.394 39.8772 120.394 40.5015V43.678H123.68C124.084 43.678 124.304 43.8983 124.304 44.3023C124.304 44.7062 124.084 44.9266 123.68 44.9266H120.394V49.7188H124.414C124.836 49.7188 125.075 49.9575 125.075 50.3798Z" fill="#4B4B4B"/>
<path d="M144.53 44.8535C144.53 45.2023 144.328 45.4043 143.98 45.4043H132.306C132.875 45.4043 133.169 45.7532 133.077 46.4142C133.077 46.4509 133.077 46.4876 133.077 46.5243H135.537C136.179 46.5243 136.528 46.8916 136.491 47.5342C136.418 48.4155 136.326 49.3336 136.142 50.2333C135.885 51.5737 134.491 52.1429 132.27 50.8759C132.013 50.7291 131.958 50.5454 132.049 50.2884C132.123 50.0681 132.325 49.9579 132.637 50.013C134.179 50.3067 134.362 50.1966 134.435 49.7743C134.564 49.0765 134.637 48.3605 134.656 47.8463C134.656 47.6995 134.601 47.626 134.454 47.626H132.875C132.325 49.7376 131.077 51.0045 128.929 51.6655C128.599 51.7573 128.379 51.6655 128.268 51.4084C128.177 51.1514 128.268 50.931 128.544 50.7841C130.104 49.9762 130.838 49.0582 131.187 47.626H129.333C128.966 47.626 128.764 47.4057 128.764 47.0752C128.764 46.7263 128.966 46.5243 129.333 46.5243H131.37C131.37 46.5243 131.407 46.3224 131.407 46.2306C131.444 45.7165 131.701 45.441 132.141 45.4043H128.746C128.397 45.4043 128.195 45.184 128.195 44.8535C128.195 44.5046 128.397 44.3026 128.746 44.3026H133.169C132.93 43.862 132.655 43.4029 132.435 43.0724C132.343 42.9439 132.306 42.8337 132.306 42.7236H131.774C131.15 42.7236 130.801 42.3747 130.801 41.7504V40.557C130.801 39.9327 131.15 39.5838 131.774 39.5838H140.915C141.539 39.5838 141.887 39.9327 141.887 40.557V41.7504C141.887 42.3747 141.539 42.7236 140.915 42.7236H140.144C140.419 43.0174 140.346 43.3846 140.034 43.7334C139.85 43.9354 139.648 44.1374 139.465 44.3026H143.998C144.347 44.3026 144.549 44.5046 144.549 44.8535H144.53ZM128.801 36.389C128.801 36.0401 128.984 35.8381 129.351 35.8381H135.372V35.2689C135.372 34.7181 135.72 34.4243 136.308 34.4243C136.895 34.4243 137.244 34.7181 137.244 35.2689V35.8381H143.319C143.668 35.8381 143.87 36.0401 143.87 36.389C143.87 36.7378 143.668 36.9398 143.319 36.9398H137.244V37.7844H141.961C142.309 37.7844 142.511 37.9864 142.511 38.3169C142.511 38.6658 142.309 38.8677 141.961 38.8677H130.673C130.324 38.8677 130.122 38.6658 130.122 38.3169C130.122 37.9864 130.324 37.7844 130.673 37.7844H135.372V36.9398H129.351C128.984 36.9398 128.801 36.7195 128.801 36.389ZM132.6 41.4567C132.6 41.5852 132.692 41.677 132.82 41.677H139.85C139.978 41.677 140.07 41.5852 140.07 41.4567V40.8507C140.07 40.7222 139.978 40.6304 139.85 40.6304H132.82C132.692 40.6304 132.6 40.7222 132.6 40.8507V41.4567ZM134.582 44.3026H137.923C138.161 43.9171 138.4 43.458 138.694 42.8888L138.785 42.7236H133.61C133.903 42.9439 134.179 43.1826 134.417 43.4397C134.711 43.6967 134.747 44.0272 134.582 44.3026ZM143.337 47.2037V50.8392C143.337 51.3901 143.025 51.6655 142.438 51.6655C141.851 51.6655 141.557 51.3901 141.557 50.8392V50.6189H139.024V50.8759C139.024 51.4084 138.712 51.6838 138.161 51.6838C137.611 51.6838 137.299 51.4084 137.299 50.8759V47.2037C137.299 46.5794 137.647 46.2306 138.272 46.2306H142.365C142.989 46.2306 143.337 46.5794 143.337 47.2037ZM141.557 49.5172V47.5342C141.557 47.4057 141.465 47.3139 141.337 47.3139H139.244C139.116 47.3139 139.024 47.4057 139.024 47.5342V49.5172H141.557Z" fill="#4B4B4B"/>
<path d="M162.095 51.6655C160.609 51.5002 159.452 50.7841 158.571 49.6641C157.323 50.4169 155.947 50.8943 154.405 51.1697C154.056 51.2432 153.836 51.1146 153.763 50.8392C153.689 50.5638 153.799 50.3618 154.13 50.2517C155.598 49.7559 156.791 49.15 157.819 48.4155C157.397 47.5709 157.103 46.5978 156.883 45.5328H153.506V46.5978C154.276 46.4876 154.992 46.3775 155.598 46.2673C155.947 46.1938 156.185 46.2673 156.24 46.5427C156.295 46.8548 156.13 47.0568 155.837 47.1486C155.139 47.3873 154.35 47.6077 153.506 47.8096V49.7559C153.506 51.4084 151.799 51.9409 149.174 50.8943C148.88 50.7841 148.807 50.5822 148.862 50.3067C148.917 50.0313 149.137 49.9212 149.468 49.9579C151.45 50.2149 151.707 50.1231 151.707 49.4438V48.1952C150.661 48.3972 149.596 48.5624 148.605 48.6726C147.999 48.746 147.651 48.4706 147.632 47.9565C147.632 47.424 147.852 47.1853 148.421 47.1486C149.486 47.0935 150.606 46.9834 151.707 46.8365V45.5328H148.109C147.761 45.5328 147.559 45.3125 147.559 44.982C147.559 44.6331 147.761 44.4312 148.109 44.4312H151.707V43.7518C150.844 43.8436 149.945 43.9171 149.045 43.9354C148.715 43.9354 148.476 43.8069 148.476 43.4947C148.476 43.201 148.587 43.0541 148.972 42.999C150.807 42.7787 152.423 42.3747 154.075 41.7688H148.66C148.311 41.7688 148.109 41.5485 148.109 41.218C148.109 40.8875 148.311 40.6671 148.66 40.6671H154.662V39.7491H150.018C149.67 39.7491 149.468 39.5471 149.468 39.2166C149.468 38.8861 149.67 38.6841 150.018 38.6841H154.662V37.8579H149.247C148.899 37.8579 148.697 37.6375 148.697 37.307C148.697 36.9582 148.899 36.7562 149.247 36.7562H152.826L152.79 36.7011C152.459 36.1503 152.037 35.6362 151.67 35.0853C151.505 34.8283 151.523 34.5896 151.707 34.406C151.909 34.2223 152.111 34.2223 152.331 34.3325C152.882 34.6263 153.506 35.122 154.056 35.6729C154.405 36.0217 154.497 36.4257 154.258 36.7562H156.864C157.121 36.2604 157.342 35.728 157.654 35.0119C157.911 34.461 158.388 34.2591 158.957 34.5712C159.544 34.865 159.599 35.3975 159.214 35.8565C158.902 36.2237 158.626 36.5175 158.351 36.7562H161.912C162.261 36.7562 162.462 36.9582 162.462 37.307C162.462 37.6559 162.261 37.8579 161.912 37.8579H156.589V38.6841H161.159C161.508 38.6841 161.71 38.8677 161.71 39.2166C161.71 39.5471 161.508 39.7491 161.159 39.7491H156.589V40.6671H162.518C162.866 40.6671 163.068 40.8691 163.068 41.218C163.068 41.5668 162.866 41.7688 162.518 41.7688H157.8C158.039 41.879 158.186 42.1177 158.223 42.4849C158.259 43.1275 158.333 43.7885 158.425 44.4312H161.123L160.994 44.321C160.48 43.8252 159.801 43.2193 159.214 42.7419C159.012 42.5767 158.975 42.3747 159.122 42.136C159.232 41.934 159.452 41.879 159.709 41.9708C160.388 42.2278 161.251 42.6501 161.949 43.1459C162.407 43.458 162.499 43.8436 162.169 44.2843C162.114 44.3394 162.077 44.3944 162.022 44.4312H163.013C163.362 44.4312 163.564 44.6331 163.564 44.982C163.564 45.3309 163.362 45.5328 163.013 45.5328H158.626C158.755 46.1571 158.938 46.7447 159.159 47.2771C159.526 46.9283 159.856 46.5243 160.187 46.1204C160.572 45.6246 161.031 45.5328 161.508 45.8817C161.949 46.2122 161.912 46.763 161.545 47.167C161.031 47.7362 160.517 48.2503 159.966 48.691C160.443 49.2602 161.031 49.6457 161.765 49.7926C162.352 49.9212 162.481 49.2418 162.518 47.4057C162.518 47.0752 162.719 46.9099 162.976 46.9099C163.252 46.9099 163.417 47.0752 163.472 47.4057C163.802 49.9579 163.637 51.8307 162.095 51.6655ZM156.699 44.4312C156.626 43.8436 156.571 43.2193 156.534 42.5767C156.534 42.1544 156.663 41.8973 156.919 41.7688H155.396C155.396 41.7688 155.525 41.934 155.561 42.0442C155.745 42.5767 155.506 43.0174 155.011 43.1459C154.533 43.2744 154.038 43.3846 153.506 43.4947V44.4312H156.699Z" fill="#4B4B4B"/>
<path d="M198.524 12.4292H187.246V52H198.524V12.4292Z" fill="#ED6D1F"/>
<path d="M205.026 32.347C205.026 46.9198 199.431 49.9075 192.513 49.9075C185.595 49.9075 180 46.5038 180 32.347C180 18.1903 185.595 14.7866 192.513 14.7866C199.431 14.7866 205.026 17.4339 205.026 32.347Z" fill="#FDD23E"/>
<path d="M193.005 12.4292V6" stroke="#ED6D1F" stroke-width="0.81" stroke-miterlimit="10"/>
</g>
<defs>
<clipPath id="clip0_7583_4388">
<rect width="178" height="50" fill="white" transform="translate(32 8)"/>
</clipPath>
</defs>
</svg>
