<svg width="508" height="507" viewBox="0 0 508 507" fill="none" xmlns="http://www.w3.org/2000/svg">
<path d="M253.767 507C361.742 507 453.935 439.424 490.438 344.24V343.564L2.25914 222.396C1.01908 232.591 0.365234 242.967 0.365234 253.5C0.365234 393.501 113.82 507 253.767 507Z" fill="#FDD23F"/>
<path d="M490.415 344.24C501.215 316.069 507.145 285.484 507.145 253.5C507.145 113.499 393.691 0 253.744 0C124.326 0 17.568 97.0784 2.23633 222.396L490.415 343.564V344.24Z" fill="#82D0F5"/>
<path d="M224.093 32.0403C228.623 31.7718 232.1 32.846 234.598 35.2142C236.948 37.436 238.295 40.7564 238.54 45.1999C238.785 49.5945 237.854 53.0614 235.749 55.5761C233.545 58.2129 230.215 59.6534 225.661 59.8976L215.45 60.4835L213.858 32.6263L224.069 32.0403H224.093ZM219.833 56.3086L224.608 56.04C228.085 55.8447 230.582 54.8925 232.1 53.1835C233.569 51.4501 234.206 48.8865 234.01 45.444C233.814 41.9283 232.884 39.4136 231.219 37.9243C229.529 36.4106 226.934 35.7758 223.457 35.9711L218.682 36.2397L219.833 56.2842V56.3086Z" fill="#00496D"/>
<path d="M260.798 42.5151C261.949 43.9067 262.414 45.8111 262.218 48.277L261.165 61.1191L257.027 60.7773L257.247 58.1405C256.39 59.0927 255.338 59.7519 254.162 60.1914C252.815 60.6797 251.273 60.8506 249.51 60.7041C247.404 60.5332 245.813 59.8496 244.686 58.7021C243.535 57.5057 243.021 56.0897 243.144 54.4295C243.34 52.1833 244.343 50.4987 246.229 49.4245C247.967 48.399 250.318 47.9596 253.305 48.1305L257.737 48.3746L257.811 47.5934C258.031 44.9566 256.684 43.5405 253.795 43.2964C252.546 43.1987 251.542 43.2964 250.783 43.7114C249.877 44.1509 249.241 44.8833 248.922 45.9087L244.539 45.2007C245.151 43.0278 246.376 41.4653 248.212 40.6107C249.779 39.8051 251.836 39.5365 254.432 39.7562C257.394 40.0004 259.549 40.9281 260.847 42.5151H260.798ZM253.354 51.3532C249.779 51.1335 247.943 52.2322 247.722 54.6492C247.673 55.3572 247.894 55.9676 248.481 56.4803C249.069 56.993 249.828 57.3348 250.808 57.4081C252.522 57.5546 254.015 57.1639 255.264 56.285C256.513 55.3572 257.247 54.1365 257.37 52.574L257.443 51.5485L253.33 51.3288L253.354 51.3532Z" fill="#00496D"/>
<path d="M272.428 42.3194L275.366 57.3588L282.785 44.0284L287.584 44.8097L272.183 70.5672L267.481 69.7859L272.354 62.2662L267.677 41.5137L272.477 42.2949L272.428 42.3194Z" fill="#00496D"/>
<path d="M329.553 48.9108L328.328 52.6219L319.611 49.7409L312.045 72.5199L307.687 71.0794L315.253 48.3005L306.536 45.4195L307.76 41.7085L329.528 48.8864L329.553 48.9108Z" fill="#00496D"/>
<path d="M346.595 67.6364C347.428 70.2244 347.232 72.91 345.91 75.7421C344.612 78.5498 342.702 80.4542 340.229 81.4796C337.658 82.5294 334.964 82.4074 332.198 81.1378C329.382 79.8438 327.57 77.8906 326.713 75.2538C325.856 72.7147 326.101 70.0291 327.398 67.2214C328.721 64.3893 330.606 62.4605 333.153 61.4351C335.675 60.3608 338.319 60.5073 341.135 61.8013C343.902 63.0709 345.738 64.9996 346.595 67.612V67.6364ZM334.769 65.2926C333.471 66.0739 332.393 67.3923 331.561 69.1502C330.753 70.9324 330.459 72.5682 330.728 74.0575C331.047 75.791 332.026 77.0605 333.716 77.8418C335.381 78.6231 337.021 78.5498 338.539 77.6465C339.862 76.8408 340.963 75.5712 341.772 73.8378C342.58 72.0555 342.849 70.3709 342.604 68.8816C342.31 67.0993 341.282 65.8542 339.617 65.0973C337.903 64.316 336.336 64.3649 334.793 65.2926H334.769Z" fill="#00496D"/>
<path d="M359.722 71.9573L353.38 82.5045C352.523 83.9206 352.204 85.0681 352.4 86.1179C352.621 87.1189 353.355 88.0222 354.702 88.8279C355.535 89.3406 356.563 89.4383 357.763 89.1941C358.987 88.9256 360.138 88.2908 361.215 87.2654L367.581 76.6938L371.401 78.9888L360.97 96.2988L357.151 94.0039L358.497 91.7577C355.926 92.6855 353.576 92.4901 351.421 91.2206C347.258 88.7303 346.597 85.1413 349.389 80.4781L355.877 69.6868L359.697 71.9818L359.722 71.9573Z" fill="#00496D"/>
<path d="M386.999 90.0251L384.379 93.6385C383.743 92.784 383.057 92.1492 382.273 91.5876C381.318 90.904 380.217 90.6355 378.894 90.8308C377.376 91.0505 376.176 91.8562 375.148 93.2478L368.855 101.915L365.256 99.3271L377.131 82.9692L380.731 85.5572L379.017 87.901C380.07 87.3883 381.025 87.1442 381.955 87.1197C383.13 87.0465 384.183 87.3883 385.212 88.1207C385.995 88.7067 386.607 89.3171 386.975 90.0251H386.999Z" fill="#00496D"/>
<path d="M423.677 132.458L410.749 131.896L410.847 129.284L417.703 128.844L396.155 107.091L398.604 104.674L420.176 126.427L420.69 119.615L423.334 119.542L423.726 132.458H423.677Z" fill="#00496D"/>
<path d="M184.996 38.4506C189.7 40.7966 192.922 44.4603 194.63 49.4416C196.305 54.4228 195.951 59.2756 193.631 63.9997C191.247 68.7239 187.573 71.9376 182.612 73.6088C177.585 75.2799 172.72 74.9585 168.016 72.6125C163.248 70.2665 160.058 66.5707 158.383 61.6216C156.707 56.6082 156.997 51.7876 159.381 47.0634C161.701 42.3071 165.407 39.1576 170.401 37.4544C175.362 35.7832 180.227 36.1046 184.996 38.4506ZM166.889 47.3848C165.858 49.7629 165.825 52.366 166.76 55.2584L171.174 53.7801C170.626 51.9161 170.562 50.3093 170.884 49.1202C171.238 47.7704 172.14 46.8384 173.622 46.3564C174.976 45.9065 176.103 45.8422 176.973 46.26C177.875 46.6135 178.584 47.449 179.003 48.7667C179.454 50.1164 179.325 51.5626 178.681 53.0731C178.262 54.0372 177.457 55.2905 176.264 56.9295C174.074 59.7897 172.753 61.9751 172.173 63.4213C171.174 65.8315 171.077 68.4025 171.915 71.1021L189.539 65.1888L188.186 61.2359L176.136 65.2852C176.329 63.9354 177.328 62.1036 179.132 59.854C181.033 57.4116 182.322 55.4512 182.966 54.0693C183.997 51.7554 184.158 49.4737 183.417 47.3205C182.644 45.0709 181.226 43.4962 179.164 42.5963C177.102 41.6965 174.879 41.6643 172.43 42.4999C169.692 43.4319 167.823 45.0387 166.792 47.3848L166.889 47.3848Z" fill="#00496D"/>
</svg>
