<svg width="597" height="108" viewBox="0 0 597 108" fill="none" xmlns="http://www.w3.org/2000/svg">
<path d="M234.897 40.0111C235.567 45.7905 235.442 51.4863 234.311 56.3025C233.892 58.4384 232.301 59.3179 230.29 58.564C228.28 57.894 227.861 56.2187 228.615 54.2923C230.081 50.523 231.379 45.8324 231.631 40.1367C231.756 39.0059 232.301 38.3358 233.306 38.3777C234.227 38.3777 234.772 38.9222 234.897 39.9692V40.0111ZM243.273 31.8444V88.2153C243.273 90.2256 242.143 91.3145 240.049 91.3145C237.955 91.3145 236.824 90.1837 236.824 88.2153V31.8025C236.824 29.7923 237.955 28.7034 240.049 28.7034C242.143 28.7034 243.273 29.7923 243.273 31.8025V31.8444ZM245.744 47.8008C245.493 44.5341 244.823 41.0162 244.069 37.8752C243.86 36.87 244.32 36.1162 245.158 35.8649C246.038 35.6136 246.749 35.9905 247.168 36.87C248.76 39.676 249.974 43.3196 250.728 46.67C251.147 48.429 250.477 49.5598 248.802 49.9786C247.21 50.3136 245.996 49.6435 245.786 47.8427L245.744 47.8008ZM288.253 88.2153C287.708 90.435 286.243 91.2307 283.562 90.6863C278.746 89.7649 273.176 88.0897 268.067 85.0743C261.952 88.2991 254.874 90.3093 247.336 91.1888C246.079 91.3145 245.242 90.9794 245.074 89.9324C244.865 88.8435 245.2 88.0478 246.54 87.7128C252.906 86.2888 258.56 84.2786 263.25 81.8076C259.816 79.0016 256.759 75.5256 254.539 71.0863H251.273C250.016 71.0863 249.262 70.3324 249.262 69.076C249.262 67.8615 250.016 67.1495 251.273 67.1495H278.872C282.431 67.1495 283.897 69.7042 281.887 72.7615C279.793 76.0281 277.113 78.876 274.055 81.2632C277.49 82.4777 281.175 83.2734 285.112 83.8598C288.002 84.2786 288.881 85.9957 288.253 88.2153ZM251.273 50.8581H282.432C284.693 50.8581 285.991 52.1145 285.991 54.4179V60.9093C285.991 63.1709 284.735 64.3854 282.432 64.3854H251.273C249.011 64.3854 247.713 63.1709 247.713 60.9093V54.4179C247.713 52.1564 248.969 50.8581 251.273 50.8581ZM252.403 44.7435V34.5666C252.403 32.3051 253.66 31.0068 255.963 31.0068H277.615C279.877 31.0068 281.175 32.2632 281.175 34.5666V44.7435C281.175 47.0051 279.919 48.3034 277.615 48.3034H255.963C253.702 48.3034 252.403 47.047 252.403 44.7435ZM253.743 59.6948C253.743 60.1555 254.079 60.4905 254.539 60.4905H258.685V54.7111H254.539C254.079 54.7111 253.743 55.0461 253.743 55.5068V59.6529V59.6948ZM258.56 37.7076H274.977V35.6136C274.977 35.1529 274.642 34.8179 274.181 34.8179H259.355C258.811 34.8179 258.56 35.1529 258.56 35.6136V37.7076ZM258.56 43.6128C258.56 44.0735 258.811 44.4085 259.355 44.4085H274.181C274.642 44.4085 274.977 44.0735 274.977 43.6128V41.3512H258.56V43.6128ZM268.067 78.6666C270.747 76.6563 272.883 74.4367 274.642 72.0495C274.977 71.5051 274.851 71.0444 274.181 71.0444H258.685C261.366 74.2692 264.507 76.7401 268.067 78.6666ZM264.297 60.4905H269.114V54.7111H264.297V60.4905ZM274.767 60.4905H279.123C279.584 60.4905 279.919 60.1555 279.919 59.6948V55.5487C279.919 55.088 279.584 54.7529 279.123 54.7529H274.767V60.5324V60.4905Z" fill="white"/>
<path d="M330.845 56.2179C330.845 66.6042 330.593 75.441 329.84 83.4401C329.253 90.0572 324.144 92.3606 316.019 88.4658C314.93 87.9213 314.595 87.1256 314.888 86.2042C315.223 85.1991 315.893 84.864 317.108 85.0735C323.055 86.0786 323.558 85.4085 323.893 82.5188C324.479 76.823 324.814 66.2273 324.814 57.5162C324.814 56.9718 324.479 56.7205 324.018 56.7205H319.746C319.202 73.8076 316.857 82.6025 309.486 90.2247C308.69 91.1042 307.685 91.1461 307.015 90.476C306.135 89.8059 306.093 88.9264 306.764 87.9213C312.334 79.294 313.548 69.2846 313.548 45.0777H308.062C306.722 45.0777 305.968 44.282 305.968 42.9837C305.968 41.6854 306.722 40.9735 308.062 40.9735H316.773V31.7598C316.773 29.6658 318.029 28.4931 320.207 28.4931C322.385 28.4931 323.641 29.7077 323.641 31.7598V41.0153H330.887C332.227 41.0153 332.981 41.7692 332.981 43.0256C332.981 44.3658 332.227 45.1196 330.887 45.1196H319.956V52.6162H327.411C329.672 52.6162 330.97 53.8726 330.97 56.2179H330.845ZM330.928 51.4435C330.175 50.7735 330.133 49.8521 330.803 48.8888C334.572 44.0726 336.708 37.9162 338.048 31.1735C338.593 28.7444 340.31 27.9487 342.613 28.3675C344.833 28.8282 345.545 30.5871 344.958 32.9324C344.54 34.5239 343.953 36.1572 343.283 37.7487H362.59C364.014 37.7487 364.81 38.5025 364.81 39.7589C364.81 41.1829 364.014 41.9786 362.59 41.9786H341.189C339.263 45.4128 336.708 48.6794 333.483 51.3598C332.562 52.1555 331.682 52.1555 330.928 51.4435ZM364.056 88.9264C362.381 90.8529 360.245 91.0205 358.151 89.1358C351.869 83.4401 346.801 73.0957 346.215 54.4589C344.749 54.7102 343.283 55.0034 341.775 55.129V81.5974C343.995 81.0529 346.131 80.4666 348.141 79.8384C349.607 79.3777 350.277 79.7128 350.738 80.6341C351.199 81.5555 350.989 82.435 349.816 83.2307C346.005 85.8273 339.891 88.2564 335.284 89.1777C333.19 89.6384 331.599 88.9264 331.18 86.9581C330.635 84.7384 331.515 83.5239 333.944 83.0632C334.405 82.9794 334.865 82.9376 335.368 82.8119V52.3649C335.368 50.3547 336.499 49.2658 338.593 49.2658C340.393 49.2658 341.482 50.0615 341.734 51.6111C346.299 50.0615 351.115 47.8 354.549 45.4965C356.475 44.1564 358.234 44.4914 359.323 46.041C360.454 47.5906 360.245 49.3914 358.067 50.5222C355.805 51.6529 352.958 52.6581 349.942 53.4538C350.277 57.6 350.822 61.4111 351.701 64.8453C353.586 63.0863 355.261 61.1598 356.81 59.0658C358.151 57.3068 359.7 57.1393 361.25 58.3957C362.799 59.6521 362.674 61.4111 361.04 62.9606C358.821 65.0965 356.099 67.0649 352.874 68.5307C354.968 74.2264 358.234 78.917 363.26 82.9376C365.396 84.6965 365.731 86.8324 364.14 88.7589L364.056 88.9264Z" fill="white"/>
<path d="M468.966 87.0019V34.9028C468.966 32.5575 470.306 31.2173 472.652 31.2173H507.119C509.465 31.2173 510.805 32.5575 510.805 34.9028V86.9181C510.805 89.2634 509.548 90.478 507.203 90.478C504.858 90.478 503.601 89.2634 503.601 86.9181V82.8139H476.254V86.96C476.254 89.2216 474.997 90.4361 472.652 90.4361C470.306 90.4361 469.05 89.2216 469.05 86.96L468.966 87.0019ZM503.559 54.1677V36.6617C503.559 36.201 503.224 35.866 502.764 35.866H477.007C476.547 35.866 476.212 36.201 476.212 36.6617V54.1677H503.559ZM503.559 78.1651V58.6489H476.212V78.1651H503.559Z" fill="white"/>
<path d="M593.353 89.1367C586.317 89.5974 576.935 89.7231 569.271 89.388C558.885 88.9692 552.645 87.7128 548.624 80.5513C548.289 79.9649 547.829 80.0068 547.535 80.635C545.944 83.9436 544.729 86.5402 542.259 89.3461C540.709 91.1051 539.034 91.147 537.568 89.5555C536.018 88.006 536.228 86.4145 537.903 84.8649C540.332 82.7291 542.677 80.5932 544.353 78.3735V63.9667C544.353 63.506 544.017 63.1709 543.557 63.1709H538.406C537.065 63.1709 536.312 62.3752 536.312 61.0769C536.312 59.7786 537.065 59.0667 538.406 59.0667H547.242C549.588 59.0667 550.844 60.4068 550.844 62.6684V77.8291C553.943 82.5196 560.351 83.7342 568.015 83.7342C577.27 83.8179 586.065 83.0641 593.101 82.2684C595.656 81.9333 596.996 83.1479 596.996 85.4094C597.08 87.6709 595.865 88.9692 593.394 89.1786L593.353 89.1367ZM538.196 45.0786C537.4 44.2829 537.317 43.5291 537.777 42.6496C538.322 41.8538 539.117 41.5607 540.123 42.1051C543.054 43.3197 546.405 45.4556 549.294 47.8846C551.179 49.3085 551.388 51.1513 549.755 52.8265C548.164 54.5017 546.488 54.3761 544.855 52.4914C542.97 49.8949 540.416 47.2145 538.154 45.0368L538.196 45.0786ZM539.62 32.4308C538.866 31.635 538.824 30.8393 539.285 30.0855C539.829 29.3316 540.541 29.0803 541.505 29.4991C544.394 30.6299 547.787 32.6402 550.676 34.9436C552.477 36.3675 552.603 38.0846 551.137 39.7598C549.671 41.435 547.912 41.3513 546.363 39.5085C544.436 37.0795 542.133 34.7342 539.578 32.4727L539.62 32.4308ZM551.682 41.1419C551.682 39.8855 552.435 39.1316 553.692 39.1316H559.723V31.1325C559.723 29.206 560.853 28.1171 562.947 28.1171C565.041 28.1171 566.088 29.206 566.088 31.1325V39.1316H572.119C573.376 39.1316 574.129 39.8855 574.129 41.1419C574.129 42.482 573.376 43.2359 572.119 43.2359H563.743C563.743 45.4974 563.659 47.7171 563.617 49.7273H570.193C572.538 49.7273 573.878 51.0675 573.794 53.5385C573.585 65.2649 573.208 72.0496 572.705 75.4419C571.826 81.682 566.088 82.8128 559.89 78.8761C559.011 78.2897 558.801 77.5359 559.094 76.6145C559.429 75.8188 560.183 75.4 561.314 75.6932C565.753 76.782 566.465 76.5726 566.884 74.0179C567.345 70.9188 567.806 64.888 567.889 54.7111C567.889 54.1248 567.554 53.8316 567.094 53.8316H563.324C562.57 64.8043 560.309 72.0077 555.283 78.2479C554.488 79.1692 553.692 79.3367 552.812 78.7085C552.017 78.1222 551.891 77.2846 552.477 76.2376C556.498 68.8667 557.587 61.6214 557.629 43.2359H553.692C552.435 43.2359 551.682 42.4402 551.682 41.1419ZM572.58 45.7068C575.386 41.1419 576.6 36.4094 577.48 30.7556C577.815 28.5359 579.155 27.8658 581.249 28.159C583.343 28.494 584.264 30.0855 583.678 32.2632C583.217 33.7291 582.757 35.2368 582.212 36.535H594.609C595.865 36.535 596.619 37.2889 596.619 38.5453C596.619 39.8855 595.865 40.6393 594.609 40.6393H580.412C579.071 43.2359 577.522 45.5812 575.595 47.8009C574.8 48.7222 573.92 48.8897 573.124 48.2615C572.329 47.6752 572.119 46.8376 572.664 45.7068H572.58ZM582.882 73.8085V64.553H576.433C575.093 64.553 574.339 63.7991 574.339 62.459C574.339 61.1188 575.093 60.4487 576.433 60.4487H582.882V56.3444C582.882 54.4598 584.013 53.4128 585.982 53.4128H586.317C586.987 52.282 587.531 51.0675 587.908 49.9786C588.117 49.5179 587.992 49.0573 587.364 49.0573H578.904C577.564 49.0573 576.81 48.3034 576.81 47.047C576.81 45.7906 577.564 45.0368 578.904 45.0368H591.049C594.19 45.0368 595.07 47.1726 593.52 49.853C592.305 52.0726 590.588 54.3342 589.039 55.8838V60.4487H594.735C596.075 60.4487 596.829 61.2026 596.829 62.459C596.829 63.7154 596.075 64.553 594.735 64.553H589.039V75.9026C589.039 81.0538 583.594 82.8547 576.098 79.1273C575.009 78.5829 574.674 77.7872 574.967 76.8658C575.302 75.9863 576.056 75.6094 577.229 75.7769C582.254 76.6564 582.841 76.112 582.841 73.8504L582.882 73.8085Z" fill="white"/>
<path d="M77.2301 7.66919C83.8694 7.66919 88.8299 9.50073 92.264 13.1638C95.5455 16.598 97.1863 21.5966 97.1863 28.1214C97.1863 34.6463 95.5455 39.5686 92.264 43.0791C88.8299 46.7421 83.8694 48.5737 77.2301 48.5737H62.2725V7.66919H77.2301ZM68.9881 42.812H75.9709C81.0458 42.812 84.7852 41.6291 87.1128 39.2633C89.4022 36.8594 90.5469 33.12 90.5469 28.1214C90.5469 23.1228 89.4022 19.1927 87.1128 16.9032C84.747 14.5756 81.0458 13.3928 75.9709 13.3928H68.9881V42.812Z" fill="white"/>
<path d="M127.749 21.4438C129.581 23.3516 130.497 26.0608 130.497 29.6857V48.5735H124.43V44.6815C123.285 46.1696 121.873 47.238 120.194 48.0393C118.286 48.8788 116.073 49.3367 113.517 49.3367C110.426 49.3367 108.022 48.5354 106.267 46.9709C104.435 45.3683 103.52 43.3842 103.52 40.9039C103.52 37.5843 104.779 35.0277 107.412 33.2343C109.815 31.5173 113.173 30.6015 117.523 30.487L124.01 30.3344V29.1897C124.01 25.2976 121.911 23.3898 117.638 23.3898C115.806 23.3898 114.394 23.695 113.288 24.3437C112.029 25.1069 111.189 26.2516 110.808 27.7779L104.359 27.2818C105.008 24.0003 106.572 21.5964 109.167 20.1083C111.342 18.7346 114.318 18.0859 118.096 18.0859C122.446 18.0859 125.727 19.1925 127.788 21.3675L127.749 21.4438ZM117.943 35.2185C112.754 35.333 110.159 37.1645 110.159 40.7131C110.159 41.7434 110.579 42.621 111.494 43.2697C112.41 43.9565 113.555 44.3762 115.005 44.3762C117.523 44.3762 119.622 43.6131 121.377 42.2013C123.094 40.7131 124.01 38.8434 124.01 36.554V35.0659L117.981 35.2185H117.943Z" fill="white"/>
<path d="M143.013 18.9632L150.874 40.026L158.352 18.9632H165.45L149.424 59.8677H142.441L147.63 47.8482L135.916 18.925H143.013V18.9632Z" fill="white"/>
<path d="M33.6524 65.5925V71.3161H20.2592V106.459H13.5436V71.3161H0.150391V65.5925H33.6524Z" fill="white"/>
<path d="M64.2179 80.4731C66.9271 83.3731 68.2626 87.1125 68.2626 91.6913C68.2626 96.2702 66.8889 99.9333 64.2561 102.795C61.5088 105.771 57.8457 107.259 53.3813 107.259C48.9169 107.259 45.2538 105.771 42.5065 102.795C39.7973 99.9333 38.5 96.232 38.5 91.6913C38.5 87.1506 39.8355 83.4112 42.5828 80.4731C45.292 77.4968 48.8788 76.0469 53.3813 76.0469C57.8838 76.0469 61.4325 77.4968 64.1798 80.4731H64.2179ZM47.0854 84.5941C45.8262 86.4256 45.1775 88.8295 45.1775 91.6913C45.1775 94.5531 45.8262 96.9189 47.0854 98.7122C48.5735 100.849 50.634 101.917 53.3813 101.917C56.1286 101.917 58.1891 100.811 59.6772 98.7122C60.9364 96.8425 61.6233 94.4768 61.6233 91.6913C61.6233 88.9058 60.9364 86.4256 59.6772 84.5941C58.1891 82.4191 56.0905 81.3889 53.3813 81.3889C50.6721 81.3889 48.5735 82.4191 47.0854 84.5941Z" fill="white"/>
<path d="M82.2661 76.8862V94.8964C82.2661 97.3003 82.724 99.0174 83.7542 100.162C84.7845 101.269 86.3871 101.841 88.6765 101.841C90.1265 101.841 91.462 101.192 92.7975 100.009C94.0948 98.7503 95.0869 97.1095 95.6593 94.9727V76.8862H102.184V106.458H95.6593V102.642C93.1409 105.733 90.0502 107.259 86.3871 107.259C79.2898 107.259 75.7412 103.253 75.7412 95.3162V76.8862H82.2661Z" fill="white"/>
<path d="M128.438 76.81V83.3349C126.95 82.877 125.576 82.6862 124.203 82.6862C122.486 82.6862 120.959 83.3349 119.586 84.6704C117.983 86.2348 117.22 88.219 117.22 90.7374V106.42H110.771V76.8482H117.22V81.0836C118.021 79.5955 118.937 78.4508 120.044 77.6495C121.341 76.5429 122.905 76.0469 124.737 76.0469C126.187 76.0469 127.446 76.2758 128.476 76.81H128.438Z" fill="white"/>
<path d="M207.193 85.8524L193.342 98.7114L190.709 95.9259L197.272 88.3707H152.476V83.334H197.272L190.709 75.7789L193.342 72.9934L207.193 85.8905V85.8524Z" fill="white"/>
<path d="M47.6683 8.1789C53.1041 13.6101 55.8542 20.1821 55.8542 27.9111C55.8542 35.6401 53.1041 42.1479 47.6683 47.6433C42.1681 53.0745 35.5904 55.8222 27.9191 55.8222C20.2478 55.8222 13.6057 53.0745 8.16987 47.6433C2.73401 42.2121 0 35.5598 0 27.9111C0 20.2625 2.68576 13.6101 8.18595 8.1789C13.6218 2.68345 20.1995 0 27.9352 0C35.6708 0 42.1842 2.68345 47.6844 8.1789H47.6683ZM18.4305 12.1157C15.9055 14.9116 14.6511 18.5271 14.6028 22.9781H21.4218C21.5344 20.1179 22.1616 17.8843 23.1908 16.406C24.3327 14.6867 25.9892 13.835 28.289 13.835C30.3475 13.835 31.9558 14.285 32.985 15.2651C34.0786 16.1811 34.6415 17.6594 34.6415 19.6679C34.6415 21.6765 33.7731 23.669 32.1809 25.5008C31.1516 26.6417 29.4308 28.0075 27.0345 29.7269C22.6923 32.6995 19.8296 35.1098 18.334 36.8131C15.8251 39.6733 14.5063 43.2084 14.3938 47.338H41.5248V41.2159H22.9818C23.8985 39.4483 26.1339 37.3916 29.6721 35.0938C33.4514 32.571 36.1372 30.466 37.6811 28.8592C40.206 26.1114 41.4605 23.0263 41.4605 19.7161C41.4605 16.2293 40.206 13.3691 37.7937 11.1998C35.3813 9.03054 32.2935 7.93788 28.5141 7.93788C24.2844 7.93788 20.9554 9.3037 18.4465 12.1157H18.4305Z" fill="white"/>
<path d="M382.526 80.33C382.526 78.3885 383.584 77.3824 385.551 77.3824H441.706C443.673 77.3824 444.805 78.3885 444.805 80.33C444.805 82.2714 443.673 83.2069 441.706 83.2069H385.551C383.584 83.2069 382.526 82.2008 382.526 80.33ZM387.666 40.053C387.666 38.1821 388.798 37.1055 390.765 37.1055H436.565C438.532 37.1055 439.664 38.1821 439.664 40.053C439.664 41.9239 438.532 42.9299 436.565 42.9299H390.765C388.798 42.9299 387.666 41.9239 387.666 40.053Z" fill="white"/>
</svg>
