<svg width="597" height="108" viewBox="0 0 597 108" fill="none" xmlns="http://www.w3.org/2000/svg">
<path d="M234.882 40.0089C235.552 45.788 235.426 51.4834 234.296 56.2993C233.877 58.4351 232.286 59.3145 230.275 58.5607C228.265 57.8907 227.847 56.2156 228.6 54.2892C230.066 50.5202 231.364 45.8299 231.616 40.1345C231.741 39.0038 232.286 38.3338 233.291 38.3757C234.212 38.3757 234.756 38.9201 234.882 39.967V40.0089ZM243.258 31.8427V88.2101C243.258 90.2203 242.127 91.3091 240.033 91.3091C237.939 91.3091 236.808 90.1784 236.808 88.2101V31.8009C236.808 29.7907 237.939 28.7019 240.033 28.7019C242.127 28.7019 243.258 29.7907 243.258 31.8009V31.8427ZM245.728 47.7981C245.477 44.5317 244.807 41.014 244.053 37.8731C243.844 36.8681 244.305 36.1143 245.142 35.863C246.022 35.6117 246.733 35.9886 247.152 36.8681C248.744 39.6739 249.958 43.3172 250.712 46.6674C251.131 48.4263 250.461 49.557 248.785 49.9758C247.194 50.3108 245.98 49.6408 245.77 47.84L245.728 47.7981ZM288.234 88.2101C287.69 90.4297 286.224 91.2253 283.544 90.6809C278.728 89.7596 273.158 88.0845 268.049 85.0693C261.935 88.2939 254.858 90.304 247.32 91.1835C246.063 91.3091 245.226 90.9741 245.058 89.9271C244.849 88.8383 245.184 88.0426 246.524 87.7076C252.889 86.2838 258.543 84.2736 263.233 81.8029C259.799 78.9971 256.742 75.5212 254.523 71.0822H251.256C250 71.0822 249.246 70.3284 249.246 69.072C249.246 67.8576 250 67.1457 251.256 67.1457H278.854C282.413 67.1457 283.879 69.7002 281.869 72.7573C279.775 76.0237 277.095 78.8714 274.038 81.2584C277.472 82.4729 281.157 83.2686 285.093 83.8549C287.983 84.2736 288.862 85.9906 288.234 88.2101ZM251.256 50.8552H282.413C284.675 50.8552 285.973 52.1116 285.973 54.4148V60.9059C285.973 63.1673 284.717 64.3817 282.413 64.3817H251.256C248.995 64.3817 247.697 63.1673 247.697 60.9059V54.4148C247.697 52.1534 248.953 50.8552 251.256 50.8552ZM252.387 44.7411V34.5648C252.387 32.3034 253.643 31.0052 255.947 31.0052H277.597C279.859 31.0052 281.157 32.2615 281.157 34.5648V44.7411C281.157 47.0025 279.901 48.3007 277.597 48.3007H255.947C253.685 48.3007 252.387 47.0443 252.387 44.7411ZM253.727 59.6914C253.727 60.1521 254.062 60.4871 254.523 60.4871H258.669V54.708H254.523C254.062 54.708 253.727 55.043 253.727 55.5036V59.6495V59.6914ZM258.543 37.7056H274.959V35.6117C274.959 35.1511 274.624 34.8161 274.163 34.8161H259.339C258.794 34.8161 258.543 35.1511 258.543 35.6117V37.7056ZM258.543 43.6104C258.543 44.071 258.794 44.4061 259.339 44.4061H274.163C274.624 44.4061 274.959 44.071 274.959 43.6104V41.349H258.543V43.6104ZM268.049 78.662C270.729 76.6519 272.865 74.4324 274.624 72.0453C274.959 71.5009 274.833 71.0403 274.163 71.0403H258.669C261.349 74.2649 264.49 76.7357 268.049 78.662ZM264.28 60.4871H269.096V54.708H264.28V60.4871ZM274.75 60.4871H279.105C279.566 60.4871 279.901 60.1521 279.901 59.6914V55.5455C279.901 55.0849 279.566 54.7498 279.105 54.7498H274.75V60.529V60.4871Z" fill="white"/>
<path d="M330.824 56.2145C330.824 66.6001 330.572 75.4363 329.819 83.435C329.232 90.0517 324.123 92.3549 315.999 88.4603C314.91 87.9159 314.575 87.1202 314.868 86.1989C315.203 85.1938 315.873 84.8588 317.088 85.0682C323.034 86.0733 323.537 85.4032 323.872 82.5137C324.458 76.8183 324.793 66.2232 324.793 57.5127C324.793 56.9683 324.458 56.717 323.998 56.717H319.726C319.182 73.8031 316.836 82.5974 309.466 90.2192C308.67 91.0986 307.665 91.1405 306.995 90.4704C306.116 89.8004 306.074 88.921 306.744 87.9159C312.314 79.2891 313.528 69.2803 313.528 45.075H308.042C306.702 45.075 305.948 44.2793 305.948 42.9811C305.948 41.6829 306.702 40.971 308.042 40.971H316.753V31.7579C316.753 29.664 318.009 28.4914 320.187 28.4914C322.364 28.4914 323.621 29.7059 323.621 31.7579V41.0128H330.866C332.206 41.0128 332.959 41.7666 332.959 43.023C332.959 44.3631 332.206 45.1169 330.866 45.1169H319.935V52.613H327.39C329.651 52.613 330.949 53.8693 330.949 56.2145H330.824ZM330.907 51.4404C330.154 50.7703 330.112 49.849 330.782 48.8859C334.551 44.0699 336.687 37.9139 338.027 31.1716C338.571 28.7427 340.288 27.947 342.591 28.3658C344.811 28.8264 345.523 30.5853 344.936 32.9304C344.518 34.5218 343.931 36.155 343.261 37.7464H362.567C363.991 37.7464 364.786 38.5002 364.786 39.7565C364.786 41.1804 363.991 41.976 362.567 41.976H341.167C339.241 45.41 336.686 48.6765 333.462 51.3566C332.541 52.1523 331.661 52.1523 330.907 51.4404ZM364.033 88.921C362.358 90.8473 360.222 91.0148 358.128 89.1303C351.846 83.435 346.779 73.0912 346.193 54.4556C344.727 54.7069 343.261 55 341.754 55.1256V81.5924C343.973 81.0479 346.109 80.4617 348.119 79.8335C349.585 79.3728 350.255 79.7079 350.716 80.6292C351.176 81.5505 350.967 82.4299 349.794 83.2256C345.983 85.822 339.869 88.2509 335.263 89.1722C333.169 89.6329 331.577 88.921 331.159 86.9527C330.614 84.7332 331.494 83.5187 333.923 83.0581C334.383 82.9743 334.844 82.9324 335.346 82.8068V52.3617C335.346 50.3516 336.477 49.2628 338.571 49.2628C340.372 49.2628 341.461 50.0584 341.712 51.6079C346.276 50.0584 351.092 47.797 354.526 45.4938C356.453 44.1537 358.212 44.4887 359.3 46.0382C360.431 47.5876 360.222 49.3884 358.044 50.5191C355.783 51.6498 352.935 52.6548 349.92 53.4505C350.255 57.5964 350.799 61.4073 351.679 64.8413C353.563 63.0824 355.238 61.156 356.788 59.0621C358.128 57.3033 359.677 57.1358 361.227 58.3921C362.776 59.6484 362.651 61.4073 361.017 62.9568C358.798 65.0925 356.076 67.0608 352.851 68.5265C354.945 74.2219 358.212 78.9122 363.237 82.9324C365.373 84.6913 365.708 86.8271 364.116 88.7534L364.033 88.921Z" fill="white"/>
<path d="M382.754 82.4309C382.754 80.5464 383.759 79.5413 385.685 79.5413H439.331C441.257 79.5413 442.262 80.5464 442.262 82.4309C442.262 84.3154 441.257 85.3204 439.331 85.3204H385.685C383.759 85.3204 382.754 84.3154 382.754 82.4309ZM387.654 36.9936C387.654 35.1928 388.659 34.1877 390.627 34.1877H434.473C436.399 34.1877 437.404 35.1928 437.404 36.9936C437.404 38.7943 436.399 39.8831 434.473 39.8831H390.627C388.701 39.8831 387.654 38.7943 387.654 36.9936ZM392.344 58.058C392.344 56.2992 393.433 55.2522 395.233 55.2522H429.866C431.667 55.2522 432.756 56.3411 432.756 58.058C432.756 59.775 431.667 60.8639 429.866 60.8639H395.233C393.433 60.8639 392.344 59.8588 392.344 58.058Z" fill="white"/>
<path d="M468.937 86.9965V34.9006C468.937 32.5554 470.277 31.2153 472.623 31.2153H507.088C509.433 31.2153 510.773 32.5554 510.773 34.9006V86.9127C510.773 89.2579 509.517 90.4723 507.172 90.4723C504.826 90.4723 503.57 89.2579 503.57 86.9127V82.8087H476.224V86.9546C476.224 89.216 474.968 90.4304 472.623 90.4304C470.277 90.4304 469.021 89.216 469.021 86.9546L468.937 86.9965ZM503.528 54.1643V36.6594C503.528 36.1988 503.193 35.8638 502.733 35.8638H476.978C476.517 35.8638 476.182 36.1988 476.182 36.6594V54.1643H503.528ZM503.528 78.1603V58.6452H476.182V78.1603H503.528Z" fill="white"/>
<path d="M593.315 89.1312C586.279 89.5919 576.898 89.7175 569.235 89.3825C558.849 88.9637 552.609 87.7074 548.589 80.5463C548.254 79.96 547.793 80.0019 547.5 80.6301C545.909 83.9384 544.695 86.5348 542.224 89.3406C540.674 91.0995 538.999 91.1414 537.533 89.55C535.984 88.0005 536.193 86.4092 537.868 84.8597C540.297 82.7239 542.643 80.5882 544.318 78.3687V63.9627C544.318 63.5021 543.983 63.167 543.522 63.167H538.371C537.031 63.167 536.277 62.3714 536.277 61.0732C536.277 59.7749 537.031 59.063 538.371 59.063H547.207C549.552 59.063 550.809 60.4031 550.809 62.6645V77.8242C553.908 82.5145 560.315 83.729 567.979 83.729C577.233 83.8128 586.028 83.059 593.063 82.2633C595.618 81.9283 596.958 83.1427 596.958 85.4041C597.042 87.6655 595.827 88.9637 593.356 89.1731L593.315 89.1312ZM538.162 45.0759C537.366 44.2802 537.282 43.5264 537.743 42.647C538.287 41.8513 539.083 41.5581 540.088 42.1025C543.019 43.317 546.37 45.4528 549.259 47.8817C551.144 49.3055 551.353 51.1481 549.72 52.8232C548.128 54.4984 546.453 54.3727 544.82 52.4882C542.936 49.8918 540.381 47.2116 538.12 45.034L538.162 45.0759ZM539.585 32.4288C538.832 31.6331 538.79 30.8374 539.25 30.0836C539.795 29.3298 540.507 29.0786 541.47 29.4974C544.359 30.628 547.752 32.6382 550.641 34.9415C552.442 36.3653 552.568 38.0823 551.102 39.7574C549.636 41.4325 547.877 41.3487 546.328 39.5061C544.401 37.0772 542.098 34.7321 539.544 32.4707L539.585 32.4288ZM551.646 41.1394C551.646 39.883 552.4 39.1292 553.656 39.1292H559.687V31.1306C559.687 29.2042 560.817 28.1154 562.911 28.1154C565.005 28.1154 566.052 29.2042 566.052 31.1306V39.1292H572.083C573.339 39.1292 574.093 39.883 574.093 41.1394C574.093 42.4794 573.339 43.2332 572.083 43.2332H563.707C563.707 45.4946 563.623 47.7142 563.581 49.7243H570.156C572.501 49.7243 573.841 51.0644 573.758 53.5352C573.548 65.2609 573.171 72.0451 572.669 75.4372C571.789 81.677 566.052 82.8077 559.854 78.8712C558.975 78.2849 558.765 77.5311 559.059 76.6098C559.394 75.8141 560.147 75.3953 561.278 75.6885C565.717 76.7773 566.429 76.5679 566.848 74.0134C567.308 70.9144 567.769 64.884 567.853 54.7077C567.853 54.1215 567.518 53.8283 567.057 53.8283H563.288C562.534 64.8003 560.273 72.0032 555.248 78.243C554.452 79.1643 553.656 79.3318 552.777 78.7037C551.981 78.1174 551.856 77.2798 552.442 76.2329C556.462 68.8624 557.551 61.6176 557.593 43.2332H553.656C552.4 43.2332 551.646 42.4376 551.646 41.1394ZM572.543 45.704C575.349 41.1394 576.563 36.4072 577.443 30.7537C577.778 28.5342 579.118 27.8641 581.212 28.1573C583.306 28.4923 584.227 30.0836 583.641 32.2613C583.18 33.727 582.719 35.2346 582.175 36.5328H594.571C595.827 36.5328 596.581 37.2866 596.581 38.5429C596.581 39.883 595.827 40.6368 594.571 40.6368H580.374C579.034 43.2332 577.485 45.5784 575.558 47.7979C574.763 48.7192 573.883 48.8867 573.088 48.2586C572.292 47.6723 572.083 46.8347 572.627 45.704H572.543ZM582.845 73.804V64.549H576.396C575.056 64.549 574.302 63.7952 574.302 62.4551C574.302 61.115 575.056 60.445 576.396 60.445H582.845V56.341C582.845 54.4565 583.976 53.4095 585.944 53.4095H586.279C586.949 52.2788 587.494 51.0644 587.87 49.9756C588.08 49.5149 587.954 49.0542 587.326 49.0542H578.867C577.527 49.0542 576.773 48.3004 576.773 47.0441C576.773 45.7878 577.527 45.034 578.867 45.034H591.011C594.152 45.034 595.031 47.1698 593.482 49.8499C592.268 52.0694 590.551 54.3308 589.001 55.8803V60.445H594.697C596.037 60.445 596.79 61.1988 596.79 62.4551C596.79 63.7115 596.037 64.549 594.697 64.549H589.001V75.8979C589.001 81.0488 583.557 82.8496 576.061 79.1225C574.972 78.578 574.637 77.7824 574.93 76.8611C575.265 75.9816 576.019 75.6047 577.192 75.7722C582.217 76.6517 582.803 76.1073 582.803 73.8459L582.845 73.804Z" fill="white"/>
<path d="M47.6935 8.20328C53.1115 13.6213 55.8586 20.222 55.8586 27.9293C55.8586 35.6366 53.1115 42.1611 47.6935 47.6554C42.1992 53.0733 35.5984 55.8205 27.9675 55.8205C20.3365 55.8205 13.6594 53.0733 8.24144 47.6554C2.82346 42.2374 0 35.5984 0 27.9675C0 20.3365 2.70899 13.6594 8.20328 8.24144C13.6213 2.70899 20.1839 0 27.9293 0C35.6747 0 42.1611 2.70899 47.6554 8.20328H47.6935ZM18.8485 11.2175C16.2539 13.5068 14.8422 16.6355 14.4988 20.7181H21.2522C21.4812 18.4288 22.1679 16.7118 23.3126 15.5672C24.4572 14.3462 26.0597 13.812 28.2346 13.812C30.2949 13.812 31.8593 14.3081 32.9276 15.3764C33.9578 16.3303 34.5301 17.6657 34.5301 19.3826C34.5301 21.0996 33.9578 22.5113 32.8894 23.4271C31.7448 24.2283 30.1423 24.6862 28.0819 24.6862H25.1059V29.9134H27.8912C30.2949 29.9134 32.1645 30.4857 33.4999 31.7448C34.6446 32.8513 35.255 34.3393 35.255 36.2089C35.255 37.9259 34.6064 39.2995 33.4999 40.4441C32.1264 41.7032 30.2949 42.3518 28.0056 42.3518C25.7163 42.3518 23.9994 41.7795 22.8547 40.7493C21.5193 39.4902 20.7944 37.468 20.6418 34.7209H13.7739C14.0028 39.185 15.529 42.5426 18.2762 44.9464C20.7944 47.083 24.0375 48.1514 28.0438 48.1514C32.279 48.1514 35.6747 47.0067 38.2311 44.7937C40.8256 42.5045 42.1229 39.6047 42.1229 35.98C42.1229 33.9196 41.5506 32.0882 40.4059 30.4857C39.185 28.8832 37.5825 27.7385 35.5984 27.0518C37.3154 26.365 38.689 25.2966 39.7573 23.8468C40.7875 22.3587 41.3598 20.7562 41.3598 18.9248C41.3598 15.4909 40.177 12.8582 37.7733 10.9123C35.3695 8.96638 32.1645 7.97436 28.2727 7.97436C24.3809 7.97436 21.2904 9.08084 18.8485 11.2557V11.2175Z" fill="white"/>
<path d="M77.2245 7.6687C83.8634 7.6687 88.8236 9.50013 92.2575 13.163C95.5388 16.5969 97.1795 21.5952 97.1795 28.1197C97.1795 34.6442 95.5388 39.5661 92.2575 43.0764C88.8236 46.7392 83.8634 48.5707 77.2245 48.5707H62.2678V7.6687H77.2245ZM68.9831 42.8093H75.9654C81.04 42.8093 84.7792 41.6265 87.1066 39.2609C89.3959 36.8571 90.5405 33.118 90.5405 28.1197C90.5405 23.1214 89.3959 19.1915 87.1066 16.9022C84.741 14.5747 81.04 13.3919 75.9654 13.3919H68.9831V42.8093Z" fill="white"/>
<path d="M127.742 21.4426C129.574 23.3503 130.489 26.0593 130.489 29.684V48.5707H124.423V44.6789C123.278 46.1669 121.866 47.2352 120.188 48.0365C118.28 48.8759 116.067 49.3338 113.51 49.3338C110.42 49.3338 108.016 48.5325 106.261 46.9682C104.43 45.3657 103.514 43.3816 103.514 40.9015C103.514 37.5821 104.773 35.0257 107.406 33.2324C109.809 31.5155 113.167 30.5997 117.517 30.4853L124.003 30.3327V29.188C124.003 25.2962 121.905 23.3885 117.631 23.3885C115.8 23.3885 114.388 23.6937 113.282 24.3423C112.022 25.1054 111.183 26.2501 110.801 27.7763L104.353 27.2803C105.002 23.999 106.566 21.5952 109.161 20.1072C111.336 18.7336 114.312 18.085 118.089 18.085C122.439 18.085 125.72 19.1915 127.78 21.3663L127.742 21.4426ZM117.936 35.2165C112.747 35.3309 110.153 37.1624 110.153 40.7108C110.153 41.7409 110.573 42.6185 111.488 43.2671C112.404 43.9539 113.549 44.3736 114.999 44.3736C117.517 44.3736 119.615 43.6105 121.37 42.1988C123.087 40.7108 124.003 38.8412 124.003 36.5519V35.0639L117.975 35.2165H117.936Z" fill="white"/>
<path d="M143.004 18.9625L150.864 40.0239L158.342 18.9625H165.439L149.414 59.8644H142.432L147.621 47.8457L135.907 18.9243H143.004V18.9625Z" fill="white"/>
<path d="M33.6508 65.5884V71.3116H20.2585V106.452H13.5432V71.3116H0.150879V65.5884H33.6508Z" fill="white"/>
<path d="M64.2129 80.4684C66.9219 83.3682 68.2573 87.1074 68.2573 91.686C68.2573 96.2645 66.8838 99.9274 64.2511 102.789C61.5039 105.765 57.8411 107.253 53.377 107.253C48.9128 107.253 45.25 105.765 42.5028 102.789C39.7938 99.9274 38.4966 96.2264 38.4966 91.686C38.4966 87.1455 39.832 83.4064 42.5791 80.4684C45.2881 77.4924 48.8747 76.0425 53.377 76.0425C57.8792 76.0425 61.4276 77.4924 64.1748 80.4684H64.2129ZM47.0814 84.5892C45.8223 86.4206 45.1737 88.8243 45.1737 91.686C45.1737 94.5476 45.8223 96.9132 47.0814 98.7064C48.5695 100.843 50.6298 101.911 53.377 101.911C56.1241 101.911 58.1845 100.805 59.6725 98.7064C60.9316 96.8369 61.6184 94.4713 61.6184 91.686C61.6184 88.9007 60.9316 86.4206 59.6725 84.5892C58.1845 82.4143 56.0859 81.3842 53.377 81.3842C50.668 81.3842 48.5695 82.4143 47.0814 84.5892Z" fill="white"/>
<path d="M82.2625 76.8818V94.8909C82.2625 97.2947 82.7204 99.0116 83.7505 100.156C84.7807 101.263 86.3832 101.835 88.6725 101.835C90.1224 101.835 91.4578 101.186 92.7932 100.004C94.0905 98.7445 95.0825 97.1039 95.6548 94.9672V76.8818H102.179V106.452H95.6548V102.636C93.1366 105.727 90.0461 107.253 86.3832 107.253C79.2864 107.253 75.738 103.247 75.738 95.3106V76.8818H82.2625Z" fill="white"/>
<path d="M128.43 76.8056V83.33C126.942 82.8722 125.568 82.6814 124.195 82.6814C122.478 82.6814 120.951 83.33 119.578 84.6655C117.975 86.2298 117.212 88.2139 117.212 90.7321V106.414H110.764V76.8437H117.212V81.0789C118.014 79.5909 118.929 78.4462 120.036 77.645C121.333 76.5385 122.897 76.0425 124.729 76.0425C126.179 76.0425 127.438 76.2714 128.468 76.8056H128.43Z" fill="white"/>
<path d="M207.181 85.8477L193.331 98.7058L190.698 95.9205L197.261 88.3659H152.467V83.3295H197.261L190.698 75.7748L193.331 72.9895L207.181 85.8858V85.8477Z" fill="white"/>
</svg>
