<svg width="508" height="507" viewBox="0 0 508 507" fill="none" xmlns="http://www.w3.org/2000/svg">
<path d="M253.767 507C361.742 507 453.935 439.424 490.438 344.24V343.564L2.25914 222.396C1.01908 232.591 0.365234 242.967 0.365234 253.5C0.365234 393.501 113.82 507 253.767 507Z" fill="#FDD23F"/>
<path d="M490.415 344.24C501.215 316.069 507.145 285.484 507.145 253.5C507.145 113.499 393.691 0 253.744 0C124.326 0 17.568 97.0784 2.23633 222.396L490.415 343.564V344.24Z" fill="#E6E400"/>
<path d="M184.795 38.6081C189.496 40.9763 192.679 44.6385 194.344 49.6435C195.985 54.6241 195.618 59.4583 193.243 64.1947C190.843 68.8824 187.146 72.0807 182.175 73.7165C177.155 75.3767 172.283 74.986 167.582 72.6178C162.831 70.2252 159.673 66.5385 158.032 61.5823C156.367 56.5773 156.71 51.7432 159.109 47.0312C161.46 42.3191 165.157 39.1696 170.201 37.5094C175.172 35.8736 180.045 36.2154 184.795 38.5837V38.6081ZM166.7 46.7382C165.525 48.7646 165.255 51.1084 165.916 53.8185L170.299 52.378C169.957 50.8399 170.03 49.5947 170.544 48.5937C171.034 47.5683 171.94 46.8603 173.36 46.3964C174.682 45.9569 175.809 45.9569 176.739 46.3964C177.621 46.8114 178.282 47.5439 178.649 48.6425C179.016 49.79 178.943 50.791 178.453 51.6211C177.89 52.378 176.935 53.0372 175.588 53.4522L173.654 54.087L174.78 57.4563L176.592 56.8459C178.159 56.3332 179.506 56.3088 180.632 56.8459C181.612 57.3098 182.346 58.1399 182.738 59.3606C183.105 60.4837 182.983 61.5091 182.493 62.4857C181.881 63.6088 180.828 64.39 179.335 64.8783C177.841 65.3666 176.617 65.3666 175.637 64.9272C174.511 64.39 173.605 63.267 172.895 61.5091L168.439 62.974C169.54 65.8305 171.279 67.686 173.556 68.6382C175.637 69.4683 177.988 69.4927 180.608 68.6382C183.35 67.7349 185.309 66.27 186.509 64.268C187.684 62.2415 187.929 60.0686 187.146 57.7248C186.705 56.382 185.946 55.3322 184.844 54.5265C183.718 53.7452 182.42 53.3546 180.975 53.3302C181.955 52.5245 182.616 51.5235 183.007 50.3516C183.35 49.1797 183.375 48.0077 183.007 46.8114C182.273 44.5897 180.926 43.1492 178.943 42.3924C176.96 41.6355 174.682 41.7087 172.136 42.5388C169.638 43.3689 167.826 44.7362 166.7 46.6649V46.7382Z" fill="#407611"/>
<path d="M224.094 32.0403C228.624 31.7718 232.101 32.846 234.598 35.2142C236.949 37.436 238.296 40.7564 238.54 45.1999C238.785 49.5945 237.855 53.0614 235.749 55.5761C233.545 58.2129 230.215 59.6534 225.661 59.8976L215.45 60.4835L213.859 32.6263L224.069 32.0403H224.094ZM219.833 56.3086L224.608 56.04C228.085 55.8447 230.583 54.8925 232.101 53.1835C233.57 51.4501 234.206 48.8865 234.011 45.444C233.815 41.9283 232.884 39.4136 231.219 37.9243C229.53 36.4106 226.934 35.7758 223.457 35.9711L218.683 36.2397L219.833 56.2842V56.3086Z" fill="#407611"/>
<path d="M260.797 42.5151C261.948 43.9067 262.413 45.8111 262.217 48.277L261.165 61.1191L257.027 60.7773L257.247 58.1405C256.39 59.0927 255.337 59.7519 254.162 60.1914C252.815 60.6797 251.272 60.8506 249.509 60.7041C247.404 60.5332 245.812 59.8496 244.686 58.7021C243.535 57.5057 243.021 56.0897 243.143 54.4295C243.339 52.1833 244.343 50.4987 246.228 49.4245C247.967 48.399 250.317 47.9596 253.305 48.1305L257.737 48.3746L257.81 47.5934C258.03 44.9566 256.684 43.5405 253.794 43.2964C252.546 43.1987 251.542 43.2964 250.783 43.7114C249.877 44.1509 249.24 44.8833 248.922 45.9087L244.539 45.2007C245.151 43.0278 246.375 41.4653 248.212 40.6107C249.779 39.8051 251.836 39.5365 254.431 39.7562C257.394 40.0004 259.549 40.9281 260.846 42.5151H260.797ZM253.354 51.3532C249.779 51.1335 247.942 52.2322 247.722 54.6492C247.673 55.3572 247.893 55.9676 248.481 56.4803C249.069 56.993 249.828 57.3348 250.807 57.4081C252.521 57.5546 254.015 57.1639 255.264 56.285C256.512 55.3572 257.247 54.1365 257.369 52.574L257.443 51.5485L253.329 51.3288L253.354 51.3532Z" fill="#407611"/>
<path d="M272.428 42.3194L275.366 57.3588L282.785 44.0284L287.585 44.8097L272.183 70.5672L267.482 69.7859L272.355 62.2662L267.678 41.5137L272.477 42.2949L272.428 42.3194Z" fill="#407611"/>
<path d="M329.552 48.9108L328.328 52.6219L319.611 49.7409L312.045 72.5199L307.686 71.0794L315.253 48.3005L306.536 45.4195L307.76 41.7085L329.528 48.8864L329.552 48.9108Z" fill="#407611"/>
<path d="M346.595 67.6364C347.428 70.2244 347.232 72.91 345.91 75.7421C344.612 78.5498 342.702 80.4542 340.229 81.4796C337.658 82.5294 334.964 82.4074 332.198 81.1378C329.382 79.8438 327.57 77.8906 326.713 75.2538C325.856 72.7147 326.101 70.0291 327.398 67.2214C328.721 64.3893 330.606 62.4605 333.153 61.4351C335.675 60.3608 338.319 60.5073 341.135 61.8013C343.902 63.0709 345.738 64.9996 346.595 67.612V67.6364ZM334.769 65.2926C333.471 66.0739 332.393 67.3923 331.561 69.1502C330.753 70.9324 330.459 72.5682 330.728 74.0575C331.047 75.791 332.026 77.0605 333.716 77.8418C335.381 78.6231 337.021 78.5498 338.539 77.6465C339.862 76.8408 340.963 75.5712 341.772 73.8378C342.58 72.0555 342.849 70.3709 342.604 68.8816C342.31 67.0993 341.282 65.8542 339.617 65.0973C337.903 64.316 336.336 64.3649 334.793 65.2926H334.769Z" fill="#407611"/>
<path d="M359.722 71.9573L353.38 82.5045C352.523 83.9206 352.204 85.0681 352.4 86.1179C352.621 87.1189 353.355 88.0222 354.702 88.8279C355.535 89.3406 356.563 89.4383 357.763 89.1941C358.987 88.9256 360.138 88.2908 361.215 87.2654L367.581 76.6938L371.401 78.9888L360.97 96.2988L357.151 94.0039L358.497 91.7577C355.926 92.6855 353.576 92.4901 351.421 91.2206C347.258 88.7303 346.597 85.1413 349.389 80.4781L355.877 69.6868L359.697 71.9818L359.722 71.9573Z" fill="#407611"/>
<path d="M386.999 90.0251L384.379 93.6385C383.743 92.784 383.057 92.1492 382.273 91.5876C381.318 90.904 380.217 90.6355 378.894 90.8308C377.376 91.0505 376.176 91.8562 375.148 93.2478L368.855 101.915L365.256 99.3271L377.131 82.9692L380.731 85.5572L379.017 87.901C380.07 87.3883 381.025 87.1442 381.955 87.1197C383.13 87.0465 384.183 87.3883 385.212 88.1207C385.995 88.7067 386.607 89.3171 386.975 90.0251H386.999Z" fill="#407611"/>
<path d="M423.677 132.458L410.749 131.896L410.847 129.284L417.703 128.844L396.155 107.091L398.604 104.674L420.176 126.427L420.69 119.615L423.334 119.542L423.726 132.458H423.677Z" fill="#407611"/>
</svg>
