<svg width="350" height="103" viewBox="0 0 350 103" fill="none" xmlns="http://www.w3.org/2000/svg">
<path d="M0 51.0505C0 22.8561 22.8561 0 51.0505 0H298.949C327.144 0 350 22.8561 350 51.0505C350 79.2449 327.144 102.101 298.949 102.101H51.0505C22.8561 102.101 0 79.2449 0 51.0505Z" fill="#ABCD03"/>
<g clip-path="url(#clip0_7101_619)">
<path d="M129.626 35.539C133.317 39.2993 135.18 43.8502 135.18 49.1919C135.18 54.5336 133.317 59.0478 129.626 62.8448C125.894 66.6051 121.432 68.5037 116.225 68.5037C111.018 68.5037 106.515 66.6051 102.824 62.8448C99.0972 59.0478 97.2698 54.4968 97.2698 49.1919C97.2698 43.887 99.0972 39.2993 102.824 35.539C106.515 31.7419 110.982 29.8801 116.225 29.8801C121.468 29.8801 125.899 31.7419 129.626 35.539ZM110.048 37.6352C108.302 39.2165 107.327 41.3955 107.097 44.2042H111.681C111.835 42.6229 112.304 41.4323 113.08 40.6416C113.856 39.8095 114.943 39.4142 116.419 39.4142C117.818 39.4142 118.864 39.7682 119.604 40.4807C120.304 41.1518 120.692 42.062 120.692 43.2526C120.692 44.4433 120.304 45.427 119.564 46.0614C118.788 46.6176 117.7 46.9302 116.302 46.9302H114.28V50.5296H116.184C117.818 50.5296 119.099 50.9249 119.992 51.7938C120.769 52.5477 121.197 53.5728 121.197 54.8783C121.197 56.0643 120.769 57.0159 119.992 57.8066C119.058 58.6754 117.818 59.1121 116.265 59.1121C114.713 59.1121 113.545 58.7168 112.769 58.0042C111.875 57.1354 111.37 55.7471 111.253 53.8486H106.592C106.745 56.9332 107.796 59.2684 109.66 60.9325C111.37 62.3989 113.585 63.1482 116.302 63.1482C119.176 63.1482 121.468 62.3576 123.214 60.813C124.96 59.2316 125.854 57.2136 125.854 54.7174C125.854 53.2924 125.466 52.0282 124.689 50.9204C123.873 49.8125 122.785 49.0218 121.427 48.5437C122.591 48.0702 123.525 47.3163 124.261 46.328C124.96 45.2983 125.348 44.1904 125.348 42.9263C125.348 40.5496 124.532 38.7292 122.903 37.3869C121.274 36.04 119.095 35.3689 116.455 35.3689C113.815 35.3689 111.717 36.1228 110.048 37.626V37.6352Z" fill="white"/>
<path d="M149.673 35.1804C154.18 35.1804 157.56 36.4492 159.888 38.9821C162.103 41.3541 163.227 44.8018 163.227 49.3114C163.227 53.821 162.103 57.2274 159.888 59.6408C157.56 62.1691 154.18 63.4379 149.673 63.4379H139.534V35.1804H149.673ZM144.078 59.4799H148.815C152.272 59.4799 154.798 58.6524 156.391 57.0251C157.943 55.361 158.724 52.7913 158.724 49.3068C158.724 45.8224 157.943 43.1331 156.391 41.5472C154.798 39.9245 152.276 39.1338 148.815 39.1338H144.078V59.4753V59.4799Z" fill="white"/>
<path d="M183.973 44.6822C185.214 45.9877 185.837 47.8863 185.837 50.3778V63.4377H181.722V60.7485C180.946 61.7782 179.976 62.5275 178.848 63.0838C177.566 63.6768 176.05 63.994 174.304 63.994C172.206 63.994 170.577 63.4377 169.372 62.3712C168.127 61.2634 167.504 59.8797 167.504 58.1788C167.504 55.885 168.357 54.1013 170.148 52.8785C171.782 51.6925 174.069 51.0582 177.02 50.98L181.411 50.8605V50.0698C181.411 47.376 179.976 46.0705 177.097 46.0705C175.856 46.0705 174.886 46.2681 174.146 46.7416C173.293 47.2565 172.711 48.0472 172.477 49.1182L168.091 48.7643C168.52 46.5072 169.607 44.8431 171.353 43.818C172.829 42.8664 174.85 42.4297 177.413 42.4297C180.364 42.4297 182.579 43.1836 183.978 44.6868L183.973 44.6822ZM177.332 54.2163C173.799 54.2944 172.048 55.5632 172.048 58.0179C172.048 58.7305 172.323 59.3235 172.941 59.797C173.56 60.2704 174.34 60.5509 175.31 60.5509C177.016 60.5509 178.455 60.036 179.624 59.0477C180.788 58.0179 181.411 56.7124 181.411 55.1311V54.1013L177.332 54.2209V54.2163Z" fill="white"/>
<path d="M194.342 42.9768L199.666 57.5399L204.756 42.9768H209.57L198.696 71.271H193.959L197.491 62.9597L189.532 42.9722H194.347L194.342 42.9768Z" fill="white"/>
<path d="M250.869 54.1016L241.47 63.0012L239.684 61.0659L244.15 55.8392H213.739V52.3593H244.15L239.684 47.1326L241.47 45.1973L250.869 54.1016Z" fill="white"/>
</g>
<defs>
<clipPath id="clip0_7101_619">
<rect width="153.599" height="41.3955" fill="white" transform="translate(97.2698 29.8801)"/>
</clipPath>
</defs>
</svg>
