<svg width="23" height="23" viewBox="0 0 23 23" fill="none" xmlns="http://www.w3.org/2000/svg">
<path d="M11.5189 22.6271C11.0309 20.8133 9.81092 18.516 8.5587 16.1727C6.80467 12.8719 5 9.47898 5 6.9976C5 5.06405 5.78264 3.31465 7.04867 2.04864C8.3147 0.782626 10.0687 0 11.9977 0C13.9267 0 15.6807 0.782626 16.9467 2.04864C18.2128 3.31465 18.9954 5.06405 18.9954 6.9976C18.9954 9.47898 17.1907 12.8673 15.4321 16.1681C14.1845 18.516 12.9599 20.8133 12.4719 22.6271C12.4028 22.8895 12.1312 23.046 11.8642 22.977C11.6846 22.9309 11.5557 22.7882 11.5143 22.6225L11.5189 22.6271Z" fill="#4B4B4B"/>
<path d="M11.9977 11.2192C14.342 11.2192 16.2424 9.3188 16.2424 6.97458C16.2424 4.63035 14.342 2.72998 11.9977 2.72998C9.65345 2.72998 7.75305 4.63035 7.75305 6.97458C7.75305 9.3188 9.65345 11.2192 11.9977 11.2192Z" fill="#F8F8F8"/>
</svg>
