<svg width="16" height="27" viewBox="0 0 16 27" fill="none" xmlns="http://www.w3.org/2000/svg">
<g clip-path="url(#clip0_7557_7364)">
<path d="M7.92578 0.632568C10.1103 0.632665 12.0965 1.51917 13.5303 2.95288C14.9641 4.38674 15.8506 6.36846 15.8506 8.55835C15.8504 11.3686 13.8071 15.2059 11.8154 18.9441C10.4024 21.6032 9.0156 24.2052 8.46289 26.2595C8.3847 26.5566 8.07675 26.7341 7.77441 26.656C7.57119 26.6039 7.42495 26.4422 7.37793 26.2546L7.38281 26.2595C6.83011 24.2052 5.4485 21.6029 4.03027 18.949C2.04389 15.2109 0.000228389 11.3686 0 8.55835C0 6.36847 0.886446 4.38674 2.32031 2.95288C3.75419 1.51903 5.74108 0.632568 7.92578 0.632568ZM7.92578 3.72437C5.27073 3.72437 3.11816 5.87697 3.11816 8.53198C3.11826 11.1869 5.27079 13.3396 7.92578 13.3396C10.5806 13.3393 12.7323 11.1868 12.7324 8.53198C12.7324 5.87713 10.5806 3.72462 7.92578 3.72437Z" fill="#ABCD03"/>
</g>
<defs>
<clipPath id="clip0_7557_7364">
<rect width="15.8561" height="26.0492" fill="white" transform="translate(0 0.632568)"/>
</clipPath>
</defs>
</svg>
