<svg width="508" height="507" viewBox="0 0 508 507" fill="none" xmlns="http://www.w3.org/2000/svg">
<path d="M253.767 507C361.742 507 453.935 439.424 490.438 344.24V343.564L2.25914 222.396C1.01908 232.591 0.365234 242.967 0.365234 253.5C0.365234 393.501 113.82 507 253.767 507Z" fill="#FDD23F"/>
<path d="M490.416 344.24C501.216 316.069 507.145 285.484 507.145 253.5C507.145 113.499 393.691 0 253.744 0C124.326 0 17.5683 97.0784 2.23657 222.396L490.416 343.564V344.24Z" fill="#F6AB00"/>
<path d="M179.926 49.8025C183.849 51.7648 186.532 54.8098 187.953 59.0051C189.351 63.1553 189.057 67.2152 187.118 71.185C185.134 75.1322 182.068 77.8163 177.919 79.2147C173.748 80.6131 169.69 80.3425 165.744 78.3801C161.776 76.4178 159.116 73.3277 157.718 69.1775C156.32 65.0048 156.568 60.9448 158.552 56.9976C160.491 53.0279 163.557 50.3889 167.751 48.9679C171.899 47.5695 175.958 47.8401 179.926 49.8025ZM164.527 58.9374L165.767 62.659C167.277 61.5989 168.54 60.2682 169.555 58.7344L175.033 75.0419L178.776 73.7788L171.742 52.8474L168.901 53.7948C167.909 55.9826 166.466 57.7194 164.527 58.9148V58.9374Z" fill="white"/>
<path d="M228.491 41.3214C231.918 44.0732 233.88 47.6369 234.354 52.0352C234.827 56.3884 233.677 60.2905 230.926 63.7415C228.153 67.1699 224.568 69.1322 220.217 69.6059C215.843 70.0796 211.92 68.9292 208.515 66.1775C205.065 63.4032 203.126 59.8169 202.653 55.4637C202.18 51.0654 203.307 47.1633 206.08 43.7574C208.831 40.3064 212.393 38.3667 216.79 37.893C221.141 37.4194 225.042 38.5471 228.491 41.3214ZM212.145 45.3589C210.883 47.0956 210.386 49.2384 210.634 51.7646L214.49 51.336C214.377 49.712 214.603 48.4038 215.099 47.5016C215.64 46.4415 216.519 45.8551 217.827 45.7197C218.999 45.5844 219.946 45.7648 220.578 46.2385C221.254 46.6896 221.66 47.5016 221.795 48.6294C221.93 49.8023 221.547 50.9526 220.758 52.1029C220.239 52.8247 219.36 53.7043 218.097 54.8321C215.82 56.7944 214.332 58.3282 213.611 59.3883C212.348 61.1702 211.829 63.2678 212.01 65.6136L227.409 63.9445L227.026 60.471L216.497 61.6213C216.902 60.5612 218.052 59.253 219.924 57.7418C221.908 56.0727 223.306 54.7193 224.095 53.7043C225.357 51.9901 225.876 50.1631 225.673 48.2685C225.448 46.2836 224.568 44.7499 223.08 43.6446C221.592 42.562 219.766 42.1334 217.624 42.359C215.211 42.6071 213.43 43.5995 212.168 45.3589H212.145Z" fill="white"/>
<path d="M277.598 44.299C280.349 47.7049 281.522 51.6069 281.048 56.0052C280.575 60.3584 278.636 63.9447 275.208 66.7191C271.759 69.4708 267.858 70.6437 263.507 70.17C259.11 69.6964 255.548 67.7566 252.797 64.3282C250.001 60.8772 248.874 56.9751 249.347 52.6219C249.821 48.2236 251.737 44.6599 255.187 41.9081C258.614 39.1113 262.492 37.9835 266.889 38.4572C271.24 38.9308 274.825 40.848 277.598 44.299ZM261.049 44.299C259.448 45.4493 258.456 47.141 258.005 49.4416L261.838 49.8476C262.109 48.562 262.605 47.6372 263.326 47.0508C264.048 46.4418 264.995 46.2162 266.235 46.3515C267.407 46.4643 268.264 46.8478 268.805 47.5019C269.324 48.1109 269.572 48.9003 269.482 49.8702C269.369 50.8852 268.963 51.6295 268.287 52.0806C267.588 52.464 266.641 52.6219 265.491 52.5092L263.8 52.3287L263.484 55.2835L265.085 55.4414C266.438 55.5767 267.475 56.0278 268.151 56.8172C268.738 57.4939 269.008 58.3961 268.895 59.4562C268.783 60.4261 268.354 61.1704 267.633 61.7569C266.776 62.3884 265.694 62.6365 264.409 62.5012C263.123 62.3659 262.176 61.9373 261.59 61.2832C260.914 60.4938 260.621 59.2983 260.688 57.742L256.788 57.336C256.653 59.8848 257.329 61.8922 258.727 63.426C260.035 64.7793 261.816 65.5913 264.093 65.8394C266.505 66.0875 268.49 65.6589 270.068 64.5312C271.669 63.3809 272.593 61.802 272.819 59.7494C272.931 58.5766 272.728 57.5165 272.165 56.524C271.578 55.5541 270.744 54.7873 269.639 54.291C270.654 53.9978 271.511 53.479 272.21 52.7347C272.886 51.9453 273.292 51.0656 273.405 50.0281C273.608 48.0657 273.089 46.5094 271.849 45.2689C270.609 44.0283 268.85 43.2614 266.641 43.0359C264.476 42.8103 262.627 43.2389 261.094 44.3216L261.049 44.299Z" fill="white"/>
<path d="M308.464 50.2759C312.14 51.2232 314.62 52.9374 315.995 55.4636C317.303 57.8319 317.528 60.8092 316.581 64.4407C315.657 68.027 314.033 70.5306 311.734 71.9967C309.321 73.5305 306.3 73.8462 302.625 72.8989L294.373 70.7787L300.19 48.1782L308.442 50.321L308.464 50.2759ZM298.905 68.5457L302.76 69.5382C305.578 70.2599 307.811 70.1246 309.434 69.1547C311.035 68.1623 312.207 66.2676 312.929 63.4708C313.673 60.6288 313.56 58.3733 312.636 56.7718C311.666 55.1478 309.772 53.975 306.954 53.2532L303.098 52.2607L298.905 68.5457Z" fill="white"/>
<path d="M334.776 66.6963C335.408 68.0721 335.385 69.7187 334.686 71.6585L331.101 81.8309L327.832 80.6806L328.576 78.583C327.674 79.1694 326.705 79.4852 325.645 79.598C324.472 79.7107 323.165 79.5303 321.789 79.0341C320.121 78.4476 318.994 77.568 318.317 76.3951C317.641 75.1771 317.528 73.9365 317.979 72.6058C318.61 70.8239 319.783 69.6736 321.541 69.2225C323.165 68.7488 325.149 68.9067 327.516 69.6736L331.033 70.8013L331.259 70.1924C332.003 68.0947 331.214 66.6737 328.937 65.8617C327.945 65.5234 327.133 65.3881 326.411 65.5685C325.6 65.7264 324.923 66.1775 324.427 66.9444L321.045 65.4332C321.992 63.7866 323.323 62.7942 324.991 62.501C326.411 62.1852 328.148 62.4107 330.177 63.11C332.522 63.9445 334.077 65.1399 334.754 66.6963H334.776ZM326.885 72.2675C324.067 71.3427 322.331 71.8389 321.654 73.7561C321.451 74.32 321.519 74.8388 321.88 75.4026C322.24 75.9665 322.781 76.3725 323.548 76.6432C324.901 77.1169 326.186 77.1169 327.381 76.6883C328.576 76.2146 329.433 75.3801 329.884 74.1395L330.154 73.3275L326.885 72.2675Z" fill="white"/>
<path d="M344.178 68.9971L343.389 81.8086L352.182 72.5609L355.88 74.2074L338.046 91.8457L334.393 90.2217L339.894 85.1468L340.458 67.3506L344.156 68.9971H344.178Z" fill="white"/>
<path d="M388.911 85.53L387.22 88.3269L380.681 84.3346L370.242 101.477L366.973 99.4918L377.412 82.3497L370.873 78.3574L372.564 75.5605L388.888 85.5075L388.911 85.53Z" fill="white"/>
<path d="M399.282 103.484C399.53 105.74 398.922 107.905 397.389 110.025C395.855 112.1 393.984 113.363 391.797 113.792C389.52 114.243 387.333 113.679 385.281 112.19C383.207 110.657 382.034 108.762 381.786 106.461C381.516 104.228 382.147 102.086 383.68 99.988C385.213 97.8903 387.085 96.6047 389.339 96.1987C391.571 95.725 393.713 96.2889 395.81 97.8001C397.862 99.3113 399.057 101.183 399.305 103.484H399.282ZM390.016 99.6045C388.821 100.033 387.716 100.913 386.747 102.244C385.777 103.552 385.281 104.86 385.236 106.123C385.213 107.612 385.8 108.785 387.062 109.732C388.302 110.634 389.655 110.86 391.053 110.386C392.27 109.935 393.375 109.078 394.322 107.792C395.292 106.484 395.788 105.131 395.81 103.867C395.855 102.356 395.224 101.183 393.984 100.259C392.721 99.3339 391.414 99.1083 389.993 99.6045H390.016Z" fill="white"/>
<path d="M409.18 108.807L402.507 116.634C401.605 117.671 401.176 118.596 401.199 119.476C401.244 120.333 401.717 121.168 402.732 122.025C403.363 122.543 404.175 122.792 405.19 122.746C406.227 122.679 407.264 122.318 408.301 121.619L414.997 113.769L417.838 116.183L406.858 129.039L404.017 126.626L405.438 124.957C403.205 125.363 401.289 124.889 399.688 123.536C396.599 120.897 396.554 117.852 399.508 114.401L406.339 106.394L409.158 108.807H409.18Z" fill="white"/>
<path d="M429.224 126.964L426.654 129.648C426.225 128.881 425.729 128.25 425.166 127.709C424.444 127.032 423.565 126.671 422.46 126.694C421.197 126.694 420.093 127.235 419.101 128.272L412.9 134.746L410.24 132.197L421.919 119.995L424.579 122.543L422.911 124.28C423.835 123.987 424.647 123.874 425.414 123.964C426.383 124.032 427.217 124.438 427.984 125.16C428.57 125.724 428.999 126.31 429.224 126.942V126.964Z" fill="white"/>
<path d="M455.964 164.857L445.255 163.526L445.503 161.339L451.23 161.451L434.771 141.851L436.98 140.001L453.439 159.602L454.318 153.94L456.505 154.053L455.964 164.835V164.857Z" fill="white"/>
</svg>
