<svg width="78" height="260" viewBox="0 0 78 260" fill="none" xmlns="http://www.w3.org/2000/svg">
<path d="M18.0208 32.5081C18.0208 26.5479 19.2176 21.1702 21.634 16.42C24.0277 11.6473 27.4602 7.8606 31.909 5.08216C36.3578 2.28131 41.5291 0.89209 47.4458 0.89209C53.3624 0.89209 58.5789 2.28131 63.1406 5.08216C67.7023 7.88301 71.2477 11.6698 73.7544 16.5096C76.2611 21.3271 77.5257 26.7047 77.5257 32.5977C77.5257 35.8019 77.1869 38.9164 76.5095 41.9861C75.832 45.0559 74.8835 47.7671 73.6866 50.1646L65.6699 49.6044C67.0926 47.431 68.1991 44.9662 69.0346 42.1654C69.8476 39.3645 70.2541 36.4517 70.2541 33.4267C70.2541 28.6541 69.2605 24.3744 67.2958 20.5877C65.3311 16.8009 62.6212 13.8208 59.1887 11.6922C55.7561 9.54111 51.8494 8.48799 47.4683 8.48799C43.0873 8.48799 39.0902 9.56352 35.748 11.6922C32.4058 13.8208 29.854 16.8233 28.0474 20.6325C26.2408 24.464 25.3375 28.7213 25.3375 33.4267C25.3375 37.2135 25.9472 40.8434 27.1441 44.2716C28.341 47.7223 30.0121 50.6576 32.1348 53.0999H23.5309C21.792 50.1646 20.4371 47.0052 19.466 43.6218C18.5176 40.2384 18.0208 36.5413 18.0208 32.5305V32.5081Z" fill="#F8F8F8"/>
<path d="M19.0823 62.8469C20.2791 63.1606 21.7244 63.3847 23.373 63.4967C25.0441 63.6088 27.0087 63.6536 29.3122 63.6536H66.1894C68.4928 63.6536 70.4575 63.6088 72.1286 63.4967C73.7997 63.3847 75.2224 63.1606 76.4419 62.8469V71.6976C75.245 71.4287 73.7997 71.2271 72.1286 71.0926C70.4575 70.9582 68.4928 70.891 66.1894 70.891H49.5687V71.5408C52.0753 72.4594 54.1755 73.7142 55.8692 75.3275C57.5629 76.9184 58.8501 78.8454 59.7534 81.0636C60.6567 83.2819 61.1083 85.7467 61.1083 88.4579C61.1083 92.0878 60.4309 95.2247 59.0985 97.8463C57.7661 100.468 55.7337 102.485 53.0238 103.896C50.3139 105.308 46.9943 106.002 43.0649 106.002H28.8831C26.6474 106.002 24.7279 106.07 23.1471 106.204C21.5664 106.338 20.1888 106.54 19.0597 106.809V98.0256C20.2566 98.2496 21.5664 98.4289 22.989 98.5857C24.4117 98.7426 26.2183 98.8322 28.3863 98.8322H41.8229C46.2039 98.8322 49.4783 97.6895 51.6463 95.4264C53.8368 93.1409 54.9207 89.9591 54.9207 85.8363C54.9207 83.0802 54.1981 80.5483 52.7528 78.2404C51.3075 75.9325 49.4106 74.1175 47.1072 72.7955C44.7812 71.4735 42.4326 70.8013 40.0163 70.8013L28.3863 70.891C26.3087 70.891 24.4569 70.9582 22.8536 71.0926C21.2502 71.2271 19.963 71.4287 19.0371 71.6976V62.8469H19.0823Z" fill="#F8F8F8"/>
<path d="M19.0823 119.738C20.2791 119.962 21.7244 120.141 23.373 120.298C25.0441 120.455 27.0087 120.544 29.3122 120.544H52.6625C54.5142 120.544 56.0047 120.5 57.1338 120.432C58.2629 120.343 59.234 120.231 60.047 120.074C59.776 120.612 59.5727 121.418 59.4372 122.516C59.3017 123.592 59.3017 124.712 59.4372 125.855C59.5727 126.998 59.776 127.782 60.047 128.208C59.234 128.051 58.2404 127.916 57.0661 127.849C55.8918 127.759 54.4239 127.737 52.6851 127.737H29.3347C27.0313 127.737 25.0666 127.804 23.3955 127.939C21.7244 128.073 20.3017 128.297 19.1049 128.633V119.783L19.0823 119.738ZM68.967 124.04C68.967 122.673 69.3961 121.553 70.2768 120.656C71.1576 119.76 72.2189 119.312 73.4836 119.312C74.7482 119.312 75.8095 119.76 76.6903 120.656C77.571 121.553 78.0001 122.673 78.0001 124.04C78.0001 125.407 77.571 126.594 76.7354 127.49C75.8773 128.387 74.8159 128.835 73.5061 128.835C72.1963 128.835 71.1801 128.387 70.2994 127.49C69.4187 126.594 68.9896 125.451 68.9896 124.04H68.967Z" fill="#F8F8F8"/>
<path d="M18.0209 156.574C18.0209 153.057 18.6306 149.987 19.8275 147.388C21.0243 144.789 22.6955 142.817 24.8182 141.45C26.941 140.083 29.3799 139.411 32.1124 139.411C34.8448 139.411 37.2838 140.083 39.4065 141.45C41.5293 142.794 43.2004 144.789 44.3972 147.388C45.5941 149.987 46.2038 153.057 46.2038 156.574C46.2038 160.428 45.3909 163.722 43.7424 166.501C42.0938 169.257 40.1743 171.161 37.9161 172.192V172.999H44.7134C48.4847 172.999 51.3075 171.811 53.2044 169.458C55.0788 167.106 56.0272 163.565 56.0272 158.86C56.0272 155.992 55.6433 153.124 54.8755 150.233C54.1077 147.365 53.4077 145.394 52.7528 144.296H58.3307C58.9855 145.864 59.6179 148.194 60.205 151.286C60.8147 154.379 61.1083 157.292 61.1083 160.07C61.1083 166.366 59.8889 171.251 57.4725 174.746C55.0336 178.242 51.1043 179.99 45.6393 179.99H28.996C26.3087 179.99 24.2536 180.034 22.8084 180.102C21.3631 180.191 20.121 180.415 19.0823 180.796V172.102C19.6242 172.326 20.4824 172.528 21.6567 172.707C22.8309 172.887 24.0956 172.999 25.4731 172.999H26.128V172.259C23.7794 171.296 21.8373 169.436 20.3017 166.702C18.7661 163.969 17.9983 160.585 17.9983 156.574H18.0209ZM23.0116 159.331C23.0116 162.087 23.3729 164.484 24.073 166.523C24.773 168.562 25.8118 170.131 27.1894 171.229C28.5443 172.349 30.2154 172.887 32.1801 172.887C33.6028 172.887 35.0255 172.304 36.4482 171.139C37.8709 169.974 39.0452 168.36 39.9711 166.299C40.897 164.238 41.3712 161.907 41.3712 159.308C41.3712 155.252 40.5356 152.071 38.8645 149.785C37.1934 147.5 34.9803 146.379 32.1801 146.379C29.3799 146.379 27.1668 147.522 25.4957 149.785C23.8246 152.071 22.989 155.23 22.989 159.308L23.0116 159.331Z" fill="#F8F8F8"/>
<path d="M0 213.488C0 209.701 0.383903 206.116 1.15171 202.755C1.91951 199.394 3.02606 196.279 4.5165 193.411H11.2461C9.32658 196.01 7.90388 198.946 6.95541 202.239C6.00695 205.511 5.51013 208.961 5.51013 212.614C5.51013 218.529 6.79734 223.302 9.39432 226.954C11.9913 230.606 16.1691 232.444 21.9728 232.444C23.2374 232.444 24.4569 232.264 25.6537 231.906C26.8506 231.547 28.1604 230.942 29.5831 230.069V229.419C27.0764 228.545 24.9763 227.268 23.2826 225.587C21.5889 223.907 20.3017 221.913 19.421 219.605C18.5402 217.297 18.1112 214.832 18.1112 212.166C18.1112 208.536 18.7661 205.399 20.0759 202.777C21.3856 200.156 23.3955 198.139 26.1054 196.727C28.8153 195.316 32.0897 194.621 35.9739 194.621H50.2235C52.414 194.621 54.2884 194.576 55.824 194.464C57.3822 194.352 58.7823 194.173 60.0469 193.904V202.598C58.85 202.329 57.5402 202.127 56.1175 201.993C54.6948 201.858 52.8882 201.791 50.7203 201.791H37.2837C32.9027 201.791 29.6283 202.934 27.4603 205.197C25.2698 207.483 24.1859 210.642 24.1859 214.698C24.1859 217.521 24.9311 220.075 26.399 222.383C27.8668 224.691 29.7638 226.484 32.0446 227.783C34.348 229.083 36.6966 229.733 39.0903 229.733H50.8107C52.8205 229.733 54.6271 229.665 56.2079 229.531C57.7886 229.396 59.0759 229.195 60.0469 228.926V237.799C58.7371 237.53 57.4273 237.328 56.1627 237.194C54.8755 237.06 53.1367 236.992 50.9687 236.992H29.8315C29.8315 236.992 29.6057 237.037 29.5153 237.104C29.4024 237.194 29.2895 237.261 29.1992 237.306C27.7765 238.001 26.4441 238.538 25.2247 238.897C24.0052 239.255 22.6954 239.39 21.3405 239.345C16.5304 239.39 12.5333 238.27 9.32658 235.939C6.11986 233.609 3.79386 230.494 2.28083 226.596C0.790388 222.697 0.0225825 218.327 0.0225825 213.51L0 213.488Z" fill="#F8F8F8"/>
<path d="M19.0823 250.795C20.2791 251.019 21.7244 251.198 23.373 251.355C25.0441 251.512 27.0087 251.602 29.3122 251.602H52.6625C54.5142 251.602 56.0047 251.557 57.1338 251.489C58.2629 251.4 59.234 251.288 60.047 251.131C59.776 251.669 59.5727 252.475 59.4372 253.573C59.3017 254.649 59.3017 255.769 59.4372 256.912C59.5727 258.055 59.776 258.839 60.047 259.265C59.234 259.108 58.2404 258.973 57.0661 258.906C55.8918 258.817 54.4239 258.794 52.6851 258.794H29.3347C27.0313 258.794 25.0666 258.861 23.3955 258.996C21.7244 259.13 20.3017 259.354 19.1049 259.69V250.84L19.0823 250.795ZM68.967 255.097C68.967 253.73 69.3961 252.61 70.2768 251.714C71.1576 250.817 72.2189 250.369 73.4836 250.369C74.7482 250.369 75.8095 250.817 76.6903 251.714C77.571 252.61 78.0001 253.73 78.0001 255.097C78.0001 256.464 77.571 257.651 76.7354 258.548C75.8773 259.444 74.8159 259.892 73.5061 259.892C72.1963 259.892 71.1801 259.444 70.2994 258.548C69.4187 257.651 68.9896 256.509 68.9896 255.097H68.967Z" fill="#F8F8F8"/>
</svg>
