<svg width="694" height="241" viewBox="0 0 694 241" fill="none" xmlns="http://www.w3.org/2000/svg">
<g clip-path="url(#clip0_9101_269)">
<path d="M26.901 80.4452C27.1983 78.6548 27.4372 76.598 27.6283 74.2854C27.8142 71.9728 27.9097 69.3565 27.9097 66.4418V12.2131H10.6022C7.99544 12.2131 5.91429 12.309 4.35343 12.4955C2.79256 12.682 1.33788 13.0017 0 13.4493L1.78384 2.01953H63.9635L65.8589 13.4493C64.521 13.0017 63.0291 12.682 61.3939 12.4955C59.7588 12.309 57.6723 12.2131 55.1399 12.2131H38.0606V66.4418C38.0606 69.5803 38.1509 72.2872 38.342 74.5625C38.5278 76.8431 38.8039 78.804 39.1808 80.4452H26.901Z" fill="#F6AB00"/>
<path d="M78.2502 80.4452C78.6961 78.804 78.9935 76.8431 79.1421 74.5625C79.2908 72.2872 79.3651 69.575 79.3651 66.4418V16.023C79.3651 12.8845 79.2908 10.1776 79.1421 7.90226C78.9935 5.62696 78.6961 3.66606 78.2502 2.01953H90.4185C90.0469 3.66073 89.7655 5.62164 89.5797 7.90226C89.3939 10.1829 89.2983 12.8898 89.2983 16.023V38.7653H90.1903C91.4538 35.3283 93.1846 32.4563 95.3825 30.1383C97.5752 27.8257 100.198 26.0513 103.251 24.8151C106.303 23.5842 109.685 22.9661 113.407 22.9661C118.392 22.9661 122.692 23.8826 126.302 25.7103C129.913 27.5433 132.684 30.3035 134.616 34.0015C136.549 37.6996 137.521 42.2395 137.521 47.616V67.0013C137.521 70.0652 137.611 72.6815 137.802 74.8449C137.988 77.0137 138.264 78.8786 138.641 80.4452H126.584C126.881 78.804 127.141 77.0083 127.364 75.0687C127.587 73.1291 127.699 70.662 127.699 67.6727V49.2998C127.699 43.3265 126.138 38.8452 123.011 35.8559C119.884 32.8666 115.493 31.3746 109.839 31.3746C106.043 31.3746 102.566 32.3657 99.4015 34.3426C96.2373 36.3248 93.7473 38.8985 91.921 42.0743C90.0947 45.2501 89.1868 48.4792 89.1868 51.7669L89.2983 67.678C89.2983 70.5181 89.3886 73.0385 89.5797 75.2392C89.7655 77.4453 90.0416 79.1824 90.4185 80.4506H78.2502V80.4452Z" fill="#F6AB00"/>
<path d="M186.98 81.9C180.28 81.9 174.365 80.6477 169.232 78.1487C164.098 75.6442 160.095 72.1753 157.233 67.7313C154.366 63.2873 152.933 58.1879 152.933 52.4384C152.933 46.6888 154.308 41.7919 157.063 37.3106C159.813 32.8293 163.593 29.3177 168.393 26.7814C173.192 24.245 178.607 22.9714 184.633 22.9714C190.659 22.9714 195.867 23.8506 200.263 25.6037C204.654 27.3568 207.982 29.7334 210.255 32.7174C212.522 35.7067 213.658 39.069 213.658 42.799C213.658 46.529 212.729 49.7101 210.865 52.0973C209.002 54.4899 206.156 56.227 202.323 57.3087C198.49 58.3904 193.595 58.9339 187.643 58.9339C182.807 58.9339 178.268 58.3371 174.026 57.1435C169.784 55.9499 165.951 54.3407 162.526 52.3265L161.969 52.7741C162.043 57.0316 163.291 60.7829 165.706 64.0333C168.122 67.2837 171.36 69.8201 175.417 71.6531C179.473 73.4862 183.879 74.3973 188.647 74.3973C193.414 74.3973 198.06 73.7792 202.376 72.5483C206.692 71.3174 209.894 69.7295 211.975 67.7846L212.198 76.2996C209.665 77.9408 206.018 79.289 201.256 80.3334C196.494 81.3778 191.731 81.9 186.969 81.9H186.98ZM184.856 53.1044C190.362 53.1044 194.975 52.3584 198.697 50.8611C202.418 49.3691 204.277 46.6409 204.277 42.6818C204.277 40.4384 203.422 38.387 201.707 36.522C199.992 34.657 197.593 33.1437 194.508 31.982C191.418 30.8257 188.015 30.2449 184.293 30.2449C180.795 30.2449 177.445 30.9376 174.249 32.3177C171.047 33.6978 168.366 35.7173 166.211 38.3656C164.05 41.0193 162.749 44.1365 162.303 47.7226C165.207 49.3638 168.648 50.6746 172.629 51.6444C176.611 52.6142 180.683 53.0991 184.851 53.0991L184.856 53.1044Z" fill="#F6AB00"/>
<path d="M303.407 82.0118C301.469 82.0118 299.5 81.8999 297.493 81.6761C295.481 81.4523 293.251 81.1912 290.793 80.8928C288.335 80.5198 286.068 80.2215 283.981 79.9977C281.895 79.7738 279.777 79.6619 277.621 79.6619C273.751 79.6619 269.934 79.8857 266.18 80.3333C262.421 80.7809 259.427 81.3404 257.192 82.0118C257.638 80.3706 257.956 78.1273 258.142 75.2872C258.328 72.4471 258.424 69.5004 258.424 66.4365V16.023C258.424 12.8845 258.328 10.1616 258.142 7.84364C257.956 5.53105 257.638 3.58613 257.192 2.01953H269.695C269.323 3.66073 269.042 5.62164 268.856 7.90226C268.67 10.1829 268.575 12.8898 268.575 16.023V71.035H300.503C305.042 71.035 308.653 70.8485 311.334 70.4755C314.015 70.1025 316.245 69.5803 318.034 68.9089L317.142 80.1149C316.77 80.1895 316.399 80.2854 316.027 80.3973C315.655 80.5092 315.284 80.5998 314.912 80.6797C312.974 81.1273 311.079 81.463 309.221 81.6868C307.357 81.9106 305.425 82.0225 303.418 82.0225L303.407 82.0118Z" fill="#F6AB00"/>
<path d="M350.069 81.8999C345.232 81.8999 341.027 81.0793 337.454 79.4328C333.881 77.7863 331.163 75.511 329.305 72.5963C327.447 69.6815 326.512 66.3618 326.512 62.6265C326.512 58.8912 327.442 55.5662 329.305 52.6568C331.163 49.7421 333.881 47.4668 337.454 45.8202C341.027 44.1791 345.232 43.3531 350.069 43.3531C355.351 43.3531 359.891 44.4721 363.686 46.7154C367.482 48.9588 370.084 51.6071 371.501 54.671H372.616V45.3727C372.616 40.2199 370.997 36.3514 367.759 33.7777C364.52 31.1987 359.668 29.9145 353.19 29.9145C349.246 29.9145 345.301 30.4367 341.357 31.4811C337.412 32.5255 334.694 33.4953 333.207 34.3958V26.776C335.363 25.8808 338.564 25.0229 342.806 24.197C347.048 23.3764 351.067 22.9661 354.863 22.9661C363.495 22.9661 370.211 24.6286 375.011 27.9536C379.81 31.2786 382.21 36.6764 382.21 44.1418V66.884C382.21 70.5448 382.268 73.3636 382.38 75.3458C382.491 77.328 382.804 79.0278 383.33 80.4452H371.385C371.682 79.6992 371.958 78.5216 372.223 76.9177C372.484 75.3138 372.616 73.5767 372.616 71.7064V70.8112H371.613C370.275 74.0243 367.721 76.6779 363.968 78.7667C360.209 80.8555 355.574 81.9052 350.069 81.9052V81.8999ZM353.865 75.0634C357.661 75.0634 360.952 74.5785 363.745 73.6087C366.537 72.6389 368.693 71.2215 370.222 69.3512C371.746 67.4862 372.51 65.2055 372.51 62.5146C372.51 60.575 371.708 58.6301 370.11 56.6905C368.507 54.7509 366.293 53.1417 363.469 51.8735C360.639 50.6053 357.443 49.9712 353.87 49.9712C348.29 49.9712 343.937 51.1115 340.81 53.3868C337.683 55.6674 336.122 58.71 336.122 62.5199C336.122 66.3299 337.683 69.3725 340.81 71.6531C343.937 73.9337 348.29 75.0687 353.87 75.0687L353.865 75.0634Z" fill="#F6AB00"/>
<path d="M400.08 80.4452C400.452 78.804 400.733 77.0669 400.919 75.2339C401.105 73.4062 401.2 70.9977 401.2 68.0084V37.5343C401.2 34.3958 401.105 31.8221 400.919 29.8026C400.733 27.7831 400.452 25.9927 400.08 24.4261H412.36L412.248 24.6499C411.877 25.8435 411.595 27.1916 411.409 28.6836C411.224 30.1809 411.128 32.1205 411.128 34.5077V38.7652H412.02C413.284 35.3283 415.014 32.4562 417.212 30.1383C419.405 27.8257 422.028 26.0513 425.08 24.8151C428.133 23.5842 431.515 22.9661 435.237 22.9661C440.222 22.9661 444.538 23.8826 448.185 25.7103C451.833 27.5433 454.62 30.3248 456.558 34.0601C458.49 37.7954 459.462 42.3141 459.462 47.616V67.0013C459.462 70.0652 459.536 72.6602 459.685 74.7863C459.833 76.9124 460.094 78.804 460.465 80.4452H448.408C448.706 78.804 448.966 77.0083 449.189 75.0687C449.412 73.1291 449.523 70.662 449.523 67.6727V49.2998C449.523 43.3265 447.962 38.8452 444.835 35.8558C441.708 32.8665 437.318 31.3745 431.664 31.3745C427.868 31.3745 424.39 32.3656 421.226 34.3425C418.062 36.3248 415.588 38.8985 413.804 42.0743C412.02 45.2501 411.123 48.4792 411.123 51.7669V67.7899C411.123 70.4808 411.197 72.9266 411.346 75.1273C411.494 77.3333 411.792 79.1024 412.238 80.4505H400.069L400.08 80.4452Z" fill="#F6AB00"/>
<path d="M501.775 81.8999C496.418 81.8999 491.688 80.6264 487.6 78.09C483.507 75.5536 480.326 72.0581 478.054 67.6141C475.782 63.1701 474.651 58.1079 474.651 52.433C474.651 46.7581 475.766 41.7706 478.001 37.252C480.236 32.7333 483.379 29.2218 487.435 26.7227C491.491 24.2183 496.158 22.9714 501.446 22.9714C507.174 22.9714 512.144 24.4101 516.348 27.2822C520.553 30.1596 523.473 33.9109 525.114 38.5415H526.229V16.023C526.229 13.0337 526.117 10.4014 525.894 8.12606C525.671 5.85076 525.411 3.81526 525.114 2.01953H537.059C536.762 3.66073 536.502 5.65894 536.279 8.01416C536.056 10.3694 535.944 13.039 535.944 16.023V66.4418C535.944 69.5057 536.056 72.1966 536.279 74.5092C536.502 76.8272 536.762 78.804 537.059 80.4452H525.114C525.485 79.0278 525.767 77.4932 525.952 75.852C526.138 74.2108 526.234 72.4524 526.234 70.5874V66.1061H525.119C523.335 70.5128 520.373 74.2481 516.242 77.312C512.112 80.376 507.291 81.9053 501.786 81.9053L501.775 81.8999ZM505.459 73.8325C509.255 73.8325 512.733 72.7668 515.897 70.6407C519.061 68.5093 521.551 65.8077 523.378 62.52C525.199 59.2323 526.112 55.8753 526.112 52.4383C526.112 48.4046 525.199 44.7652 523.378 41.5148C521.551 38.2644 519.083 35.7067 515.955 33.8417C512.828 31.9767 509.33 31.0389 505.465 31.0389C501.372 31.0389 497.708 31.9554 494.47 33.7831C491.231 35.6161 488.704 38.1525 486.878 41.4029C485.051 44.6533 484.144 48.33 484.144 52.4383C484.144 56.5467 485.051 60.2234 486.878 63.4738C488.699 66.7242 491.231 69.2659 494.47 71.0936C497.708 72.9267 501.372 73.8378 505.465 73.8378L505.459 73.8325Z" fill="#F6AB00"/>
<path d="M611.508 81.8999C605.402 81.8999 600.008 80.6104 595.321 78.0367C590.633 75.4577 586.964 71.9675 584.326 67.5608C581.682 63.154 580.365 58.1132 580.365 52.433C580.365 46.7527 581.687 41.8078 584.326 37.3638C586.964 32.9198 590.649 29.4083 595.379 26.8293C600.104 24.2502 605.482 22.9661 611.508 22.9661C617.534 22.9661 623.007 24.2556 627.695 26.8293C632.383 29.403 636.046 32.9198 638.69 37.3638C641.329 41.8078 642.651 46.8327 642.651 52.433C642.651 58.0333 641.329 63.0741 638.69 67.5608C636.046 72.0421 632.362 75.5536 627.637 78.09C622.912 80.6264 617.534 81.8999 611.508 81.8999ZM611.508 74.2801C615.527 74.2801 619.174 73.3636 622.45 71.5359C625.726 69.7082 628.327 67.1291 630.265 63.8041C632.197 60.4791 633.169 56.6905 633.169 52.433C633.169 48.1755 632.203 44.3869 630.265 41.0618C628.327 37.7368 625.726 35.1631 622.45 33.3301C619.174 31.5024 615.527 30.5859 611.508 30.5859C607.489 30.5859 603.73 31.5024 600.454 33.3301C597.179 35.1631 594.593 37.7368 592.698 41.0618C590.797 44.3869 589.852 48.1755 589.852 52.433C589.852 56.6905 590.803 60.4844 592.698 63.8041C594.593 67.1291 597.179 69.7082 600.454 71.5359C603.73 73.3689 607.415 74.2801 611.508 74.2801Z" fill="#F6AB00"/>
<path d="M666.876 80.4454C667.248 78.8042 667.529 76.8593 667.715 74.6213C667.901 72.378 667.996 69.767 667.996 66.7777V31.7051H650.583V24.421H667.885V23.5258C665.724 23.0782 663.754 22.4068 661.97 21.5063C660.187 20.6111 658.732 19.4335 657.617 17.9788C656.502 16.5241 655.945 14.6751 655.945 12.4317C655.945 9.96461 656.688 7.80121 658.18 5.93089C659.666 4.06589 661.806 2.60587 664.598 1.56147C667.391 0.517072 670.683 -0.00512695 674.479 -0.00512695C676.937 -0.00512695 679.294 0.314586 681.566 0.948685C683.833 1.58278 686.312 2.5366 688.988 3.80479V11.8722C687.05 10.4548 684.969 9.35182 682.739 8.56852C680.504 7.78522 678.275 7.39091 676.039 7.39091C671.946 7.39091 668.856 8.08362 666.775 9.46372C664.689 10.8491 663.648 12.842 663.648 15.4583C663.648 18.2239 665.618 20.3713 669.562 21.9006C673.507 23.4299 678.121 24.2718 683.403 24.421H694.005V31.7051H677.929V66.7724C677.929 69.7617 678.02 72.3727 678.211 74.616C678.397 76.8593 678.673 78.7989 679.05 80.4401H666.881L666.876 80.4454Z" fill="#F6AB00"/>
<path d="M34.3815 216.35C29.5449 216.35 23.9067 215.604 17.4721 214.107C11.0322 212.615 5.65416 210.782 1.3432 208.618L1.56618 197.077C5.88245 200.141 11.0906 202.496 17.196 204.137C23.2962 205.778 28.9928 206.604 34.2753 206.604C38.3686 206.604 41.9575 206.098 45.0474 205.091C48.1319 204.084 50.5529 202.608 52.3048 200.663C54.0515 198.723 54.9275 196.405 54.9275 193.714C54.9275 191.024 53.9984 188.727 52.135 187.048C50.2715 185.37 47.9302 184.064 45.1005 183.127C42.2707 182.194 38.4004 181.24 33.4895 180.271C27.1611 178.853 22.0273 177.452 18.0827 176.072C14.138 174.692 10.7721 172.523 7.97952 169.571C5.18696 166.619 3.79599 162.569 3.79599 157.416C3.79599 153.159 5.08078 149.333 7.64505 145.933C10.2146 142.534 13.7876 139.864 18.364 137.924C22.9404 135.985 28.1327 135.01 33.9355 135.01C38.995 135.01 43.8688 135.553 48.5567 136.635C53.2445 137.717 57.2263 139.043 60.502 140.61V151.704C57.3007 149.765 53.4144 148.155 48.838 146.887C44.2616 145.619 39.3295 144.985 34.047 144.985C29.9537 144.985 26.4179 145.491 23.4395 146.498C20.4611 147.505 18.1729 148.944 16.5749 150.809C14.9716 152.679 14.1752 154.768 14.1752 157.086C14.1752 159.926 15.1255 162.201 17.0208 163.923C18.9162 165.644 21.2999 166.965 24.1668 167.898C27.0284 168.83 30.9571 169.859 35.9423 170.978C42.1911 172.4 47.309 173.78 51.2908 175.123C55.2726 176.466 58.6386 178.613 61.394 181.565C64.144 184.517 65.5244 188.493 65.5244 193.496C65.5244 197.977 64.2396 201.958 61.6753 205.427C59.1058 208.901 55.4584 211.592 50.7334 213.494C46.0083 215.396 40.5559 216.35 34.3815 216.35Z" fill="#F6AB00"/>
<path d="M105.045 216.35C100.06 216.35 95.7435 215.434 92.0962 213.606C88.4489 211.778 85.6563 209.013 83.7238 205.315C81.786 201.617 80.8198 197.119 80.8198 191.812V172.315C80.8198 169.251 80.7454 166.656 80.5968 164.53C80.4481 162.399 80.2252 160.518 79.9279 158.871H91.8732C91.5016 160.512 91.2202 162.308 91.0344 164.248C90.8486 166.192 90.753 168.654 90.753 171.644V190.016C90.753 195.995 92.3139 200.476 95.4409 203.46C98.568 206.45 102.921 207.942 108.501 207.942C112.372 207.942 115.886 206.951 119.05 204.974C122.215 202.997 124.689 200.418 126.472 197.242C128.256 194.066 129.153 190.837 129.153 187.549V171.526C129.153 168.835 129.058 166.39 128.872 164.189C128.686 161.988 128.405 160.214 128.033 158.866H140.202C139.83 160.587 139.549 162.34 139.363 164.13C139.177 165.921 139.081 168.313 139.081 171.303V201.777C139.081 204.841 139.172 207.377 139.363 209.396C139.549 211.416 139.825 213.244 140.202 214.885H127.922L128.033 214.661C128.405 213.467 128.681 212.125 128.872 210.627C129.058 209.135 129.153 207.19 129.153 204.803V200.658H128.15C126.881 204.02 125.172 206.86 123.016 209.173C120.855 211.491 118.254 213.26 115.201 214.496C112.149 215.727 108.761 216.345 105.045 216.345V216.35Z" fill="#F6AB00"/>
<path d="M157.286 214.895C157.658 213.254 157.939 211.517 158.125 209.684C158.311 207.856 158.406 205.448 158.406 202.459V171.985C158.406 168.846 158.311 166.272 158.125 164.253C157.939 162.239 157.658 160.443 157.286 158.876H169.566L169.454 159.1C169.083 160.294 168.801 161.642 168.616 163.134C168.43 164.631 168.334 166.571 168.334 168.958V173.215H169.226C170.49 169.779 172.221 166.906 174.418 164.588C176.611 162.276 179.234 160.501 182.286 159.265C185.339 158.034 188.721 157.416 192.443 157.416C197.428 157.416 201.744 158.333 205.392 160.16C209.039 161.993 211.826 164.775 213.764 168.505C215.696 172.24 216.668 176.759 216.668 182.061V201.446C216.668 204.51 216.742 207.105 216.891 209.231C217.04 211.363 217.3 213.249 217.671 214.89H205.614C205.912 213.249 206.172 211.453 206.395 209.514C206.618 207.574 206.729 205.107 206.729 202.118V183.745C206.729 177.771 205.169 173.29 202.041 170.301C198.914 167.317 194.524 165.819 188.87 165.819C185.074 165.819 181.596 166.811 178.432 168.787C175.268 170.77 172.794 173.343 171.01 176.519C169.226 179.695 168.329 182.924 168.329 186.212V202.235C168.329 204.926 168.403 207.371 168.552 209.572C168.701 211.778 168.998 213.547 169.444 214.895H157.276H157.286Z" fill="#F6AB00"/>
<path d="M234.867 214.895C235.239 213.105 235.52 211.07 235.706 208.789C235.892 206.514 235.988 203.876 235.988 200.892V150.473C235.988 147.489 235.892 144.852 235.706 142.576C235.52 140.301 235.239 138.26 234.867 136.47H246.924C246.627 138.111 246.383 140.109 246.197 142.464C246.011 144.82 245.916 147.489 245.916 150.473V200.892C245.916 203.956 246.006 206.647 246.197 208.959C246.383 211.277 246.622 213.254 246.924 214.895H234.867Z" fill="#F6AB00"/>
<path d="M269.583 146.663C267.725 146.663 266.18 146.067 264.948 144.873C263.722 143.679 263.106 142.225 263.106 140.504C263.106 138.782 263.722 137.328 264.948 136.134C266.175 134.941 267.72 134.344 269.583 134.344C271.447 134.344 273.098 134.925 274.33 136.081C275.556 137.237 276.172 138.713 276.172 140.504C276.172 142.294 275.556 143.679 274.33 144.873C273.103 146.067 271.521 146.663 269.583 146.663ZM263.669 214.896C263.966 213.254 264.226 211.293 264.449 209.013C264.672 206.738 264.784 204.025 264.784 200.892V168.963C264.784 166.427 264.725 164.391 264.614 162.857C264.502 161.328 264.333 160.001 264.11 158.882C264.853 159.255 265.968 159.537 267.46 159.724C268.946 159.91 270.475 159.91 272.036 159.724C273.597 159.537 274.675 159.26 275.275 158.882C275.052 160.001 274.882 161.365 274.77 162.969C274.659 164.578 274.6 166.571 274.6 168.963V200.892C274.6 204.031 274.691 206.738 274.882 209.013C275.068 211.293 275.386 213.254 275.832 214.896H263.664H263.669Z" fill="#F6AB00"/>
<path d="M317.922 241C312.635 241 307.708 240.478 303.131 239.433C298.555 238.389 294.292 236.854 290.347 234.84V225.654C293.994 228.27 298.066 230.226 302.569 231.536C307.071 232.842 311.817 233.497 316.802 233.497C321.787 233.497 326.624 232.751 330.643 231.254C334.662 229.757 337.879 227.348 340.3 224.028C342.716 220.703 343.926 216.355 343.926 210.973C343.926 209.258 343.682 207.574 343.199 205.933C342.716 204.291 341.914 202.496 340.799 200.556H339.907C338.044 204.963 335.087 208.698 331.03 211.762C326.974 214.826 322.117 216.355 316.462 216.355C311.175 216.355 306.471 215.103 302.34 212.604C298.21 210.105 295.008 206.593 292.742 202.075C290.469 197.556 289.338 192.494 289.338 186.894C289.338 181.293 290.475 176.157 292.742 171.713C295.008 167.269 298.173 163.778 302.229 161.237C306.285 158.7 310.952 157.427 316.239 157.427C321.968 157.427 326.916 158.865 331.084 161.743C335.251 164.62 338.187 168.372 339.902 173.002H341.017V168.968C341.017 166.576 340.921 164.695 340.735 163.309C340.55 161.929 340.231 160.453 339.785 158.887H351.73C351.433 160.528 351.189 162.51 351.003 164.823C350.817 167.141 350.722 169.826 350.722 172.89V201.462C350.87 201.76 351.003 202.021 351.115 202.245C351.226 202.469 351.316 202.656 351.396 202.805C352.139 204.371 352.681 205.885 353.015 207.345C353.35 208.805 353.52 210.275 353.52 211.773C353.445 218.417 351.826 223.927 348.662 228.297C345.498 232.666 341.24 235.879 335.878 237.931C330.521 239.982 324.527 241.011 317.906 241.011L317.922 241ZM320.157 208.283C323.953 208.283 327.431 207.217 330.595 205.091C333.759 202.959 336.249 200.252 338.076 196.965C339.897 193.677 340.81 190.32 340.81 186.883C340.81 182.849 339.897 179.21 338.076 175.959C336.249 172.709 333.781 170.151 330.653 168.286C327.526 166.421 324.028 165.484 320.163 165.484C316.069 165.484 312.406 166.4 309.168 168.228C305.929 170.061 303.397 172.597 301.576 175.848C299.749 179.098 298.842 182.775 298.842 186.883C298.842 190.991 299.749 194.668 301.576 197.918C303.397 201.169 305.929 203.705 309.168 205.538C312.406 207.371 316.069 208.283 320.163 208.283H320.157Z" fill="#F6AB00"/>
<path d="M368.937 214.895C369.383 213.254 369.68 211.293 369.829 209.013C369.978 206.737 370.052 204.025 370.052 200.892V150.473C370.052 147.335 369.978 144.628 369.829 142.352C369.68 140.077 369.383 138.116 368.937 136.47H381.105C380.734 138.111 380.452 140.072 380.267 142.352C380.081 144.633 379.985 147.34 379.985 150.473V173.215H380.877C382.141 169.779 383.871 166.906 386.069 164.589C388.262 162.276 390.885 160.502 393.937 159.265C396.99 158.034 400.372 157.416 404.094 157.416C409.079 157.416 413.379 158.333 416.989 160.161C420.599 161.994 423.371 164.754 425.303 168.452C427.236 172.15 428.207 176.684 428.207 182.066V201.451C428.207 204.515 428.298 207.126 428.489 209.295C428.675 211.464 428.951 213.329 429.328 214.895H417.271C417.568 213.254 417.828 211.459 418.051 209.519C418.274 207.579 418.386 205.112 418.386 202.123V183.75C418.386 177.777 416.825 173.295 413.698 170.306C410.571 167.322 406.18 165.825 400.526 165.825C396.73 165.825 393.253 166.816 390.088 168.793C386.924 170.775 384.434 173.349 382.608 176.525C380.782 179.7 379.874 182.929 379.874 186.217L379.985 202.128C379.985 204.968 380.075 207.489 380.267 209.689C380.452 211.895 380.728 213.633 381.105 214.901H368.937V214.895Z" fill="#F6AB00"/>
<path d="M473.977 216.35C469.437 216.35 465.62 215.657 462.536 214.277C459.446 212.897 457.083 210.728 455.448 207.776C453.813 204.824 452.99 201.036 452.99 196.405V166.155H439.149V158.871H452.99V139.15L462.366 136.459V158.866H485.359V166.15H462.366V193.709C462.366 198.638 463.444 202.245 465.604 204.521C467.76 206.801 471.073 207.936 475.538 207.936C477.693 207.936 479.61 207.712 481.287 207.265C482.96 206.817 484.393 206.332 485.582 205.81V214.101C484.244 214.773 482.53 215.316 480.448 215.727C478.362 216.137 476.207 216.345 473.971 216.345L473.977 216.35Z" fill="#F6AB00"/>
</g>
<defs>
<clipPath id="clip0_9101_269">
<rect width="694" height="241" fill="white"/>
</clipPath>
</defs>
</svg>
