<svg width="1582" height="1156" viewBox="0 0 1582 1156" fill="none" xmlns="http://www.w3.org/2000/svg">
<g clip-path="url(#clip0_7549_4459)">
<path d="M1582 4.11963C1582 4.11963 1499.2 74.2914 1406.77 124.157C1205.14 232.925 889.819 384.751 809.728 486.711C692.894 635.405 221.332 1048.7 0 1156H1582V4.11963Z" fill="#F8F7C6"/>
<path d="M1582 383.114L1033.22 689.089L804.405 905.251L494.664 1084.05L363.595 1156H1582V383.114Z" fill="#F1EE80"/>
<path d="M1582 189.94L1405.94 298.163L1093.23 490.554L839.246 721.874L804.405 905.251L1033.22 689.09L1582 383.114V189.94Z" fill="#F3F199"/>
<path d="M1582 777.433L1180.36 971.176L1023.15 1010.13L804.405 1156H1582V777.433Z" fill="#EBE946"/>
</g>
<defs>
<clipPath id="clip0_7549_4459">
<rect width="1582" height="1156" fill="white"/>
</clipPath>
</defs>
</svg>
