<svg width="150" height="194" viewBox="0 0 150 194" fill="none" xmlns="http://www.w3.org/2000/svg">
<g clip-path="url(#clip0_11149_4811)">
<path d="M75.0266 149.792V194" stroke="#479583" stroke-width="0.91" stroke-miterlimit="10"/>
<path d="M75.0278 151.363C116.465 151.363 150.056 117.479 150.056 75.6813C150.056 33.8837 116.465 0 75.0278 0C33.5911 0 0 33.8837 0 75.6813C0 117.479 33.5911 151.363 75.0278 151.363Z" fill="#479583"/>
<path d="M70.5237 96.7747C70.1343 98.7383 68.7439 99.5798 66.6305 99.1871C59.7339 97.8407 53.616 95.3722 48.4992 92.0061C41.4914 96.4381 33.3713 98.7383 25.8073 99.4115C24.7506 99.5237 24.1388 99.2432 23.9163 98.2895C23.6939 97.3918 24.1388 96.6064 25.3068 96.382C32.537 94.8112 39.1555 92.6232 44.606 89.0327C39.9897 85.1055 36.5415 80.1125 34.5949 74.2779H31.0353C29.9786 74.2779 29.3668 73.6608 29.3668 72.5387C29.3668 71.4167 29.9786 70.7996 31.0353 70.7996H44.4947V62.4404H27.2534C26.0854 62.4404 25.418 61.7672 25.418 60.533C25.418 59.2987 26.0854 58.6816 27.2534 58.6816H44.4947V52.2299C44.4947 50.3785 45.4959 49.4248 47.3312 49.4248C49.1666 49.4248 50.2233 50.3785 50.2233 52.2299V58.6816H67.4647C68.6883 58.6816 69.3001 59.3548 69.3001 60.533C69.3001 61.7111 68.6883 62.4404 67.4647 62.4404H50.2233V70.7996H59.4002C62.6816 70.7996 63.5715 73.0437 62.2923 75.9048C60.1232 81.1223 56.7862 85.3861 52.893 88.7522C57.0643 90.7157 62.0698 92.2305 67.854 93.1842C69.8563 93.5769 70.8018 94.8112 70.4681 96.7747H70.5237ZM48.388 86.1715C51.6138 83.3103 54.3946 79.6637 56.4525 75.0633C56.6749 74.6145 56.4525 74.334 55.8963 74.334H37.9875C40.2678 79.1027 43.7161 83.0298 48.4436 86.1715H48.388Z" fill="white"/>
<path d="M85.3166 84.1523C85.3166 88.3599 84.8161 92.7359 83.7037 95.9337C83.1476 97.6728 81.8128 98.346 80.1998 97.6167C78.5869 96.9435 78.3089 95.541 79.2544 93.9701C80.8116 91.2772 81.9796 87.6306 82.7582 83.7596C82.9251 82.8058 83.4813 82.4131 84.2599 82.4692C84.9829 82.5814 85.3166 83.0864 85.3166 84.0962V84.1523ZM95.7171 96.9435C94.9384 97.3923 94.2154 97.2801 93.7705 96.5508C93.3255 95.9898 93.3812 95.0921 94.1598 94.5872C99.4435 90.4918 102.057 85.667 103.059 80.3935C103.17 79.9447 102.947 79.7202 102.502 79.7202H98.7204C98.7204 80.6179 98.2199 81.3472 97.2744 81.6277C95.8839 82.1326 94.7716 81.6277 94.4935 80.0008C94.3267 79.2714 94.1598 78.5421 93.9929 77.8689C90.6559 79.2714 86.5958 80.5057 82.9807 81.2911C81.3122 81.7399 79.9774 80.8423 79.6993 79.1592C79.4212 77.4201 80.1998 76.2419 82.0908 76.1297C82.4802 76.1297 82.8695 76.1297 83.2588 76.1297C85.2054 73.7174 87.2076 70.8001 88.9874 67.434C86.9295 68.1072 84.7605 68.6682 82.7582 69.0609C81.1453 69.3975 80.033 68.6682 79.8661 67.0973C79.6993 65.4704 80.5336 64.4045 82.1465 64.4045H83.0363C84.6492 60.7578 86.0397 56.3819 87.0964 51.8377C87.4857 49.9863 88.7093 49.2009 90.6003 49.7058C92.3244 50.2107 92.9918 51.501 92.2132 53.4085C90.6003 57.3917 88.3756 61.375 86.3178 64.2923C87.875 64.2923 89.3211 64.0678 90.7115 63.8995C91.3233 62.5531 91.9351 61.1506 92.4913 59.748C93.1587 57.9528 94.5491 57.5039 96.1064 58.1772C97.7193 58.8504 98.1643 60.3651 97.2744 62.0482C94.271 67.6584 90.934 72.3148 87.597 75.7931C89.5436 75.6248 91.4902 75.4004 93.1587 75.176C92.825 74.2784 92.4913 73.4929 92.2688 72.6514C91.9351 71.866 92.1576 71.2489 92.7694 70.9123C93.4368 70.5757 94.0486 70.744 94.4935 71.4733C95.7171 73.1002 96.7738 74.8955 97.6637 76.803C97.8862 76.6346 98.2199 76.5785 98.498 76.5785H104.838C107.174 76.5785 108.287 78.0372 107.786 80.3374C106.118 87.9672 102.113 93.6335 95.6615 97.1118L95.7171 96.9435ZM92.102 92.3992C92.4357 94.1384 91.9351 95.2043 90.2666 95.3726C88.5424 95.6532 87.5413 94.8116 87.5413 92.9603C87.5413 89.8747 87.4301 86.5086 86.9295 83.423C86.7627 82.5814 87.0408 82.1326 87.8194 81.9082C88.5424 81.6838 89.043 82.0765 89.4323 82.918C90.7115 85.7231 91.657 89.3136 92.1576 92.3992H92.102ZM93.548 88.9209C92.8806 86.733 92.1576 84.4889 91.2121 82.4131C90.8228 81.6277 91.1008 80.9545 91.657 80.7301C92.3244 80.3374 92.825 80.6179 93.3255 81.1789C95.0497 83.0864 96.3845 85.1621 97.4412 87.2379C98.1643 88.6404 97.9418 89.7064 96.4957 90.4357C95.1609 91.165 93.9929 90.7162 93.548 88.9209ZM125.75 95.9337C124.638 97.3362 122.97 97.5606 121.468 96.1581C117.853 92.7359 115.406 88.3038 113.848 83.5352V94.3628C113.848 99.8608 108.954 100.983 101.724 98.0094C100.89 97.6167 100.556 96.9996 100.778 96.2142C101.001 95.4848 101.557 95.1482 102.502 95.2604C108.064 95.9337 108.676 95.5971 108.676 93.2408V73.8296H102.113C100.333 73.8296 99.3322 72.8197 99.3322 71.0245V58.6821C99.3322 56.8868 100.333 55.877 102.113 55.877H106.729C107.119 54.4744 107.341 53.128 107.675 51.501C108.009 49.6497 109.455 48.7521 111.346 49.3131C113.237 49.8741 113.848 51.6132 112.847 53.1841C112.18 54.25 111.568 55.0916 110.901 55.877H119.911C121.69 55.877 122.692 56.8868 122.692 58.6821V71.0245C122.692 72.8197 121.69 73.8296 119.911 73.8296H113.904V74.3906C114.46 76.9152 115.239 79.1031 116.184 81.0667C117.519 79.7202 118.631 78.3177 119.911 76.3541C120.801 75.0077 122.358 74.615 123.693 75.737C125.083 76.9152 124.972 78.5421 123.693 79.608C121.69 81.4033 119.799 82.7497 117.853 83.7596C119.688 86.5647 122.135 89.0331 125.306 91.6699C126.863 92.9603 127.085 94.4189 125.917 95.8776L125.75 95.9337ZM104.338 63.1141H117.575V59.6358C117.575 59.2431 117.297 59.0187 116.963 59.0187H105.005C104.616 59.0187 104.338 59.2992 104.338 59.6358V63.1141ZM105.005 70.5757H116.963C117.352 70.5757 117.575 70.2951 117.575 69.9585V66.1997H104.338V69.9585C104.338 70.3512 104.616 70.5757 105.005 70.5757Z" fill="white"/>
</g>
<defs>
<clipPath id="clip0_11149_4811">
<rect width="150" height="194" fill="white"/>
</clipPath>
</defs>
</svg>
