<svg width="70" height="70" viewBox="0 0 70 70" fill="none" xmlns="http://www.w3.org/2000/svg">
<g clip-path="url(#clip0_9144_261)">
<path d="M59.0906 29.9698H57.2269L53.7091 19.4548C52.6142 16.2051 49.5624 14 46.1145 14H23.983C20.5352 14 17.4601 16.2051 16.3884 19.4548L12.8707 29.9698H11.007C8.79382 29.9698 7 31.7571 7 33.9623V49.9321H11.007V53.9245C11.007 55.2476 12.8008 56.3154 15.0139 56.3154C17.2271 56.3154 19.0209 55.2476 19.0209 53.9245V49.9321H51.0767V53.9245C51.0767 55.2476 52.8705 56.3154 55.0836 56.3154C57.2968 56.3154 59.0906 55.2476 59.0906 53.9245V49.9321H63.0976V33.9623C63.0976 31.7571 61.3038 29.9698 59.0906 29.9698ZM16.2486 29.9698L19.4169 20.4761C20.0692 18.5031 21.9097 17.2032 23.983 17.2032H46.0913C48.1646 17.2032 50.005 18.5263 50.6573 20.4761L53.8256 29.9698H16.2021H16.2486ZM16.6214 44.338C14.4082 44.338 12.6144 42.5507 12.6144 40.3455C12.6144 38.1404 14.4082 36.3531 16.6214 36.3531C18.8345 36.3531 20.6284 38.1404 20.6284 40.3455C20.6284 42.5507 18.8345 44.338 16.6214 44.338ZM53.4762 44.338C51.263 44.338 49.4692 42.5507 49.4692 40.3455C49.4692 38.1404 51.263 36.3531 53.4762 36.3531C55.6893 36.3531 57.4832 38.1404 57.4832 40.3455C57.4832 42.5507 55.6893 44.338 53.4762 44.338Z" fill="#009683"/>
</g>
<defs>
<clipPath id="clip0_9144_261">
<rect width="56.0976" height="42.3154" fill="white" transform="translate(7 14)"/>
</clipPath>
</defs>
</svg>
