<svg width="23" height="23" viewBox="0 0 23 23" fill="none" xmlns="http://www.w3.org/2000/svg">
<path d="M3 12C3 16.9701 7.02949 21 11.999 21C16.9685 21 21 16.9701 21 12C21 7.02994 16.9705 3 11.999 3C7.0275 3 3 7.02994 3 12ZM20.1099 12C20.1099 16.479 16.4775 20.1118 11.999 20.1118C7.52046 20.1118 3.88812 16.481 3.88812 12C3.88812 7.51896 7.52046 3.88822 11.999 3.88822C16.4775 3.88822 20.1099 7.52096 20.1099 12Z" fill="#4B4B4B"/>
<path d="M5.15344 12.0001C5.15344 15.7766 8.22496 18.8484 11.999 18.8484C15.773 18.8484 18.8465 15.7766 18.8465 12.0001C18.8465 8.22367 15.775 5.15381 11.999 5.15381C8.22296 5.15381 5.15344 8.22566 5.15344 12.0001ZM12.3962 7.88834V12.2197L15.7531 15.7047C15.9467 15.9043 15.9407 16.2237 15.7391 16.4173C15.5375 16.6109 15.2202 16.6049 15.0266 16.4033L11.528 12.7726C11.4382 12.6788 11.3883 12.553 11.3883 12.4233V7.88834C11.3883 7.61089 11.6138 7.38535 11.8912 7.38535C12.1686 7.38535 12.3942 7.61089 12.3942 7.88834H12.3962Z" fill="#F8F8F8"/>
<path d="M3.88812 12C3.88812 16.479 7.52045 20.1117 11.999 20.1117C16.4775 20.1117 20.1099 16.479 20.1099 12C20.1099 7.52092 16.4795 3.88818 11.999 3.88818C7.51846 3.88818 3.88812 7.52092 3.88812 12ZM18.8465 12C18.8465 15.7764 15.775 18.8483 11.999 18.8483C8.22297 18.8483 5.15345 15.7764 5.15345 12C5.15345 8.22351 8.22497 5.15365 11.999 5.15365C15.773 5.15365 18.8465 8.22551 18.8465 12Z" fill="#4B4B4B"/>
<path d="M11.8912 7.38525C11.6138 7.38525 11.3883 7.6108 11.3883 7.88825V12.4232C11.3883 12.5529 11.4382 12.6787 11.528 12.7725L15.0266 16.4032C15.2202 16.6048 15.5375 16.6088 15.7391 16.4172C15.9387 16.2236 15.9447 15.9042 15.7531 15.7046L12.3962 12.2196V7.88825C12.3962 7.6108 12.1707 7.38525 11.8932 7.38525H11.8912Z" fill="#4B4B4B"/>
</svg>
