<svg width="21" height="21" viewBox="0 0 21 21" fill="none" xmlns="http://www.w3.org/2000/svg">
<g clip-path="url(#clip0_7557_7367)">
<path d="M0 10.6249C0 16.2539 4.56371 20.8181 10.1921 20.8181C15.8204 20.8181 20.3864 16.2539 20.3864 10.6249C20.3864 4.99598 15.8227 0.431763 10.1921 0.431763C4.56145 0.431763 0 4.99598 0 10.6249ZM19.3782 10.6249C19.3782 15.6978 15.2643 19.8121 10.1921 19.8121C5.11976 19.8121 1.00587 15.7001 1.00587 10.6249C1.00587 5.54983 5.11976 1.43774 10.1921 1.43774C15.2643 1.43774 19.3782 5.55209 19.3782 10.6249Z" fill="#ABCD03"/>
<path d="M1.00586 10.6248C1.00586 15.6977 5.11975 19.812 10.192 19.812C15.2643 19.812 19.3782 15.6977 19.3782 10.6248C19.3782 5.55197 15.2666 1.43762 10.192 1.43762C5.11749 1.43762 1.00586 5.55197 1.00586 10.6248ZM17.9474 10.6248C17.9474 14.9019 14.4687 18.381 10.192 18.381C5.9154 18.381 2.43894 14.9019 2.43894 10.6248C2.43894 6.34771 5.91766 2.87086 10.192 2.87086C14.4664 2.87086 17.9474 6.34997 17.9474 10.6248Z" fill="#ABCD03"/>
<path d="M10.0699 5.39832C9.75567 5.39832 9.50024 5.65377 9.50024 5.96799V11.1041C9.50024 11.2511 9.55675 11.3935 9.65847 11.4998L13.6209 15.6118C13.8402 15.8402 14.1996 15.8447 14.4279 15.6277C14.6539 15.4084 14.6607 15.0467 14.4437 14.8206L10.6417 10.8736V5.96799C10.6417 5.65377 10.3863 5.39832 10.0721 5.39832H10.0699Z" fill="#ABCD03"/>
</g>
<defs>
<clipPath id="clip0_7557_7367">
<rect width="20.3864" height="20.3864" fill="white" transform="translate(0 0.431763)"/>
</clipPath>
</defs>
</svg>
