<svg width="226" height="63" viewBox="0 0 226 63" fill="none" xmlns="http://www.w3.org/2000/svg">
<rect width="226" height="63" rx="31.5" fill="#ABCD03"/>
<path d="M93.8887 27.3935C94.0795 29.0393 94.0437 30.6612 93.7218 32.0327C93.6025 32.6409 93.1493 32.8913 92.5769 32.6767C92.0044 32.4858 91.8852 32.0088 92.0998 31.4602C92.5172 30.3869 92.8869 29.0512 92.9585 27.4293C92.9943 27.1073 93.1493 26.9165 93.4355 26.9284C93.6979 26.9284 93.8529 27.0835 93.8887 27.3816V27.3935ZM96.2739 25.068V41.1201C96.2739 41.6925 95.9519 42.0026 95.3556 42.0026C94.7593 42.0026 94.4373 41.6806 94.4373 41.1201V25.0561C94.4373 24.4837 94.7593 24.1736 95.3556 24.1736C95.9519 24.1736 96.2739 24.4837 96.2739 25.0561V25.068ZM96.9775 29.6117C96.9059 28.6815 96.7151 27.6798 96.5005 26.7853C96.4408 26.4991 96.572 26.2844 96.8105 26.2129C97.061 26.1413 97.2637 26.2487 97.383 26.4991C97.8361 27.2981 98.182 28.3357 98.3967 29.2897C98.5159 29.7906 98.3251 30.1126 97.8481 30.2319C97.3949 30.3273 97.049 30.1365 96.9894 29.6237L96.9775 29.6117ZM109.082 41.1201C108.927 41.7522 108.51 41.9788 107.746 41.8237C106.375 41.5613 104.789 41.0843 103.334 40.2257C101.593 41.1439 99.5773 41.7164 97.4307 41.9668C97.0729 42.0026 96.8344 41.9072 96.7867 41.6091C96.727 41.299 96.8225 41.0724 97.2041 40.977C99.0168 40.5715 100.627 39.9991 101.962 39.2955C100.985 38.4964 100.114 37.5066 99.4819 36.2425H98.5517C98.1939 36.2425 97.9792 36.0278 97.9792 35.67C97.9792 35.3242 98.1939 35.1214 98.5517 35.1214H106.411C107.424 35.1214 107.842 35.8489 107.269 36.7195C106.673 37.6497 105.91 38.4607 105.039 39.1404C106.017 39.4863 107.067 39.7129 108.188 39.8798C109.011 39.9991 109.261 40.488 109.082 41.1201ZM98.5517 30.4823H107.424C108.068 30.4823 108.438 30.8401 108.438 31.496V33.3445C108.438 33.9885 108.08 34.3343 107.424 34.3343H98.5517C97.9077 34.3343 97.538 33.9885 97.538 33.3445V31.496C97.538 30.852 97.8958 30.4823 98.5517 30.4823ZM98.8737 28.7412V25.8432C98.8737 25.1992 99.2315 24.8295 99.8874 24.8295H106.053C106.697 24.8295 107.067 25.1873 107.067 25.8432V28.7412C107.067 29.3851 106.709 29.7548 106.053 29.7548H99.8874C99.2434 29.7548 98.8737 29.3971 98.8737 28.7412ZM99.2553 32.9987C99.2553 33.1298 99.3507 33.2252 99.4819 33.2252H100.663V31.5795H99.4819C99.3507 31.5795 99.2553 31.6749 99.2553 31.8061V32.9867V32.9987ZM100.627 26.7376H105.302V26.1413C105.302 26.0102 105.206 25.9147 105.075 25.9147H100.853C100.698 25.9147 100.627 26.0102 100.627 26.1413V26.7376ZM100.627 28.4192C100.627 28.5503 100.698 28.6457 100.853 28.6457H105.075C105.206 28.6457 105.302 28.5503 105.302 28.4192V27.7752H100.627V28.4192ZM103.334 38.401C104.097 37.8286 104.705 37.1965 105.206 36.5168C105.302 36.3617 105.266 36.2305 105.075 36.2305H100.663C101.426 37.1488 102.32 37.8524 103.334 38.401ZM102.261 33.2252H103.632V31.5795H102.261V33.2252ZM105.242 33.2252H106.482C106.614 33.2252 106.709 33.1298 106.709 32.9987V31.818C106.709 31.6868 106.614 31.5914 106.482 31.5914H105.242V33.2372V33.2252Z" fill="#F8F8F8"/>
<path d="M121.211 32.0085C121.211 34.9661 121.139 37.4824 120.924 39.7602C120.757 41.6445 119.303 42.3004 116.989 41.1913C116.679 41.0363 116.583 40.8097 116.667 40.5473C116.762 40.2611 116.953 40.1657 117.299 40.2253C118.992 40.5116 119.136 40.3208 119.231 39.4979C119.398 37.876 119.493 34.8588 119.493 32.3782C119.493 32.2232 119.398 32.1516 119.267 32.1516H118.05C117.895 37.0173 117.227 39.5217 115.129 41.6922C114.902 41.9427 114.616 41.9546 114.425 41.7638C114.174 41.573 114.163 41.3225 114.353 41.0363C115.939 38.5796 116.285 35.7293 116.285 28.8362H114.723C114.341 28.8362 114.127 28.6097 114.127 28.24C114.127 27.8703 114.341 27.6675 114.723 27.6675H117.204V25.0439C117.204 24.4476 117.561 24.1136 118.182 24.1136C118.802 24.1136 119.159 24.4595 119.159 25.0439V27.6794H121.223C121.604 27.6794 121.819 27.8941 121.819 28.2519C121.819 28.6335 121.604 28.8482 121.223 28.8482H118.11V30.9829H120.233C120.877 30.9829 121.246 31.3407 121.246 32.0085H121.211ZM121.234 30.649C121.02 30.4581 121.008 30.1958 121.199 29.9215C122.272 28.55 122.88 26.7969 123.262 24.8769C123.417 24.1852 123.906 23.9586 124.562 24.0779C125.194 24.209 125.397 24.7099 125.23 25.3778C125.11 25.831 124.943 26.2961 124.753 26.7492H130.25C130.656 26.7492 130.882 26.9639 130.882 27.3217C130.882 27.7271 130.656 27.9537 130.25 27.9537H124.156C123.608 28.9317 122.88 29.8619 121.962 30.6251C121.7 30.8517 121.449 30.8517 121.234 30.649ZM130.668 41.3225C130.191 41.8711 129.583 41.9188 128.986 41.3821C127.197 39.7602 125.754 36.8146 125.587 31.5076C125.17 31.5792 124.753 31.6627 124.323 31.6984V39.2355C124.955 39.0805 125.564 38.9135 126.136 38.7346C126.553 38.6034 126.744 38.6989 126.875 38.9612C127.007 39.2236 126.947 39.474 126.613 39.7006C125.528 40.44 123.787 41.1317 122.475 41.3941C121.878 41.5253 121.425 41.3225 121.306 40.762C121.151 40.1299 121.401 39.7841 122.093 39.6529C122.224 39.6291 122.356 39.6171 122.499 39.5814V30.9113C122.499 30.3389 122.821 30.0288 123.417 30.0288C123.93 30.0288 124.24 30.2554 124.311 30.6967C125.611 30.2554 126.983 29.6114 127.961 28.9555C128.509 28.5739 129.01 28.6693 129.32 29.1105C129.642 29.5518 129.583 30.0646 128.962 30.3866C128.318 30.7086 127.507 30.9948 126.649 31.2214C126.744 32.402 126.899 33.4873 127.15 34.4652C127.686 33.9643 128.163 33.4157 128.605 32.8195C128.986 32.3186 129.428 32.2709 129.869 32.6286C130.31 32.9864 130.274 33.4873 129.809 33.9285C129.177 34.5368 128.402 35.0973 127.484 35.5147C128.08 37.1366 129.01 38.4723 130.441 39.6171C131.049 40.118 131.145 40.7262 130.692 41.2748L130.668 41.3225Z" fill="#F8F8F8"/>
<path d="M135.999 39.4743C135.999 38.9377 136.285 38.6514 136.834 38.6514H152.111C152.659 38.6514 152.945 38.9377 152.945 39.4743C152.945 40.011 152.659 40.2972 152.111 40.2972H136.834C136.285 40.2972 135.999 40.011 135.999 39.4743ZM137.394 26.5349C137.394 26.0221 137.68 25.7358 138.241 25.7358H150.727C151.276 25.7358 151.562 26.0221 151.562 26.5349C151.562 27.0477 151.276 27.3577 150.727 27.3577H138.241C137.692 27.3577 137.394 27.0477 137.394 26.5349ZM138.73 32.5335C138.73 32.0326 139.04 31.7345 139.553 31.7345H149.415C149.928 31.7345 150.238 32.0446 150.238 32.5335C150.238 33.0225 149.928 33.3326 149.415 33.3326H139.553C139.04 33.3326 138.73 33.0463 138.73 32.5335Z" fill="#F8F8F8"/>
<path d="M160.542 40.7745V25.9389C160.542 25.271 160.924 24.8894 161.591 24.8894H171.406C172.074 24.8894 172.456 25.271 172.456 25.9389V40.7507C172.456 41.4185 172.098 41.7644 171.43 41.7644C170.762 41.7644 170.405 41.4185 170.405 40.7507V39.5819H162.617V40.7626C162.617 41.4066 162.259 41.7524 161.591 41.7524C160.924 41.7524 160.566 41.4066 160.566 40.7626L160.542 40.7745ZM170.393 31.4247V26.4398C170.393 26.3086 170.297 26.2132 170.166 26.2132H162.832C162.701 26.2132 162.605 26.3086 162.605 26.4398V31.4247H170.393ZM170.393 38.2582V32.7008H162.605V38.2582H170.393Z" fill="#F8F8F8"/>
<path d="M195.962 41.3824C193.958 41.5136 191.287 41.5494 189.104 41.454C186.147 41.3347 184.37 40.9769 183.225 38.9376C183.13 38.7707 182.998 38.7826 182.915 38.9615C182.462 39.9036 182.116 40.643 181.412 41.442C180.971 41.9429 180.494 41.9549 180.077 41.5017C179.635 41.0604 179.695 40.6072 180.172 40.166C180.864 39.5578 181.531 38.9496 182.008 38.3175V34.215C182.008 34.0839 181.913 33.9884 181.782 33.9884H180.315C179.933 33.9884 179.719 33.7619 179.719 33.3922C179.719 33.0225 179.933 32.8197 180.315 32.8197H182.831C183.499 32.8197 183.857 33.2013 183.857 33.8453V38.1625C184.739 39.4981 186.564 39.844 188.747 39.844C191.382 39.8678 193.887 39.6532 195.89 39.4266C196.618 39.3312 196.999 39.677 196.999 40.321C197.023 40.965 196.677 41.3347 195.974 41.3943L195.962 41.3824ZM180.255 28.8365C180.029 28.6099 180.005 28.3953 180.136 28.1448C180.291 27.9182 180.518 27.8347 180.804 27.9898C181.639 28.3356 182.593 28.9438 183.416 29.6355C183.952 30.041 184.012 30.5657 183.547 31.0428C183.094 31.5198 182.617 31.484 182.152 30.9474C181.615 30.208 180.887 29.4447 180.243 28.8246L180.255 28.8365ZM180.661 25.2349C180.446 25.0083 180.434 24.7818 180.565 24.5671C180.721 24.3524 180.923 24.2809 181.198 24.4001C182.02 24.7221 182.986 25.2946 183.809 25.9505C184.322 26.356 184.358 26.8449 183.94 27.3219C183.523 27.799 183.022 27.7751 182.581 27.2504C182.032 26.5587 181.376 25.8908 180.649 25.2469L180.661 25.2349ZM184.096 27.7155C184.096 27.3577 184.31 27.1431 184.668 27.1431H186.385V24.8652C186.385 24.3166 186.707 24.0066 187.304 24.0066C187.9 24.0066 188.198 24.3166 188.198 24.8652V27.1431H189.915C190.273 27.1431 190.488 27.3577 190.488 27.7155C190.488 28.0971 190.273 28.3118 189.915 28.3118H187.53C187.53 28.9558 187.506 29.5878 187.494 30.1603H189.367C190.035 30.1603 190.416 30.5419 190.392 31.2455C190.333 34.5847 190.225 36.5167 190.082 37.4827C189.832 39.2596 188.198 39.5816 186.433 38.4606C186.183 38.2936 186.123 38.079 186.206 37.8166C186.302 37.59 186.516 37.4708 186.838 37.5542C188.103 37.8643 188.305 37.8047 188.425 37.0772C188.556 36.1947 188.687 34.4774 188.711 31.5794C188.711 31.4125 188.615 31.329 188.484 31.329H187.411C187.196 34.4535 186.552 36.5048 185.121 38.2817C184.895 38.5441 184.668 38.5918 184.417 38.4129C184.191 38.2459 184.155 38.0074 184.322 37.7093C185.467 35.6103 185.777 33.5472 185.789 28.3118H184.668C184.31 28.3118 184.096 28.0852 184.096 27.7155ZM190.046 29.0154C190.845 27.7155 191.191 26.3679 191.442 24.7579C191.537 24.1258 191.919 23.935 192.515 24.0185C193.111 24.1139 193.374 24.5671 193.207 25.1872C193.076 25.6046 192.944 26.034 192.789 26.4037H196.319C196.677 26.4037 196.892 26.6183 196.892 26.9761C196.892 27.3577 196.677 27.5724 196.319 27.5724H192.277C191.895 28.3118 191.454 28.9796 190.905 29.6117C190.679 29.8741 190.428 29.9218 190.201 29.7429C189.975 29.5759 189.915 29.3374 190.07 29.0154H190.046ZM192.98 37.0176V34.382H191.144C190.762 34.382 190.547 34.1673 190.547 33.7857C190.547 33.4041 190.762 33.2133 191.144 33.2133H192.98V32.0445C192.98 31.5079 193.302 31.2097 193.863 31.2097H193.958C194.149 30.8877 194.304 30.5419 194.411 30.2318C194.471 30.1006 194.435 29.9695 194.256 29.9695H191.847C191.466 29.9695 191.251 29.7548 191.251 29.397C191.251 29.0393 191.466 28.8246 191.847 28.8246H195.306C196.2 28.8246 196.451 29.4328 196.009 30.1961C195.663 30.8281 195.175 31.4721 194.733 31.9134V33.2133H196.355C196.737 33.2133 196.951 33.4279 196.951 33.7857C196.951 34.1435 196.737 34.382 196.355 34.382H194.733V37.6139C194.733 39.0807 193.183 39.5936 191.048 38.5322C190.738 38.3771 190.643 38.1505 190.726 37.8882C190.822 37.6377 191.036 37.5304 191.37 37.5781C192.801 37.8285 192.968 37.6735 192.968 37.0295L192.98 37.0176Z" fill="#F8F8F8"/>
<path d="M39.8074 18.2044C41.2623 19.6603 42 21.434 42 23.5051C42 25.5762 41.2623 27.3295 39.8074 28.8059C38.332 30.2618 36.5594 31 34.5102 31C32.4611 31 30.668 30.2618 29.2131 28.8059C27.7582 27.35 27 25.566 27 23.5154C27 21.4648 27.7275 19.6705 29.2029 18.2146C30.6578 16.728 32.4201 16 34.5 16C36.5799 16 38.3217 16.728 39.7971 18.2044H39.8074ZM32.0615 19.0144C31.3648 19.6295 30.9857 20.4703 30.8934 21.5673H32.707C32.7684 20.9522 32.9529 20.4908 33.2602 20.1832C33.5676 19.8551 33.998 19.7116 34.582 19.7116C35.1352 19.7116 35.5553 19.8448 35.8422 20.1319C36.1189 20.3882 36.2725 20.7471 36.2725 21.2085C36.2725 21.6699 36.1189 22.0492 35.832 22.2953C35.5246 22.5106 35.0943 22.6336 34.541 22.6336H33.7418V24.0383H34.4898C35.1352 24.0383 35.6373 24.1921 35.9959 24.5304C36.3033 24.8278 36.4672 25.2276 36.4672 25.73C36.4672 26.1914 36.293 26.5605 35.9959 26.8681C35.627 27.2064 35.1352 27.3807 34.5205 27.3807C33.9057 27.3807 33.4447 27.2269 33.1373 26.9501C32.7787 26.6118 32.584 26.0684 32.543 25.3301H30.6988C30.7602 26.5297 31.1701 27.432 31.9078 28.0779C32.584 28.6521 33.4549 28.9392 34.5307 28.9392C35.668 28.9392 36.5799 28.6316 37.2664 28.0369C37.9631 27.4217 38.3115 26.6425 38.3115 25.6685C38.3115 25.1148 38.1578 24.6227 37.8504 24.1921C37.5225 23.7614 37.0922 23.4539 36.5594 23.2693C37.0205 23.0848 37.3893 22.7977 37.6762 22.4081C37.9529 22.0082 38.1066 21.5776 38.1066 21.0854C38.1066 20.1627 37.7889 19.4552 37.1434 18.9323C36.498 18.4094 35.6373 18.1429 34.5922 18.1429C33.5471 18.1429 32.7172 18.4402 32.0615 19.0246V19.0144Z" fill="#F8F8F8"/>
<path d="M48.9917 18.1838C50.8823 18.1838 52.2949 18.7054 53.2728 19.7485C54.2072 20.7264 54.6744 22.1498 54.6744 24.0078C54.6744 25.8658 54.2072 27.2675 53.2728 28.2671C52.2949 29.3102 50.8823 29.8317 48.9917 29.8317H44.7324V18.1838H48.9917ZM46.6448 28.191H48.6332C50.0783 28.191 51.1431 27.8542 51.8059 27.1805C52.4578 26.496 52.7838 25.4312 52.7838 24.0078C52.7838 22.5844 52.4578 21.4652 51.8059 20.8133C51.1322 20.1505 50.0783 19.8137 48.6332 19.8137H46.6448V28.191Z" fill="#F8F8F8"/>
<path d="M63.378 22.1063C63.8995 22.6496 64.1603 23.421 64.1603 24.4533V29.8317H62.4327V28.7234C62.1067 29.1472 61.7047 29.4514 61.2266 29.6796C60.6833 29.9187 60.0531 30.049 59.3251 30.049C58.445 30.049 57.7605 29.8209 57.2607 29.3754C56.7391 28.919 56.4783 28.354 56.4783 27.6478C56.4783 26.7025 56.8369 25.9745 57.5866 25.4638C58.2712 24.9748 59.2273 24.7141 60.466 24.6815L62.3131 24.638V24.312C62.3131 23.2037 61.7155 22.6605 60.4986 22.6605C59.977 22.6605 59.575 22.7474 59.2599 22.9321C58.9014 23.1494 58.6623 23.4754 58.5537 23.91L56.7174 23.7687C56.9021 22.8343 57.3476 22.1498 58.0864 21.726C58.7058 21.3349 59.5533 21.1501 60.629 21.1501C61.8677 21.1501 62.8021 21.4652 63.3888 22.0846L63.378 22.1063ZM60.5855 26.0288C59.1078 26.0614 58.3689 26.5829 58.3689 27.5934C58.3689 27.8868 58.4885 28.1367 58.7492 28.3214C59.01 28.517 59.336 28.6365 59.7489 28.6365C60.466 28.6365 61.0636 28.4192 61.5634 28.0172C62.0524 27.5934 62.3131 27.061 62.3131 26.4091V25.9853L60.5964 26.0288H60.5855Z" fill="#F8F8F8"/>
<path d="M67.724 21.4L69.9623 27.3978L72.092 21.4H74.113L69.5494 33.0479H67.561L69.0387 29.6253L65.703 21.3892H67.724V21.4Z" fill="#F8F8F8"/>
<path d="M36.5829 34.678V36.3078H32.7691V46.315H30.8568V36.3078H27.043V34.678H36.5829Z" fill="#F8F8F8"/>
<path d="M45.2863 38.9154C46.0577 39.7412 46.438 40.806 46.438 42.1099C46.438 43.4138 46.0468 44.4569 45.2971 45.2718C44.5148 46.1193 43.4717 46.5431 42.2004 46.5431C40.9292 46.5431 39.8861 46.1193 39.1037 45.2718C38.3323 44.4569 37.9629 43.4029 37.9629 42.1099C37.9629 40.8169 38.3432 39.7521 39.1255 38.9154C39.8969 38.0679 40.9183 37.655 42.2004 37.655C43.4826 37.655 44.4931 38.0679 45.2754 38.9154H45.2863ZM40.4076 40.0889C40.049 40.6105 39.8643 41.295 39.8643 42.1099C39.8643 42.9248 40.049 43.5985 40.4076 44.1092C40.8314 44.7176 41.4181 45.0219 42.2004 45.0219C42.9828 45.0219 43.5695 44.7068 43.9933 44.1092C44.3518 43.5768 44.5474 42.9031 44.5474 42.1099C44.5474 41.3167 44.3518 40.6105 43.9933 40.0889C43.5695 39.4696 42.9719 39.1762 42.2004 39.1762C41.429 39.1762 40.8314 39.4696 40.4076 40.0889Z" fill="#F8F8F8"/>
<path d="M50.4264 37.894V43.0226C50.4264 43.7071 50.5568 44.1961 50.8501 44.522C51.1435 44.8371 51.5999 45.0001 52.2518 45.0001C52.6647 45.0001 53.045 44.8154 53.4253 44.4786C53.7947 44.12 54.0772 43.6528 54.2402 43.0443V37.894H56.0982V46.3149H54.2402V45.2283C53.5231 46.1084 52.6429 46.543 51.5999 46.543C49.5789 46.543 48.5684 45.4022 48.5684 43.1421V37.894H50.4264Z" fill="#F8F8F8"/>
<path d="M63.5737 37.8723V39.7304C63.15 39.6 62.7588 39.5456 62.3676 39.5456C61.8787 39.5456 61.4441 39.7304 61.0529 40.1106C60.5966 40.5561 60.3792 41.1211 60.3792 41.8383V46.304H58.543V37.8832H60.3792V39.0893C60.6074 38.6655 60.8682 38.3396 61.1833 38.1114C61.5527 37.7963 61.9982 37.655 62.5198 37.655C62.9327 37.655 63.2912 37.7202 63.5846 37.8723H63.5737Z" fill="#F8F8F8"/>
<path d="M86.0001 40.4473L82.0559 44.109L81.3062 43.3159L83.1751 41.1645H70.4189V39.7302H83.1751L81.3062 37.5788L82.0559 36.7856L86.0001 40.4582V40.4473Z" fill="#F8F8F8"/>
</svg>
