<svg width="226" height="63" viewBox="0 0 226 63" fill="none" xmlns="http://www.w3.org/2000/svg">
<rect width="226" height="63" rx="31.5" fill="#0CA7F1"/>
<g clip-path="url(#clip0_7876_1225)">
<path d="M93.8932 27.6125C94.0842 29.1713 94.044 30.7158 93.7222 32.026C93.6066 32.6046 93.1491 32.8437 92.5759 32.6428C92.0028 32.4611 91.8871 32.0069 92.0983 31.4809C92.5206 30.4624 92.8826 29.1952 92.958 27.6507C92.9982 27.3399 93.1491 27.1582 93.4356 27.1774C93.7021 27.1774 93.8529 27.3208 93.8932 27.6125ZM96.2813 25.3986V40.6713C96.2813 41.2164 95.9545 41.5081 95.3662 41.5081C94.778 41.5081 94.4512 41.1973 94.4512 40.6713V25.3986C94.4512 24.8535 94.773 24.5618 95.3662 24.5618C95.9595 24.5618 96.2813 24.8535 96.2813 25.3986ZM96.9851 29.7212C96.9097 28.8318 96.7187 27.8898 96.5075 27.0339C96.4522 26.7614 96.5829 26.5605 96.8142 26.4888C97.0605 26.4171 97.2717 26.527 97.3873 26.7614C97.8448 27.5264 98.1867 28.5067 98.3979 29.4104C98.5135 29.8838 98.3225 30.1898 97.8448 30.2998C97.3873 30.3907 97.0455 30.209 96.9851 29.7164V29.7212ZM109.092 40.6713C108.941 41.269 108.518 41.489 107.754 41.3408C106.382 41.0873 104.793 40.6331 103.345 39.8154C101.605 40.6857 99.5844 41.2308 97.4477 41.4699C97.0857 41.5081 96.8544 41.4173 96.7991 41.1256C96.7388 40.8339 96.8343 40.6187 97.2164 40.5279C99.0314 40.1453 100.635 39.605 101.967 38.9308C100.997 38.1705 100.117 37.2237 99.4889 36.0283H98.5537C98.1918 36.0283 97.9806 35.8275 97.9806 35.4832C97.9806 35.158 98.1918 34.9572 98.5537 34.9572H106.417C107.427 34.9572 107.85 35.6458 107.277 36.4825C106.683 37.3719 105.919 38.137 105.044 38.7873C106.02 39.1125 107.07 39.3324 108.197 39.495C109.016 39.605 109.268 40.0784 109.092 40.6761V40.6713ZM98.5537 30.558H107.432C108.081 30.558 108.443 30.9023 108.443 31.5191V33.2788C108.443 33.8956 108.081 34.2208 107.432 34.2208H98.5537C97.9052 34.2208 97.5432 33.8956 97.5432 33.2788V31.5191C97.5432 30.9023 97.9052 30.558 98.5537 30.558ZM98.8755 28.9036V26.1445C98.8755 25.5277 99.2375 25.1834 99.886 25.1834H106.05C106.698 25.1834 107.06 25.5277 107.06 26.1445V28.9036C107.06 29.5204 106.698 29.8647 106.05 29.8647H99.886C99.2375 29.8647 98.8755 29.5204 98.8755 28.9036ZM99.2576 32.9537C99.2576 33.078 99.3531 33.1688 99.4889 33.1688H100.67V31.61H99.4889C99.3531 31.61 99.2576 31.7008 99.2576 31.8252V32.9537ZM100.63 26.9957H105.306V26.4314C105.306 26.3071 105.21 26.2162 105.075 26.2162H100.856C100.706 26.2162 100.625 26.3071 100.625 26.4314V26.9957H100.63ZM100.63 28.5927C100.63 28.7218 100.706 28.8079 100.861 28.8079H105.08C105.215 28.8079 105.311 28.7171 105.311 28.5927V27.9759H100.635V28.5927H100.63ZM103.34 38.0892C104.104 37.5441 104.713 36.9464 105.21 36.2913C105.306 36.1478 105.266 36.0187 105.075 36.0187H100.665C101.43 36.889 102.324 37.5632 103.34 38.0892ZM102.269 33.1688H103.642V31.61H102.269V33.1688ZM105.245 33.1688H106.487C106.623 33.1688 106.719 33.078 106.719 32.9537V31.8252C106.719 31.7008 106.623 31.61 106.487 31.61H105.245V33.1688Z" fill="#F8F8F8"/>
<path d="M121.223 32.0021C121.223 34.8186 121.148 37.2142 120.937 39.3755C120.766 41.1734 119.313 41.7903 117.005 40.7383C116.698 40.5949 116.603 40.3749 116.678 40.1215C116.774 39.8489 116.965 39.7581 117.307 39.8107C119.006 40.0832 119.142 39.9015 119.237 39.1221C119.408 37.5776 119.504 34.7086 119.504 32.3512C119.504 32.2077 119.408 32.1312 119.277 32.1312H118.056C117.9 36.7599 117.236 39.1412 115.135 41.2117C114.903 41.446 114.617 41.4651 114.426 41.2834C114.179 41.1017 114.159 40.8674 114.35 40.5949C115.934 38.2518 116.276 35.5454 116.276 28.9897H114.712C114.33 28.9897 114.119 28.7745 114.119 28.4254C114.119 28.0764 114.33 27.8803 114.712 27.8803H117.196V25.3747C117.196 24.8105 117.558 24.4853 118.171 24.4853C118.785 24.4853 119.147 24.8105 119.147 25.3747V27.8803H121.208C121.59 27.8803 121.801 28.0811 121.801 28.4254C121.801 28.7888 121.59 28.9897 121.208 28.9897H118.096V31.0219H120.218C120.866 31.0219 121.228 31.3662 121.228 32.0021H121.223ZM121.243 30.7159C121.032 30.5342 121.012 30.2807 121.203 30.0273C122.274 28.7219 122.882 27.0483 123.264 25.236C123.415 24.5809 123.913 24.3658 124.561 24.471C125.19 24.6001 125.401 25.0687 125.23 25.7046C125.115 26.1398 124.944 26.5749 124.753 27.01H130.253C130.655 27.01 130.881 27.2109 130.881 27.5552C130.881 27.9377 130.65 28.1529 130.253 28.1529H124.164C123.611 29.0805 122.882 29.9699 121.967 30.6967C121.701 30.9167 121.449 30.9167 121.243 30.7159ZM130.675 40.8674C130.197 41.3934 129.584 41.4317 128.996 40.92C127.201 39.3755 125.768 36.583 125.597 31.5335C125.175 31.6053 124.758 31.677 124.335 31.7152V38.8878C124.964 38.7443 125.577 38.5818 126.15 38.4144C126.573 38.2853 126.764 38.3761 126.894 38.6344C127.03 38.8878 126.97 39.1221 126.628 39.342C125.542 40.0497 123.802 40.7048 122.485 40.9583C121.892 41.0874 121.434 40.8865 121.319 40.3606C121.168 39.7628 121.414 39.4329 122.103 39.3086C122.239 39.2895 122.369 39.2751 122.505 39.2369V30.9932C122.505 30.4481 122.827 30.1564 123.42 30.1564C123.938 30.1564 124.24 30.3764 124.32 30.7924C125.617 30.3764 126.99 29.7595 127.965 29.1427C128.518 28.7793 129.016 28.8701 129.323 29.2861C129.649 29.7021 129.589 30.1947 128.961 30.5007C128.312 30.8067 127.508 31.0793 126.648 31.2992C126.743 32.4229 126.894 33.4606 127.146 34.3834C127.679 33.91 128.156 33.384 128.599 32.8246C128.981 32.3512 129.418 32.2986 129.861 32.6429C130.303 32.9872 130.263 33.4606 129.805 33.8766C129.177 34.4599 128.392 34.9859 127.477 35.3828C128.071 36.9273 129.006 38.1944 130.439 39.2847C131.047 39.7581 131.143 40.3366 130.685 40.8626L130.675 40.8674Z" fill="#F8F8F8"/>
<path d="M136.03 38.7587C136.03 38.2327 136.317 37.9602 136.85 37.9602H152.063C152.596 37.9602 152.903 38.2327 152.903 38.7587C152.903 39.2847 152.596 39.5381 152.063 39.5381H136.85C136.317 39.5381 136.03 39.2656 136.03 38.7587ZM137.423 27.8469C137.423 27.34 137.73 27.0483 138.262 27.0483H150.671C151.203 27.0483 151.51 27.34 151.51 27.8469C151.51 28.3537 151.203 28.6263 150.671 28.6263H138.262C137.73 28.6263 137.423 28.3537 137.423 27.8469Z" fill="#F8F8F8"/>
<path d="M160.554 40.337V26.2262C160.554 25.5902 160.936 25.2268 161.604 25.2268H171.418C172.087 25.2268 172.469 25.5902 172.469 26.2262V40.3179C172.469 40.9538 172.107 41.279 171.438 41.279C170.77 41.279 170.408 40.9538 170.408 40.3179V39.2085H162.62V40.337C162.62 40.9538 162.258 41.279 161.589 41.279C160.921 41.279 160.559 40.9538 160.559 40.337H160.554ZM170.408 31.4382V26.6996C170.408 26.5705 170.312 26.4796 170.177 26.4796H162.846C162.711 26.4796 162.615 26.5705 162.615 26.6996V31.4382H170.403H170.408ZM170.408 37.9366V32.6528H162.62V37.9366H170.408Z" fill="#F8F8F8"/>
<path d="M195.978 40.9201C193.972 41.0492 191.302 41.0827 189.125 40.9919C186.164 40.8819 184.389 40.5376 183.243 38.5962C183.147 38.4337 183.017 38.4528 182.936 38.6154C182.479 39.5048 182.137 40.2124 181.428 40.9775C180.991 41.4509 180.513 41.47 180.091 41.0301C179.653 40.6141 179.708 40.179 180.186 39.7582C180.875 39.1796 181.539 38.5962 182.016 37.9985V34.0966C182.016 33.9675 181.921 33.8767 181.79 33.8767H180.317C179.935 33.8767 179.724 33.6615 179.724 33.3124C179.724 32.9634 179.935 32.7673 180.317 32.7673H182.836C183.504 32.7673 183.866 33.1307 183.866 33.7476V37.8503C184.746 39.1222 186.576 39.4474 188.753 39.4474C191.388 39.4665 193.886 39.2657 195.892 39.0505C196.616 38.9596 196.998 39.2848 196.998 39.9016C197.019 40.5185 196.672 40.8628 195.968 40.9201H195.978ZM180.267 28.9898C180.04 28.7746 180.02 28.5738 180.151 28.3347C180.302 28.1195 180.533 28.043 180.82 28.1912C181.659 28.5164 182.614 29.0998 183.434 29.7549C183.967 30.1374 184.027 30.6443 183.57 31.0985C183.112 31.5528 182.635 31.5145 182.177 31.0077C181.644 30.3 180.92 29.5732 180.267 28.9898ZM180.669 25.5565C180.458 25.3366 180.437 25.1214 180.573 24.9206C180.724 24.7197 180.935 24.648 181.202 24.758C182.021 25.0688 182.997 25.6139 183.816 26.2307C184.329 26.6133 184.369 27.0819 183.952 27.5362C183.529 27.9904 183.037 27.9713 182.594 27.4644C182.041 26.8093 181.393 26.1734 180.669 25.5565ZM184.103 27.9139C184.103 27.5696 184.314 27.3688 184.676 27.3688H186.395V25.2075C186.395 24.6815 186.717 24.3898 187.31 24.3898C187.903 24.3898 188.21 24.6815 188.21 25.2075V27.3688H189.93C190.292 27.3688 190.503 27.5696 190.503 27.9139C190.503 28.2773 190.292 28.4781 189.93 28.4781H187.541C187.541 29.095 187.521 29.6975 187.501 30.2378H189.372C190.04 30.2378 190.422 30.6012 190.402 31.2754C190.347 34.4505 190.231 36.2867 190.095 37.2143C189.849 38.9023 188.205 39.2131 186.45 38.142C186.204 37.9794 186.144 37.7786 186.219 37.5251C186.315 37.3052 186.526 37.2 186.848 37.2717C188.11 37.5634 188.316 37.506 188.431 36.8174C188.567 35.9806 188.698 34.3501 188.718 31.5863C188.718 31.4237 188.622 31.352 188.492 31.352H187.421C187.21 34.331 186.561 36.2723 185.128 37.9603C184.897 38.2137 184.671 38.2519 184.419 38.0894C184.193 37.9268 184.153 37.7068 184.324 37.4199C185.47 35.4212 185.777 33.4607 185.797 28.4877H184.671C184.309 28.4877 184.098 28.2725 184.098 27.9235L184.103 27.9139ZM190.06 29.1476C190.86 27.9139 191.207 26.6228 191.453 25.0975C191.548 24.4998 191.931 24.3181 192.524 24.3898C193.117 24.4806 193.384 24.9158 193.213 25.4944C193.077 25.896 192.946 26.2929 192.795 26.6563H196.325C196.687 26.6563 196.898 26.8572 196.898 27.2014C196.898 27.5648 196.687 27.7657 196.325 27.7657H192.277C191.895 28.4734 191.458 29.1093 190.905 29.707C190.674 29.9605 190.427 29.9987 190.196 29.8362C189.97 29.6736 189.909 29.4536 190.065 29.1476H190.06ZM193.001 36.7553V34.2497H191.166C190.784 34.2497 190.573 34.0488 190.573 33.6854C190.573 33.322 190.784 33.1403 191.166 33.1403H193.001V32.031C193.001 31.5241 193.323 31.2324 193.881 31.2324H193.977C194.168 30.9216 194.319 30.5964 194.434 30.3048C194.49 30.1757 194.454 30.0513 194.283 30.0513H191.88C191.498 30.0513 191.287 29.8505 191.287 29.5062C191.287 29.1619 191.498 28.9611 191.88 28.9611H195.334C196.229 28.9611 196.481 29.5445 196.038 30.2665C195.696 30.8642 195.199 31.4811 194.761 31.9018V33.1355H196.385C196.767 33.1355 196.978 33.3364 196.978 33.6806C196.978 34.0249 196.767 34.2449 196.385 34.2449H194.761V37.3147C194.761 38.711 193.213 39.2035 191.076 38.185C190.769 38.0416 190.674 37.8216 190.754 37.5682C190.85 37.3339 191.061 37.2239 191.403 37.2765C192.836 37.5108 193.006 37.3673 193.006 36.7505L193.001 36.7553Z" fill="#F8F8F8"/>
<path d="M39.8016 19.1978C41.2614 20.6572 42 22.4231 42 24.5C42 26.5769 41.2614 28.3256 39.8016 29.8022C38.3245 31.2617 36.558 32 34.4978 32C32.4377 32 30.6539 31.2617 29.1941 29.8022C27.7342 28.3428 27 26.5553 27 24.5C27 22.4447 27.7213 20.6572 29.1984 19.1978C30.6582 17.7211 32.4247 17 34.5022 17C36.5796 17 38.3288 17.7211 39.8059 19.1978H39.8016ZM31.9496 20.2556C31.2715 21.0069 30.9346 21.9784 30.9217 23.1744H32.753C32.7832 22.4059 32.9516 21.8057 33.228 21.4085C33.5347 20.9465 33.9796 20.7176 34.5972 20.7176C35.15 20.7176 35.5819 20.8385 35.8583 21.1019C36.152 21.348 36.3032 21.7453 36.3032 22.285C36.3032 22.8247 36.07 23.3601 35.6424 23.8523C35.366 24.1589 34.9038 24.5259 34.2603 24.9879C33.0942 25.7867 32.3254 26.4344 31.9237 26.8921C31.2499 27.6606 30.8958 28.6105 30.8655 29.7202H38.1517V28.0751H33.1719C33.4181 27.6002 34.0184 27.0475 34.9686 26.4301C35.9836 25.7522 36.7049 25.1865 37.1195 24.7547C37.7976 24.0164 38.1345 23.1874 38.1345 22.2979C38.1345 21.361 37.7976 20.5924 37.1497 20.0095C36.5019 19.4266 35.6726 19.133 34.6576 19.133C33.5217 19.133 32.6277 19.5 31.9539 20.2556H31.9496Z" fill="#F8F8F8"/>
<path d="M48.9539 19.0745C50.8425 19.0745 52.2555 19.5703 53.2341 20.5619C54.1623 21.4882 54.6333 22.8365 54.6333 24.6022C54.6333 26.368 54.1623 27.6988 53.2341 28.6425C52.26 29.6341 50.8425 30.1256 48.9539 30.1256H44.7058V19.0745H48.9539ZM46.6127 28.5773H48.5972C50.0468 28.5773 51.1031 28.2511 51.7708 27.6162C52.4201 26.9681 52.7493 25.9591 52.7493 24.5979C52.7493 23.2366 52.4247 22.1841 51.7708 21.5622C51.1031 20.9272 50.0468 20.6184 48.5972 20.6184H46.6127V28.573V28.5773Z" fill="#F8F8F8"/>
<path d="M63.3216 22.7888C63.8429 23.2976 64.1036 24.0413 64.1036 25.0155V30.1214H62.3796V29.0689C62.055 29.4691 61.648 29.7648 61.177 29.9823C60.642 30.2128 60.0064 30.3389 59.2747 30.3389C58.3967 30.3389 57.7154 30.1214 57.2078 29.7039C56.6865 29.269 56.4259 28.7297 56.4259 28.0643C56.4259 27.1684 56.7825 26.4682 57.5325 25.9897C58.2138 25.5244 59.1741 25.2765 60.4133 25.246L62.2516 25.1982V24.8894C62.2516 23.8369 61.648 23.3237 60.4453 23.3237C59.9241 23.3237 59.5171 23.402 59.2107 23.5847C58.854 23.7847 58.6071 24.0935 58.5111 24.5154L56.6728 24.3762C56.8511 23.4933 57.3084 22.8453 58.0401 22.4409C58.6574 22.0712 59.5034 21.8972 60.578 21.8972C61.8126 21.8972 62.7409 22.193 63.3262 22.7801L63.3216 22.7888ZM60.5368 26.516C59.0552 26.5464 58.3236 27.0422 58.3236 28.0034C58.3236 28.2817 58.4379 28.5122 58.6985 28.6993C58.9592 28.8863 59.2839 28.995 59.6908 28.995C60.4042 28.995 61.0078 28.7949 61.4971 28.4079C61.9864 28.0077 62.247 27.4945 62.247 26.877V26.4725L60.5368 26.5203V26.516Z" fill="#F8F8F8"/>
<path d="M67.6653 22.1233L69.8969 27.8163L72.0278 22.1233H74.0444L69.4899 33.1875H67.5053L68.9869 29.9387L65.6533 22.1233H67.6699H67.6653Z" fill="#F8F8F8"/>
<path d="M36.5667 34.7314V36.2797H32.7576V45.7826H30.8508V36.2797H27.0508V34.7314H36.5713H36.5667Z" fill="#F8F8F8"/>
<path d="M45.2588 38.7588C46.0224 39.546 46.4157 40.555 46.4157 41.7901C46.4157 43.0253 46.027 44.0169 45.2771 44.791C44.4951 45.5956 43.4571 46.0001 42.1859 46.0001C40.9146 46.0001 39.8766 45.6 39.0947 44.791C38.331 44.0169 37.9561 43.0122 37.9561 41.7901C37.9561 40.568 38.331 39.546 39.113 38.7588C39.8766 37.9542 40.9009 37.5671 42.1905 37.5671C43.48 37.5671 44.486 37.9542 45.2679 38.7588H45.2588ZM40.3933 39.8722C40.0367 40.368 39.8583 41.016 39.8583 41.7901C39.8583 42.5643 40.0367 43.1993 40.3933 43.6951C40.8186 44.2691 41.4039 44.5605 42.1859 44.5605C42.9678 44.5605 43.5531 44.2648 43.9738 43.6951C44.3305 43.1862 44.5271 42.5512 44.5271 41.7901C44.5271 41.029 44.3305 40.368 43.9738 39.8722C43.5531 39.285 42.9495 39.0067 42.1859 39.0067C41.4222 39.0067 40.8186 39.285 40.3933 39.8722Z" fill="#F8F8F8"/>
<path d="M50.3855 37.7802V42.6556C50.3855 43.308 50.5136 43.769 50.8062 44.0778C51.0989 44.3735 51.5562 44.5257 52.2055 44.5257C52.6125 44.5257 53.0012 44.3561 53.3761 44.0299C53.7511 43.6907 54.0255 43.2427 54.1901 42.6687V37.7759H56.0466V45.7783H54.1901V44.7432C53.4722 45.5782 52.5942 45.9957 51.5516 45.9957C49.535 45.9957 48.5244 44.9128 48.5244 42.76V37.7759H50.381L50.3855 37.7802Z" fill="#F8F8F8"/>
<path d="M63.5137 37.7671V39.5329C63.0884 39.4111 62.6997 39.3632 62.311 39.3632C61.8217 39.3632 61.3828 39.5329 60.9941 39.9025C60.5368 40.32 60.3264 40.8637 60.3264 41.5422V45.7826H58.4882V37.7802H60.3264V38.924C60.5551 38.5195 60.8157 38.2107 61.1221 37.9933C61.4971 37.6975 61.9361 37.5583 62.4574 37.5583C62.8643 37.5583 63.221 37.6192 63.5137 37.7584V37.7671Z" fill="#F8F8F8"/>
<path d="M85.9062 40.2112L81.9691 43.6905L81.2191 42.9337L83.0894 40.8897H70.3496V39.5284H83.0894L81.2191 37.4843L81.9691 36.7275L85.9062 40.2112Z" fill="#F8F8F8"/>
</g>
<defs>
<clipPath id="clip0_7876_1225">
<rect width="172" height="29" fill="white" transform="translate(27 17)"/>
</clipPath>
</defs>
</svg>
