<svg width="226" height="63" viewBox="0 0 226 63" fill="none" xmlns="http://www.w3.org/2000/svg">
<rect width="226" height="63" rx="31.5" fill="#F6AB00"/>
<g clip-path="url(#clip0_7876_1121)">
<path d="M40.0912 19.2181C41.5784 20.683 42.3324 22.4678 42.3324 24.5517C42.3324 26.6357 41.5784 28.3998 40.0912 29.8854C38.5831 31.3504 36.7713 32.0932 34.6767 32.0932C32.5821 32.0932 30.7493 31.3504 29.2622 29.8854C27.775 28.4205 27 26.6254 27 24.5517C27 22.4781 27.7436 20.683 29.2517 19.2181C30.7388 17.7325 32.5402 17 34.6662 17C36.7922 17 38.5726 17.7325 40.0807 19.2181H40.0912ZM31.6709 20.9925V22.8495C32.5192 22.6019 33.3047 22.1996 33.9959 21.6528V29.8132H35.902V19.3522H34.4567C33.6713 20.1878 32.7392 20.7449 31.6709 20.9925Z" fill="#F8F8F8"/>
<path d="M48.9539 19.0745C50.8425 19.0745 52.2555 19.5703 53.2341 20.5619C54.1623 21.4882 54.6333 22.8365 54.6333 24.6022C54.6333 26.368 54.1623 27.6988 53.2341 28.6425C52.26 29.6341 50.8425 30.1256 48.9539 30.1256H44.7058V19.0745H48.9539ZM46.6127 28.5773H48.5972C50.0468 28.5773 51.1031 28.2511 51.7708 27.6162C52.4201 26.9681 52.7493 25.9591 52.7493 24.5979C52.7493 23.2366 52.4247 22.1841 51.7708 21.5622C51.1031 20.9272 50.0468 20.6184 48.5972 20.6184H46.6127V28.573V28.5773Z" fill="#F8F8F8"/>
<path d="M63.3216 22.7888C63.8429 23.2976 64.1036 24.0413 64.1036 25.0155V30.1214H62.3796V29.0689C62.055 29.4691 61.648 29.7648 61.177 29.9823C60.642 30.2128 60.0064 30.3389 59.2747 30.3389C58.3967 30.3389 57.7154 30.1214 57.2078 29.7039C56.6865 29.269 56.4259 28.7297 56.4259 28.0643C56.4259 27.1684 56.7825 26.4682 57.5325 25.9897C58.2138 25.5244 59.1741 25.2765 60.4133 25.246L62.2516 25.1982V24.8894C62.2516 23.8369 61.648 23.3237 60.4453 23.3237C59.9241 23.3237 59.5171 23.402 59.2107 23.5847C58.854 23.7847 58.6071 24.0935 58.5111 24.5154L56.6728 24.3762C56.8511 23.4933 57.3084 22.8453 58.0401 22.4409C58.6574 22.0712 59.5034 21.8972 60.578 21.8972C61.8126 21.8972 62.7409 22.193 63.3262 22.7801L63.3216 22.7888ZM60.5368 26.516C59.0552 26.5464 58.3236 27.0422 58.3236 28.0034C58.3236 28.2817 58.4379 28.5122 58.6985 28.6993C58.9592 28.8863 59.2839 28.995 59.6908 28.995C60.4042 28.995 61.0078 28.7949 61.4971 28.4079C61.9864 28.0077 62.247 27.4945 62.247 26.877V26.4725L60.5368 26.5203V26.516Z" fill="#F8F8F8"/>
<path d="M67.6653 22.1233L69.8969 27.8163L72.0278 22.1233H74.0444L69.4899 33.1875H67.5053L68.9869 29.9387L65.6533 22.1233H67.6699H67.6653Z" fill="#F8F8F8"/>
<path d="M36.5667 34.7314V36.2797H32.7576V45.7826H30.8508V36.2797H27.0508V34.7314H36.5713H36.5667Z" fill="#F8F8F8"/>
<path d="M45.2588 38.7588C46.0224 39.546 46.4157 40.555 46.4157 41.7901C46.4157 43.0253 46.027 44.0169 45.2771 44.791C44.4951 45.5956 43.4571 46.0001 42.1859 46.0001C40.9146 46.0001 39.8766 45.6 39.0947 44.791C38.331 44.0169 37.9561 43.0122 37.9561 41.7901C37.9561 40.568 38.331 39.546 39.113 38.7588C39.8766 37.9542 40.9009 37.5671 42.1905 37.5671C43.48 37.5671 44.486 37.9542 45.2679 38.7588H45.2588ZM40.3933 39.8722C40.0367 40.368 39.8583 41.016 39.8583 41.7901C39.8583 42.5643 40.0367 43.1993 40.3933 43.6951C40.8186 44.2691 41.4039 44.5605 42.1859 44.5605C42.9678 44.5605 43.5531 44.2648 43.9738 43.6951C44.3305 43.1862 44.5271 42.5512 44.5271 41.7901C44.5271 41.029 44.3305 40.368 43.9738 39.8722C43.5531 39.285 42.9495 39.0067 42.1859 39.0067C41.4222 39.0067 40.8186 39.285 40.3933 39.8722Z" fill="#F8F8F8"/>
<path d="M50.3855 37.7802V42.6556C50.3855 43.308 50.5136 43.769 50.8062 44.0778C51.0989 44.3735 51.5562 44.5257 52.2055 44.5257C52.6125 44.5257 53.0012 44.3561 53.3761 44.0299C53.7511 43.6907 54.0255 43.2427 54.1901 42.6687V37.7759H56.0466V45.7783H54.1901V44.7432C53.4722 45.5782 52.5942 45.9957 51.5516 45.9957C49.535 45.9957 48.5244 44.9128 48.5244 42.76V37.7759H50.381L50.3855 37.7802Z" fill="#F8F8F8"/>
<path d="M63.5137 37.7671V39.5329C63.0884 39.4111 62.6997 39.3632 62.311 39.3632C61.8217 39.3632 61.3828 39.5329 60.9941 39.9025C60.5368 40.32 60.3264 40.8637 60.3264 41.5422V45.7826H58.4882V37.7802H60.3264V38.924C60.5551 38.5195 60.8157 38.2107 61.1221 37.9933C61.4971 37.6975 61.9361 37.5583 62.4574 37.5583C62.8643 37.5583 63.221 37.6192 63.5137 37.7584V37.7671Z" fill="#F8F8F8"/>
<path d="M85.9062 40.2112L81.9691 43.6905L81.2191 42.9337L83.0894 40.8897H70.3496V39.5284H83.0894L81.2191 37.4843L81.9691 36.7275L85.9062 40.2112Z" fill="#F8F8F8"/>
<path d="M93.8887 27.343C94.0795 28.9642 94.0438 30.5619 93.7218 31.9129C93.6025 32.512 93.1493 32.7587 92.5769 32.5473C92.0044 32.3593 91.8852 31.8894 92.0998 31.349C92.5172 30.2917 92.8869 28.9759 92.9585 27.3783C92.9943 27.0611 93.1493 26.8731 93.4355 26.8848C93.6979 26.8848 93.8529 27.0376 93.8887 27.3313V27.343ZM96.2739 25.0522V40.8647C96.2739 41.4286 95.9519 41.734 95.3556 41.734C94.7593 41.734 94.4373 41.4168 94.4373 40.8647V25.0522C94.4373 24.4883 94.7593 24.1829 95.3556 24.1829C95.9519 24.1829 96.2739 24.4883 96.2739 25.0522ZM96.9775 29.5281C96.9059 28.6118 96.7151 27.625 96.5005 26.7439C96.4408 26.4619 96.572 26.2505 96.8105 26.18C97.061 26.1095 97.2637 26.2152 97.383 26.4619C97.8362 27.249 98.182 28.2711 98.3967 29.2109C98.5159 29.7043 98.3251 30.0215 97.8481 30.139C97.3949 30.233 97.0491 30.045 96.9894 29.5398L96.9775 29.5281ZM109.082 40.8647C108.927 41.4873 108.51 41.7105 107.747 41.5578C106.375 41.2993 104.789 40.8294 103.334 39.9836C101.593 40.8882 99.5773 41.4521 97.4307 41.6988C97.0729 41.734 96.8344 41.64 96.7867 41.3463C96.7271 41.0409 96.8225 40.8177 97.2041 40.7237C99.0168 40.3243 100.627 39.7604 101.962 39.0673C100.985 38.2802 100.114 37.3051 99.4819 36.0598H98.5517C98.1939 36.0598 97.9793 35.8484 97.9793 35.496C97.9793 35.1553 98.1939 34.9556 98.5517 34.9556H106.411C107.425 34.9556 107.842 35.6722 107.269 36.5298C106.673 37.4461 105.91 38.2449 105.039 38.9145C106.017 39.2552 107.067 39.4784 108.188 39.6429C109.011 39.7604 109.261 40.242 109.082 40.8647ZM98.5517 30.3857H107.425C108.069 30.3857 108.438 30.7381 108.438 31.3842V33.2051C108.438 33.8395 108.08 34.1802 107.425 34.1802H98.5517C97.9077 34.1802 97.538 33.8395 97.538 33.2051V31.3842C97.538 30.7499 97.8958 30.3857 98.5517 30.3857ZM98.8737 28.6705V25.8158C98.8737 25.1814 99.2315 24.8172 99.8874 24.8172H106.053C106.697 24.8172 107.067 25.1697 107.067 25.8158V28.6705C107.067 29.3049 106.709 29.6691 106.053 29.6691H99.8874C99.2434 29.6691 98.8737 29.3166 98.8737 28.6705ZM99.2553 32.8645C99.2553 32.9937 99.3507 33.0877 99.4819 33.0877H100.663V31.4665H99.4819C99.3507 31.4665 99.2553 31.5605 99.2553 31.6897V32.8527V32.8645ZM100.627 26.6969H105.302V26.1095C105.302 25.9803 105.206 25.8863 105.075 25.8863H100.853C100.698 25.8863 100.627 25.9803 100.627 26.1095V26.6969ZM100.627 28.3533C100.627 28.4825 100.698 28.5765 100.853 28.5765H105.075C105.206 28.5765 105.302 28.4825 105.302 28.3533V27.7189H100.627V28.3533ZM103.334 38.1862C104.097 37.6223 104.705 36.9997 105.206 36.33C105.302 36.1773 105.266 36.0481 105.075 36.0481H100.663C101.426 36.9527 102.32 37.6458 103.334 38.1862ZM102.261 33.0877H103.632V31.4665H102.261V33.0877ZM105.242 33.0877H106.482C106.614 33.0877 106.709 32.9937 106.709 32.8645V31.7014C106.709 31.5722 106.614 31.4782 106.482 31.4782H105.242V33.0994V33.0877Z" fill="#F8F8F8"/>
<path d="M121.21 31.8894C121.21 34.8029 121.138 37.2817 120.924 39.5255C120.757 41.3816 119.302 42.0277 116.988 40.9352C116.678 40.7825 116.583 40.5593 116.666 40.3008C116.762 40.0189 116.952 39.9249 117.298 39.9836C118.992 40.2656 119.135 40.0776 119.23 39.267C119.397 37.6693 119.493 34.6971 119.493 32.2536C119.493 32.1009 119.397 32.0304 119.266 32.0304H118.05C117.895 36.8235 117.227 39.2905 115.128 41.4286C114.901 41.6753 114.615 41.6871 114.424 41.4991C114.174 41.3111 114.162 41.0644 114.353 40.7825C115.939 38.3624 116.285 35.5547 116.285 28.7645H114.722C114.341 28.7645 114.126 28.5413 114.126 28.1771C114.126 27.813 114.341 27.6132 114.722 27.6132H117.203V25.017C117.203 24.4296 117.561 24.1007 118.181 24.1007C118.801 24.1007 119.159 24.4413 119.159 25.017V27.6132H121.222C121.603 27.6132 121.818 27.8247 121.818 28.1771C121.818 28.5531 121.603 28.7645 121.222 28.7645H118.109V30.8674H120.232C120.876 30.8674 121.246 31.2198 121.246 31.8777L121.21 31.8894ZM121.234 30.5502C121.019 30.3622 121.007 30.1038 121.198 29.8336C122.271 28.4826 122.88 26.7557 123.261 24.8643C123.416 24.1829 123.905 23.9597 124.561 24.0772C125.193 24.2064 125.396 24.6998 125.229 25.3577C125.11 25.8041 124.943 26.2623 124.752 26.7087H130.25C130.655 26.7087 130.882 26.9201 130.882 27.2726C130.882 27.672 130.655 27.8952 130.25 27.8952H124.156C123.607 28.8585 122.88 29.7748 121.961 30.5267C121.699 30.7499 121.448 30.7499 121.234 30.5502ZM130.667 41.0644C130.19 41.6048 129.582 41.6518 128.986 41.1232C127.197 39.5255 125.754 36.6238 125.587 31.396C125.169 31.4665 124.752 31.5487 124.323 31.584V39.0086C124.955 38.8558 125.563 38.6914 126.135 38.5152C126.553 38.3859 126.743 38.4799 126.875 38.7384C127.006 38.9968 126.946 39.2435 126.612 39.4667C125.527 40.1951 123.786 40.8765 122.474 41.1349C121.878 41.2641 121.425 41.0644 121.305 40.5123C121.15 39.8897 121.401 39.549 122.092 39.4197C122.224 39.3962 122.355 39.3845 122.498 39.3493V30.8086C122.498 30.2447 122.82 29.9393 123.416 29.9393C123.929 29.9393 124.239 30.1625 124.311 30.5972C125.611 30.1625 126.982 29.5281 127.96 28.882C128.508 28.5061 129.009 28.6001 129.319 29.0347C129.641 29.4694 129.582 29.9745 128.962 30.2917C128.318 30.6089 127.507 30.8909 126.648 31.1141C126.743 32.2771 126.899 33.3462 127.149 34.3095C127.686 33.8161 128.163 33.2757 128.604 32.6883C128.986 32.1949 129.427 32.1479 129.868 32.5003C130.309 32.8527 130.274 33.3461 129.808 33.7808C129.176 34.38 128.401 34.9321 127.483 35.3433C128.079 36.941 129.009 38.2567 130.44 39.3845C131.049 39.8779 131.144 40.477 130.691 41.0174L130.667 41.0644Z" fill="#F8F8F8"/>
<path d="M136.32 31.8774C136.32 31.337 136.631 31.0081 137.203 31.0081H151.788C152.361 31.0081 152.671 31.3252 152.671 31.8774C152.671 32.4295 152.361 32.7467 151.788 32.7467H137.203C136.631 32.7467 136.32 32.4413 136.32 31.8774Z" fill="#F8F8F8"/>
<path d="M160.542 40.5237V25.9095C160.542 25.2517 160.924 24.8757 161.591 24.8757H171.406C172.074 24.8757 172.456 25.2517 172.456 25.9095V40.5003C172.456 41.1581 172.098 41.4988 171.43 41.4988C170.762 41.4988 170.405 41.1581 170.405 40.5003V39.349H162.617V40.512C162.617 41.1464 162.259 41.4871 161.591 41.4871C160.924 41.4871 160.566 41.1464 160.566 40.512L160.542 40.5237ZM170.393 31.3135V26.4029C170.393 26.2737 170.297 26.1797 170.166 26.1797H162.832C162.701 26.1797 162.605 26.2737 162.605 26.4029V31.3135H170.393ZM170.393 38.045V32.5705H162.605V38.045H170.393Z" fill="#F8F8F8"/>
<path d="M195.962 41.123C193.958 41.2522 191.287 41.2874 189.104 41.1935C186.147 41.076 184.37 40.7235 183.225 38.7147C183.13 38.5502 182.998 38.562 182.915 38.7382C182.462 39.6662 182.116 40.3946 181.412 41.1817C180.971 41.6751 180.494 41.6869 180.077 41.2404C179.635 40.8058 179.695 40.3594 180.172 39.9247C180.864 39.3256 181.531 38.7264 182.009 38.1038V34.0626C182.009 33.9333 181.913 33.8394 181.782 33.8394H180.315C179.933 33.8394 179.719 33.6161 179.719 33.252C179.719 32.8878 179.933 32.6881 180.315 32.6881H182.831C183.499 32.6881 183.857 33.064 183.857 33.6984V37.9511C184.74 39.2668 186.564 39.6075 188.747 39.6075C191.382 39.631 193.887 39.4195 195.89 39.1963C196.618 39.1024 196.999 39.443 196.999 40.0774C197.023 40.7118 196.677 41.076 195.974 41.1347L195.962 41.123ZM180.255 28.7643C180.029 28.5411 180.005 28.3297 180.136 28.083C180.291 27.8597 180.518 27.7775 180.804 27.9302C181.639 28.2709 182.593 28.8701 183.416 29.5514C183.952 29.9508 184.012 30.4677 183.547 30.9377C183.094 31.4076 182.617 31.3723 182.152 30.8437C181.615 30.1153 180.887 29.3635 180.243 28.7526L180.255 28.7643ZM180.661 25.2165C180.446 24.9933 180.434 24.7701 180.565 24.5586C180.721 24.3472 180.923 24.2767 181.198 24.3942C182.02 24.7113 182.986 25.2752 183.809 25.9214C184.322 26.3208 184.358 26.8024 183.94 27.2724C183.523 27.7423 183.022 27.7188 182.581 27.2019C182.032 26.5205 181.376 25.8626 180.649 25.2282L180.661 25.2165ZM184.096 27.66C184.096 27.3076 184.31 27.0961 184.668 27.0961H186.385V24.8523C186.385 24.3119 186.707 24.0065 187.304 24.0065C187.9 24.0065 188.198 24.3119 188.198 24.8523V27.0961H189.915C190.273 27.0961 190.488 27.3076 190.488 27.66C190.488 28.036 190.273 28.2474 189.915 28.2474H187.53C187.53 28.8818 187.506 29.5044 187.494 30.0683H189.367C190.035 30.0683 190.416 30.4443 190.392 31.1374C190.333 34.4267 190.225 36.3299 190.082 37.2814C189.832 39.0319 188.198 39.3491 186.433 38.2448C186.183 38.0803 186.123 37.8688 186.206 37.6104C186.302 37.3872 186.516 37.2697 186.838 37.3519C188.103 37.6574 188.305 37.5986 188.425 36.882C188.556 36.0127 188.687 34.321 188.711 31.4663C188.711 31.3018 188.615 31.2196 188.484 31.2196H187.411C187.196 34.2975 186.552 36.3181 185.121 38.0685C184.895 38.327 184.668 38.374 184.418 38.1978C184.191 38.0333 184.155 37.7983 184.322 37.5047C185.467 35.437 185.777 33.4047 185.789 28.2474H184.668C184.31 28.2474 184.096 28.0242 184.096 27.66ZM190.046 28.9405C190.846 27.66 191.191 26.3325 191.442 24.7466C191.537 24.124 191.919 23.936 192.515 24.0182C193.111 24.1122 193.374 24.5586 193.207 25.1695C193.076 25.5807 192.944 26.0036 192.789 26.3678H196.319C196.677 26.3678 196.892 26.5792 196.892 26.9317C196.892 27.3076 196.677 27.5191 196.319 27.5191H192.277C191.895 28.2474 191.454 28.9053 190.905 29.5279C190.679 29.7864 190.428 29.8334 190.202 29.6572C189.975 29.4927 189.915 29.2577 190.07 28.9405H190.046ZM192.98 36.8233V34.227H191.144C190.762 34.227 190.547 34.0156 190.547 33.6396C190.547 33.2637 190.762 33.0758 191.144 33.0758H192.98V31.9245C192.98 31.3958 193.302 31.1021 193.863 31.1021H193.958C194.149 30.7849 194.304 30.4443 194.411 30.1388C194.471 30.0096 194.435 29.8804 194.256 29.8804H191.847C191.466 29.8804 191.251 29.6689 191.251 29.3165C191.251 28.964 191.466 28.7526 191.847 28.7526H195.306C196.2 28.7526 196.451 29.3517 196.009 30.1036C195.664 30.7262 195.175 31.3606 194.733 31.7952V33.0758H196.355C196.737 33.0758 196.952 33.2872 196.952 33.6396C196.952 33.9921 196.737 34.227 196.355 34.227H194.733V37.4107C194.733 38.8556 193.183 39.3608 191.048 38.3153C190.738 38.1625 190.643 37.9393 190.726 37.6809C190.822 37.4342 191.036 37.3284 191.37 37.3754C192.801 37.6221 192.968 37.4694 192.968 36.835L192.98 36.8233Z" fill="#F8F8F8"/>
</g>
<defs>
<clipPath id="clip0_7876_1121">
<rect width="172" height="29" fill="white" transform="translate(27 17)"/>
</clipPath>
</defs>
</svg>
