<svg width="984" height="288" viewBox="0 0 984 288" fill="none" xmlns="http://www.w3.org/2000/svg">
<path d="M44.288 96.096H48.64V107.36C48.64 108.704 48.896 108.96 50.432 108.96H55.616C57.024 108.96 57.344 108.256 57.472 103.328C58.368 103.968 60.096 104.608 61.312 104.928C60.864 111.2 59.648 112.8 56.192 112.8H49.92C45.312 112.8 44.288 111.584 44.288 107.36V96.096ZM28.16 94.048V101.408H24.064V89.952H60.032V101.152H55.744V94.048H28.16ZM34.112 96.224H38.528C37.888 106.08 35.456 111.392 24.96 114.272C24.576 113.184 23.488 111.648 22.592 110.816C31.744 108.576 33.6 104.416 34.112 96.224ZM22.272 117.792L15.296 120.096V139.36C15.296 141.984 14.72 143.264 13.12 144.032C11.584 144.736 9.152 144.928 5.184 144.864C4.992 143.776 4.416 141.792 3.776 140.512C6.528 140.576 9.024 140.576 9.792 140.512C10.56 140.512 10.88 140.32 10.88 139.36V121.504L3.264 124L2.048 119.392C4.48 118.752 7.552 117.792 10.88 116.768V103.648H2.88V99.296H10.88V86.496H15.296V99.296H22.144V103.648H15.296V115.424C17.408 114.784 19.52 114.08 21.632 113.376L22.272 117.792ZM60.544 123.552H46.912C50.56 129.568 56.512 135.2 62.336 138.08C61.312 138.976 59.776 140.64 59.008 141.792C53.376 138.528 47.744 132.64 43.84 126.176V144.864H39.232V126.24C35.136 133.088 29.12 138.848 22.592 142.112C21.888 141.024 20.608 139.36 19.52 138.464C26.112 135.648 32.384 130.016 36.16 123.552H22.976V119.2H39.232V112.352H43.84V119.2H60.544V123.552ZM82.624 131.04L87.168 132.704C82.816 137.12 76.288 141.408 70.784 144.16C69.952 143.328 68.224 141.664 67.072 140.896C72.704 138.464 78.848 134.816 82.624 131.04ZM116.352 128.544L98.176 129.12V144.992H93.568V129.248C84.096 129.504 75.328 129.696 68.672 129.824L68.416 125.408C72.512 125.408 77.504 125.408 83.008 125.344C84.48 124.512 85.952 123.552 87.424 122.592C84.288 120.096 79.488 117.088 75.392 115.04L78.528 112.352C79.552 112.864 80.704 113.44 81.792 114.016C84.608 111.84 87.808 108.96 90.112 106.528H73.408V114.336H68.928V102.432H93.504V96.288H69.12V92.064H93.504V86.432H98.176V92.064H122.752V96.288H98.176V102.432H123.328V114.336H118.656V106.528H93.568L95.552 107.488C92.352 110.432 88.64 113.632 85.312 116C87.488 117.344 89.664 118.752 91.264 120.032C96.32 116.512 101.312 112.672 104.832 109.472L109.184 111.776C103.68 116.256 96.64 121.248 90.24 125.28C97.024 125.216 104.384 125.088 111.616 124.96C109.184 123.168 106.56 121.44 104.192 119.968L107.264 117.472C112.96 120.736 119.936 125.664 123.52 129.056L120.128 131.936C119.168 130.912 117.824 129.76 116.352 128.544ZM104.32 133.6L107.968 131.168C113.408 133.792 120.384 138.016 124.032 141.152L120.064 144.032C116.8 140.96 109.952 136.48 104.32 133.6Z" fill="#F6AB00"/>
<path d="M874.88 130.08H887.232C887.232 130.08 887.168 131.232 887.104 131.808C886.4 139.104 885.76 142.176 884.416 143.52C883.456 144.352 882.496 144.736 880.896 144.8C879.616 144.864 876.992 144.864 874.24 144.736C874.176 143.712 873.792 142.112 873.216 141.088C875.712 141.344 878.144 141.408 879.04 141.408C880 141.408 880.448 141.344 880.896 140.96C881.6 140.256 882.112 138.272 882.624 133.664H873.92C872.064 138.976 868.48 142.624 861.12 144.928C860.736 144.032 859.584 142.496 858.752 141.728C864.704 140.064 867.776 137.376 869.504 133.664H861.12V130.08H870.656C870.912 128.8 871.104 127.392 871.232 125.856H875.456C875.328 127.328 875.136 128.736 874.88 130.08ZM908.416 132.256H895.296V139.232H908.416V132.256ZM891.008 144.8V128.672H912.896V144.608H908.416V142.752H895.296V144.8H891.008ZM896.768 117.088H879.104C880.32 118.368 881.408 120.096 881.792 121.376L879.36 121.952H896.32L894.272 121.504C895.104 120.16 896.064 118.432 896.768 117.088ZM871.488 108.768V113.76H904.704V108.768H871.488ZM899.584 117.088L901.888 117.6C900.736 119.264 899.648 120.8 898.752 121.952H915.456V125.664H860.416V121.952H876.992C876.544 120.608 875.52 118.88 874.368 117.664L877.184 117.088H867.136V105.44H909.312V117.088H899.584ZM890.176 90.848H915.904V94.496H890.176V98.4H911.488V101.92H864.576V98.4H885.44V94.496H860.352V90.848H885.44V86.496H890.176V90.848ZM980.288 108.512V112.288H923.776V108.512H949.504V104.416H929.92V100.832H949.504V96.928H926.528V93.216H939.648C938.752 91.488 937.408 89.504 936.128 87.904L940.224 86.496C942.08 88.416 943.936 91.104 944.704 93.024L944.256 93.216H959.552C960.768 91.232 962.368 88.288 963.2 86.304L968.256 87.648C966.976 89.568 965.568 91.616 964.416 93.216H977.6V96.928H954.304V100.832H974.208V104.416H954.304V108.512H980.288ZM976.832 118.816L974.08 121.952C971.968 120.032 967.552 117.536 963.904 116L966.464 113.184C970.112 114.528 974.592 116.896 976.832 118.816ZM971.392 127.136L975.488 128.544C973.248 131.488 970.304 134.112 966.912 136.352C969.408 139.04 972.224 140.576 975.104 140.512C976.832 140.448 977.344 138.976 977.664 134.432C978.624 135.2 980.096 135.968 981.312 136.288C980.608 143.072 978.944 144.8 974.912 144.864C970.368 144.864 966.336 142.624 963.008 138.72C958.528 141.152 953.6 143.136 948.736 144.672C948.224 143.776 947.008 141.792 946.24 140.896C951.232 139.616 956.288 137.76 960.704 135.456C959.104 132.832 957.76 129.76 956.736 126.304H941.824V130.592L953.28 129.696V133.088C949.44 133.472 945.6 133.792 941.824 134.176V140.192C941.824 142.624 941.184 143.712 939.392 144.224C937.536 144.864 934.528 144.864 929.728 144.864C929.472 143.776 928.768 142.176 928.256 141.088C931.712 141.216 935.04 141.216 936 141.152C936.96 141.152 937.28 140.96 937.28 140.064V134.56L923.904 135.776L923.456 131.936C927.232 131.68 932.032 131.36 937.28 130.976V126.304H923.712V122.592H937.28V118.24C933.312 118.624 929.28 118.944 925.568 119.136C925.44 118.176 924.928 116.832 924.48 116C933.184 115.488 943.616 114.336 949.312 112.864L952.192 115.872C949.248 116.576 945.664 117.216 941.824 117.664V122.592H955.776C955.136 119.648 954.752 116.512 954.56 113.248H959.168C959.296 116.576 959.744 119.712 960.384 122.592H980.48V126.304H961.408C962.304 128.928 963.392 131.232 964.608 133.216C967.296 131.424 969.664 129.376 971.392 127.136Z" fill="#F6AB00"/>
<g clip-path="url(#clip0_7200_4281)">
<path d="M193.05 113.46C193.48 110.86 193.83 107.9 194.1 104.55C194.37 101.2 194.51 97.41 194.51 93.2V14.75H169.39C165.6 14.75 162.58 14.89 160.31 15.15C158.04 15.43 155.94 15.88 153.99 16.53L156.59 0H246.84L249.6 16.53C247.65 15.88 245.49 15.43 243.12 15.15C240.74 14.88 237.71 14.75 234.04 14.75H209.25V93.2C209.25 97.74 209.38 101.66 209.65 104.95C209.92 108.25 210.32 111.09 210.87 113.46H193.04H193.05Z" fill="#F6AB00"/>
<path d="M247.33 113.46C248.73 111.09 250.25 108.19 251.87 104.79C253.49 101.39 255.21 97.53 257.06 93.2L288.98 20.26C290.7 16.27 291.97 12.67 292.79 9.48C293.6 6.3 294.22 3.14 294.65 0H318.63L318.79 0.33C319.44 4.22 320.17 7.79 320.98 11.03C321.79 14.27 322.85 17.35 324.14 20.27L356.22 93.21C357.94 97.42 359.67 101.31 361.41 104.88C363.13 108.45 364.65 111.31 365.95 113.47H347.64C347.42 111.63 346.83 109.45 345.86 106.91C344.88 104.37 343.59 101.16 341.97 97.27L337.27 86.73H276.02L271.16 97.27C270.08 99.86 269 102.51 267.92 105.21C266.52 109.1 265.76 111.86 265.65 113.48H247.34L247.33 113.46ZM332.56 74.4L313.6 31.77C312.95 30.15 312.3 28.56 311.65 26.99C311 25.42 310.46 23.83 310.03 22.21C309.49 21.02 308.98 19.84 308.49 18.64C308 17.45 307.54 16.21 307.11 14.91H305.98C305.44 16.21 304.93 17.45 304.44 18.64C303.95 19.83 303.55 20.96 303.22 22.04C302.68 23.66 302.09 25.29 301.44 26.91C300.79 28.53 300.14 30.2 299.49 31.93L280.54 74.4H332.55H332.56Z" fill="#F6AB00"/>
<path d="M381.97 113.46C382.51 111.19 382.92 108.38 383.19 105.03C383.46 101.69 383.59 97.74 383.59 93.2V20.26C383.59 15.72 383.46 11.78 383.19 8.43C382.92 5.08 382.52 2.27 381.97 0H400.12C399.58 2.27 399.14 5.05 398.82 8.35C398.5 11.65 398.34 15.62 398.34 20.26V93.2C398.34 97.84 398.5 101.82 398.82 105.11C399.15 108.41 399.58 111.19 400.12 113.46H381.97Z" fill="#F6AB00"/>
<path d="M449.54 113.46C449.43 110.65 449.13 107.62 448.65 104.38C448.16 101.14 447.54 97.73 446.78 94.17C446.67 93.63 446.54 93.09 446.38 92.55C446.22 92.01 446.08 91.47 445.98 90.93L424.59 20.26C424.59 20.16 424.57 20.07 424.51 20.02C424.45 19.97 424.43 19.89 424.43 19.78C423.35 15.24 422.29 11.38 421.27 8.18998C420.24 4.99998 419.14 2.27998 417.95 0.00998047H436.1C436.2 2.05998 436.47 4.32998 436.91 6.81998C437.34 9.30998 438.1 12.49 439.18 16.38L458.3 79.43C458.52 80.51 458.76 81.59 459.03 82.67C459.3 83.75 459.54 84.78 459.76 85.75C460.19 87.05 460.54 88.37 460.81 89.72C461.08 91.07 461.38 92.39 461.7 93.69H463L491.18 -1.95317e-05H504.47L532.66 93.68H533.96C534.18 92.49 534.45 91.31 534.77 90.11C535.1 88.92 535.36 87.74 535.58 86.54C535.91 85.35 536.23 84.25 536.56 83.22C536.89 82.2 537.15 81.09 537.37 79.9L556.82 16.36C556.92 16.04 556.98 15.82 556.98 15.71C557.84 12.14 558.52 9.05998 559 6.46998C559.49 3.86998 559.73 1.70998 559.73 -0.0200195H577.71C576.74 2.02998 575.76 4.67998 574.79 7.91998C573.82 11.16 572.68 15.1 571.39 19.75C571.39 19.86 571.36 19.94 571.31 19.99C571.25 20.04 571.23 20.13 571.23 20.23L550.01 90.58C549.79 91.23 549.6 91.85 549.44 92.45C549.28 93.04 549.14 93.66 549.03 94.31C548.28 97.77 547.66 101.12 547.17 104.36C546.68 107.6 546.39 110.63 546.28 113.44H525.86L498.47 22.35H497.34L469.95 113.44H449.54V113.46Z" fill="#F6AB00"/>
<path d="M575.93 113.46C577.33 111.09 578.85 108.19 580.47 104.79C582.09 101.39 583.81 97.53 585.66 93.2L617.58 20.26C619.3 16.27 620.57 12.67 621.39 9.48C622.2 6.3 622.82 3.14 623.25 0H647.23L647.39 0.33C648.04 4.22 648.77 7.79 649.58 11.03C650.39 14.27 651.45 17.35 652.74 20.27L684.82 93.21C686.54 97.42 688.27 101.31 690.01 104.88C691.73 108.45 693.25 111.31 694.55 113.47H676.24C676.02 111.63 675.43 109.45 674.46 106.91C673.48 104.37 672.19 101.16 670.57 97.27L665.87 86.73H604.62L599.76 97.27C598.68 99.86 597.6 102.51 596.52 105.21C595.12 109.1 594.36 111.86 594.25 113.48H575.94L575.93 113.46ZM661.16 74.4L642.2 31.77C641.55 30.15 640.9 28.56 640.25 26.99C639.6 25.42 639.06 23.83 638.63 22.21C638.09 21.02 637.58 19.84 637.09 18.64C636.6 17.45 636.14 16.21 635.71 14.91H634.58C634.04 16.21 633.53 17.45 633.04 18.64C632.55 19.83 632.15 20.96 631.82 22.04C631.28 23.66 630.69 25.29 630.04 26.91C629.39 28.53 628.74 30.2 628.09 31.93L609.14 74.4H661.15H661.16Z" fill="#F6AB00"/>
<path d="M710.58 113.46C711.12 110.86 711.56 107.92 711.88 104.63C712.2 101.34 712.36 97.53 712.36 93.21V20.26C712.36 15.83 712.2 12 711.88 8.75C711.55 5.51 711.12 2.59 710.58 0H726.95L795.65 89.8H797.43V20.26C797.43 15.83 797.29 11.89 797.02 8.43C796.75 4.97 796.4 2.16 795.97 0H813.8C813.37 2.27 813.01 5.08 812.75 8.43C812.48 11.78 812.35 15.72 812.35 20.26V113.46H797.93L728.9 23.02H726.96V92.55C726.96 96.87 727.12 100.82 727.44 104.38C727.77 107.95 728.2 110.97 728.74 113.46H710.59H710.58Z" fill="#F6AB00"/>
<path d="M273.41 287.9C261.53 287.9 250.83 285.52 241.33 280.77C231.83 276.01 224.29 269.24 218.73 260.43C213.17 251.63 210.39 241.38 210.39 229.72C210.39 218.06 213.17 207.7 218.73 198.68C224.29 189.66 231.88 182.66 241.5 177.69C251.11 172.72 261.81 170.23 273.58 170.23C279.95 170.23 286.19 170.9 292.29 172.26C298.39 173.61 303.82 175.48 308.58 177.85L307.45 193.74C303.13 190.93 298.19 188.71 292.62 187.09C287.05 185.47 281.25 184.66 275.2 184.66C265.7 184.66 257.16 186.61 249.6 190.5C242.04 194.39 236.13 199.74 231.86 206.55C227.6 213.36 225.46 221.08 225.46 229.73C225.46 238.38 227.59 246.32 231.86 252.9C236.13 259.49 242.07 264.57 249.69 268.14C257.3 271.71 265.81 273.49 275.21 273.49C282.77 273.49 289.98 272.3 296.84 269.92C303.7 267.55 309.56 264.25 314.42 260.04V277.06C308.58 280.52 302.29 283.19 295.54 285.08C288.78 286.97 281.41 287.92 273.42 287.92L273.41 287.9Z" fill="#F6AB00"/>
<path d="M334.98 285.79C335.52 283.3 335.96 280.42 336.28 277.12C336.6 273.83 336.76 269.96 336.76 265.53V192.59C336.76 188.16 336.6 184.3 336.28 181C335.95 177.71 335.52 174.81 334.98 172.33H353.13C352.59 174.6 352.15 177.38 351.83 180.68C351.51 183.98 351.35 187.95 351.35 192.59V222.9H420.21V192.59C420.21 188.05 420.07 184.11 419.8 180.76C419.53 177.41 419.13 174.6 418.59 172.33H436.57C436.03 174.6 435.59 177.41 435.27 180.76C434.94 184.11 434.78 188.05 434.78 192.59V265.53C434.78 270.07 434.94 274.01 435.27 277.36C435.59 280.71 436.02 283.52 436.57 285.79H418.59C419.13 283.52 419.53 280.74 419.8 277.44C420.07 274.15 420.21 270.17 420.21 265.53V236.51H351.35V265.53C351.35 270.17 351.51 274.15 351.83 277.44C352.16 280.74 352.59 283.52 353.13 285.79H334.98Z" fill="#F6AB00"/>
<path d="M464.61 285.79C465.15 283.52 465.56 280.71 465.83 277.36C466.1 274.02 466.23 270.07 466.23 265.53V192.59C466.23 188.05 466.1 184.11 465.83 180.76C465.56 177.41 465.16 174.6 464.61 172.33H482.76C482.22 174.6 481.78 177.38 481.46 180.68C481.14 183.98 480.98 187.95 480.98 192.59V265.53C480.98 270.17 481.14 274.15 481.46 277.44C481.79 280.74 482.22 283.52 482.76 285.79H464.61Z" fill="#F6AB00"/>
<path d="M498.8 285.79C500.2 283.42 501.72 280.52 503.34 277.12C504.96 273.72 506.68 269.86 508.53 265.53L540.45 192.59C542.17 188.6 543.44 185 544.26 181.81C545.07 178.63 545.69 175.47 546.12 172.33H570.1L570.26 172.66C570.91 176.55 571.64 180.12 572.45 183.36C573.26 186.6 574.32 189.68 575.61 192.6L607.69 265.54C609.41 269.75 611.14 273.64 612.88 277.21C614.6 280.78 616.12 283.64 617.42 285.8H599.11C598.89 283.96 598.3 281.78 597.33 279.24C596.35 276.7 595.06 273.49 593.44 269.6L588.74 259.06H527.49L522.63 269.6C521.55 272.19 520.47 274.84 519.39 277.54C517.99 281.43 517.23 284.19 517.12 285.81H498.81L498.8 285.79ZM584.03 246.73L565.07 204.1C564.42 202.48 563.77 200.89 563.12 199.32C562.47 197.75 561.93 196.16 561.5 194.54C560.96 193.35 560.45 192.17 559.96 190.97C559.47 189.78 559.01 188.54 558.58 187.24H557.45C556.91 188.54 556.4 189.78 555.91 190.97C555.42 192.16 555.02 193.29 554.69 194.37C554.15 195.99 553.56 197.62 552.91 199.24C552.26 200.86 551.61 202.53 550.96 204.26L532.01 246.73H584.02H584.03Z" fill="#F6AB00"/>
<path d="M660.02 285.79C660.56 283.63 660.96 281.15 661.23 278.33C661.5 275.52 661.64 272.07 661.64 267.95V241.05L627.29 192.75C624.27 188.11 621.56 184.14 619.19 180.84C616.81 177.55 614.6 174.71 612.55 172.33H632.32C633.29 174.38 634.53 176.79 636.05 179.54C637.56 182.29 639.51 185.45 641.88 189.02L668.29 225.98H669.59L696.33 189.02C698.7 185.45 700.59 182.4 702 179.87C703.4 177.33 704.7 174.82 705.89 172.33H725.66C723.61 174.6 721.37 177.44 718.94 180.84C716.51 184.24 713.78 188.22 710.76 192.75L676.57 241.05V267.95C676.57 271.84 676.7 275.16 676.97 277.92C677.24 280.67 677.64 283.29 678.19 285.78H660.04L660.02 285.79Z" fill="#F6AB00"/>
<path d="M742.65 285.79C743.19 283.52 743.6 280.71 743.87 277.36C744.14 274.02 744.27 270.07 744.27 265.53V192.59C744.27 188.05 744.14 184.11 743.87 180.76C743.6 177.41 743.2 174.6 742.65 172.33H760.8C760.26 174.6 759.82 177.38 759.5 180.68C759.18 183.98 759.02 187.95 759.02 192.59V265.53C759.02 270.17 759.18 274.15 759.5 277.44C759.83 280.74 760.26 283.52 760.8 285.79H742.65Z" fill="#F6AB00"/>
</g>
<defs>
<clipPath id="clip0_7200_4281">
<rect width="659.79" height="287.9" fill="white" transform="translate(154)"/>
</clipPath>
</defs>
</svg>
