<svg width="663" height="536" viewBox="0 0 663 536" fill="none" xmlns="http://www.w3.org/2000/svg">
<path d="M287.129 16.9651L242.708 0L134.454 41.3182V161H350.941V41.3182L287.129 16.9651Z" fill="#F6AB00"/>
<path d="M105.637 246L11.1605 340.445H200.102L105.637 246Z" fill="#ABCD03"/>
<path d="M183.156 290.085C149.412 290.085 120.529 310.941 108.707 340.457H257.605C245.782 310.941 216.911 290.085 183.156 290.085Z" fill="#ABCD03"/>
<path d="M0 275.481V340.445H180.554L0 275.481Z" fill="#ABCD03"/>
<path d="M412.548 203.987C412.548 203.88 412.548 203.786 412.534 203.692C412.534 203.786 412.534 203.88 412.548 203.987Z" fill="#BE8A43"/>
<path d="M412.521 203.371C412.521 203.277 412.521 203.197 412.507 203.117C412.507 203.197 412.507 203.277 412.521 203.371Z" fill="#BE8A43"/>
<path d="M541.266 205.513C538.816 208.149 510.971 210.224 476.967 210.224C442.963 210.224 415.118 208.149 412.668 205.513C413.19 213.222 414.984 232.241 420.366 244.569C427.233 260.336 435.882 267.47 444.034 273.827C452.174 280.185 446.069 282.219 446.832 285.271C447.595 288.309 461.184 290.33 476.86 290.357C476.86 290.357 476.94 290.357 476.994 290.357C477.047 290.357 477.074 290.357 477.128 290.357C492.791 290.33 506.392 288.309 507.155 285.271C507.919 282.219 501.814 280.185 509.953 273.827C518.093 267.47 526.741 260.349 533.622 244.569C539.004 232.201 540.798 213.115 541.32 205.446C541.32 205.472 541.32 205.486 541.32 205.513H541.266Z" fill="#BE8A43"/>
<path d="M412.601 204.709C412.601 204.602 412.601 204.509 412.588 204.402C412.588 204.509 412.588 204.602 412.601 204.709Z" fill="#BE8A43"/>
<path d="M541.387 203.398C541.387 203.291 541.387 203.197 541.4 203.103C541.4 203.197 541.4 203.291 541.387 203.398Z" fill="#BE8A43"/>
<path d="M541.36 203.987C541.36 203.866 541.36 203.759 541.374 203.652C541.374 203.759 541.374 203.866 541.36 203.987Z" fill="#BE8A43"/>
<path d="M541.32 204.709C541.32 204.602 541.32 204.509 541.333 204.402C541.333 204.509 541.333 204.602 541.32 204.709Z" fill="#BE8A43"/>
<path d="M477.088 286.917C477.088 286.917 477.008 286.917 476.954 286.917C476.914 286.917 476.874 286.917 476.82 286.917C462.67 286.89 450.22 285.244 447.368 282.688C446.94 283.544 446.565 284.361 446.792 285.271C447.555 288.309 461.144 290.33 476.82 290.357C476.82 290.357 476.9 290.357 476.954 290.357C477.008 290.357 477.034 290.357 477.088 290.357C492.751 290.33 506.352 288.309 507.116 285.271C507.343 284.374 506.968 283.558 506.54 282.688C503.688 285.244 491.238 286.904 477.088 286.917Z" fill="#BE8A43"/>
<path d="M476.954 197C441.33 197 412.454 199.275 412.454 202.086C412.454 202.555 413.27 203.01 414.756 203.438C420.901 201.136 446.404 199.423 476.954 199.423C507.504 199.423 533.006 201.149 539.151 203.438C540.651 203.01 541.454 202.555 541.454 202.086C541.454 199.275 512.577 197 476.954 197Z" fill="#BE8A43"/>
<path d="M661.43 453.304C657.545 444.094 642.379 445.402 638.401 439.93C629.549 417.106 600.419 416.825 579.086 411.78C585.12 396.671 569.313 378.879 554.655 387.261C538.007 337.502 496.034 372.952 475.301 394.455C451.017 377.664 442.607 426.008 418.763 412.247C394.733 426.369 378.739 439.263 353.454 453.304H661.43Z" fill="white" stroke="#BE8A43" stroke-width="1.38" stroke-miterlimit="10"/>
<path d="M257.454 490.251H11.4539" stroke="#009683" stroke-width="2" stroke-miterlimit="10"/>
<path d="M235.258 479V501.503" stroke="#009683" stroke-width="2" stroke-miterlimit="10"/>
<path d="M194.939 479V501.503" stroke="#009683" stroke-width="2" stroke-miterlimit="10"/>
<path d="M154.62 479V501.503" stroke="#009683" stroke-width="2" stroke-miterlimit="10"/>
<path d="M114.288 479V501.503" stroke="#009683" stroke-width="2" stroke-miterlimit="10"/>
<path d="M73.969 479V501.503" stroke="#009683" stroke-width="2" stroke-miterlimit="10"/>
<path d="M33.6498 479V501.503" stroke="#009683" stroke-width="2" stroke-miterlimit="10"/>
<path d="M257.454 524.292H11.4539" stroke="#009683" stroke-width="2" stroke-miterlimit="10"/>
<path d="M235.258 513.041V535.544" stroke="#009683" stroke-width="2" stroke-miterlimit="10"/>
<path d="M194.939 513.041V535.544" stroke="#009683" stroke-width="2" stroke-miterlimit="10"/>
<path d="M154.62 513.041V535.544" stroke="#009683" stroke-width="2" stroke-miterlimit="10"/>
<path d="M114.288 513.041V535.544" stroke="#009683" stroke-width="2" stroke-miterlimit="10"/>
<path d="M73.969 513.041V535.544" stroke="#009683" stroke-width="2" stroke-miterlimit="10"/>
<path d="M33.6498 513.041V535.544" stroke="#009683" stroke-width="2" stroke-miterlimit="10"/>
</svg>
