<svg width="28" height="28" viewBox="0 0 28 28" fill="none" xmlns="http://www.w3.org/2000/svg">
<g clip-path="url(#clip0_7596_4611)">
<path d="M28 14C28 6.26801 21.732 0 14 0C6.26801 0 0 6.26801 0 14C0 21.732 6.26801 28 14 28C21.732 28 28 21.732 28 14Z" fill="#4B4B4B"/>
<path d="M11.8665 22.4602H15.2727V13.9263H17.649L17.8991 11.0719H15.2654V9.44601C15.2654 8.76919 15.3978 8.50434 16.0526 8.50434H17.8991V5.53955H15.5376C12.9995 5.53955 11.8592 6.65778 11.8592 8.79126V11.0719H10.0862V13.9631H11.8592V22.4602H11.8665Z" fill="#E6E400"/>
</g>
<defs>
<clipPath id="clip0_7596_4611">
<rect width="28" height="28" fill="white"/>
</clipPath>
</defs>
</svg>
