<svg width="83" height="62" viewBox="0 0 83 62" fill="none" xmlns="http://www.w3.org/2000/svg">
<g clip-path="url(#clip0_7194_4085)">
<path d="M57.922 6.48879L41.0667 0L0 15.8062V61.5952H82.1333V15.8062L57.922 6.48879ZM25.53 41.0699C21.7993 41.0699 18.7783 38.0189 18.7783 34.262C18.7783 30.5051 21.8041 27.4541 25.53 27.4541C29.2559 27.4541 32.2817 30.5051 32.2817 34.262C32.2817 38.0189 29.2559 41.0699 25.53 41.0699ZM56.6033 41.0699C52.8726 41.0699 49.8516 38.0189 49.8516 34.262C49.8516 30.5051 52.8774 27.4541 56.6033 27.4541C60.3293 27.4541 63.3551 30.5051 63.3551 34.262C63.3551 38.0189 60.3293 41.0699 56.6033 41.0699Z" fill="#ABCD03"/>
</g>
<defs>
<clipPath id="clip0_7194_4085">
<rect width="82.1333" height="61.6" fill="white"/>
</clipPath>
</defs>
</svg>
