<svg width="28" height="28" viewBox="0 0 28 28" fill="none" xmlns="http://www.w3.org/2000/svg">
<g clip-path="url(#clip0_7596_4615)">
<path d="M14 28C6.268 28 0 21.732 0 14C0 6.268 6.268 0 14 0C21.732 0 28 6.268 28 14C28 21.732 21.732 28 14 28Z" fill="#4B4B4B"/>
<path d="M14 7.70974C16.0525 7.70974 16.2953 7.7171 17.1046 7.75388C17.855 7.79066 18.2596 7.91573 18.5318 8.01872C18.8923 8.1585 19.1424 8.32771 19.4146 8.59256C19.6868 8.86476 19.8486 9.11489 19.9884 9.47537C20.0914 9.74757 20.2165 10.1522 20.2533 10.9026C20.2901 11.7118 20.2974 11.9546 20.2974 14.0072C20.2974 16.0597 20.2901 16.3025 20.2533 17.1117C20.2165 17.8621 20.0914 18.2668 19.9884 18.539C19.8486 18.8994 19.6794 19.1496 19.4146 19.4218C19.1498 19.6866 18.8923 19.8558 18.5318 19.9956C18.2596 20.0986 17.855 20.2237 17.1046 20.2604C16.2953 20.2972 16.0525 20.3046 14 20.3046C11.9474 20.3046 11.7047 20.2972 10.8954 20.2604C10.145 20.2237 9.7404 20.0986 9.4682 19.9956C9.10771 19.8558 8.85758 19.6866 8.58538 19.4218C8.32054 19.1496 8.15133 18.8994 8.01155 18.539C7.90855 18.2668 7.78349 17.8621 7.7467 17.1117C7.70992 16.3025 7.70256 16.0597 7.70256 14.0072C7.70256 11.9546 7.70992 11.7118 7.7467 10.9026C7.78349 10.1522 7.90855 9.74757 8.01155 9.47537C8.15133 9.11489 8.32054 8.86476 8.58538 8.59256C8.85758 8.32035 9.10771 8.1585 9.4682 8.01872C9.7404 7.91573 10.145 7.79066 10.8954 7.75388C11.7047 7.7171 11.9474 7.70974 14 7.70974ZM14 6.32666C11.918 6.32666 11.6532 6.33402 10.8366 6.3708C10.02 6.40758 9.46084 6.54001 8.97529 6.73128C8.46767 6.92992 8.04098 7.18741 7.61428 7.6141C7.18759 8.0408 6.92274 8.46749 6.73147 8.97511C6.54019 9.46066 6.41512 10.0198 6.37834 10.8364C6.34156 11.653 6.3342 11.9178 6.3342 13.9998C6.3342 16.0818 6.34156 16.3466 6.37834 17.1632C6.41512 17.9798 6.54755 18.539 6.73147 19.0245C6.9301 19.5321 7.18759 19.9588 7.61428 20.3855C8.04098 20.8122 8.46767 21.0771 8.97529 21.2683C9.46084 21.4596 10.02 21.5847 10.8366 21.6288C11.6532 21.6656 11.918 21.673 14 21.673C16.082 21.673 16.3468 21.6656 17.1634 21.6288C17.98 21.592 18.5391 21.4596 19.0247 21.2683C19.5323 21.0697 19.959 20.8122 20.3857 20.3855C20.8124 19.9588 21.0772 19.5321 21.2685 19.0245C21.4598 18.539 21.5849 17.9798 21.629 17.1632C21.6658 16.3466 21.6731 16.0818 21.6731 13.9998C21.6731 11.9178 21.6658 11.653 21.629 10.8364C21.5922 10.0198 21.4598 9.46066 21.2685 8.97511C21.0699 8.46749 20.8124 8.0408 20.3857 7.6141C19.959 7.18741 19.5323 6.92256 19.0247 6.73128C18.5391 6.54001 17.98 6.41494 17.1634 6.3708C16.3468 6.33402 16.082 6.32666 14 6.32666Z" fill="#E6E400"/>
<path d="M14 10.0566C11.8224 10.0566 10.0567 11.8223 10.0567 13.9999C10.0567 16.1775 11.8224 17.9431 14 17.9431C16.1776 17.9431 17.9432 16.1775 17.9432 13.9999C17.9432 11.8223 16.1776 10.0566 14 10.0566ZM14 16.5601C12.5875 16.5601 11.4398 15.4124 11.4398 13.9999C11.4398 12.5874 12.5875 11.4397 14 11.4397C15.4125 11.4397 16.5601 12.5874 16.5601 13.9999C16.5601 15.4124 15.4125 16.5601 14 16.5601Z" fill="#E6E400"/>
<path d="M19.0173 9.90202C19.0173 10.4096 18.6054 10.8216 18.0977 10.8216C17.5901 10.8216 17.1781 10.4096 17.1781 9.90202C17.1781 9.3944 17.5901 8.98242 18.0977 8.98242C18.6054 8.98242 19.0173 9.3944 19.0173 9.90202Z" fill="#E6E400"/>
</g>
<defs>
<clipPath id="clip0_7596_4615">
<rect width="28" height="28" fill="white"/>
</clipPath>
</defs>
</svg>
