<svg width="252" height="64" viewBox="0 0 252 64" fill="none" xmlns="http://www.w3.org/2000/svg">
<g clip-path="url(#clip0_7596_4942)">
<path d="M99.0258 45.3684H0V46.5946H99.0258V45.3684Z" fill="#009684"/>
<path d="M90.7108 41.5056H89.4694V50.4589H90.7108V41.5056Z" fill="#009684"/>
<path d="M74.4802 41.5056H73.2388V50.4589H74.4802V41.5056Z" fill="#009684"/>
<path d="M58.2496 41.5056H57.0082V50.4589H58.2496V41.5056Z" fill="#009684"/>
<path d="M42.019 41.5056H40.7776V50.4589H42.019V41.5056Z" fill="#009684"/>
<path d="M25.7869 41.5056H24.5456V50.4589H25.7869V41.5056Z" fill="#009684"/>
<path d="M9.55634 41.5056H8.315V50.4589H9.55634V41.5056Z" fill="#009684"/>
<path d="M99.0258 58.9109H0V60.1371H99.0258V58.9109Z" fill="#009684"/>
<path d="M90.7108 55.0466H89.4694V63.9999H90.7108V55.0466Z" fill="#009684"/>
<path d="M74.4802 55.0466H73.2388V63.9999H74.4802V55.0466Z" fill="#009684"/>
<path d="M58.2496 55.0466H57.0082V63.9999H58.2496V55.0466Z" fill="#009684"/>
<path d="M42.019 55.0466H40.7776V63.9999H42.019V55.0466Z" fill="#009684"/>
<path d="M25.7869 55.0466H24.5456V63.9999H25.7869V55.0466Z" fill="#009684"/>
<path d="M9.55634 55.0466H8.315V63.9999H9.55634V55.0466Z" fill="#009684"/>
<path d="M3.85866 4.37153C4.01697 6.77573 3.83351 9.10248 3.22394 11.0361C3.039 11.6368 2.56258 11.8984 2.00923 11.6631C1.42629 11.4278 1.29461 10.9571 1.53282 10.4091C2.24744 8.81602 2.74901 6.72458 2.9088 4.3993C2.93395 4.05877 3.09374 3.87608 3.38373 3.90092C3.64857 3.90092 3.83351 4.0573 3.85866 4.37153ZM6.76596 1.10649V23.7645C6.76596 24.2862 6.44786 24.5741 5.91967 24.5741C5.36484 24.5741 5.07337 24.2862 5.07337 23.7645V1.10649C5.07337 0.58327 5.36336 0.269043 5.91967 0.269043C6.47597 0.269043 6.76596 0.58327 6.76596 1.10649ZM8.3254 7.84995C8.16709 6.46443 7.82384 4.76468 7.50574 3.5107C7.42732 3.22424 7.559 3.01378 7.82384 2.91001C8.06204 2.83255 8.3254 2.93632 8.43193 3.22424C9.01339 4.40076 9.51495 6.09905 9.85969 7.56203C9.96622 8.08526 9.77979 8.42433 9.2516 8.52956C8.74855 8.63479 8.38015 8.39948 8.32688 7.85141L8.3254 7.84995ZM25.0058 23.7133C24.8208 24.314 24.371 24.4967 23.6594 24.3666C21.3853 23.9223 19.0846 23.1901 17.0488 21.9887C14.5913 23.3201 11.6825 24.1576 8.51035 24.523C8.16709 24.5478 7.92888 24.4704 7.84899 24.1561C7.79573 23.8697 7.90225 23.6081 8.29877 23.5291C11.1543 23.0322 13.6399 22.1977 15.6743 21.0738C14.1415 19.9236 12.7921 18.4591 11.7875 16.5782H10.2281C9.83158 16.5782 9.62148 16.3428 9.62148 15.9775C9.62148 15.6121 9.83158 15.4031 10.2281 15.4031H21.3853C22.4432 15.4031 22.8649 16.1339 22.2849 17.0488C21.3853 18.5907 20.144 19.8973 18.6363 20.9949C20.249 21.6745 22.0999 22.1714 24.1358 22.4856C24.9288 22.6157 25.167 23.0863 25.0072 23.7148L25.0058 23.7133ZM10.2296 8.99871H22.893C23.5795 8.99871 23.976 9.3904 23.976 10.07V12.9711C23.976 13.6493 23.5795 14.0161 22.893 14.0161H10.2296C9.54307 14.0161 9.14655 13.6493 9.14655 12.9711V10.07C9.14655 9.3904 9.54307 8.99871 10.2296 8.99871ZM10.8125 12.5531C10.8125 12.7358 10.919 12.8674 11.1025 12.8674H13.56V10.1752H11.1025C10.9176 10.1752 10.8125 10.3053 10.8125 10.4617V12.5531ZM11.0759 6.62081V2.25525C11.0759 1.57564 11.4724 1.21026 12.1604 1.21026H20.8838C21.5717 1.21026 21.9683 1.57564 21.9683 2.25525V6.61935C21.9683 7.2975 21.5717 7.69065 20.8838 7.69065H12.1604C11.4724 7.69065 11.0759 7.2975 11.0759 6.61935V6.62081ZM12.7152 3.85123H20.3289V2.6484C20.3289 2.46571 20.2239 2.36194 20.0389 2.36194H13.0082C12.8217 2.36194 12.7167 2.46717 12.7167 2.6484V3.85123H12.7152ZM12.7152 6.22912C12.7152 6.41181 12.8217 6.51558 13.0067 6.51558H20.0375C20.2239 6.51558 20.3275 6.41035 20.3275 6.22912V4.97368H12.7137V6.22912H12.7152ZM17.0784 20.2115C18.3996 19.2703 19.4826 18.1975 20.2254 16.9713C20.357 16.7345 20.2786 16.5782 20.0389 16.5782H12.9549C14.0912 18.0952 15.4657 19.2966 17.0784 20.2115ZM15.1224 12.8674H17.8729V10.1752H15.1224V12.8674ZM19.4575 12.8674H22.0215C22.208 12.8674 22.313 12.7358 22.313 12.5531V10.4617C22.313 10.3053 22.2065 10.1752 22.0215 10.1752H19.4575V12.8674Z" fill="#231815"/>
<path d="M55.6545 22.6653C55.6545 23.2412 55.3112 23.6329 54.675 23.6592C51.7411 23.8682 47.5629 23.8945 44.5505 23.7893C40.1356 23.6066 37.968 22.927 36.4337 20.2875C36.3021 20.0785 36.1438 20.1048 36.0372 20.2875C35.1643 21.7256 34.4245 22.8495 33.3933 23.9208C32.9701 24.3651 32.4937 24.4177 32.0972 23.9983C31.6755 23.5803 31.7273 23.136 32.1756 22.718C33.2601 21.7256 34.2381 20.8107 35.2427 19.5041V13.6492C35.2427 13.4665 35.1096 13.3628 34.9527 13.3628H32.2822C31.9123 13.3628 31.6755 13.1275 31.6755 12.7621C31.6755 12.3967 31.9137 12.1614 32.2822 12.1614H35.9041C36.5921 12.1614 36.9886 12.5531 36.9886 13.2312V19.4003C38.3631 21.5166 40.4256 22.1699 44.1525 22.2488C47.5629 22.3 51.423 22.0924 54.6203 21.803C55.2816 21.7256 55.653 22.0384 55.653 22.6653H55.6545ZM32.1786 5.78332C32.3369 5.54801 32.5751 5.49686 32.8666 5.65324C34.0561 6.25393 35.5623 7.29891 36.7252 8.31906C37.2283 8.73705 37.28 9.23397 36.8317 9.67973C36.382 10.124 35.9056 10.124 35.4839 9.60081C34.5059 8.50321 33.3164 7.32668 32.3117 6.46439C32.0735 6.25539 32.0469 6.02008 32.1786 5.78478V5.78332ZM33.0781 1.39291C32.8399 1.1576 32.8148 0.922299 32.9716 0.713301C33.1299 0.505765 33.3696 0.426843 33.633 0.583226C34.8492 1.23653 36.2769 2.20405 37.3881 3.19643C37.8378 3.56327 37.863 4.05872 37.4665 4.50449C37.0433 4.94879 36.5418 4.92102 36.1186 4.45187C35.2723 3.43319 34.1893 2.36044 33.0781 1.39437V1.39291ZM37.7047 5.10371C37.7047 4.71202 37.9163 4.50303 38.3128 4.50303H41.4065V0.922299C41.4065 0.400536 41.6965 0.112616 42.2262 0.112616C42.7558 0.112616 43.0443 0.400536 43.0443 0.922299V4.50303H46.0582C46.4281 4.50303 46.6663 4.71202 46.6663 5.10371C46.6663 5.47055 46.4281 5.67809 46.0582 5.67809H41.9865C41.9865 6.72454 41.9613 7.69206 41.9332 8.57921H45.1068C45.7933 8.57921 46.1899 8.9972 46.1899 9.70312C46.11 13.9883 45.9516 17.3089 45.7401 18.6418C45.422 20.7054 43.4675 21.0971 40.7954 19.7394C40.5055 19.5567 40.4256 19.3477 40.5054 19.1109C40.5839 18.8508 40.7954 18.7455 41.1668 18.8245C43.5208 19.4003 43.9957 19.2425 44.154 18.1712C44.3389 16.942 44.5239 14.0409 44.5505 10.0948C44.5505 9.88581 44.4174 9.78058 44.2605 9.78058H41.8799C41.6166 14.4852 40.7969 17.2299 38.7877 19.6342C38.548 19.9206 38.3113 19.9732 38.0731 19.7642C37.8349 19.6093 37.8082 19.3477 37.9947 19.0583C39.8189 16.2624 40.3205 13.2575 40.3471 5.67809H38.3113C37.9148 5.67809 37.7032 5.47055 37.7032 5.10371H37.7047ZM45.9798 7.21999C47.1442 5.41794 47.8558 3.22127 48.3056 0.790762C48.4388 0.190077 48.782 0.0336941 49.3635 0.111155C49.9183 0.190077 50.1565 0.608072 49.9982 1.18245C49.7881 1.99213 49.5484 2.75066 49.2584 3.50773H54.783C55.1796 3.50773 55.3911 3.71673 55.3911 4.08357C55.3911 4.47526 55.1796 4.68425 54.783 4.68425H48.7554C48.2006 5.83447 47.5658 6.87946 46.7994 7.79437C46.5597 8.05598 46.323 8.10714 46.0848 7.92445C45.8466 7.76806 45.7948 7.53276 45.9783 7.21853L45.9798 7.21999ZM50.4213 18.196V13.9108H47.2226C46.8527 13.9108 46.6145 13.7018 46.6145 13.335C46.6145 12.9682 46.8527 12.7606 47.2226 12.7606H50.4213V10.827C50.4213 10.3301 50.738 10.0173 51.2395 10.0173C51.3461 10.0173 51.426 10.0173 51.5044 10.0422C51.9808 9.4415 52.4039 8.78821 52.6407 8.24013C52.7206 8.08375 52.6673 7.92591 52.4557 7.92591H48.1991C47.8292 7.92591 47.5925 7.6906 47.5925 7.35007C47.5925 6.98469 47.8307 6.77569 48.1991 6.77569H53.5668C54.5448 6.77569 54.8097 7.42899 54.28 8.26498C53.6985 9.23251 52.8522 10.279 52.0858 10.9308V12.7606H54.9162C55.2861 12.7606 55.4977 12.9696 55.4977 13.335C55.4977 13.7004 55.2861 13.9108 54.9162 13.9108H52.0858V18.7192C52.0858 20.4964 50.2616 21.0445 47.2492 19.8431C46.906 19.7131 46.7994 19.5041 46.8793 19.2162C46.9577 18.9545 47.1693 18.8508 47.5407 18.9034C50.0781 19.3477 50.4228 19.1387 50.4228 18.196H50.4213Z" fill="#231815"/>
<path d="M73.9017 18.5629C73.7952 20.0259 73.6117 21.5693 73.3986 22.8232C73.0805 24.4967 71.3376 25.0711 68.2173 23.5292C67.9273 23.3991 67.8474 23.2149 67.9539 22.9548C68.0323 22.6932 68.2439 22.5879 68.5605 22.6406C71.2578 23.2149 71.6276 23.0849 71.7342 22.3789C71.9443 21.2287 72.0508 19.9221 72.1307 18.9546C72.1558 18.7471 72.0242 18.6418 71.8392 18.6418H68.6937C67.9258 21.7783 66.1814 23.5277 62.956 24.5215C62.6128 24.6268 62.4012 24.5741 62.2695 24.2848C62.163 23.9983 62.2429 23.763 62.5862 23.6066C65.31 22.4301 66.4995 21.0446 67.0544 18.6404H63.6707C63.2993 18.6404 63.0626 18.4051 63.0626 18.0397C63.0626 17.6743 63.3008 17.4638 63.6707 17.4638H67.2645C67.3177 17.1774 67.3444 16.888 67.371 16.5752C67.4243 15.9746 67.7409 15.7129 68.2972 15.7393C68.8254 15.7919 69.1154 16.1061 69.0103 16.7594C68.9852 16.9947 68.9571 17.23 68.9038 17.4653H72.8438C73.5584 17.4653 73.955 17.857 73.9017 18.5629ZM85.9037 14.9033C85.9037 15.2964 85.6655 15.5054 85.2957 15.5054H62.8776C62.5063 15.5054 62.2695 15.2701 62.2695 14.9033C62.2695 14.5364 62.5077 14.3289 62.8776 14.3289H70.1466C70.1215 14.3289 70.1215 14.3026 70.1215 14.3026C69.6717 13.5718 69.0902 12.7344 68.6937 12.1863C68.5872 12.0036 68.5354 11.8721 68.5872 11.742H67.4509C66.7629 11.742 66.3664 11.3503 66.3664 10.6707V8.60703C66.3664 7.92742 66.7629 7.53573 67.4509 7.53573H80.7475C81.4355 7.53573 81.8054 7.92742 81.8054 8.60703V10.6707C81.8054 11.3503 81.4355 11.742 80.7475 11.742H79.2414C79.5846 12.0562 79.5313 12.4201 79.1881 12.8659C78.7649 13.3877 78.2619 13.9109 77.8121 14.3289H85.2942C85.6655 14.3289 85.9023 14.5379 85.9023 14.9033H85.9037ZM63.1425 2.75218C63.1425 2.4131 63.354 2.1778 63.7506 2.1778H73.1353V1.02758C73.1353 0.47951 73.48 0.165283 74.0349 0.165283C74.5897 0.165283 74.9078 0.47951 74.9078 1.02758V2.1778H84.3976C84.7689 2.1778 85.0057 2.38533 85.0057 2.75218C85.0057 3.14386 84.7675 3.37917 84.3976 3.37917H74.9078V5.07746H82.3366C82.7331 5.07746 82.9713 5.28645 82.9713 5.65329C82.9713 6.04498 82.7331 6.28029 82.3366 6.28029H65.7331C65.3366 6.28029 65.125 6.04498 65.125 5.65329C65.125 5.31422 65.3366 5.07746 65.7331 5.07746H73.1353V3.37917H63.7506C63.354 3.37917 63.1425 3.14386 63.1425 2.75218ZM68.3771 10.5669H79.7991C79.9841 10.5669 80.0891 10.4369 80.0891 10.2805V9.00018C80.0891 8.81749 79.9826 8.71372 79.7991 8.71372H68.3771C68.2188 8.71372 68.0871 8.81895 68.0871 9.00018V10.2805C68.0871 10.4369 68.2188 10.5669 68.3771 10.5669ZM71.5226 14.3303H76.3341C76.8371 13.6507 77.3135 12.8674 77.8417 11.9524C77.895 11.8735 77.9482 11.7961 78 11.7435H69.7249C70.2798 12.1878 70.9411 12.7884 71.4427 13.3643C71.7342 13.7034 71.7342 14.0424 71.5226 14.3318V14.3303ZM83.9744 18.0675V23.7133C83.9744 24.2614 83.6829 24.5493 83.1281 24.5493C82.5733 24.5493 82.2818 24.2628 82.2818 23.7133V23.0337H77.2588V23.7396C77.2588 24.2877 76.9673 24.5771 76.4125 24.5771C75.8577 24.5771 75.5928 24.2891 75.5928 23.7396V18.0689C75.5928 17.3893 75.9893 16.9976 76.6758 16.9976H82.8884C83.5764 16.9976 83.9729 17.3893 83.9729 18.0689L83.9744 18.0675ZM82.2818 21.8309V18.4854C82.2818 18.3013 82.1487 18.1975 81.9904 18.1975H77.5503C77.3919 18.1975 77.2603 18.3028 77.2603 18.4854V21.8309H82.2833H82.2818Z" fill="#231815"/>
<path d="M115.733 18.3276C116.103 22.5879 115.89 24.7568 113.909 24.4952C111.714 24.2087 110.05 23.0834 108.832 21.3339C106.928 22.5616 104.814 23.4239 102.435 23.8945C102.063 23.972 101.8 23.8697 101.72 23.5803C101.642 23.2938 101.747 23.0585 102.117 22.9533C104.471 22.2211 106.427 21.2535 108.066 20.0259C107.458 18.7982 107.008 17.3337 106.69 15.6881H101.112V17.6743C102.46 17.4653 103.703 17.2037 104.761 16.9684C105.132 16.8894 105.395 16.9684 105.447 17.2548C105.527 17.5939 105.369 17.8029 105.051 17.9081C103.888 18.275 102.513 18.6403 101.112 18.9531V22.0106C101.112 24.2321 99.2877 24.8065 95.1894 23.5788C94.8461 23.4736 94.7677 23.2646 94.8195 22.9781C94.8728 22.6917 95.1095 22.5601 95.4794 22.6128C98.9696 23.0307 99.4194 22.9007 99.4194 21.7241V19.2936C97.5685 19.6605 95.6924 19.9718 94.0265 20.1559C93.4184 20.2334 93.047 19.9718 93.0218 19.45C93.0218 18.902 93.2334 18.6403 93.84 18.6126C95.5844 18.4825 97.5419 18.2472 99.4179 17.9593V15.6851H93.4702C93.0736 15.6851 92.8621 15.4498 92.8621 15.0845C92.8621 14.7191 93.0736 14.4838 93.4702 14.4838H99.4179V12.9682C97.9384 13.2035 96.3774 13.3847 94.8713 13.4651C94.5014 13.4899 94.2632 13.3336 94.2366 13.0208C94.2114 12.7066 94.3431 12.5224 94.7662 12.4713C97.6735 12.1585 100.687 11.3737 103.198 10.4076C103.701 10.1986 104.203 10.2512 104.414 10.7744C104.626 11.3225 104.361 11.7668 103.886 11.9232C103.04 12.2111 102.114 12.4464 101.109 12.6554V14.4852H106.475C106.344 13.4914 106.237 12.4201 106.185 11.2962C106.159 10.694 106.475 10.4076 106.978 10.4076C107.481 10.4076 107.798 10.694 107.825 11.245C107.878 12.3675 107.983 13.4666 108.143 14.4852H115.385C115.782 14.4852 115.993 14.7205 115.993 15.0859C115.993 15.4513 115.782 15.6866 115.385 15.6866H108.354C108.618 16.888 108.936 17.987 109.386 18.9531C110.153 18.2223 110.84 17.4375 111.475 16.5752C111.871 16.0783 112.348 15.9745 112.823 16.3151C113.272 16.6541 113.272 17.2037 112.901 17.6465C112.055 18.6652 111.157 19.5553 110.179 20.3386C111.025 21.5926 112.136 22.4023 113.537 22.6917C114.54 22.9007 114.673 22.0121 114.752 18.3276C114.752 17.9607 114.937 17.7795 115.228 17.7795C115.492 17.7795 115.678 17.9622 115.731 18.3276H115.733ZM93.7098 9.65052C93.7098 9.28368 93.9214 9.04984 94.3179 9.04984H103.596V7.4027H96.3257C95.9558 7.4027 95.7442 7.19517 95.7442 6.82833C95.7442 6.46148 95.9558 6.25249 96.3257 6.25249H103.596V4.68428H95.1894C94.7929 4.68428 94.5828 4.44897 94.5828 4.08359C94.5828 3.71821 94.7929 3.50775 95.1894 3.50775H100.927L100.822 3.35137C100.294 2.54169 99.5259 1.67939 98.8646 0.868243C98.6545 0.581785 98.6796 0.34648 98.8912 0.162329C99.0761 -0.0466687 99.3129 -0.0466688 99.5777 0.109714C100.397 0.632939 101.322 1.46893 102.115 2.33123C102.512 2.72438 102.592 3.16868 102.247 3.50775H106.582C107.112 2.67176 107.561 1.7057 108.063 0.685553C108.353 0.137483 108.829 -0.0466688 109.384 0.267558C109.912 0.554016 109.992 1.07724 109.622 1.54785C109.067 2.30638 108.513 2.95968 107.983 3.50775H113.693C114.089 3.50775 114.301 3.71675 114.301 4.08359C114.301 4.47528 114.089 4.68428 113.693 4.68428H105.366V6.25249H112.583C112.953 6.25249 113.164 6.46148 113.164 6.82833C113.164 7.19517 112.953 7.4027 112.583 7.4027H105.366V9.04984H114.591C114.962 9.04984 115.199 9.28514 115.199 9.65052C115.199 10.0159 114.961 10.2512 114.591 10.2512H94.315C93.9185 10.2512 93.7069 10.0159 93.7069 9.65052H93.7098ZM113.696 12.8659C114.172 13.1786 114.278 13.5966 113.935 14.0409C113.592 14.4589 113.116 14.5115 112.692 14.0935C111.873 13.335 110.683 12.369 109.652 11.6104C109.387 11.4277 109.362 11.2187 109.494 10.9571C109.652 10.7218 109.863 10.6707 110.155 10.8007C111.265 11.2714 112.666 12.081 113.697 12.8659H113.696Z" fill="#231815"/>
<path d="M139.877 23.3463V2.43781C139.877 1.75966 140.274 1.39282 140.96 1.39282H154.655C155.342 1.39282 155.713 1.75966 155.713 2.43781V23.2937C155.713 23.8696 155.37 24.2086 154.787 24.2086C154.204 24.2086 153.862 23.8696 153.862 23.2937V21.0722H141.754V23.3463C141.754 23.947 141.41 24.2612 140.829 24.2612C140.247 24.2612 139.877 23.947 139.877 23.3463ZM153.862 10.3315V3.01365C153.862 2.85727 153.73 2.72719 153.572 2.72719H142.046C141.86 2.72719 141.755 2.85727 141.755 3.01365V10.3315H153.864H153.862ZM153.862 19.7393V11.6629H141.754V19.7393H153.862Z" fill="#231815"/>
<path d="M187.497 23.5802C186.307 23.6591 184.431 23.6591 183.003 23.5802C180.359 23.4501 179.751 22.9269 179.751 20.6791V11.8471H176.024C175.813 18.5379 173.09 22.5089 167.141 24.6003C166.771 24.7319 166.506 24.653 166.375 24.3387C166.268 24.0523 166.375 23.817 166.691 23.6606C172.084 21.1775 173.988 17.7283 174.227 11.8471H167.459C167.009 11.8471 166.773 11.5855 166.773 11.1675C166.773 10.7495 167.011 10.5142 167.459 10.5142H177.134V0.922236C177.134 0.347859 177.479 0.00732422 178.06 0.00732422C178.641 0.00732422 178.985 0.347859 178.985 0.922236V10.5142H188.688C189.137 10.5142 189.376 10.7232 189.376 11.1675C189.376 11.5855 189.136 11.8471 188.688 11.8471H181.55V20.4452C181.55 21.5954 181.814 21.8834 183.268 21.9871C184.458 22.0646 186.018 22.0646 187.235 21.9871C188.581 21.8819 188.688 21.3865 188.662 16.6555C188.662 16.2901 188.847 16.1074 189.112 16.1074C189.402 16.1074 189.562 16.2127 189.64 16.6044C190.407 22.2224 190.01 23.4516 187.5 23.5817L187.497 23.5802ZM169.255 2.90844C169.097 2.62199 169.122 2.38522 169.362 2.17768C169.6 2.0213 169.837 2.04615 170.075 2.28145C171.476 3.7722 173.249 6.1764 174.305 7.97846C174.676 8.63176 174.57 9.12868 173.962 9.46921C173.354 9.80828 172.799 9.59929 172.534 8.91968C171.768 7.14393 170.605 5.0788 169.255 2.9099V2.90844ZM181.019 8.81591C182.262 7.16878 183.531 4.94727 184.456 2.59422C184.721 1.94092 185.224 1.70561 185.857 2.01984C186.492 2.3326 186.597 2.90844 186.254 3.50913C185.064 5.73064 183.4 8.08369 181.865 9.49406C181.575 9.72936 181.364 9.78051 181.126 9.57298C180.862 9.36398 180.809 9.12722 181.021 8.81591H181.019Z" fill="#231815"/>
<path d="M220.391 22.4052C220.391 23.1111 220.075 23.399 219.335 23.4765C217.087 23.7644 214.682 23.817 212.064 23.6329C203.868 23.1374 202.943 17.0999 201.833 17.1262C201.225 17.151 200.247 19.3477 198.951 22.9796C198.686 23.7118 198.185 23.9208 197.55 23.6329C196.943 23.3464 196.81 22.8495 197.128 22.1962C199.136 18.0411 200.485 15.8181 201.78 15.7933C202.573 15.7933 203.076 16.5766 203.816 17.5705C208.496 15.0347 213.069 11.1939 215.686 7.19514C215.818 7.01099 215.686 6.85461 215.475 6.85461H198.318C197.895 6.85461 197.657 6.6193 197.657 6.17646C197.657 5.75846 197.895 5.52316 198.318 5.52316H207.015V1.05383C207.015 0.453143 207.358 0.138916 207.966 0.138916C208.574 0.138916 208.891 0.477989 208.891 1.05383V5.52316H215.818C216.268 5.0774 217.034 4.94732 217.616 5.28785C218.302 5.67954 218.489 6.51699 217.934 7.30037C214.918 11.8749 209.712 16.03 204.531 18.4605C205.827 20.0551 207.889 21.7285 212.144 21.806C214.445 21.8323 216.876 21.7285 219.283 21.4406C219.943 21.3617 220.393 21.7007 220.393 22.4067L220.391 22.4052Z" fill="#231815"/>
<path d="M235.016 15.5579C233.352 16.7856 230.285 18.3275 228.222 19.1109C227.641 19.3476 227.111 19.1898 226.901 18.5365C226.743 17.9884 226.953 17.5427 227.536 17.3863C228.407 17.1261 229.36 16.8119 230.312 16.4465V8.65807H227.614C227.244 8.65807 227.006 8.42276 227.006 8.05738C227.006 7.71685 227.246 7.48154 227.614 7.48154H230.312V1.39285C230.312 0.844776 230.63 0.530549 231.158 0.530549C231.713 0.530549 232.029 0.844776 232.029 1.39285V7.483H234.647C234.99 7.53562 235.175 7.71831 235.175 8.03107C235.175 8.37015 234.99 8.5543 234.647 8.65807H232.029V15.7654C232.902 15.4001 233.722 15.0347 234.41 14.7205C234.7 14.5904 234.965 14.6152 235.123 14.8768C235.281 15.1121 235.256 15.3738 235.016 15.5564V15.5579ZM249.029 24.2861C247.285 23.7892 246.042 22.0646 245.196 19.4514C243.503 21.5414 241.469 23.1885 238.983 24.2861C238.693 24.4176 238.4 24.3387 238.297 24.0771C238.19 23.817 238.27 23.5802 238.56 23.399C241.097 21.9886 243.108 20.0272 244.668 17.5967C243.926 14.4603 243.583 10.4367 243.425 5.86218H237.687C237.502 5.86218 237.369 5.99225 237.369 6.1764V9.93836H241.202C241.889 9.93836 242.26 10.3052 242.26 11.0097C242.26 13.7018 242.18 16.0271 242.075 17.4652C241.942 19.3988 240.303 20.0009 237.687 18.877C237.422 18.7469 237.316 18.5102 237.397 18.2237C237.504 17.9373 237.714 17.832 238.057 17.9095C239.961 18.2486 240.304 18.1185 240.384 17.2313C240.516 16.0285 240.594 14.0423 240.622 11.4028C240.622 11.2187 240.489 11.1149 240.304 11.1149H237.37V12.1087C237.37 18.25 236.102 21.7781 233.352 24.2861C233.034 24.574 232.771 24.6003 232.532 24.365C232.294 24.1283 232.322 23.8681 232.586 23.5802C234.86 20.7317 235.653 17.3337 235.653 12.0809V5.75695C235.653 5.07734 236.049 4.68565 236.736 4.68565H243.398C243.373 3.45651 243.345 2.17768 243.345 0.869622C243.345 0.321551 243.663 0.00732422 244.191 0.00732422C244.719 0.00732422 245.011 0.295244 245.011 0.844776C245.011 2.15138 245.037 3.43167 245.064 4.68565H250.112C250.509 4.68565 250.72 4.89465 250.72 5.26149C250.72 5.65318 250.509 5.86218 250.112 5.86218H245.089C245.221 9.39029 245.461 12.6568 245.936 15.3489C246.86 13.3627 247.601 11.1675 248.13 8.73699C248.261 8.11 248.685 7.901 249.241 8.03107C249.876 8.18746 250.007 8.57914 249.876 9.15498C249.136 12.3689 247.999 15.27 246.413 17.7268C247.02 20.1573 247.893 21.8293 249.056 22.4314C249.77 22.7705 249.849 22.4577 249.824 18.0936C249.824 17.8057 250.009 17.623 250.299 17.623C250.564 17.623 250.775 17.7531 250.828 18.0936C251.542 23.7117 250.67 24.7845 249.031 24.2861H249.029ZM245.989 1.18385C245.804 0.948544 245.804 0.686931 246.014 0.505703C246.172 0.321551 246.412 0.296705 246.675 0.479395C247.575 1.1327 248.658 2.10022 249.426 2.96252C249.847 3.40682 249.847 3.82482 249.426 4.19166C249.003 4.58335 248.501 4.53073 248.183 4.03528C247.575 3.12036 246.675 1.99645 245.989 1.18677V1.18385Z" fill="#231815"/>
<path d="M210.453 45.3687H111.427V46.5949H210.453V45.3687Z" fill="#009684"/>
<path d="M202.138 41.5059H200.897V50.4591H202.138V41.5059Z" fill="#009684"/>
<path d="M185.908 41.5059H184.666V50.4591H185.908V41.5059Z" fill="#009684"/>
<path d="M169.677 41.5059H168.436V50.4591H169.677V41.5059Z" fill="#009684"/>
<path d="M153.446 41.5059H152.205V50.4591H153.446V41.5059Z" fill="#009684"/>
<path d="M137.216 41.5059H135.974V50.4591H137.216V41.5059Z" fill="#009684"/>
<path d="M120.984 41.5059H119.742V50.4591H120.984V41.5059Z" fill="#009684"/>
<path d="M210.453 58.9111H111.427V60.1374H210.453V58.9111Z" fill="#009684"/>
<path d="M202.138 55.0469H200.897V64.0001H202.138V55.0469Z" fill="#009684"/>
<path d="M185.908 55.0469H184.666V64.0001H185.908V55.0469Z" fill="#009684"/>
<path d="M169.677 55.0469H168.436V64.0001H169.677V55.0469Z" fill="#009684"/>
<path d="M153.446 55.0469H152.205V64.0001H153.446V55.0469Z" fill="#009684"/>
<path d="M137.216 55.0469H135.974V64.0001H137.216V55.0469Z" fill="#009684"/>
<path d="M120.984 55.0469H119.742V64.0001H120.984V55.0469Z" fill="#009684"/>
</g>
<defs>
<clipPath id="clip0_7596_4942">
<rect width="251.077" height="64" fill="white"/>
</clipPath>
</defs>
</svg>
