<svg width="150" height="194" viewBox="0 0 150 194" fill="none" xmlns="http://www.w3.org/2000/svg">
<g clip-path="url(#clip0_11149_4544)">
<path d="M75.0266 149.792V194" stroke="#D06C15" stroke-width="1.61037" stroke-miterlimit="10"/>
<path d="M75.0278 151.363C116.465 151.363 150.056 117.479 150.056 75.6813C150.056 33.8837 116.465 0 75.0278 0C33.5911 0 0 33.8837 0 75.6813C0 117.479 33.5911 151.363 75.0278 151.363Z" fill="#D06C15"/>
<path d="M71.0799 95.1485C71.0799 96.3828 70.4681 97.056 69.3558 97.056H25.5293C24.417 97.056 23.8052 96.3828 23.8052 95.1485C23.8052 93.9143 24.4726 93.2411 25.5293 93.2411H44.5504V78.879H30.7573C29.7006 78.879 29.0332 78.2619 29.0332 77.0276C29.0332 75.7934 29.7006 75.1763 30.7573 75.1763H44.5504V63.5071H27.4203C26.2523 63.5071 25.6962 62.7778 25.6962 61.4874C25.6962 60.1971 26.308 59.6922 27.4203 59.6922H44.3836V52.4551C44.3836 50.6598 45.4959 49.5939 47.4425 49.5939C49.3892 49.5939 50.5015 50.6598 50.5015 52.4551V59.6922H67.5204C68.5771 59.6922 69.2446 60.1971 69.2446 61.4874C69.2446 62.7778 68.5771 63.5071 67.5204 63.5071H50.3903V75.1763H64.1834C65.2401 75.1763 65.9075 75.8495 65.9075 77.0276C65.9075 78.2058 65.2401 78.879 64.1834 78.879H50.3903V93.2411H69.3002C70.4125 93.2411 71.0243 93.8582 71.0243 95.1485H71.0799Z" fill="white"/>
<path d="M85.3169 84.1525C85.3169 88.3602 84.8163 92.7361 83.704 95.9339C83.1478 97.6731 81.813 98.3463 80.2001 97.5608C78.5872 96.8876 78.3091 95.4851 79.2546 93.9142C80.8119 91.2214 81.9798 87.5747 82.7585 83.7037C82.9253 82.75 83.4815 82.3573 84.2602 82.4134C84.9832 82.5256 85.3169 83.0305 85.3169 84.0403V84.1525ZM95.7173 96.9437C94.9387 97.4487 94.2157 97.2803 93.7707 96.551C93.3258 95.99 93.3814 95.0924 94.16 94.5875C99.4437 90.492 102.058 85.6673 103.059 80.3937C103.17 79.9449 102.948 79.7205 102.503 79.7205H98.7207C98.7207 80.6181 98.2201 81.3474 97.2746 81.6279C95.8842 82.1329 94.7718 81.6279 94.4937 80.001C94.3269 79.2717 94.16 78.5424 93.9932 77.8691C90.6561 79.2717 86.5961 80.5059 82.981 81.2913C81.3124 81.7402 79.9776 80.8425 79.6995 79.1595C79.4214 77.4203 80.2001 76.2422 82.0911 76.13C82.4804 76.13 82.8697 76.13 83.259 76.13C85.2057 73.7176 87.2079 70.8003 88.9876 67.4342C86.9298 68.1074 84.7607 68.6684 82.7585 69.0612C81.1456 69.3978 80.0332 68.6684 79.8664 67.0976C79.6995 65.4706 80.5338 64.4047 82.1467 64.4047H83.0366C84.6495 60.7581 86.0399 56.3821 87.0966 51.8379C87.486 49.9865 88.7095 49.2011 90.6005 49.706C92.3247 50.2109 92.9921 51.5013 92.2134 53.4088C90.6005 57.392 88.3758 61.3752 86.318 64.2925C87.8753 64.2925 89.3213 64.0681 90.7118 63.8998C91.3236 62.5533 91.9353 61.1508 92.4915 59.7483C93.1589 57.953 94.5494 57.5042 96.1067 58.1774C97.7196 58.8506 98.1645 60.3654 97.2746 62.1045C94.2713 67.7147 90.9342 72.3712 87.5972 75.8495C89.5438 75.6812 91.4904 75.4568 93.1589 75.2323C92.8252 74.3347 92.4915 73.5493 92.2691 72.7078C91.9354 71.9223 92.1578 71.3052 92.7696 70.9686C93.437 70.632 94.0488 70.8003 94.4937 71.4735C95.7173 73.1005 96.7741 74.8957 97.6639 76.8032C97.8864 76.6349 98.2201 76.5788 98.4982 76.5788H104.839C107.175 76.5788 108.287 78.0374 107.786 80.3376C106.118 87.9674 102.113 93.6337 95.6617 97.112L95.7173 96.9437ZM92.1022 92.3995C92.4359 94.1386 91.9353 95.2046 90.2668 95.3729C88.5427 95.6534 87.5416 94.7558 87.5416 92.9605C87.5416 89.8749 87.4303 86.5088 86.9298 83.4232C86.7629 82.5817 87.041 82.1329 87.8197 81.9085C88.5427 81.6841 89.0432 82.0768 89.4326 82.9183C90.7118 85.7234 91.6573 89.3139 92.1578 92.3995H92.1022ZM93.5483 88.9212C92.8808 86.7332 92.1578 84.4891 91.2123 82.4134C90.823 81.6279 91.1011 80.9547 91.6573 80.7303C92.3247 80.3376 92.8252 80.6181 93.3258 81.2352C95.0499 83.1427 96.3847 85.2185 97.4415 87.2942C98.1645 88.6968 97.942 89.7627 96.496 90.492C95.1612 91.2213 93.9932 90.7725 93.5483 88.9773V88.9212ZM125.751 95.9339C124.638 97.3364 122.97 97.617 121.468 96.1583C117.853 92.7361 115.406 88.3041 113.849 83.5354V94.363C113.849 99.861 108.954 100.983 101.724 98.0097C100.89 97.617 100.556 96.9998 100.779 96.2144C101.001 95.4851 101.557 95.1485 102.503 95.2607C108.064 95.9339 108.676 95.5973 108.676 93.241V73.8298H102.113C100.334 73.8298 99.3325 72.82 99.3325 71.0247V58.6823C99.3325 56.8871 100.334 55.8772 102.113 55.8772H106.73C107.119 54.4747 107.341 53.1282 107.675 51.5013C108.009 49.6499 109.455 48.7523 111.346 49.3133C113.237 49.8743 113.849 51.6135 112.847 53.2404C112.18 54.3064 111.568 55.1479 110.901 55.9333H119.911C121.691 55.9333 122.692 56.9432 122.692 58.7384V71.0808C122.692 72.8761 121.691 73.8859 119.911 73.8859H113.904V74.4469C114.46 76.9715 115.239 79.1595 116.185 81.123C117.519 79.7766 118.632 78.374 119.911 76.4105C120.801 75.064 122.358 74.6713 123.693 75.7934C125.083 76.9715 124.972 78.5985 123.693 79.7205C121.691 81.5157 119.8 82.8622 117.853 83.872C119.688 86.6771 122.136 89.1456 125.306 91.7824C126.863 93.0727 127.086 94.5314 125.918 95.99L125.751 95.9339ZM104.338 63.1144H117.575V59.636C117.575 59.2433 117.297 59.0189 116.963 59.0189H105.005C104.616 59.0189 104.338 59.2994 104.338 59.636V63.1144ZM105.005 70.5759H116.963C117.352 70.5759 117.575 70.2954 117.575 69.9588V66.2H104.338V69.9588C104.338 70.3515 104.616 70.5759 105.005 70.5759Z" fill="white"/>
</g>
<defs>
<clipPath id="clip0_11149_4544">
<rect width="150" height="194" fill="white"/>
</clipPath>
</defs>
</svg>
