<svg width="17" height="17" viewBox="0 0 17 17" fill="none" xmlns="http://www.w3.org/2000/svg">
<g clip-path="url(#clip0_7596_4628)">
<path d="M16.6234 13.4435C17.1308 13.9531 17.1308 14.8371 16.5898 15.3838C15.6424 16.3016 14.9974 16.8111 13.6434 16.9832C13.4754 17.017 9.51099 17.3915 4.56554 12.4245C1.00764 8.88478 -0.31272 6.22916 0.0602044 3.33734C0.194592 2.01122 0.73886 1.33297 1.65269 0.411773C2.1936 -0.131498 3.07384 -0.131498 3.58451 0.378029L6.22522 3.03027C6.73254 3.5398 6.73254 4.42388 6.19163 4.97053L5.44578 5.71963C5.10645 6.06044 5.03926 6.60371 5.27779 7.01201C5.8523 7.99732 6.43016 8.84766 7.3104 9.76886C8.19064 10.6529 9.03728 11.2333 10.0553 11.8103C10.4618 12.0499 11.0027 11.9791 11.342 11.6416L12.0879 10.8925C12.6288 10.3492 13.509 10.3492 14.0197 10.8588L16.6268 13.4435H16.6234Z" fill="#4B4B4B"/>
</g>
<defs>
<clipPath id="clip0_7596_4628">
<rect width="17" height="17" fill="white"/>
</clipPath>
</defs>
</svg>
