<svg width="68" height="111" viewBox="0 0 68 111" fill="none" xmlns="http://www.w3.org/2000/svg">
<path d="M31.445 109.2C29.091 100.447 23.2062 89.3599 17.1659 78.051C8.7051 62.1209 0 45.7464 0 33.771C0 24.4396 3.77517 15.9968 9.88207 9.88691C15.989 3.77702 24.4498 0 33.7545 0C43.0592 0 51.52 3.77702 57.6269 9.88691C63.7338 15.9968 67.509 24.4396 67.509 33.771C67.509 45.7464 58.8039 62.0987 50.3208 78.0288C44.3028 89.3599 38.3957 100.447 36.0418 109.2C35.7087 110.467 34.3985 111.222 33.1105 110.889C32.2444 110.667 31.6226 109.978 31.4228 109.178L31.445 109.2Z" fill="#F6AB00"/>
</svg>
