<svg width="88" height="19" viewBox="0 0 88 19" fill="none" xmlns="http://www.w3.org/2000/svg">
<g clip-path="url(#clip0_11112_1183)">
<path d="M6.90445 15.5146C5.55138 16.4583 3.27519 17.3643 1.31514 17.8676C0.670219 18.0438 0.177045 17.7921 0.0758807 17.1378C-0.0505743 16.5716 0.214981 16.1312 0.809319 16.0305C1.45424 15.9298 2.08651 15.804 2.70614 15.6656V9.82719H0.872547C0.467891 9.82719 0.265563 9.58812 0.265563 9.19806C0.265563 8.80799 0.467891 8.59408 0.872547 8.59408H2.71879V6.65633H1.63128C1.50482 6.65633 1.39101 6.63117 1.30249 6.58084C1.16339 6.71925 0.999002 6.81991 0.859901 6.94574C0.581701 7.17223 0.316145 7.14706 0.126463 6.94574C-0.0505743 6.71925 -0.0379288 6.48017 0.151754 6.21594C1.37837 4.65567 2.2762 2.81859 2.92112 0.729844C3.12345 0.0881218 3.59133 -0.10062 4.19831 0.0503734C4.78 0.21395 4.98233 0.717261 4.8053 1.25832L4.76736 1.35898C5.43757 1.92521 6.20895 2.70534 6.79064 3.43514C7.13207 3.87554 7.09413 4.27819 6.66418 4.60534C6.1963 4.97024 5.779 4.86958 5.48815 4.3411C5.10879 3.63647 4.67884 2.99474 4.31212 2.46627C3.8063 3.54839 3.17403 4.55501 2.42794 5.44839H5.79164C6.1963 5.44839 6.42392 5.67488 6.42392 6.05236C6.42392 6.45501 6.1963 6.6815 5.79164 6.6815H4.57768V8.61925H6.22159C6.60096 8.61925 6.85387 8.84574 6.85387 9.22322C6.85387 9.62587 6.6136 9.85236 6.22159 9.85236H4.57768V15.2252C5.26053 15.049 5.89281 14.8226 6.43656 14.5961C6.74006 14.4702 7.00561 14.5583 7.14471 14.8226C7.3091 15.0868 7.20794 15.351 6.90445 15.5272V15.5146ZM0.809319 14.1305C0.733446 13.1239 0.581701 12.1173 0.429955 11.1484C0.392018 10.8087 0.505827 10.6073 0.809319 10.5067C1.07487 10.4312 1.31514 10.5444 1.45424 10.8716C1.88419 11.853 2.1371 12.8596 2.28884 13.8914C2.39001 14.3696 2.16239 14.6716 1.68186 14.7848C1.15075 14.8855 0.847256 14.659 0.809319 14.1431V14.1305ZM6.70212 11.2365C6.52508 12.2053 6.13307 13.212 5.66519 14.055C5.52609 14.3318 5.32376 14.4325 5.05821 14.3318C4.79265 14.2563 4.69149 14.055 4.75471 13.753C4.99498 12.8471 5.2226 11.8782 5.33641 10.9471C5.39963 10.4689 5.71577 10.2802 6.17101 10.406C6.6136 10.5318 6.80328 10.8087 6.70212 11.2365ZM12.8352 15.6027C11.5453 16.3828 9.26916 17.1504 7.54937 17.4901C6.91709 17.6159 6.4745 17.3517 6.37334 16.71C6.29746 16.1689 6.60096 15.7411 7.18265 15.6782C7.81492 15.6153 8.43455 15.5146 9.04154 15.4139V13.8285H7.65053C7.3091 13.8285 7.11942 13.6272 7.11942 13.2875C7.11942 12.9477 7.29646 12.7464 7.65053 12.7464H9.04154V11.5385H7.49879C7.15736 11.5385 6.95503 11.3371 6.95503 10.9974C6.95503 10.6577 7.15736 10.4563 7.49879 10.4563H12.3926C12.734 10.4563 12.9363 10.6577 12.9363 10.9974C12.9363 11.3371 12.734 11.5385 12.3926 11.5385H10.8372V12.7464H12.2535C12.5949 12.7464 12.7846 12.9477 12.7846 13.2875C12.7846 13.6272 12.6076 13.8285 12.2535 13.8285H10.8372V15.0742C11.4062 14.9358 11.9121 14.7974 12.3799 14.6464C12.6834 14.5457 12.9616 14.6212 13.0628 14.9106C13.2019 15.1875 13.1007 15.4391 12.8225 15.5901L12.8352 15.6027ZM16.9829 18.7484C15.8448 18.5093 15.0355 17.4398 14.4917 15.955C13.518 17.0623 12.3041 17.9431 10.7487 18.61C10.4072 18.7484 10.167 18.6855 10.0152 18.4087C9.88878 18.1444 9.9773 17.9305 10.2934 17.7292C11.9374 16.7226 13.1134 15.5901 13.9733 14.2689C13.3916 11.7146 13.2398 8.506 13.2272 5.82587H7.06884C6.68947 5.82587 6.46186 5.5868 6.46186 5.19673C6.46186 4.80666 6.68947 4.59276 7.06884 4.59276H9.05418V3.08282H7.56201C7.18265 3.08282 6.98032 2.8815 6.98032 2.5166C6.98032 2.17686 7.18265 1.95037 7.56201 1.95037H9.05418V0.918585C9.05418 0.377526 9.38297 0.075539 9.95201 0.075539C10.5211 0.075539 10.8372 0.377526 10.8372 0.918585V1.95037H12.2788C12.6455 1.95037 12.8605 2.1517 12.8605 2.5166C12.8605 2.8815 12.6329 3.08282 12.2788 3.08282H10.8372V4.59276H13.2272V0.906003C13.2272 0.364943 13.556 0.0629562 14.1124 0.0629562C14.6688 0.0629562 14.9976 0.364943 14.9976 0.906003V4.56759H17.7543C18.1589 4.56759 18.3866 4.79408 18.3866 5.17157C18.3866 5.54905 18.1589 5.8007 17.7543 5.8007H14.9976C14.9976 7.68812 15.0608 9.7517 15.2378 11.5385C15.6425 10.3934 15.9207 9.12256 16.1862 7.67554C16.2874 7.07157 16.6921 6.83249 17.2232 6.93316C17.7669 7.03382 17.9945 7.49938 17.8554 8.11594C17.3117 10.5696 16.6415 12.5828 15.6931 14.2438C15.9713 15.4139 16.3633 16.257 16.907 16.5464C17.3117 16.7477 17.3496 16.106 17.3496 13.7279C17.3496 13.3504 17.514 13.149 17.8175 13.149C18.0957 13.149 18.3233 13.3504 18.3866 13.7279C18.8291 17.6159 18.3486 19.063 16.9703 18.7484H16.9829ZM8.24487 9.82719C7.57466 9.82719 7.20794 9.46229 7.20794 8.79541V7.46163C7.20794 6.81991 7.57466 6.45501 8.24487 6.45501H11.5833C12.2535 6.45501 12.6202 6.81991 12.6202 7.46163V8.79541C12.6202 9.46229 12.2535 9.82719 11.5833 9.82719H8.24487ZM8.7254 8.49342C8.7254 8.61925 8.82656 8.71991 8.96566 8.71991H10.8498C10.9889 8.71991 11.0901 8.61925 11.0901 8.49342V7.78878C11.0901 7.65037 10.9889 7.54971 10.8498 7.54971H8.96566C8.82656 7.54971 8.7254 7.65037 8.7254 7.78878V8.49342ZM15.3896 1.53514C15.2505 1.23315 15.3137 0.994082 15.554 0.80534C15.8195 0.629181 16.0851 0.66693 16.3001 0.931168C16.8691 1.49739 17.337 2.17686 17.7163 2.94441C17.9945 3.42256 17.8807 3.81263 17.4129 4.07686C16.907 4.35368 16.5024 4.20269 16.3001 3.67421C16.0345 2.86892 15.7184 2.20203 15.3896 1.53514Z" fill="white"/>
<path d="M41.6669 17.1881C41.6669 17.9305 41.3255 18.2325 40.5541 18.2702C38.24 18.4086 35.7741 18.4464 33.1818 18.3331C29.4766 18.157 28.2627 17.1503 27.4787 15.6907C27.4028 15.5146 27.2763 15.5272 27.1752 15.7159C26.6946 16.5967 26.1003 17.6285 25.3795 18.459C24.9369 18.9623 24.3426 18.9874 23.9 18.5219C23.4574 18.0437 23.47 17.5152 23.9759 17.0749C24.7472 16.3954 25.5186 15.6278 26.0244 14.9358V10.5821C26.0244 10.4437 25.898 10.3431 25.7589 10.3431H24.1655C23.7862 10.3431 23.5333 10.104 23.5333 9.71392C23.5333 9.32386 23.7735 9.10995 24.1655 9.10995H27.0614C27.7442 9.10995 28.1109 9.48743 28.1109 10.1795V14.6086C29.1605 16.0934 31.285 16.4583 33.1312 16.496C35.4327 16.5338 38.1262 16.4331 40.5035 16.2696C41.2875 16.2066 41.6795 16.496 41.6795 17.1755L41.6669 17.1881ZM23.9379 5.22187C23.6724 4.95763 23.6597 4.71856 23.8368 4.45432C24.0011 4.19008 24.2414 4.15233 24.5449 4.29074C25.4933 4.73114 26.505 5.37286 27.3143 6.06492C27.858 6.50531 27.9592 7.07154 27.4913 7.54969C27.0234 8.053 26.4544 8.01525 25.9738 7.44902C25.3669 6.74439 24.6208 5.91392 23.9253 5.20929L23.9379 5.22187ZM24.5828 1.23313C24.3426 0.994056 24.3173 0.729818 24.4817 0.503328C24.6587 0.239089 24.8863 0.176175 25.1898 0.327169C26.075 0.704652 27.1499 1.35896 28.0604 2.06359C28.6041 2.49141 28.6673 3.0073 28.2374 3.51061C27.8074 3.97618 27.2005 3.97618 26.7199 3.43512C26.0118 2.66757 25.3036 1.92518 24.5702 1.23313H24.5828ZM28.7053 4.02651C28.7053 3.64902 28.9455 3.39737 29.3502 3.39737H32.4104C32.3472 3.32187 32.2713 3.23379 32.2081 3.13313C31.7655 2.36558 31.2597 1.58545 30.8677 0.994056C30.6906 0.692069 30.7033 0.415248 30.9309 0.213924C31.1332 -0.0125665 31.3988 -0.0125665 31.7149 0.188758C32.3851 0.629155 33.2071 1.42187 33.7129 2.02584C34.1428 2.55432 34.0923 3.0073 33.6117 3.39737H35.9764C36.3432 2.59207 36.6593 1.71127 36.9628 0.780149C37.1904 0.100679 37.7342 -0.0628976 38.3538 0.201341C38.9861 0.440414 39.1252 0.96889 38.7584 1.57286C38.3538 2.21459 37.9238 2.84372 37.4433 3.40995H40.7564C41.1864 3.40995 41.4266 3.64902 41.4266 4.03909C41.4266 4.4669 41.1864 4.70598 40.7564 4.70598H35.8373C35.5338 5.24704 35.1924 5.73776 34.8004 6.19074H38.9355C39.6183 6.19074 40.0103 6.56823 40.0103 7.26028V14.0676C40.0103 14.747 39.631 15.1371 38.9355 15.1371H31.0953C30.4124 15.1371 30.0204 14.7596 30.0204 14.0676V7.26028C30.0204 6.58081 30.3998 6.19074 31.0953 6.19074H33.4473C33.5738 5.7126 33.6749 5.20929 33.7761 4.70598H29.3249C28.9202 4.70598 28.68 4.4669 28.68 4.03909L28.7053 4.02651ZM37.7594 7.38611H32.3598C32.2207 7.38611 32.1196 7.48677 32.1196 7.62518V8.75763H38.0124V7.62518C38.0124 7.48677 37.9112 7.38611 37.7721 7.38611H37.7594ZM37.9997 9.96558H32.1069V11.249H37.9997V9.96558ZM37.9997 12.457H32.1069V13.6398C32.1069 13.7782 32.2081 13.8788 32.3472 13.8788H37.7468C37.8859 13.8788 37.9871 13.7782 37.9871 13.6398V12.457H37.9997Z" fill="white"/>
<path d="M48.7107 3.58618C48.913 5.32261 48.8751 7.03387 48.5337 8.48089C48.4072 9.12261 47.9267 9.38685 47.3197 9.16036C46.7127 8.95903 46.5863 8.45572 46.8139 7.87691C47.2565 6.74446 47.6485 5.33519 47.7244 3.62393C47.7623 3.2842 47.9267 3.08287 48.2302 3.09546C48.5084 3.09546 48.6728 3.25903 48.7107 3.5736V3.58618ZM51.2398 1.13254V18.069C51.2398 18.6729 50.8984 19.0001 50.2661 19.0001C49.6338 19.0001 49.2924 18.6604 49.2924 18.069V1.13254C49.2924 0.528568 49.6338 0.201416 50.2661 0.201416C50.8984 0.201416 51.2398 0.528568 51.2398 1.13254ZM51.9859 5.92658C51.91 4.94512 51.7077 3.88817 51.4801 2.94446C51.4168 2.64248 51.5559 2.41599 51.8088 2.34049C52.0744 2.26499 52.2894 2.37824 52.4158 2.64248C52.8964 3.48552 53.2631 4.58022 53.4907 5.58685C53.6172 6.11532 53.4148 6.45506 52.909 6.58089C52.4285 6.68155 52.0618 6.48022 51.9985 5.93916L51.9859 5.92658ZM64.8211 18.069C64.6567 18.7359 64.2141 18.9749 63.4048 18.8113C61.9505 18.5345 60.2687 18.0312 58.7259 17.1253C56.8797 18.0941 54.7426 18.6981 52.4664 18.9623C52.0871 19.0001 51.8341 18.8994 51.7836 18.5849C51.7203 18.2577 51.8215 18.0186 52.2261 17.918C54.1483 17.4902 55.8554 16.8862 57.2717 16.1438C56.2348 15.3008 55.3116 14.2564 54.6414 12.9226H53.6551C53.2757 12.9226 53.0481 12.6961 53.0481 12.3186C53.0481 11.9537 53.2757 11.7398 53.6551 11.7398H61.9885C63.0633 11.7398 63.5059 12.5074 62.899 13.4259C62.2667 14.4074 61.4574 15.263 60.5342 15.9802C61.5712 16.3451 62.684 16.5842 63.8726 16.7604C64.7452 16.8862 65.0107 17.4021 64.8211 18.069ZM53.6551 6.84512H63.0633C63.7462 6.84512 64.1382 7.22261 64.1382 7.91466V9.86499C64.1382 10.5445 63.7588 10.9094 63.0633 10.9094H53.6551C52.9722 10.9094 52.5802 10.5445 52.5802 9.86499V7.91466C52.5802 7.23519 52.9596 6.84512 53.6551 6.84512ZM53.9965 5.00804V1.96301C53.9965 1.28354 54.3759 0.893469 55.0714 0.893469H61.6091C62.292 0.893469 62.684 1.27095 62.684 1.96301V5.02062C62.684 5.70009 62.3046 6.09016 61.6091 6.09016H55.0714C54.3885 6.09016 53.9965 5.71267 53.9965 5.02062V5.00804ZM54.4012 9.50009C54.4012 9.6385 54.5023 9.73916 54.6414 9.73916H55.8933V8.00274H54.6414C54.5023 8.00274 54.4012 8.1034 54.4012 8.24181V9.48751V9.50009ZM55.8554 2.89413H60.8124V2.26499C60.8124 2.12658 60.7113 2.02592 60.5722 2.02592H56.0957C55.9313 2.02592 55.8554 2.12658 55.8554 2.26499V2.89413ZM55.8554 4.6683C55.8554 4.80671 55.9313 4.90738 56.0957 4.90738H60.5722C60.7113 4.90738 60.8124 4.80671 60.8124 4.6683V3.98883H55.8554V4.6683ZM58.7259 15.2001C59.5352 14.5961 60.1802 13.9292 60.7113 13.1994C60.8124 13.0359 60.7745 12.8974 60.5722 12.8974H55.8933C56.7027 13.8663 57.6511 14.6087 58.7259 15.1875V15.2001ZM57.5878 9.73916H59.0421V8.00274H57.5878V9.73916ZM60.7492 9.73916H62.0643C62.2034 9.73916 62.3046 9.6385 62.3046 9.50009V8.2544C62.3046 8.11599 62.2034 8.01532 62.0643 8.01532H60.7492V9.75175V9.73916Z" fill="white"/>
<path d="M77.6813 8.46832C77.6813 11.5889 77.6054 14.2438 77.3778 16.6471C77.2008 18.6478 75.658 19.3273 73.2048 18.1571C72.876 17.9935 72.7748 17.7544 72.8633 17.4776C72.9645 17.1756 73.1668 17.0749 73.5336 17.1379C75.3292 17.4398 75.481 17.2385 75.5821 16.3703C75.7592 14.659 75.8603 11.4756 75.8603 8.85839C75.8603 8.69481 75.7592 8.61931 75.6201 8.61931H74.3302C74.1658 13.7531 73.4577 16.3955 71.2321 18.6855C70.9918 18.9498 70.6883 18.9624 70.486 18.761C70.2204 18.5597 70.2078 18.2955 70.4101 17.9935C72.092 15.4014 72.4587 12.3941 72.4587 5.1213H70.8021C70.3975 5.1213 70.1699 4.88223 70.1699 4.49216C70.1699 4.1021 70.3975 3.88819 70.8021 3.88819H73.4324V1.10739C73.4324 0.478255 73.8118 0.125937 74.4693 0.125937C75.1269 0.125937 75.5063 0.490838 75.5063 1.10739V3.88819H77.6939C78.0986 3.88819 78.3262 4.11468 78.3262 4.49216C78.3262 4.89481 78.0986 5.1213 77.6939 5.1213H74.3935V7.37362H76.6444C77.3272 7.37362 77.7192 7.7511 77.7192 8.45574L77.6813 8.46832ZM77.7066 7.03388C77.479 6.83256 77.4663 6.55574 77.6686 6.26633C78.8067 4.81931 79.4517 2.96965 79.8563 0.943818C80.0207 0.214017 80.5392 -0.0250562 81.2347 0.100772C81.9049 0.239182 82.1199 0.767659 81.9428 1.47229C81.8164 1.95044 81.6393 2.44117 81.437 2.91931H87.2666C87.6965 2.91931 87.9368 3.1458 87.9368 3.52329C87.9368 3.9511 87.6965 4.19018 87.2666 4.19018H80.8047C80.223 5.22196 79.4517 6.20342 78.478 7.00872C78.1998 7.24779 77.9342 7.24779 77.7066 7.03388ZM87.7092 18.2955C87.2033 18.8743 86.5584 18.9246 85.9261 18.3584C84.0293 16.6471 82.4992 13.5392 82.3222 7.93984C81.8796 8.01534 81.437 8.10342 80.9818 8.14117V16.0935C81.652 15.9299 82.2969 15.7538 82.9039 15.565C83.3465 15.4266 83.5488 15.5273 83.6879 15.8041C83.827 16.0809 83.7638 16.3451 83.4097 16.5842C82.259 17.3643 80.4127 18.0941 79.0217 18.371C78.3894 18.5094 77.9089 18.2955 77.7824 17.7041C77.6181 17.0372 77.8836 16.6723 78.617 16.5339C78.7561 16.5087 78.8952 16.4961 79.047 16.4584V7.31071C79.047 6.70673 79.3884 6.37958 80.0207 6.37958C80.5645 6.37958 80.8932 6.61865 80.9691 7.08422C82.3475 6.61865 83.8017 5.93918 84.8386 5.24713C85.4203 4.84448 85.9514 4.94514 86.2802 5.41071C86.6217 5.87627 86.5584 6.41733 85.9009 6.75706C85.218 7.0968 84.3581 7.39879 83.4476 7.63786C83.5488 8.88355 83.7132 10.0286 83.9787 11.0604C84.5478 10.5319 85.0536 9.95309 85.5215 9.32395C85.9261 8.79547 86.394 8.74514 86.8619 9.12263C87.3298 9.50011 87.2919 10.0286 86.7987 10.4941C86.1285 11.1359 85.3065 11.7273 84.3328 12.1677C84.9651 13.8789 85.9514 15.2882 87.4689 16.4961C88.1138 17.0246 88.215 17.6663 87.7344 18.2451L87.7092 18.2955Z" fill="white"/>
</g>
<defs>
<clipPath id="clip0_11112_1183">
<rect width="88" height="19" fill="white"/>
</clipPath>
</defs>
</svg>
