<svg width="132" height="49" viewBox="0 0 132 49" fill="none" xmlns="http://www.w3.org/2000/svg">
<rect x="0.000854492" y="0.943115" width="131.866" height="47.9512" rx="23.9756" fill="#D06C15" fill-opacity="0.2"/>
<path d="M46.9149 18.5218C46.6169 19.6391 45.7229 19.9371 44.5682 19.5646C44.0094 19.3784 43.4135 19.1922 42.892 18.9687C42.743 19.2666 42.445 19.4529 41.998 19.4529H34.5482V20.4957H41.2903C41.8862 20.4957 42.2215 20.8309 42.2215 21.3896C42.2215 21.9482 41.8862 22.3207 41.2903 22.3207H34.5482V23.4008H41.2903C41.8862 23.4008 42.2215 23.6988 42.2215 24.2574C42.2215 24.8533 41.8862 25.1885 41.2903 25.1885H34.5482V26.3059H44.0839C44.7172 26.3059 45.0897 26.6783 45.0897 27.2742C45.0897 27.9074 44.7172 28.2426 44.0839 28.2426H24.0439C22.8892 28.2426 22.256 27.6094 22.256 26.4549V21.8738C21.4365 22.3579 20.6543 22.7304 19.872 23.0656C19.2761 23.2891 18.8291 23.1401 18.6428 22.6932C18.4566 22.209 18.5311 21.7993 19.0898 21.4641C21.1013 20.2722 23.001 18.7452 24.7144 16.7713C22.554 18.0003 20.2073 19.0059 18.0096 19.5646C17.4136 19.7136 17.0411 19.5646 16.8549 19.0432C16.6686 18.559 16.8549 18.0748 17.3391 17.8886C20.2445 16.8085 22.9265 15.2442 25.2359 13.2702H19.0153C18.3821 13.2702 18.0096 12.8605 18.0096 12.2646C18.0096 11.6315 18.3821 11.259 19.0153 11.259H27.2474C27.9178 10.5141 28.5138 9.76921 29.0726 8.98707C29.6313 8.16769 30.488 7.83249 31.4938 8.46565C32.6112 9.06156 32.6485 10.1044 31.9407 10.9983C31.8663 11.1101 31.7917 11.1473 31.7172 11.259H44.9407C45.6112 11.259 45.9836 11.6315 45.9836 12.2646C45.9836 12.8978 45.6112 13.2702 44.9407 13.2702H38.0496C40.1728 14.6111 42.7057 15.6167 45.7602 16.2871C46.9521 16.585 47.2874 17.4044 46.9521 18.5218H46.9149ZM43.3762 31.2595V38.2987C43.3762 39.3043 42.8175 39.8257 41.7372 39.8257C40.657 39.8257 40.0983 39.3415 40.061 38.3731H23.9322C23.9322 39.416 23.3362 39.9375 22.256 39.9375C21.1758 39.9375 20.5798 39.416 20.5798 38.4104V31.2222C20.5798 30.0676 21.213 29.4344 22.3677 29.4344H41.6255C42.7802 29.4344 43.4135 30.0676 43.4135 31.2222L43.3762 31.2595ZM30.339 31.4457H24.3419C24.1184 31.4457 23.9322 31.5946 23.9322 31.8553V32.9727H30.339V31.4457ZM30.339 34.8349H23.9322V36.3992H30.339V34.8349ZM31.3448 19.4156H25.6829C25.6829 19.4156 25.5712 19.5274 25.5339 19.5646V20.4585H31.382V19.4156H31.3448ZM31.3448 22.2835H25.4966V23.3635H31.3448V22.2835ZM31.3448 25.1513H25.4966V25.859C25.4966 26.0824 25.6456 26.2686 25.9064 26.2686H31.3448V25.1513ZM40.1355 17.4416C38.3103 16.2498 36.7459 14.7972 35.4794 13.233H29.6313C29.1098 13.7171 28.4766 14.2013 27.8433 14.6483L27.9923 14.76C28.8491 15.2814 28.9608 16.0636 28.2903 16.883C28.1041 17.0692 27.9551 17.2927 27.7688 17.4789H31.3075V16.2871C31.3075 15.3187 31.8662 14.76 32.9465 14.76C34.0267 14.76 34.6227 15.2815 34.6227 16.2871V17.4789H40.1728L40.1355 17.4416ZM33.5797 32.9355H40.061V31.8181C40.061 31.5946 39.912 31.4084 39.6513 31.4084H33.5797V32.9355ZM33.5797 36.3992H40.061V34.8349H33.5797V36.3992Z" fill="#D06C15"/>
<path d="M82.2641 36.8088C82.2641 38.0007 81.6681 38.5594 80.3644 38.6339C76.9375 38.8201 73.3616 38.7828 69.9347 38.6339C62.0751 38.2614 58.6855 36.1384 56.674 32.1533C56.1153 35.1328 55.1468 37.442 53.7313 39.0808C53.3588 39.5277 52.9491 39.6022 52.5394 39.3415C52.0551 39.0436 52.0179 38.6339 52.2414 38.1124C53.6941 35.2073 54.2156 31.2222 54.1783 25.0396C54.1783 23.885 54.7371 23.3635 55.7428 23.3635C56.7485 23.3635 57.27 23.885 57.27 25.0396C57.27 26.5293 57.1955 27.9074 57.0837 29.2482C57.717 30.3655 58.3502 31.2594 59.0952 32.0415V21.5385H53.4333C52.8001 21.5385 52.4276 21.2033 52.4276 20.5701C52.4276 19.937 52.8001 19.5273 53.4333 19.5273H58.6854V15.6166H54.5881C53.9176 15.6166 53.5078 15.2069 53.5078 14.5737C53.5078 13.9406 53.9176 13.5682 54.5881 13.5682H58.6854V10.2906C58.6854 9.21053 59.2814 8.61462 60.3989 8.61462C61.5164 8.61462 62.0751 9.21053 62.0751 10.2906V13.5682H65.7255C66.396 13.5682 66.8057 13.9033 66.8057 14.5737C66.8057 15.2441 66.396 15.6166 65.7255 15.6166H62.0751V19.5273H66.6195C67.2527 19.5273 67.6252 19.937 67.6252 20.5701C67.6252 21.2033 67.2527 21.5385 66.6195 21.5385H62.4476V25.7472H66.3215C66.9547 25.7472 67.3272 26.0824 67.3272 26.7156C67.3272 27.386 66.9547 27.7584 66.3215 27.7584H62.4476V34.3135C64.3473 35.1328 66.694 35.3935 69.6739 35.468C73.5106 35.5798 76.9375 35.4681 80.4017 35.2073C81.6309 35.0956 82.2641 35.6543 82.2641 36.8088ZM68.2957 28.5778V12.7115C68.2957 11.5569 68.929 10.9238 70.0837 10.9238H78.0922C79.2469 10.9238 79.8802 11.5569 79.8802 12.7115V20.1605C79.8802 21.315 79.2469 21.9482 78.0922 21.9482H71.5736V28.0936C71.5736 29.6206 71.7226 29.9186 73.2126 30.0303C74.5163 30.1421 75.4848 30.1421 76.8258 30.0303C78.353 29.8814 78.651 29.5089 78.6882 25.6354C78.6882 24.9278 79.0979 24.6671 79.5449 24.6671C80.0664 24.6671 80.4016 24.9651 80.4761 25.561C81.4074 31.2594 80.6996 32.6374 77.31 32.8609C75.5593 32.9726 73.9576 33.0099 72.3186 32.8609C69.0779 32.6374 68.2585 31.818 68.2585 28.5405L68.2957 28.5778ZM71.5736 19.8253H76.267C76.4905 19.8253 76.6768 19.6763 76.6768 19.4156V13.4564C76.6768 13.233 76.4905 13.0468 76.267 13.0468H71.9834C71.7599 13.0468 71.5736 13.233 71.5736 13.4564V19.8253Z" fill="#D06C15"/>
<path d="M93.6625 21.6132C92.8058 22.507 91.8001 22.4325 91.0551 21.3897C89.9376 19.9744 88.8574 18.6336 87.7772 17.479C87.442 17.0321 87.3674 16.6224 87.6654 16.1755C87.9634 15.7658 88.4104 15.6913 88.8947 15.9892C90.2729 16.6969 91.8374 17.7397 93.3646 19.0433C94.333 19.8255 94.5193 20.7566 93.6625 21.6504V21.6132ZM93.6625 25.6729C93.2155 29.4718 92.5078 33.6805 91.5021 37.0325C91.0924 38.3733 90.1239 38.8203 88.9319 38.2988C87.7399 37.8146 87.4792 36.809 88.0007 35.6544C89.4907 32.3769 90.8316 28.8014 91.8746 25.3004C92.0608 24.5927 92.5078 24.481 92.992 24.5555C93.5135 24.6672 93.737 25.077 93.6625 25.6729ZM88.5594 10.1418C88.1869 9.69489 88.2242 9.28519 88.5594 8.91275C88.8574 8.5403 89.2299 8.50302 89.7141 8.76374C91.1669 9.54587 93.0293 10.8867 94.333 12.0785C95.227 12.9351 95.3387 13.8663 94.4448 14.6857C93.588 15.5051 92.5823 15.3561 91.8746 14.276C90.8689 12.8235 89.5651 11.2964 88.6339 10.1418H88.5594ZM103.534 34.835H96.6425C95.4877 34.835 94.8545 34.2019 94.8545 33.0473V25.1887C94.8545 24.0341 95.4877 23.4009 96.6425 23.4009H98.3932V18.0377H94.8918C94.2213 18.0377 93.8488 17.6652 93.8488 17.0321C93.8488 16.3989 94.2213 16.0264 94.8918 16.0264H98.3932V10.1045C98.3932 9.0617 98.9892 8.50305 100.069 8.50305C101.15 8.50305 101.783 9.0617 101.783 10.1045V16.0264H105.061C105.731 16.0264 106.104 16.3989 106.104 17.0321C106.104 17.6652 105.731 18.0377 105.061 18.0377H101.783V23.4009H103.571C104.726 23.4009 105.359 24.0341 105.359 25.1887V33.0473C105.359 34.2019 104.726 34.835 103.571 34.835H103.534ZM102.193 25.8218C102.193 25.5984 102.044 25.4121 101.783 25.4121H98.3559C98.1324 25.4121 97.9462 25.5611 97.9462 25.8218V32.4142C97.9462 32.6376 98.0952 32.8238 98.3559 32.8238H101.783C102.006 32.8238 102.193 32.6376 102.193 32.4142V25.8218ZM116.086 11.5199V36.3249C116.086 39.5651 113.181 40.31 109.084 38.5223C108.562 38.2988 108.376 37.8891 108.562 37.3677C108.711 36.9208 109.046 36.7345 109.642 36.809C112.622 37.1814 112.883 36.9208 112.883 35.8407V27.0881H109.68C109.344 33.0473 108.152 36.3621 104.539 39.4534C104.055 39.8631 103.608 39.8631 103.236 39.5279C102.826 39.1182 102.826 38.6713 103.236 38.1871C106.066 34.5371 106.662 30.8126 106.662 21.9484V11.4826C106.662 10.3281 107.296 9.69485 108.45 9.69485H114.373C115.528 9.69485 116.161 10.3281 116.161 11.4826L116.086 11.5199ZM112.883 25.1142V19.3785H109.791V21.9111C109.791 23.0657 109.791 24.1086 109.791 25.1142H112.92H112.883ZM109.791 12.1902V17.3673H112.883V12.1902C112.883 11.9668 112.697 11.7805 112.473 11.7805H110.276C109.978 11.7805 109.791 11.9668 109.791 12.1902Z" fill="#D06C15"/>
</svg>
