<svg width="133" height="49" viewBox="0 0 133 49" fill="none" xmlns="http://www.w3.org/2000/svg">
<rect x="0.196289" y="0.149414" width="131.866" height="47.9512" rx="23.9756" fill="#009683" fill-opacity="0.2"/>
<path d="M43.5077 25.7615C42.8041 26.3946 41.9598 26.2187 41.3617 25.3042C40.8692 24.4951 40.3767 23.8619 39.9193 23.264V35.3644C39.9193 36.3493 39.3917 36.8769 38.3715 36.8769C37.3513 36.8769 36.7884 36.3493 36.7884 35.3644V24.8469C35.6626 25.9021 34.4313 26.8167 33.2 27.5202C32.7075 27.8016 32.2854 27.7313 32.0391 27.3795C31.7928 26.9574 31.8632 26.5705 32.2854 26.2187C35.8737 23.3695 38.5473 19.3243 39.6731 15.7364C39.7786 15.455 39.6027 15.2792 39.3565 15.2792H33.1649C32.5316 15.2792 32.1798 14.8922 32.1798 14.2942C32.1798 13.6962 32.5316 13.3445 33.1649 13.3445H36.1551V8.77165C36.1551 7.75156 36.7532 7.11839 37.8086 7.11839C38.864 7.11839 39.462 7.75156 39.462 8.77165V13.3445H41.221C42.593 13.3445 43.4021 14.2239 42.98 15.5254C42.3819 17.3897 41.3969 19.2891 40.1304 21.0831C41.3969 21.857 42.5578 22.7715 43.4725 23.6861C44.2113 24.3896 44.2465 25.1283 43.4725 25.7966L43.5077 25.7615ZM59.233 14.048V28.5051C59.233 29.4549 58.7053 29.9825 57.7555 29.9825C56.8056 29.9825 56.2779 29.4549 56.2779 28.5051V27.4147H53.2876V35.4699C53.2876 36.49 52.7248 37.0528 51.6694 37.0528C50.614 37.0528 50.0863 36.49 50.0863 35.4699V27.4147H47.0608V28.6107C47.0608 29.5604 46.5683 30.088 45.5833 30.088C44.5983 30.088 44.1409 29.5604 44.1409 28.6107V14.048C44.1409 12.9575 44.739 12.3596 45.8295 12.3596H50.0863V8.49024C50.0863 7.50532 50.6492 6.9425 51.6694 6.9425C52.6896 6.9425 53.2876 7.50532 53.2876 8.49024V12.3596H57.5796C58.6701 12.3596 59.2682 12.9575 59.2682 14.048H59.233ZM50.1567 14.2942H47.4478C47.2367 14.2942 47.0608 14.4349 47.0608 14.6811V18.867H50.1215V14.2942H50.1567ZM50.1567 20.6962H47.096V25.5152H50.1567V20.6962ZM56.2779 14.6811C56.2779 14.4701 56.1372 14.2942 55.8909 14.2942H53.1821V18.867H56.2427V14.6811H56.2779ZM56.2779 20.6962H53.2173V25.5152H56.2779V20.6962Z" fill="#009683"/>
<path d="M93.3223 32.4805C92.5483 33.5006 91.4929 33.5709 90.4376 32.7267C86.8844 29.8071 83.4016 24.6363 81.1501 19.6062V35.2594C81.1501 36.3498 80.5169 36.9126 79.3911 36.9126C78.2654 36.9126 77.6673 36.3498 77.6673 35.2594V20.3449C75.4158 25.3398 70.7018 30.7569 66.6209 33.3247C65.9877 33.7116 65.5655 33.5358 65.2841 33.0785C65.0378 32.6212 65.1082 32.1639 65.6007 31.7418C69.963 28.0835 74.079 22.1037 75.9084 16.3349H67.2542C66.5154 16.3349 66.1284 15.9128 66.1284 15.1741C66.1284 14.4706 66.5506 14.0485 67.2542 14.0485H77.6322V8.80731C77.6322 7.68169 78.2302 7.1189 79.356 7.1189C80.4817 7.1189 81.115 7.68169 81.115 8.80731V14.0485H91.493C92.2317 14.0485 92.6539 14.4706 92.6539 15.1741C92.6539 15.8776 92.1965 16.3349 91.493 16.3349H81.7834C84.1756 21.3298 88.3971 26.571 92.865 29.772C93.7796 30.4755 93.9555 31.5307 93.2871 32.4453L93.3223 32.4805Z" fill="#009683"/>
</svg>
