<svg width="801" height="529" viewBox="0 0 801 529" fill="none" xmlns="http://www.w3.org/2000/svg">
<g opacity="0.8">
<mask id="mask0_11149_988" style="mask-type:luminance" maskUnits="userSpaceOnUse" x="0" y="0" width="802" height="529">
<path d="M802 0H0V528.637H802V0Z" fill="white"/>
</mask>
<g mask="url(#mask0_11149_988)">
<path d="M765.526 281.076L650.204 426.291L557.406 448.024L526.894 455.177L469.128 528.637H802V448.024V275.209V262.815L768.426 277.427L765.526 281.076Z" fill="#E6E400"/>
<path d="M334.768 395.975L304.143 440.678L295.198 447.3L294.21 448.024L254.414 477.536L230.643 495.138L195.789 528.636H469.128L526.894 455.177L557.406 448.024L650.204 426.291L765.526 281.076L647.936 300.011L590.332 332.867L561.829 349.134L334.768 395.975Z" fill="#009683"/>
<path d="M116.067 504.139L136.208 471.589L153.368 442.35L230.659 403.996L278.33 377.924L448.047 315.941L500.904 281.815L535.92 310.154L590.332 332.867L647.936 300.011L765.525 281.076L768.426 277.427L802 262.815V215.862C785.067 196.412 758.12 187.121 732.227 201.829C675.968 34.9778 534.089 153.815 463.992 225.957C381.888 169.632 353.483 331.758 272.902 285.625C258.027 294.305 244.059 304.753 230.643 316.311C230.643 316.311 86.9326 428.622 57.5068 489.03C51.1712 502.05 41.4328 515.488 29.5879 528.621H100.916L116.067 504.123V504.139Z" fill="#D06C15"/>
<path d="M230.643 495.138L254.414 477.52L294.21 448.024H292.978L295.182 447.3L304.126 440.662L334.751 395.959L561.813 349.118L590.299 332.867L535.887 310.154L500.871 281.815L448.015 315.941L278.298 377.924L230.627 403.996L153.335 442.35L136.175 471.589L116.034 504.139L100.884 528.637H195.756L230.61 495.138H230.643Z" fill="#009683"/>
<path d="M304.143 440.678L295.198 447.3L304.143 440.678Z" fill="#BE8A43"/>
</g>
</g>
</svg>
