<svg width="133" height="49" viewBox="0 0 133 49" fill="none" xmlns="http://www.w3.org/2000/svg">
<rect x="0.250732" y="0.919434" width="131.866" height="47.9512" rx="23.9756" fill="#009683" fill-opacity="0.2"/>
<path d="M44.6727 24.1645V38.243C44.6727 39.2859 44.114 39.8445 42.9965 39.8445C41.8791 39.8445 41.2831 39.2859 41.2831 38.243V26.9206C40.1284 27.9634 38.8991 28.8201 37.6327 29.5278C37.1112 29.863 36.627 29.7885 36.3662 29.3788C36.1055 28.9691 36.18 28.5594 36.5897 28.1497C40.1284 25.5054 43.3691 20.738 44.3003 17.0881C44.412 16.8273 44.3003 16.6411 44.0023 16.6411H37.4837C36.8132 16.6411 36.4407 16.2314 36.4407 15.5983C36.4407 14.9651 36.8132 14.5926 37.4837 14.5926H40.7989V9.78812C40.7989 8.70802 41.3949 8.11206 42.5496 8.11206C43.7043 8.11206 44.3375 8.70802 44.3375 9.78812V14.5926H46.3117C47.7644 14.5926 48.4349 15.4866 47.9879 16.9019C47.3919 18.7641 46.4607 20.5518 45.3805 22.2278C46.8332 23.1962 48.3231 24.4997 49.4406 25.766C50.2601 26.5854 50.1856 27.5539 49.3289 28.187C48.5094 28.8202 47.6527 28.7084 47.0567 27.6655C46.3489 26.3992 45.5295 25.2446 44.71 24.1272L44.6727 24.1645ZM62.4778 38.7272C57.7472 38.7272 57.114 37.9823 57.114 35.1145V23.2334H55.4005C55.2515 32.5818 52.6068 36.7905 46.9077 39.4722C46.3862 39.6956 45.9392 39.5838 45.7157 39.1741C45.4922 38.7272 45.604 38.3548 46.0882 38.0196C50.2601 35.1145 51.9363 31.39 52.0853 23.2707H50.7071C49.5524 23.2707 48.9191 22.6375 48.9191 21.4829V12.2463C48.9191 11.0917 49.5524 10.4585 50.7071 10.4585H61.7328C62.8875 10.4585 63.5208 11.0917 63.5208 12.2463V21.4829C63.5208 22.6375 62.8875 23.2707 61.7328 23.2707H60.3174V34.3324C60.3174 35.338 60.5409 35.7104 62.5523 35.7104C64.005 35.7104 64.154 35.3379 64.154 30.5333C64.154 29.8629 64.452 29.4906 64.9735 29.4533C65.4578 29.4533 65.8302 29.7885 65.942 30.4962C67.134 37.4609 66.3517 38.7272 62.4406 38.7272H62.4778ZM52.2343 20.8125C52.2343 21.036 52.3833 21.2222 52.644 21.2222H59.8704C60.0939 21.2222 60.2801 21.0732 60.2801 20.8125V12.8794C60.2801 12.6559 60.0939 12.4697 59.8704 12.4697H52.644C52.4205 12.4697 52.2343 12.6187 52.2343 12.8794V20.8125Z" fill="#009683"/>
<path d="M99.5778 17.237V37.9822C99.5778 39.0623 98.9445 39.6583 97.8643 39.6583C96.7841 39.6583 96.1509 39.0623 96.1509 37.9822V36.1573H77.1538V38.1312C77.1538 39.2486 76.5579 39.8073 75.4404 39.8073C74.3229 39.8073 73.7269 39.2486 73.7269 38.1312V16.7528C73.7269 15.6727 74.3229 15.114 75.4404 15.114C76.5579 15.114 77.1538 15.6727 77.1538 16.7528V33.8481H84.8271V9.93697C84.8271 8.78238 85.4604 8.14929 86.6524 8.14929C87.8443 8.14929 88.5148 8.78238 88.5148 9.93697V33.8481H96.1509V17.1997C96.1509 16.0824 96.7468 15.5237 97.8643 15.5237C98.9818 15.5237 99.5778 16.0824 99.5778 17.1997V17.237Z" fill="#009683"/>
</svg>
