<svg width="801" height="529" viewBox="0 0 801 529" fill="none" xmlns="http://www.w3.org/2000/svg">
<g opacity="0.8">
<mask id="mask0_11149_988" style="mask-type:luminance" maskUnits="userSpaceOnUse" x="0" y="0" width="802" height="529">
<path d="M802 0H0V528.637H802V0Z" fill="white"/>
</mask>
<g mask="url(#mask0_11149_988)">
<path d="M765.526 281.076L650.204 426.291L557.406 448.024L526.894 455.177L469.128 528.637H802V448.024V275.209V262.815L768.426 277.427L765.526 281.076Z" fill="#E6E400"/>
<path d="M334.768 395.975L304.143 440.678L295.198 447.3L294.21 448.024L254.414 477.536L230.643 495.138L195.789 528.636H469.128L526.894 455.177L557.406 448.024L650.204 426.291L765.526 281.076L647.936 300.011L590.332 332.867L561.829 349.134L334.768 395.975Z" fill="#009683"/>
<path d="M116.067 504.139L136.208 471.589L153.368 442.35L230.659 403.996L278.33 377.924L448.047 315.941L500.904 281.815L535.92 310.154L590.332 332.867L647.936 300.011L765.525 281.076L768.426 277.427L802 262.815V215.862C785.067 196.412 758.12 187.121 732.227 201.829C675.968 34.9778 534.089 153.815 463.992 225.957C381.888 169.632 353.483 331.758 272.902 285.625C258.027 294.305 244.059 304.753 230.643 316.311C230.643 316.311 86.9326 428.622 57.5068 489.03C51.1712 502.05 41.4328 515.488 29.5879 528.621H100.916L116.067 504.123V504.139Z" fill="#D06C15"/>
<path d="M230.643 495.138L254.414 477.52L294.21 448.024H292.978L295.182 447.3L304.126 440.662L334.751 395.959L561.813 349.118L590.299 332.867L535.887 310.154L500.871 281.815L448.015 315.941L278.298 377.924L230.627 403.996L153.335 442.35L136.175 471.589L116.034 504.139L100.884 528.637H195.756L230.61 495.138H230.643Z" fill="#009683"/>
<path d="M304.143 440.678L295.198 447.3L304.143 440.678Z" fill="#BE8A43"/>
</g>
</g>
<path d="M691.021 176.508C691.021 170.548 692.217 165.17 694.634 160.42C697.027 155.647 700.46 151.861 704.909 149.082C709.358 146.281 714.529 144.892 720.446 144.892C726.362 144.892 731.579 146.281 736.14 149.082C740.702 151.883 744.247 155.67 746.754 160.51C749.261 165.327 750.525 170.705 750.525 176.598C750.525 179.802 750.187 182.916 749.509 185.986C748.832 189.056 747.883 191.767 746.686 194.165L738.67 193.604C740.092 191.431 741.199 188.966 742.034 186.165C742.847 183.365 743.254 180.452 743.254 177.427C743.254 172.654 742.26 168.374 740.296 164.588C738.331 160.801 735.621 157.821 732.188 155.692C728.756 153.541 724.849 152.488 720.468 152.488C716.087 152.488 712.09 153.564 708.748 155.692C705.406 157.821 702.854 160.823 701.047 164.632C699.241 168.464 698.337 172.721 698.337 177.427C698.337 181.213 698.947 184.843 700.144 188.272C701.341 191.722 703.012 194.658 705.135 197.1H696.531C694.792 194.165 693.437 191.005 692.466 187.622C691.517 184.238 691.021 180.541 691.021 176.53V176.508Z" fill="#F8F8F8"/>
<path d="M692.082 206.847C693.279 207.161 694.724 207.385 696.373 207.497C698.044 207.609 700.009 207.654 702.312 207.654H739.189C741.493 207.654 743.457 207.609 745.129 207.497C746.8 207.385 748.222 207.161 749.442 206.847V215.698C748.245 215.429 746.8 215.227 745.129 215.093C743.457 214.958 741.493 214.891 739.189 214.891H722.569V215.541C725.075 216.459 727.175 217.714 728.869 219.328C730.563 220.918 731.85 222.845 732.753 225.064C733.657 227.282 734.108 229.747 734.108 232.458C734.108 236.088 733.431 239.225 732.098 241.846C730.766 244.468 728.734 246.485 726.024 247.896C723.314 249.308 719.994 250.002 716.065 250.002H701.883C699.647 250.002 697.728 250.07 696.147 250.204C694.566 250.338 693.189 250.54 692.06 250.809V242.026C693.257 242.25 694.566 242.429 695.989 242.586C697.412 242.743 699.218 242.832 701.386 242.832H714.823C719.204 242.832 722.478 241.689 724.646 239.426C726.837 237.141 727.921 233.959 727.921 229.836C727.921 227.08 727.198 224.548 725.753 222.24C724.308 219.932 722.411 218.118 720.107 216.796C717.781 215.474 715.433 214.801 713.016 214.801L701.386 214.891C699.309 214.891 697.457 214.958 695.854 215.093C694.25 215.227 692.963 215.429 692.037 215.698V206.847H692.082Z" fill="#F8F8F8"/>
<path d="M692.082 263.738C693.279 263.962 694.724 264.141 696.373 264.298C698.044 264.455 700.008 264.544 702.312 264.544H725.662C727.514 264.544 729.004 264.5 730.134 264.432C731.263 264.343 732.234 264.231 733.047 264.074C732.776 264.612 732.572 265.418 732.437 266.516C732.301 267.592 732.301 268.712 732.437 269.855C732.572 270.998 732.776 271.782 733.047 272.208C732.234 272.051 731.24 271.916 730.066 271.849C728.892 271.759 727.424 271.737 725.685 271.737H702.334C700.031 271.737 698.066 271.804 696.395 271.939C694.724 272.073 693.301 272.297 692.105 272.633V263.783L692.082 263.738ZM741.967 268.04C741.967 266.673 742.396 265.553 743.277 264.656C744.157 263.76 745.219 263.312 746.483 263.312C747.748 263.312 748.809 263.76 749.69 264.656C750.571 265.553 751 266.673 751 268.04C751 269.407 750.571 270.594 749.735 271.49C748.877 272.387 747.816 272.835 746.506 272.835C745.196 272.835 744.18 272.387 743.299 271.49C742.418 270.594 741.989 269.451 741.989 268.04H741.967Z" fill="#F8F8F8"/>
<path d="M691.021 300.574C691.021 297.057 691.63 293.987 692.827 291.388C694.024 288.789 695.695 286.817 697.818 285.45C699.941 284.083 702.38 283.411 705.112 283.411C707.845 283.411 710.284 284.083 712.406 285.45C714.529 286.794 716.2 288.789 717.397 291.388C718.594 293.987 719.204 297.057 719.204 300.574C719.204 304.428 718.391 307.722 716.742 310.501C715.094 313.257 713.174 315.161 710.916 316.192V316.999H717.713C721.484 316.999 724.307 315.811 726.204 313.458C728.079 311.106 729.027 307.565 729.027 302.86C729.027 299.992 728.643 297.124 727.875 294.233C727.107 291.365 726.407 289.394 725.753 288.296H731.33C731.985 289.864 732.618 292.194 733.205 295.286C733.814 298.379 734.108 301.292 734.108 304.07C734.108 310.366 732.889 315.251 730.472 318.746C728.033 322.242 724.104 323.99 718.639 323.99H701.996C699.308 323.99 697.253 324.034 695.808 324.102C694.363 324.191 693.121 324.415 692.082 324.796V316.102C692.624 316.326 693.482 316.528 694.656 316.707C695.831 316.887 697.095 316.999 698.473 316.999H699.128V316.259C696.779 315.296 694.837 313.436 693.301 310.702C691.766 307.969 690.998 304.585 690.998 300.574H691.021ZM696.011 303.331C696.011 306.087 696.373 308.484 697.073 310.523C697.773 312.562 698.812 314.131 700.189 315.229C701.544 316.349 703.215 316.887 705.18 316.887C706.603 316.887 708.025 316.304 709.448 315.139C710.871 313.974 712.045 312.36 712.971 310.299C713.897 308.238 714.371 305.907 714.371 303.308C714.371 299.252 713.535 296.071 711.864 293.785C710.193 291.5 707.98 290.379 705.18 290.379C702.38 290.379 700.167 291.522 698.495 293.785C696.824 296.071 695.989 299.23 695.989 303.308L696.011 303.331Z" fill="#F8F8F8"/>
<path d="M673 357.488C673 353.701 673.384 350.116 674.152 346.755C674.92 343.394 676.026 340.279 677.517 337.411H684.246C682.327 340.01 680.904 342.946 679.955 346.239C679.007 349.511 678.51 352.961 678.51 356.614C678.51 362.529 679.797 367.302 682.394 370.954C684.991 374.606 689.169 376.444 694.973 376.444C696.237 376.444 697.457 376.264 698.654 375.906C699.851 375.547 701.16 374.942 702.583 374.069V373.419C700.076 372.545 697.976 371.268 696.283 369.587C694.589 367.907 693.302 365.913 692.421 363.605C691.54 361.297 691.111 358.832 691.111 356.166C691.111 352.536 691.766 349.399 693.076 346.777C694.386 344.156 696.395 342.139 699.105 340.727C701.815 339.316 705.09 338.621 708.974 338.621H723.224C725.414 338.621 727.288 338.576 728.824 338.464C730.382 338.352 731.782 338.173 733.047 337.904V346.598C731.85 346.329 730.54 346.127 729.118 345.993C727.695 345.858 725.888 345.791 723.72 345.791H710.284C705.903 345.791 702.628 346.934 700.46 349.197C698.27 351.483 697.186 354.642 697.186 358.698C697.186 361.521 697.931 364.075 699.399 366.383C700.867 368.691 702.764 370.484 705.045 371.783C707.348 373.083 709.697 373.733 712.09 373.733H723.811C725.82 373.733 727.627 373.665 729.208 373.531C730.789 373.396 732.076 373.195 733.047 372.926V381.799C731.737 381.53 730.427 381.328 729.163 381.194C727.876 381.06 726.137 380.992 723.969 380.992H702.831C702.831 380.992 702.606 381.037 702.515 381.104C702.402 381.194 702.29 381.261 702.199 381.306C700.776 382.001 699.444 382.538 698.225 382.897C697.005 383.255 695.695 383.39 694.34 383.345C689.53 383.39 685.533 382.27 682.327 379.939C679.12 377.609 676.794 374.494 675.281 370.596C673.79 366.697 673.023 362.327 673.023 357.51L673 357.488Z" fill="#F8F8F8"/>
<path d="M692.082 394.795C693.279 395.019 694.724 395.198 696.373 395.355C698.044 395.512 700.008 395.602 702.312 395.602H725.662C727.514 395.602 729.004 395.557 730.134 395.489C731.263 395.4 732.234 395.288 733.047 395.131C732.776 395.669 732.572 396.475 732.437 397.573C732.301 398.649 732.301 399.769 732.437 400.912C732.572 402.055 732.776 402.839 733.047 403.265C732.234 403.108 731.24 402.973 730.066 402.906C728.892 402.817 727.424 402.794 725.685 402.794H702.334C700.031 402.794 698.066 402.861 696.395 402.996C694.724 403.13 693.301 403.354 692.105 403.69V394.84L692.082 394.795ZM741.967 399.097C741.967 397.73 742.396 396.61 743.277 395.714C744.157 394.817 745.219 394.369 746.483 394.369C747.748 394.369 748.809 394.817 749.69 395.714C750.571 396.61 751 397.73 751 399.097C751 400.464 750.571 401.651 749.735 402.548C748.877 403.444 747.816 403.892 746.506 403.892C745.196 403.892 744.18 403.444 743.299 402.548C742.418 401.651 741.989 400.509 741.989 399.097H741.967Z" fill="#F8F8F8"/>
</svg>
