<svg width="132" height="49" viewBox="0 0 132 49" fill="none" xmlns="http://www.w3.org/2000/svg">
<rect x="0.000854492" y="0.357178" width="131.866" height="47.9512" rx="23.9756" fill="#D06C15" fill-opacity="0.2"/>
<path d="M24.0295 14.8127C25.8547 18.3882 26.5251 22.4851 26.5251 27.3642C26.5251 33.6585 25.8547 38.8728 21.9808 38.91C20.4908 38.91 19.1498 38.1279 17.8089 37.1968C17.3246 36.8243 17.1384 36.3401 17.3991 35.8559C17.6599 35.3718 18.0696 35.2973 18.6283 35.5208C19.5596 35.8932 20.379 36.0794 21.0123 36.0422C22.8747 36.0422 23.2845 31.4611 23.2845 26.5075C23.2845 25.9861 23.2845 25.4647 23.2845 25.0178C22.0553 27.1035 20.4163 29.0029 18.2931 30.6417C17.8089 31.0514 17.3246 31.0514 17.0266 30.6417C16.6914 30.232 16.6914 29.8223 17.1011 29.3754C19.3361 26.9172 21.4593 24.0121 22.8002 19.7662C22.614 18.8351 22.3533 17.9412 22.0553 17.0846C20.9378 18.2392 19.6713 19.2821 18.3676 20.0642C17.8834 20.3622 17.4364 20.3622 17.1011 19.9152C16.8031 19.4683 16.8776 19.0586 17.2874 18.6489C18.5911 17.4943 19.8203 16.1163 20.9005 14.4775C20.1183 13.0249 19.1498 11.6097 17.9579 9.97088C17.5854 9.4867 17.6226 9.11425 17.9579 8.7418C18.2931 8.33211 18.7401 8.33211 19.1871 8.7418C20.3791 9.78465 21.3848 10.902 22.2788 12.0566C22.763 11.1627 23.1727 10.1943 23.5452 9.22597C23.955 8.07139 24.7372 7.73618 25.7429 8.14587C26.7486 8.55556 27.1211 9.37496 26.5996 10.4551C25.8919 11.9448 25.0352 13.3974 23.9922 14.7755L24.0295 14.8127ZM46.1554 20.9953C46.1554 27.4014 45.9319 32.0198 45.6712 35.7815C45.4477 39.5059 42.3932 39.8039 37.7744 38.1279C37.1411 37.9044 36.9176 37.4575 37.0294 36.936C37.1784 36.4519 37.5136 36.2284 38.1841 36.3029C42.0208 36.8243 42.3933 36.4891 42.5423 34.3662C42.6913 31.6473 42.9147 27.1779 42.9147 21.6285C42.9147 21.3678 42.7657 21.2188 42.505 21.2188H35.1297C35.8002 21.3678 36.1354 21.9264 36.1354 22.7086V24.1239H39.2643C40.4191 24.1239 41.0523 24.757 41.0523 25.9116V28.5932C41.0523 29.7478 40.4191 30.381 39.2643 30.381H36.2099V32.9509C36.9176 32.8764 37.5881 32.8019 38.2213 32.7274C38.1096 32.5039 37.9979 32.2432 37.8861 32.057C37.6626 31.5728 37.6999 31.2004 38.0724 30.9024C38.4449 30.6044 38.8173 30.6417 39.2271 31.0142C39.9721 31.7218 41.015 32.8764 41.5365 33.8447C42.0208 34.6641 41.8718 35.409 41.0895 35.8187C40.3445 36.2284 39.5623 35.9677 39.2271 35.1483C39.1153 34.8503 39.0408 34.5896 38.8918 34.2917C35.8747 35.1856 32.336 35.8932 29.0953 36.2284C28.0151 36.3774 27.3446 35.8559 27.2701 34.8876C27.2701 33.9565 27.7544 33.3606 28.8718 33.3606C30.2501 33.3606 31.6283 33.2861 33.0065 33.2116V30.3437H29.9521C28.7973 30.3437 28.1641 29.7106 28.1641 28.556V25.8744C28.1641 24.7198 28.7973 24.0866 29.9521 24.0866H33.0437V22.6713C33.0437 21.8892 33.379 21.3677 34.0495 21.1815H31.889C30.6598 22.3734 29.2071 23.4162 27.9034 24.0866C27.4191 24.3473 27.0094 24.2729 26.7114 23.8259C26.4507 23.379 26.5624 22.932 27.0094 22.5968C28.7228 21.3305 30.4735 19.3566 31.4048 17.3081H29.5051C28.3504 17.3081 27.7171 16.6749 27.7171 15.5203V10.902C27.7171 9.74742 28.3504 9.11424 29.5051 9.11424H43.548C44.7027 9.11424 45.3359 9.74742 45.3359 10.902V15.5203C45.3359 16.6749 44.7027 17.3081 43.548 17.3081H34.8317C34.5337 17.9413 34.124 18.5744 33.677 19.1703H44.3302C45.4849 19.1703 46.1182 19.8035 46.1182 20.9581L46.1554 20.9953ZM31.2558 15.2969H32.8575V11.1627H31.2558C31.0323 11.1627 30.846 11.3489 30.846 11.5724V14.8872C30.846 15.1107 31.0323 15.2969 31.2558 15.2969ZM33.1555 28.407V26.0606H31.442C31.2185 26.0606 31.0323 26.2096 31.0323 26.4703V27.9973C31.0323 28.2208 31.2185 28.407 31.442 28.407H33.1555ZM35.5022 15.2969H37.5136V11.1627H35.5022V15.2969ZM36.1727 28.407H37.8861C38.1096 28.407 38.2958 28.2208 38.2958 27.9973V26.4703C38.2958 26.2468 38.1096 26.0606 37.8861 26.0606H36.1727V28.407ZM40.1583 15.2969H41.8345C42.058 15.2969 42.2443 15.1107 42.2443 14.8872V11.5724C42.2443 11.3489 42.058 11.1627 41.8345 11.1627H40.1583V15.2969Z" fill="#D06C15"/>
<path d="M81.9511 36.3402C81.9511 37.1223 81.4668 37.532 80.6846 37.532H53.7163C52.8968 37.532 52.4498 37.0851 52.4498 36.3402C52.4498 35.5953 52.9341 35.1111 53.7163 35.1111H69.5472C70.7019 30.5673 71.7821 25.0178 72.3781 20.2877C72.6016 18.7607 73.5701 18.202 74.8738 18.4255C76.1775 18.6117 76.8852 19.3938 76.55 20.9581C75.656 25.6137 73.9425 31.0887 72.0428 35.1111H80.6474C81.4668 35.1111 81.9138 35.5581 81.9138 36.3402H81.9511ZM53.4183 15.4831C53.4183 14.701 53.8653 14.2913 54.6103 14.2913H65.3752V9.37501C65.3752 8.22042 66.0457 7.58728 67.2377 7.58728C68.4297 7.58728 69.1002 8.22042 69.1002 9.37501V14.2913H79.7534C80.4984 14.2913 80.9454 14.701 80.9454 15.4831C80.9454 16.2653 80.4984 16.675 79.7534 16.675H54.573C53.828 16.675 53.3811 16.228 53.3811 15.4831H53.4183ZM59.6389 19.2821C61.6131 22.8576 63.252 27.2525 64.295 31.3121C64.6675 32.8019 64.146 33.6958 62.7306 34.031C61.3524 34.4035 60.4211 33.6958 60.1976 32.2433C59.5644 28.3326 58.6704 23.9377 57.6647 20.027C57.5157 19.3566 57.6647 18.8724 58.2607 18.6862C58.8567 18.4627 59.3782 18.6862 59.6761 19.2449L59.6389 19.2821Z" fill="#D06C15"/>
<path d="M115.402 16.6375V37.3828C115.402 38.4629 114.769 39.0588 113.689 39.0588C112.608 39.0588 111.975 38.4629 111.975 37.3828V35.5578H92.9781V37.5318C92.9781 38.6491 92.3821 39.2078 91.2646 39.2078C90.1472 39.2078 89.5511 38.6491 89.5511 37.5318V16.1533C89.5511 15.0732 90.1472 14.5146 91.2646 14.5146C92.3821 14.5146 92.9781 15.0732 92.9781 16.1533V33.2487H100.651V9.33756C100.651 8.18298 101.285 7.5498 102.477 7.5498C103.669 7.5498 104.339 8.18298 104.339 9.33756V33.2487H111.975V16.6003C111.975 15.4829 112.571 14.9243 113.689 14.9243C114.806 14.9243 115.402 15.4829 115.402 16.6003V16.6375Z" fill="#D06C15"/>
</svg>
