<svg width="132" height="48" viewBox="0 0 132 48" fill="none" xmlns="http://www.w3.org/2000/svg">
<rect x="0.000854492" y="0.0358887" width="131.866" height="47.9512" rx="23.9756" fill="#D06C15" fill-opacity="0.2"/>
<path d="M44.3853 17.2127V37.2876C44.3853 38.4049 43.7521 38.9636 42.6346 38.9636C41.5172 38.9636 40.9212 38.4049 40.9212 37.2876V17.2127H39.9155C38.7607 20.0805 37.2335 22.8739 35.1476 25.0341C34.7006 25.481 34.2536 25.5555 33.9184 25.2203C33.5086 24.8479 33.4714 24.4009 33.7321 23.9167C35.9671 20.304 37.4943 15.3505 38.2392 8.98162C38.4255 7.67806 39.3195 7.11937 40.3997 7.26835C41.5917 7.38009 42.2249 8.08775 42.0014 9.39131C41.7407 11.1791 41.2937 13.1158 40.6604 15.127H48.4455C49.116 15.127 49.5257 15.4994 49.5257 16.1699C49.5257 16.8403 49.116 17.2499 48.4455 17.2499H44.3853V17.2127ZM64.2764 15.9091C64.2764 16.6168 63.9039 17.0265 63.1961 17.0265H59.6575V34.2708C59.6575 38.3304 56.7893 39.8202 50.7177 37.1759C50.1962 36.9524 49.9727 36.5055 50.1589 35.984C50.3079 35.4626 50.6804 35.2764 51.3137 35.3509C55.8208 35.8351 56.2306 35.5371 56.2306 33.4141V17.0265H53.1016C51.7979 20.0805 50.1217 22.9856 48.1103 25.0341C47.7005 25.5183 47.2535 25.5183 46.881 25.2203C46.4713 24.9224 46.434 24.4382 46.732 23.954C48.9297 20.4902 50.7922 15.4249 51.6862 9.01886C51.8724 7.67805 52.6919 7.11937 53.9211 7.26835C55.0758 7.41733 55.6346 8.19948 55.4483 9.42855C55.1131 11.1046 54.5916 12.9668 53.9211 14.8663H63.1589C63.8666 14.8663 64.2391 15.276 64.2391 15.9091H64.2764Z" fill="#D06C15"/>
<path d="M81.1512 14.1949V34.903C81.1512 35.7224 80.6669 36.2066 79.8102 36.2066C78.9535 36.2066 78.5065 35.7224 78.5065 34.903V33.4877H72.9564V35.1265C72.9564 35.9458 72.4721 36.43 71.5782 36.43C70.6842 36.43 70.2372 35.9458 70.2372 35.1265V14.1949C70.2372 13.3383 70.7214 12.8541 71.5782 12.8541C72.4349 12.8541 72.9564 13.3383 72.9564 14.1949V31.4392H74.2973V8.64547C74.2973 7.78884 74.7816 7.2674 75.6755 7.2674C76.5695 7.2674 77.091 7.7516 77.091 8.64547V31.4392H78.5065V14.1577C78.5065 13.3011 78.9907 12.8541 79.8102 12.8541C80.6297 12.8541 81.1512 13.3383 81.1512 14.1577V14.1949ZM99.1052 21.3459C99.1052 22.0163 98.7327 22.3888 98.0995 22.3888H96.237V35.6106C96.237 38.6275 93.1454 39.7448 88.0795 37.6963C87.5953 37.5101 87.409 37.1004 87.5207 36.6162C87.6697 36.1321 88.005 35.9086 88.6382 35.9831C92.6611 36.43 93.1081 36.1321 93.1081 34.7913V22.3888H82.6784C82.0079 22.3888 81.6354 21.9791 81.6354 21.3459C81.6354 20.75 82.0079 20.3775 82.6784 20.3775H98.1367C98.77 20.3775 99.1425 20.75 99.1425 21.3459H99.1052ZM82.3431 11.8485C82.3431 11.2526 82.7156 10.8801 83.3488 10.8801H88.2657C88.3775 10.2097 88.4147 9.5021 88.452 8.71996C88.452 7.78884 89.0852 7.19292 90.2399 7.23017C91.3202 7.30466 91.7671 7.90057 91.7671 8.7572C91.7671 9.50209 91.6926 10.2097 91.6181 10.8429H96.7213C97.3545 10.8429 97.727 11.2153 97.727 11.8113C97.727 12.4817 97.3545 12.8169 96.7213 12.8169H91.1712C91.0594 13.1148 90.9849 13.4128 90.8359 13.6735C92.8474 14.4184 94.7843 15.2378 96.4605 16.3179C97.3918 16.9138 97.6525 17.7704 96.982 18.6643C96.3115 19.5954 95.3803 19.6327 94.5236 18.8878C93.1081 17.6587 91.4319 16.3551 89.8674 15.3495C88.4147 17.3607 86.2915 18.627 83.6468 19.4464C83.0881 19.5954 82.6411 19.3719 82.4921 18.925C82.3059 18.4408 82.4921 18.0684 82.9764 17.7704C85.621 16.5041 87.0738 15.0516 87.8187 12.8169H83.3116C82.6784 12.8169 82.3059 12.4444 82.3059 11.8113L82.3431 11.8485ZM89.3459 32.2959H84.5781C83.4233 32.2959 82.7901 31.6627 82.7901 30.5081V26.0015C82.7901 24.8469 83.4233 24.2138 84.5781 24.2138H89.3459C90.5007 24.2138 91.1339 24.8469 91.1339 26.0015V30.5081C91.1339 31.6627 90.5007 32.2959 89.3459 32.2959ZM88.154 26.5974C88.154 26.374 88.005 26.1877 87.7442 26.1877H86.217C85.9935 26.1877 85.8073 26.3367 85.8073 26.5974V29.875C85.8073 30.0984 85.9563 30.2846 86.217 30.2846H87.7442C87.9677 30.2846 88.154 30.1357 88.154 29.875V26.5974Z" fill="#D06C15"/>
</svg>
