<svg width="133" height="49" viewBox="0 0 133 49" fill="none" xmlns="http://www.w3.org/2000/svg">
<rect x="0.166748" y="0.919434" width="131.866" height="47.9512" rx="23.9756" fill="#009683" fill-opacity="0.2"/>
<path d="M41.2532 21.0679C40.3964 21.9991 39.3907 21.9245 38.5712 20.9189C37.3793 19.5036 35.852 17.9022 34.7346 16.8966C34.3248 16.4496 34.2503 16.0399 34.5483 15.6303C34.8091 15.1833 35.2933 15.1088 35.7775 15.3695C37.3048 15.9654 39.3534 17.2317 40.8806 18.3863C41.9609 19.1685 42.0354 20.1741 41.2532 21.1052V21.0679ZM41.4394 24.6807C40.6944 28.5169 39.6887 32.9118 38.4595 36.1148C37.9752 37.5301 36.8578 38.0143 35.5913 37.3812C34.3993 36.7852 34.2503 35.6679 34.9581 34.4388C36.5598 31.6454 38.3477 27.8092 39.7259 24.1592C39.9494 23.5633 40.3592 23.3771 40.8434 23.5261C41.3277 23.6378 41.5884 24.0103 41.4394 24.718V24.6807ZM36.6715 9.37305C36.2618 8.96336 36.1873 8.51644 36.5225 8.10675C36.8205 7.69705 37.2675 7.62265 37.7517 7.84612C39.13 8.47928 41.0297 9.59661 42.4451 10.8629C43.4509 11.7196 43.5998 12.6879 42.7059 13.5817C41.8491 14.4384 40.8434 14.4011 40.0239 13.321C38.8692 11.8312 37.7517 10.5649 36.6715 9.41033V9.37305ZM62.7086 11.2353C62.5969 14.1404 62.3734 17.3435 62.0381 19.7644C61.5166 23.9358 57.0467 24.0475 52.4651 21.6266C51.9809 21.3659 51.7574 20.8817 51.9436 20.4347C52.0926 19.9878 52.4651 19.8016 53.0984 19.9134C57.7917 20.8817 58.3132 20.5093 58.574 18.5353C58.8347 16.5241 59.0582 14.066 59.0955 11.9058C59.0955 11.6078 58.9465 11.4587 58.6857 11.4587H53.0239C52.3906 17.3062 50.0067 21.8128 43.8233 24.7924C43.3391 25.0159 42.8921 24.9413 42.6314 24.4944C42.3706 24.0475 42.4824 23.6379 42.9666 23.3027C47.362 20.1369 48.8147 16.7103 49.2989 11.4587H44.9781C44.3448 11.4587 43.9351 11.0863 43.9351 10.4532C43.9351 9.82002 44.3448 9.44761 44.9781 9.44761H60.9579C62.1126 9.44761 62.7831 10.0807 62.7086 11.2726V11.2353ZM62.1126 26.3195V37.1577C62.1126 38.3123 61.4794 38.9082 60.3247 38.9082C59.1699 38.9082 58.574 38.3123 58.574 37.1577V36.152H48.2932V37.2694C48.2932 38.424 47.6227 39.0199 46.5053 39.0199C45.3878 39.0199 44.7173 38.424 44.7173 37.2694V26.3195C44.7173 25.1649 45.3505 24.5317 46.5053 24.5317H60.3247C61.4794 24.5317 62.1126 25.1649 62.1126 26.3195ZM58.574 34.1036V26.9526C58.574 26.7291 58.3877 26.5429 58.1642 26.5429H48.6657C48.4422 26.5429 48.256 26.7291 48.256 26.9526V34.1036H58.5367H58.574Z" fill="#009683"/>
<path d="M82.5244 37.4931V26.6548H70.6047C69.8225 26.6548 69.4127 26.2079 69.4127 25.463C69.4127 24.7181 69.8597 24.2711 70.6047 24.2711H82.5244V11.7197H72.2809C71.5359 11.7197 71.0889 11.2727 71.0889 10.5278C71.0889 9.78291 71.5359 9.33606 72.2809 9.33606H96.5673C97.3123 9.33606 97.7593 9.78291 97.7593 10.5278C97.7593 11.2727 97.3123 11.7197 96.5673 11.7197H86.2493V24.2711H98.2808C99.063 24.2711 99.4727 24.6808 99.4727 25.463C99.4727 26.2451 99.0257 26.6548 98.2808 26.6548H86.2493V37.4931C86.2493 38.6849 85.5788 39.2807 84.3868 39.2807C83.1949 39.2807 82.5244 38.6849 82.5244 37.4931ZM76.4528 21.5523C75.5588 18.6472 74.5903 16.487 73.5101 14.2151C73.2121 13.6564 73.3239 13.135 73.7709 12.8742C74.2551 12.539 74.7766 12.688 75.1863 13.135C76.8998 15.0717 78.427 17.3437 79.8797 19.9508C80.6247 21.2544 80.3267 22.2599 79.0602 22.7813C77.831 23.3028 76.8625 22.7814 76.4528 21.5523ZM88.4097 21.8131C89.6017 19.5039 90.4957 17.2319 91.4269 13.9171C91.7994 12.688 92.8051 12.2784 93.9598 12.7253C94.9656 13.0978 95.4498 13.9916 94.9283 15.1834C93.5874 18.3119 91.7622 20.9937 89.937 22.8559C89.49 23.3028 89.043 23.3773 88.596 23.0048C88.1863 22.6696 88.1117 22.2972 88.4097 21.7758V21.8131Z" fill="#009683"/>
</svg>
