<svg width="132" height="49" viewBox="0 0 132 49" fill="none" xmlns="http://www.w3.org/2000/svg">
<rect x="0.104858" y="0.919434" width="131.866" height="47.9512" rx="23.9756" fill="#D06C15" fill-opacity="0.2"/>
<path d="M28.4901 28.4423C28.6763 32.9116 24.9142 33.7309 21.748 31.9432C21.45 31.7569 21.2638 31.5707 21.2265 31.3845V37.4927C21.2265 38.4983 20.6678 39.0198 19.5876 39.0198C18.5073 39.0198 17.9858 38.4983 17.9858 37.4927V10.1923C17.9858 9.18666 18.5446 8.62805 19.5876 8.62805C20.3698 8.62805 20.854 8.88877 21.1148 9.44744H24.6534C25.2122 8.81428 26.0689 8.59076 26.9629 8.92596C27.9686 9.29841 28.3411 10.1551 27.9686 11.4214C26.9256 15.0341 25.8826 17.455 24.6907 19.5407C24.5789 19.727 24.5417 19.9132 24.6907 20.0994C27.2236 22.8927 28.3783 25.053 28.5273 28.4423H28.4901ZM25.5101 27.9208C25.4356 25.6116 24.6907 23.6005 23.2007 21.1051C22.6792 20.2857 22.642 19.578 22.9027 18.7586C23.6477 16.5612 24.2809 14.2893 24.6162 11.9056C24.6162 11.6449 24.5044 11.4586 24.2437 11.4586H21.2265V30.7514C21.2265 30.7514 21.2265 30.6769 21.2265 30.6397C21.3755 30.1928 21.7107 29.9692 22.3067 30.0809C25.3239 30.6024 25.5474 29.8948 25.5101 27.9208ZM46.5186 10.6393C46.5186 11.3469 46.1089 11.7566 45.4012 11.7566H43.6504V34.8855C43.6504 38.5355 40.0745 40.0253 34.3009 37.4927C33.7794 37.2692 33.6677 36.8596 33.8167 36.3381C33.9284 35.8539 34.2264 35.705 34.8969 35.7795C39.8138 36.3382 40.3353 36.0029 40.3353 33.88V11.7566H29.533C28.8253 11.7566 28.4528 11.3097 28.4528 10.6393C28.4528 9.96889 28.8253 9.59634 29.533 9.59634H45.4384C46.1461 9.59634 46.5559 10.0061 46.5559 10.6393H46.5186ZM36.5731 28.6284H31.172C30.0173 28.6284 29.3841 27.9952 29.3841 26.8407V17.5668C29.3841 16.4122 30.0173 15.779 31.172 15.779H36.5731C37.7278 15.779 38.3611 16.4122 38.3611 17.5668V26.8407C38.3611 27.9952 37.7278 28.6284 36.5731 28.6284ZM35.3439 18.2744C35.3439 18.051 35.1949 17.8647 34.9342 17.8647H32.8482C32.6247 17.8647 32.4385 18.0137 32.4385 18.2744V26.2076C32.4385 26.431 32.5875 26.6172 32.8482 26.6172H34.9342C35.1577 26.6172 35.3439 26.4683 35.3439 26.2076V18.2744Z" fill="#D06C15"/>
<path d="M51.6217 36.189C51.6217 35.4813 52.0314 35.0717 52.7392 35.0717H64.7334V30.7885H55.1231C54.4154 30.7885 54.0056 30.3788 54.0056 29.6712C54.0056 28.9635 54.4154 28.5539 55.1231 28.5539H64.7334V24.4196H57.2091C56.0543 24.4196 55.4211 23.7864 55.4211 22.6319V10.9371C55.4211 9.78249 56.0543 9.14929 57.2091 9.14929H76.0571C77.2118 9.14929 77.8451 9.78249 77.8451 10.9371V22.6319C77.8451 23.7864 77.2118 24.4196 76.0571 24.4196H68.3465V28.5539H78.0313C78.739 28.5539 79.1488 28.9635 79.1488 29.6712C79.1488 30.3788 78.739 30.7885 78.0313 30.7885H68.3465V35.0717H80.4897C81.1975 35.0717 81.6072 35.4813 81.6072 36.189C81.6072 36.9339 81.1975 37.3436 80.4897 37.3436H52.7392C52.0314 37.3436 51.6217 36.9339 51.6217 36.189ZM64.7334 15.8161V11.2723H59.295C59.0715 11.2723 58.8853 11.4586 58.8853 11.682V15.8534H64.7334V15.8161ZM64.7334 22.3712V17.8274H58.8853V21.9988C58.8853 22.2222 59.0343 22.4084 59.295 22.4084H64.7334V22.3712ZM74.3809 15.8161V11.6447C74.3809 11.4213 74.1946 11.235 73.9711 11.235H68.3465V15.7788H74.3809V15.8161ZM73.9711 22.3712C74.1946 22.3712 74.3809 22.2222 74.3809 21.9615V17.7901H68.3465V22.334H73.9711V22.3712Z" fill="#D06C15"/>
<path d="M114.834 16.5612V37.3064C114.834 38.3865 114.201 38.9825 113.121 38.9825C112.04 38.9825 111.407 38.3865 111.407 37.3064V35.4815H92.4101V37.4555C92.4101 38.5728 91.8141 39.1315 90.6966 39.1315C89.5792 39.1315 88.9832 38.5728 88.9832 37.4555V16.077C88.9832 14.9969 89.5792 14.4383 90.6966 14.4383C91.8141 14.4383 92.4101 14.9969 92.4101 16.077V33.1723H100.083V9.26118C100.083 8.1066 100.717 7.47351 101.909 7.47351C103.101 7.47351 103.771 8.1066 103.771 9.26118V33.1723H111.407V16.5239C111.407 15.4066 112.003 14.8479 113.121 14.8479C114.238 14.8479 114.834 15.4066 114.834 16.5239V16.5612Z" fill="#D06C15"/>
</svg>
