<svg width="226" height="63" viewBox="0 0 226 63" fill="none" xmlns="http://www.w3.org/2000/svg">
<rect width="226" height="63" rx="31.5" fill="#009683"/>
<path d="M120.2 26.72L118.76 27.4C118.48 26.56 117.82 25.24 117.14 24.26L118.48 23.66C119.2 24.6 119.92 25.86 120.2 26.72ZM107.36 37.88L106.36 37.5C106.62 36.54 106.94 35.04 107.1 34L108.32 34.38C108 35.58 107.66 36.98 107.36 37.88ZM110.34 31.3V32.62H113.1V31.3H110.34ZM108.94 33.82V30.1H114.54V33.82H108.94ZM114.68 38.46L114.7 39.18C115.14 38.66 115.54 38.12 115.9 37.52C115.52 35.5 115.3 32.74 115.18 29.3H108.24V28.16L108.12 28.4C107.46 27.64 106.4 26.66 105.38 25.86C104.86 26.72 104.28 27.52 103.68 28.24H107.72V29.8H106.1V31.7H108.28V33.28H106.1V38.42L108.32 37.94L108.4 39.26C109.14 39.18 110 39.06 110.94 38.94V37.92H108.86V36.64H110.94V35.7C110.2 35.76 109.46 35.78 108.76 35.8C108.72 35.5 108.54 35.02 108.38 34.7C110.32 34.62 112.58 34.38 113.84 34.04L114.92 35.12C114.2 35.28 113.38 35.42 112.5 35.54V36.64H114.4V37.92H112.5V38.76L114.68 38.46ZM118.36 31.04L119.94 31.36C119.4 33.76 118.62 35.94 117.58 37.78C117.86 39.12 118.22 39.78 118.6 39.78C118.9 39.78 119.1 39.1 119.18 36.84C119.52 37.22 120.04 37.58 120.44 37.74C120.22 40.94 119.72 41.52 118.44 41.52C117.58 41.52 116.92 40.86 116.44 39.56C115.86 40.36 115.18 41.08 114.48 41.7C114.22 41.38 113.62 40.8 113.26 40.52C113.52 40.3 113.78 40.1 114.02 39.86C112.02 40.18 110.02 40.44 108.42 40.68L108.24 39.46C106.16 40 103.94 40.56 102.28 40.94L101.94 39.28C102.7 39.14 103.64 38.94 104.68 38.74V33.28H102.16V31.7H104.68V29.8H103.16V28.82C102.88 29.12 102.62 29.38 102.34 29.62C102.22 29.22 101.9 28.18 101.68 27.74C103.02 26.64 104.4 24.9 105.22 23.1L106.48 23.72C106.36 23.98 106.24 24.24 106.12 24.5C107.16 25.26 108.22 26.16 108.84 26.88L108.4 27.82H110.94V26.34H108.94V24.88H110.94V23.22H112.6V24.88H114.52V26.34H112.6V27.82H115.14C115.1 26.38 115.08 24.84 115.06 23.22H116.82C116.8 24.86 116.8 26.4 116.8 27.82H120.22V29.3H116.84C116.9 31.6 117.02 33.5 117.18 35.04C117.68 33.8 118.08 32.46 118.36 31.04ZM102.42 34.5L103.5 34.2C103.8 35.32 104.1 36.78 104.18 37.74L103.04 38.12C102.96 37.14 102.7 35.64 102.42 34.5ZM139.46 31.34V29.96H133.6V31.34H139.46ZM139.46 33.98V32.58H133.6V33.98H139.46ZM139.46 36.66V35.24H133.6V36.66H139.46ZM131.86 28.58H134.94C135.08 28.16 135.2 27.7 135.32 27.26H130.28V25.74H133.3C133.04 25.18 132.58 24.42 132.18 23.88L133.64 23.28C134.16 23.92 134.74 24.82 134.98 25.38L134.18 25.74H137.56C138.06 25 138.64 23.98 138.94 23.24L140.76 23.74C140.3 24.42 139.84 25.14 139.4 25.74H142.9V27.26H137.34C137.14 27.72 136.92 28.16 136.72 28.58H141.28V38.02H131.86V28.58ZM129.58 26.24L128.16 27.26C127.62 26.44 126.5 25.08 125.62 24.1L127.02 23.24C127.94 24.2 129.02 25.44 129.58 26.24ZM129.42 32.66L130.36 33C130.08 34.68 129.66 36.14 129.12 37.4C130.38 39.36 132.72 39.66 136.12 39.66C138.22 39.66 141.28 39.56 143.4 39.36C143.12 39.76 142.9 40.6 142.8 41.1C140.86 41.22 138.34 41.28 136.1 41.28C132.32 41.28 129.94 40.88 128.4 38.82C127.66 40.04 126.78 40.94 125.78 41.62C125.54 41.26 124.94 40.62 124.56 40.36C126.46 39.2 127.8 37.1 128.46 34.16H126.5C126.02 34.16 125.48 34.3 125.32 34.46C125.22 34.04 124.86 33.22 124.68 32.88C124.98 32.8 125.32 32.66 125.66 32.26C126.08 31.86 127.12 30.48 127.92 29.32H125V27.82H129.1L129.34 27.72L130.5 28.26C129.72 29.38 128.34 31.34 127.24 32.7H129.14L129.42 32.66ZM156.8 25.12V29.42H155.18V23.86H164.9V29.42H163.2V25.12H156.8ZM162.64 25.94V27.02H157.38V25.94H162.64ZM157.38 28.92V27.84H162.64V28.92H157.38ZM148.76 32.74L147.58 32.22C148.22 30.98 148.54 28.82 148.58 27.08L149.78 27.24C149.78 29.08 149.5 31.36 148.76 32.74ZM155.94 31.12V32.62H157.66V31.12H155.94ZM159.04 31.12V32.62H160.84V31.12H159.04ZM162.22 31.12V32.62H164.06V31.12H162.22ZM165.66 33.78H154.4V29.96H165.66V33.78ZM154.4 30.34L153.2 30.84C153.06 29.88 152.62 28.36 152.08 27.12V41.56H150.34V23.22H152.08V26.86L153.1 26.5C153.7 27.74 154.26 29.34 154.4 30.34ZM162.7 36.12H157.34C158.02 36.9 158.96 37.58 160.1 38.16C161.14 37.6 162.02 36.94 162.7 36.12ZM164.22 34.52L165.36 35.06C164.6 36.7 163.4 37.98 161.94 38.94C163.34 39.44 164.92 39.82 166.54 40.04C166.16 40.4 165.66 41.16 165.4 41.62C163.48 41.3 161.66 40.74 160.04 39.98C158.24 40.8 156.16 41.3 154 41.62C153.86 41.16 153.5 40.44 153.2 40.04C154.98 39.84 156.7 39.5 158.22 38.96C157.2 38.3 156.32 37.52 155.62 36.64L156.88 36.12H154.12V34.6H163.88L164.22 34.52ZM188.86 27.46H181.52C180.96 28.6 180.32 29.6 179.58 30.4C179.28 30.08 178.52 29.52 178.1 29.26C179.54 27.84 180.6 25.58 181.16 23.22L182.96 23.56C182.76 24.3 182.52 25.06 182.28 25.76H188.86V27.46ZM174.74 30.46H178.36C178.36 30.46 178.34 30.98 178.34 31.22C178.18 37.7 178.02 39.92 177.52 40.6C177.18 41.08 176.84 41.26 176.32 41.32C175.86 41.38 175.14 41.38 174.4 41.36C174.36 40.88 174.22 40.2 173.94 39.74C174.6 39.8 175.2 39.82 175.5 39.82C175.74 39.82 175.88 39.76 176.04 39.54C176.36 39.12 176.52 37.26 176.64 32.14H174.72C174.64 35.18 174.14 38.6 171.96 41.54C171.64 41.22 171.04 40.76 170.6 40.48C172.8 37.42 173.06 33.84 173.06 31.04V28.14H171.04V26.42H174.68C174.5 25.68 174.08 24.56 173.66 23.72L175.28 23.18C175.72 24.02 176.18 25.12 176.36 25.86L174.8 26.42H178.78V28.14H174.74V30.46ZM187.6 31.34L188.94 32.5C188.06 33.36 187 34.26 186.06 34.96C186.74 37.04 187.74 38.72 189.16 39.72C188.72 40.06 188.16 40.76 187.88 41.24C185.3 39.26 184.1 35.42 183.44 30.82C182.9 30.94 182.36 31.06 181.84 31.18V38.7L184.6 37.54C184.6 38.04 184.72 38.82 184.82 39.22C181.22 40.84 180.6 41.1 180.24 41.44C180.08 41.06 179.6 40.38 179.3 40.12C179.64 39.82 180.06 39.24 180.06 38.26V30.04C182.58 29.52 185.44 28.7 187.08 27.9L188.54 29.18C187.52 29.64 186.3 30.04 185.04 30.4C185.18 31.42 185.34 32.4 185.58 33.34C186.32 32.68 187.1 31.94 187.6 31.34Z" fill="#F8F8F8"/>
<path d="M85 25.4739H36" stroke="#F8F8F8" stroke-width="1.5" stroke-miterlimit="10"/>
<path d="M76.3008 21.0591V29.8888" stroke="#F8F8F8" stroke-width="1.5" stroke-miterlimit="10"/>
<path d="M60.5049 21.0591V29.8888" stroke="#F8F8F8" stroke-width="1.5" stroke-miterlimit="10"/>
<path d="M44.6992 21.0591V29.8888" stroke="#F8F8F8" stroke-width="1.5" stroke-miterlimit="10"/>
<path d="M85 38.8247H36" stroke="#F8F8F8" stroke-width="1.5" stroke-miterlimit="10"/>
<path d="M76.3008 34.4099V43.2278" stroke="#F8F8F8" stroke-width="1.5" stroke-miterlimit="10"/>
<path d="M60.5049 34.4099V43.2278" stroke="#F8F8F8" stroke-width="1.5" stroke-miterlimit="10"/>
<path d="M44.6992 34.4099V43.2278" stroke="#F8F8F8" stroke-width="1.5" stroke-miterlimit="10"/>
</svg>
