<svg width="350" height="103" viewBox="0 0 350 103" fill="none" xmlns="http://www.w3.org/2000/svg">
<rect width="350" height="102.174" rx="51.087" fill="#0CA7F1"/>
<g clip-path="url(#clip0_7101_610)">
<path d="M150.18 34.2543C154.683 34.2543 158.059 35.4984 160.385 37.9822C162.599 40.3082 163.721 43.6891 163.721 48.1112C163.721 52.5334 162.599 55.8737 160.385 58.2402C158.059 60.7195 154.683 61.9637 150.18 61.9637H140.051V34.2543H150.18ZM144.59 58.0825H149.323C152.776 58.0825 155.301 57.2711 156.892 55.6753C158.443 54.0435 159.222 51.5236 159.222 48.1067C159.222 44.6898 158.443 42.0528 156.892 40.4976C155.301 38.9063 152.781 38.131 149.323 38.131H144.59V58.078V58.0825Z" fill="white"/>
<path d="M184.448 43.5719C185.687 44.8521 186.31 46.7138 186.31 49.157V61.9637H182.198V59.3266C181.423 60.3363 180.454 61.0711 179.327 61.6166C178.047 62.1981 176.532 62.5091 174.788 62.5091C172.692 62.5091 171.064 61.9637 169.861 60.9178C168.616 59.8315 167.994 58.4746 167.994 56.8067C167.994 54.5574 168.846 52.8083 170.636 51.6093C172.268 50.4462 174.553 49.8242 177.501 49.7475L181.887 49.6303V48.855C181.887 46.2134 180.454 44.9332 177.578 44.9332C176.338 44.9332 175.369 45.127 174.63 45.5913C173.778 46.0962 173.196 46.8716 172.962 47.9219L168.58 47.5748C169.009 45.3615 170.095 43.7296 171.84 42.7244C173.314 41.7913 175.333 41.363 177.893 41.363C180.842 41.363 183.055 42.1023 184.452 43.5764L184.448 43.5719ZM177.812 52.921C174.283 52.9977 172.534 54.2418 172.534 56.649C172.534 57.3477 172.809 57.9292 173.426 58.3935C174.044 58.8578 174.824 59.1328 175.793 59.1328C177.497 59.1328 178.935 58.6279 180.102 57.6587C181.265 56.649 181.887 55.3688 181.887 53.8181V52.8083L177.812 52.9255V52.921Z" fill="white"/>
<path d="M194.807 41.8995L200.126 56.1802L205.211 41.8995H210.021L199.157 69.645H194.424L197.953 61.4949L190.001 41.895H194.811L194.807 41.8995Z" fill="white"/>
<path d="M251.28 52.8084L241.891 61.5355L240.106 59.6377L244.568 54.5123H214.186V51.0999H244.568L240.106 45.9746L241.891 44.0768L251.28 52.8084Z" fill="white"/>
<path d="M130.152 34.6059C133.839 38.2932 135.701 42.7559 135.701 47.994C135.701 53.2321 133.839 57.6587 130.152 61.3822C126.428 65.0695 121.965 66.9312 116.763 66.9312C111.561 66.9312 107.063 65.0695 103.375 61.3822C99.6518 57.6587 97.8262 53.196 97.8262 47.994C97.8262 42.792 99.6518 38.2932 103.375 34.6059C107.063 30.8824 111.525 29.0568 116.763 29.0568C122.001 29.0568 126.428 30.8824 130.152 34.6059ZM110.322 37.2835C108.613 39.1858 107.761 41.629 107.721 44.6582H112.341C112.418 42.7199 112.846 41.2053 113.545 40.1955C114.32 39.0325 115.447 38.451 116.998 38.451C118.395 38.451 119.482 38.762 120.18 39.4202C120.92 40.0423 121.307 41.0475 121.307 42.4088C121.307 43.7702 120.726 45.127 119.639 46.3667C118.941 47.142 117.778 48.0751 116.146 49.2382C113.198 51.2576 111.255 52.885 110.25 54.0525C108.541 55.9908 107.649 58.398 107.572 61.1928H125.968V57.0411H113.396C114.018 55.8376 115.533 54.4401 117.935 52.8895C120.496 51.181 122.322 49.7475 123.367 48.6612C125.076 46.7994 125.928 44.7033 125.928 42.4539C125.928 40.0873 125.076 38.1445 123.444 36.6704C121.812 35.1964 119.721 34.4571 117.156 34.4571C114.284 34.4571 112.035 35.3902 110.326 37.288L110.322 37.2835Z" fill="white"/>
</g>
<defs>
<clipPath id="clip0_7101_610">
<rect width="153.454" height="40.5927" fill="white" transform="translate(97.8262 29.0568)"/>
</clipPath>
</defs>
</svg>
