<svg width="40" height="66" viewBox="0 0 40 66" fill="none" xmlns="http://www.w3.org/2000/svg">
<path d="M32.4447 4.10578C35.3142 6.41643 37.0048 9.59357 37.6054 13.5483H31.3325C30.6652 10.9711 29.464 9.10478 27.64 7.8828C25.8827 6.68304 23.6361 6.1276 20.8778 6.1276C16.7627 6.1276 13.6708 7.5051 11.5798 10.349C9.64458 12.8818 8.71033 16.3922 8.71033 20.9024C8.71033 25.4126 9.64458 29.0786 11.5131 31.5447C13.5595 34.1886 16.7404 35.5439 21.0335 35.5439C23.8363 35.5439 26.1497 34.833 27.907 33.5221C29.7755 32.0335 31.0879 29.7895 31.8664 26.8123H38.1392C37.2495 31.4336 35.2252 34.9885 31.9776 37.5657C28.9524 39.9875 25.3266 41.1872 21.1003 41.1872C14.5605 41.1872 9.66683 39.0988 6.46368 35.0329C3.66093 31.5225 2.2818 26.7901 2.2818 20.858C2.2818 14.9258 3.70542 10.2601 6.61939 6.63861C9.91151 2.46167 14.694 0.43985 20.9668 0.43985C25.5936 0.43985 29.4418 1.63961 32.4003 4.06135L32.4447 4.10578Z" fill="white"/>
<path d="M7.88814 47.6971V51.7407C9.5342 50.4521 10.6242 48.8968 11.2247 47.075L13.2267 47.4749C13.1155 47.8748 12.9598 48.2747 12.8041 48.6302H17.4086V50.1188C16.808 51.6518 15.9182 53.0293 14.7838 54.2513C16.0295 55.1845 17.4976 55.9399 19.1436 56.4509L17.9647 58.1616C17.7423 58.0728 17.5421 58.0283 17.3419 57.9395V65.5379H15.3399V64.827H11.2247V65.5379H9.24503V57.9839C9.00034 58.095 8.80015 58.1839 8.59995 58.2727L7.33204 56.5842C9.06707 55.8954 10.5797 55.1178 11.8253 54.2291C11.2915 53.607 10.8021 52.9405 10.4017 52.2295C9.91235 52.7183 9.44522 53.1404 8.91137 53.5403L7.84365 52.1628V54.5846H5.95291V57.2063H7.73243V59.1614H5.95291V62.072C6.70921 61.8276 7.4655 61.561 8.15507 61.3166V63.4272C6.04188 64.1826 3.63953 64.9158 0.881263 65.5602L0.302917 63.5383C0.614334 63.4495 0.903507 63.405 1.19268 63.3384V56.4286H3.03894V62.894L4.01768 62.6274V54.5846H1.23717V47.6971H7.84365H7.88814ZM5.90842 49.6078H3.28362V52.6516H5.90842V49.6078ZM13.2934 55.6066C12.2035 56.4509 10.9578 57.2063 9.55644 57.8728H17.1639C15.6736 57.2729 14.3834 56.5397 13.2934 55.6066ZM15.3621 62.9385V59.7391H11.247V62.9385H15.3621ZM13.3157 52.9405C14.072 52.1628 14.7171 51.3408 15.2064 50.4521H11.8476L11.6696 50.7187C12.159 51.5185 12.6929 52.2517 13.3379 52.9405H13.3157Z" fill="white"/>
<path d="M23.5702 60.8055C23.4812 62.5163 23.2365 64.0716 22.8584 65.4268L21.0789 64.8714C21.4793 63.6272 21.7462 62.1831 21.8574 60.5834L23.5702 60.8055ZM28.4639 59.0948L26.7956 59.5169C26.7511 59.2281 26.7066 59.0059 26.6621 58.7615C24.9271 59.317 23.281 59.6947 21.7462 59.8946L21.2123 58.0061C21.5682 57.8506 21.9019 57.6728 22.1466 57.4284C22.6582 56.873 23.3255 55.9399 24.104 54.6512C23.3033 54.7845 22.458 54.9401 21.6127 55.0734L21.1233 53.1849C21.4348 53.0515 21.7239 52.7849 21.9909 52.4294C22.7917 50.8076 23.5035 49.0301 24.104 47.1194L26.0838 47.9192C25.2385 49.9855 24.371 51.6963 23.4812 53.0515C24.0373 52.9627 24.5934 52.896 25.1718 52.7849C25.5499 52.074 25.9503 51.2963 26.3952 50.4521L28.3082 51.163C26.6621 54.118 25.3052 56.2731 24.193 57.6728C24.9048 57.5395 25.6166 57.384 26.3062 57.1618C26.195 56.673 26.0393 56.2065 25.9058 55.7621L27.5074 55.2289C27.8633 56.3398 28.197 57.6284 28.4861 59.0948H28.4639ZM26.2172 64.3382L24.4377 64.7825C24.3265 63.2273 24.193 61.8276 24.0596 60.6278L25.6166 60.2945C25.8391 61.5387 26.0393 62.894 26.2172 64.3604V64.3382ZM28.5529 62.4275L27.0625 63.094C26.7733 62.0053 26.4842 61.0722 26.1505 60.2501L27.5964 59.7613C27.9523 60.5834 28.2859 61.4499 28.5306 62.4275H28.5529ZM32.2454 57.7173V59.1392C31.7338 61.6943 30.6438 63.6716 28.9533 65.0047L27.8188 63.4939C29.0645 62.5163 29.932 61.1833 30.4436 59.4503H28.5973V57.7395H32.2454V57.7173ZM31.9562 48.7191C32.1786 48.2081 32.3343 47.6526 32.4456 47.0972L34.5588 47.386C34.403 47.8748 34.2251 48.3192 34.0027 48.7191H38.229V56.3176H34.8702V57.6506C35.0481 58.095 35.2706 58.5393 35.5597 58.9615C36.583 58.3394 37.4727 57.6728 38.2513 56.9619L39.408 58.3616C38.5849 59.0503 37.6062 59.6947 36.494 60.339C37.3393 61.4276 38.407 62.4497 39.6971 63.3828L38.4292 64.9603C36.9611 63.6272 35.7822 62.183 34.8924 60.65V63.5383C34.8924 64.8714 34.2251 65.5602 32.9572 65.5602H31.4891L31.0442 63.7161C31.4891 63.7827 31.8895 63.805 32.2899 63.805C32.6903 63.805 32.9349 63.5383 32.9349 63.0718V56.2953H29.0867V48.6969H32.0007L31.9562 48.7191ZM36.316 51.6518V50.5187H30.9552V51.6518H36.316ZM36.316 53.3626H30.9552V54.4957H36.316V53.3626Z" fill="white"/>
</svg>
