<svg width="40" height="66" viewBox="0 0 40 66" fill="none" xmlns="http://www.w3.org/2000/svg">
<path d="M23.1026 0.850876C26.9949 0.850876 30.0864 1.78402 32.2883 3.65032C34.3345 5.40552 35.3576 7.7606 35.3576 10.7378C35.3576 12.9373 34.8016 14.8036 33.7562 16.3367C32.7109 17.7586 31.2207 18.8028 29.2412 19.5805C31.8212 20.0693 33.7562 21.1135 35.0685 22.7132C36.3362 24.2462 37.0035 26.4013 37.0035 29.023C37.0035 32.9778 35.6245 35.8883 32.9333 37.7546C30.6202 39.2876 27.3285 40.0653 23.1471 40.0653H5.10938V0.850876H23.0804H23.1026ZM11.5594 17.3365H21.39C24.148 17.3365 26.0607 16.8477 27.2173 15.959C28.3293 15.0258 28.9299 13.5372 28.9299 11.5154C28.9299 9.64912 28.3293 8.27161 27.2173 7.44956C26.0162 6.56085 24.148 6.13871 21.5012 6.13871H11.5594V17.3365ZM11.5594 34.7996H22.2352C24.6595 34.7996 26.5723 34.4219 27.9512 33.6443C29.7083 32.6667 30.598 31.1115 30.598 28.9341C30.598 26.7568 29.9307 25.0905 28.663 24.0907C27.3507 23.0909 25.26 22.6021 22.3909 22.6021H11.5594V34.7996Z" fill="white"/>
<path d="M7.8896 47.3083V51.3519C9.53546 50.0633 10.6253 48.508 11.2258 46.6862L13.2275 47.0861C13.1163 47.486 12.9606 47.8859 12.8049 48.2414H17.4089V49.73C16.8084 51.263 15.9187 52.6405 14.7844 53.8625C16.0299 54.7956 17.4979 55.551 19.1437 56.0621L17.9649 57.7728C17.7425 57.684 17.5423 57.6395 17.3422 57.5506V65.1491H15.3404V64.4382H11.2258V65.1491H9.24632V57.5951C9.00166 57.684 8.80149 57.795 8.60132 57.8617L7.33356 56.1731C9.06839 55.4844 10.5808 54.7068 11.8263 53.8181C11.2925 53.196 10.8032 52.5294 10.4029 51.8185C9.91356 52.285 9.44649 52.7294 8.9127 53.1293L7.84511 51.7518V54.1735H5.9546V56.7952H7.73391V58.7504H5.9546V61.6609C6.71081 61.4165 7.46701 61.1499 8.15649 60.9055V63.0162C6.04357 63.7716 3.6415 64.5048 0.883573 65.1491L0.305298 63.1273C0.616677 63.0384 0.905814 62.994 1.19495 62.9274V56.0176H3.04098V62.483L4.0196 62.2164V54.1735H1.23943V47.286H7.84511L7.8896 47.3083ZM5.91012 49.2412H3.28564V52.285H5.91012V49.2412ZM13.2942 55.24C12.2044 56.0843 10.9589 56.8397 9.5577 57.5062H17.1642C15.6741 56.9063 14.3841 56.1731 13.2942 55.24ZM15.3627 62.5719V59.3725H11.248V62.5719H15.3627ZM13.3165 52.5739C14.0727 51.7962 14.7177 50.9742 15.207 50.0855H11.8486L11.6706 50.3521C12.1599 51.1519 12.6937 51.8851 13.3387 52.5739H13.3165Z" fill="white"/>
<path d="M23.5697 60.4167C23.4808 62.1275 23.2361 63.6828 22.858 65.038L21.0787 64.4826C21.479 63.2384 21.7459 61.7942 21.8572 60.1946L23.5697 60.4167ZM28.4628 58.6838L26.7947 59.1059C26.7502 58.8393 26.7058 58.5949 26.6613 58.3505C24.9265 58.9059 23.2806 59.2836 21.7459 59.4836L21.2122 57.5951C21.568 57.4396 21.9016 57.2618 22.1463 57.0174C22.6578 56.462 23.3251 55.5288 24.1035 54.2402C23.3028 54.3735 22.4577 54.529 21.6125 54.6623L21.1232 52.7516C21.4346 52.6183 21.7237 52.3517 21.9906 51.9962C22.7913 50.3743 23.503 48.5969 24.1035 46.6862L26.083 47.486C25.2378 49.5523 24.3704 51.263 23.4808 52.6183C24.0368 52.5294 24.5928 52.4628 25.1711 52.3517C25.5492 51.6407 25.9496 50.8409 26.3944 50.0188L28.3071 50.7298C26.6613 53.6848 25.3046 55.8399 24.1925 57.2396C24.9042 57.1063 25.6159 56.9508 26.3054 56.7508C26.1942 56.262 26.0385 55.7954 25.9051 55.3511L27.5065 54.8179C27.8623 55.9288 28.1959 57.2174 28.4851 58.6838H28.4628ZM26.2165 63.9272L24.4372 64.3715C24.3259 62.8163 24.1925 61.4165 24.059 60.2168L25.6159 59.8835C25.8384 61.1277 26.0385 62.483 26.2165 63.9494V63.9272ZM28.5518 62.0164L27.0616 62.683C26.7725 61.5943 26.4834 60.6611 26.1497 59.8391L27.5954 59.3503C27.9513 60.1723 28.2849 61.0611 28.5296 62.0164H28.5518ZM32.2439 57.3063V58.7282C31.7323 61.2832 30.6425 63.2606 28.9521 64.5937L27.8178 63.0829C29.0633 62.1053 29.9308 60.7722 30.4423 59.0392H28.5963V57.3285H32.2439V57.3063ZM31.9547 48.3081C32.1771 47.797 32.3328 47.2416 32.444 46.6862L34.557 46.975C34.4013 47.4638 34.2233 47.8859 34.0009 48.3081H38.2268V55.9065H34.8683V57.2396C35.0463 57.684 35.2687 58.1283 35.5578 58.5505C36.5809 57.9284 37.4706 57.2618 38.249 56.5509L39.4056 57.9506C38.5826 58.6393 37.604 59.2836 36.492 59.928C37.3371 61.0166 38.4047 62.0386 39.6947 62.9718L38.427 64.5492C36.959 63.2162 35.7802 61.772 34.8906 60.239V63.1273C34.8906 64.4604 34.2233 65.1491 32.9556 65.1491H31.4877L31.0428 63.3051C31.4877 63.3717 31.888 63.3939 32.2883 63.3939C32.6887 63.3939 32.9333 63.1273 32.9333 62.6607V55.8843H29.0856V48.2858H31.9992L31.9547 48.3081ZM36.314 51.2408V50.1077H30.9539V51.2408H36.314ZM36.314 52.9738H30.9539V54.1069H36.314V52.9738Z" fill="white"/>
</svg>
