<svg width="41" height="66" viewBox="0 0 41 66" fill="none" xmlns="http://www.w3.org/2000/svg">
<path d="M23.9985 0.839767L38.9881 40.0541H32.1262L28.5509 30.2339H12.14L8.56466 40.0541H1.70273L16.6924 0.839767H23.9985ZM26.6411 24.9461L20.4898 7.7495H20.2677L14.072 24.9461H26.6411Z" fill="white"/>
<path d="M8.0088 47.2971V51.3408C9.65211 50.0522 10.7402 48.4969 11.3398 46.675L13.3385 47.075C13.2274 47.4749 13.072 47.8748 12.9165 48.2303H17.5134V49.7189C16.9138 51.2519 16.0255 52.6294 14.8929 53.8514C16.1365 54.7845 17.6022 55.5399 19.2455 56.0509L18.0685 57.7617C17.8465 57.6728 17.6466 57.6284 17.4467 57.5395V65.138H15.4481V64.4271H11.3398V65.138H9.36342V57.584C9.11914 57.6951 8.91928 57.7839 8.71942 57.8728L7.45363 56.1843C9.18577 55.4955 10.6958 54.7179 11.9394 53.8292C11.4065 53.2071 10.9179 52.5405 10.5182 51.8296C10.0296 52.3184 9.56328 52.7405 9.03032 53.1404L7.96439 51.7629V54.1847H6.0768V56.8064H7.85335V58.7615H6.0768V61.672C6.83184 61.4276 7.58687 61.161 8.27528 60.9166V63.0273C6.16563 63.7827 3.76728 64.5159 1.01363 65.1602L0.436249 63.1384C0.747145 63.0496 1.03584 63.0051 1.32452 62.9385V56.0287H3.1677V62.4941L4.1448 62.2275V54.1847H1.36894V47.2971H7.96439H8.0088ZM6.03239 49.2079H3.41197V52.2517H6.03239V49.2079ZM13.4051 55.2067C12.3169 56.0509 11.0734 56.8064 9.67432 57.4729H17.2691C15.7812 56.873 14.4932 56.1398 13.4051 55.2067ZM15.4703 62.5385V59.3392H11.362V62.5385H15.4703ZM13.4273 52.5405C14.1823 51.7629 14.8263 50.9409 15.3149 50.0522H11.9616L11.784 50.3188C12.2725 51.1186 12.8055 51.8518 13.4495 52.5405H13.4273Z" fill="white"/>
<path d="M23.6647 60.4056C23.5758 62.1164 23.3316 63.6716 22.954 65.0269L21.1775 64.4715C21.5772 63.2273 21.8437 61.7831 21.9547 60.1835L23.6647 60.4056ZM28.5502 58.6949L26.8847 59.117C26.8402 58.8282 26.7958 58.606 26.7514 58.3616C25.0193 58.917 23.376 59.2947 21.8437 59.4947L21.3107 57.6062C21.666 57.4507 21.9991 57.2729 22.2434 57.0285C22.7542 56.4731 23.4204 55.5399 24.1976 54.2513C23.3982 54.3846 22.5543 54.5401 21.7105 54.6734L21.2219 52.7849C21.5328 52.6516 21.8215 52.385 22.088 52.0295C22.8874 50.4076 23.598 48.6302 24.1976 46.7195L26.174 47.5193C25.3302 49.5856 24.4641 51.2963 23.5758 52.6516C24.131 52.5628 24.6862 52.4961 25.2636 52.385C25.6411 51.674 26.0408 50.8964 26.4849 50.0522L28.3947 50.7631C26.7514 53.7181 25.3968 55.8732 24.2865 57.2729C24.9971 57.1396 25.7077 56.9841 26.3961 56.7619C26.2851 56.2731 26.1296 55.8066 25.9964 55.3622L27.5953 54.829C27.9506 55.9399 28.2837 57.2285 28.5724 58.6949H28.5502ZM26.3073 63.9383L24.5307 64.3826C24.4197 62.8274 24.2865 61.4277 24.1532 60.2279L25.7077 59.8946C25.9298 61.1388 26.1296 62.4941 26.3073 63.9605V63.9383ZM28.639 62.0275L27.1511 62.6941C26.8625 61.6054 26.5738 60.6722 26.2407 59.8502L27.6841 59.3614C28.0394 60.1835 28.3725 61.05 28.6168 62.0275H28.639ZM32.3254 57.3174V58.7393C31.8146 61.2943 30.7265 63.2717 29.0387 64.6048L27.9062 63.094C29.1498 62.1164 30.0158 60.7833 30.5266 59.0503H28.6834V57.3396H32.3254V57.3174ZM32.0367 48.3192C32.2587 47.8082 32.4142 47.2527 32.5252 46.6973L34.6349 46.9861C34.4794 47.4749 34.3018 47.9192 34.0797 48.3192H38.299V55.9176H34.9458V57.2507C35.1234 57.6951 35.3455 58.1394 35.6342 58.5616C36.6557 57.9395 37.544 57.2729 38.3212 56.562L39.476 57.9617C38.6543 58.6504 37.6772 59.2947 36.5669 59.9391C37.4107 61.0277 38.4767 62.0497 39.7647 62.9829L38.4989 64.5604C37.0332 63.2273 35.8562 61.7831 34.968 60.2501V63.1384C34.968 64.4715 34.3018 65.1602 33.036 65.1602H31.5703L31.1262 63.3162C31.5703 63.3828 31.97 63.405 32.3698 63.405C32.7695 63.405 33.0138 63.1384 33.0138 62.6718V55.8954H29.172V48.2969H32.0811L32.0367 48.3192ZM36.3892 51.2519V50.1188H31.0374V51.2519H36.3892ZM36.3892 52.9627H31.0374V54.0958H36.3892V52.9627Z" fill="white"/>
</svg>
