<svg width="350" height="103" viewBox="0 0 350 103" fill="none" xmlns="http://www.w3.org/2000/svg">
<rect width="350" height="102.492" rx="51.2461" fill="#F6AB00"/>
<g clip-path="url(#clip0_7740_6229)">
<path d="M130.557 35.6179C134.256 39.3168 136.123 43.7934 136.123 49.0477C136.123 54.3021 134.256 58.738 130.557 62.4776C126.817 66.1765 122.341 68.044 117.127 68.044C111.913 68.044 107.396 66.1765 103.697 62.4776C99.9983 58.7787 98.1307 54.2659 98.1307 49.0477C98.1307 43.8295 99.9621 39.3168 103.697 35.6179C107.396 31.8829 111.873 30.0515 117.127 30.0515C122.381 30.0515 126.817 31.8829 130.557 35.6179ZM109.689 40.0945V44.7656C111.791 44.1416 113.736 43.1287 115.449 41.7676V62.2832H120.161V35.9706H116.58C114.635 38.0732 112.334 39.475 109.689 40.0945Z" fill="white"/>
<path d="M150.647 35.2652C155.165 35.2652 158.552 36.5132 160.885 39.0047C163.105 41.338 164.231 44.7294 164.231 49.1653C164.231 53.6012 163.105 56.9519 160.885 59.3259C158.552 61.8129 155.165 63.0609 150.647 63.0609H140.487V35.2652H150.647ZM145.04 59.1676H149.788C153.252 59.1676 155.784 58.3537 157.38 56.753C158.936 55.116 159.718 52.5883 159.718 49.1608C159.718 45.7332 158.936 43.088 157.38 41.5279C155.784 39.9317 153.256 39.154 149.788 39.154H145.04V59.1631V59.1676Z" fill="white"/>
<path d="M185.022 44.6118C186.266 45.896 186.89 47.7635 186.89 50.2144V63.0609H182.766V60.4156C181.988 61.4285 181.016 62.1656 179.886 62.7127C178.601 63.2961 177.082 63.6081 175.332 63.6081C173.229 63.6081 171.597 63.0609 170.39 62.0119C169.142 60.9221 168.518 59.561 168.518 57.8879C168.518 55.6315 169.372 53.8771 171.167 52.6743C172.804 51.5076 175.097 50.8836 178.054 50.8067L182.454 50.6892V49.9114C182.454 47.2616 181.016 45.9774 178.131 45.9774C176.888 45.9774 175.915 46.1719 175.174 46.6376C174.319 47.1441 173.736 47.9218 173.501 48.9754L169.106 48.6272C169.535 46.407 170.625 44.7701 172.375 43.7617C173.853 42.8257 175.879 42.3961 178.448 42.3961C181.405 42.3961 183.625 43.1377 185.027 44.6163L185.022 44.6118ZM178.366 53.9901C174.826 54.067 173.071 55.315 173.071 57.7297C173.071 58.4306 173.347 59.0139 173.967 59.4796C174.586 59.9454 175.368 60.2212 176.34 60.2212C178.05 60.2212 179.492 59.7148 180.663 58.7426C181.83 57.7297 182.454 56.4455 182.454 54.89V53.8771L178.366 53.9946V53.9901Z" fill="white"/>
<path d="M195.414 42.9387L200.749 57.2639L205.85 42.9387H210.675L199.777 70.7707H195.029L198.57 62.5952L190.593 42.9342H195.418L195.414 42.9387Z" fill="white"/>
<path d="M252.063 53.8771L242.644 62.6313L240.853 60.7276L245.33 55.5863H214.853V52.1633H245.33L240.853 47.022L242.644 45.1183L252.063 53.8771Z" fill="white"/>
</g>
<defs>
<clipPath id="clip0_7740_6229">
<rect width="153.932" height="40.7191" fill="white" transform="translate(98.1307 30.0515)"/>
</clipPath>
</defs>
</svg>
