<svg width="40" height="66" viewBox="0 0 40 66" fill="none" xmlns="http://www.w3.org/2000/svg">
<path d="M34.7418 0.839111V6.32702H12.879V17.1917H33.4309V22.6796H12.879V34.5442H35.6749V40.0321H6.45795V0.839111H34.7418Z" fill="white"/>
<path d="M7.90205 47.2975V51.3412C9.5462 50.0525 10.6349 48.4973 11.2348 46.6754L13.2344 47.0753C13.1233 47.4752 12.9678 47.8751 12.8123 48.2306H17.4115V49.7193C16.8116 51.2523 15.9228 52.6298 14.7897 53.8518C16.0339 54.785 17.5003 55.5404 19.1445 56.0515L17.9669 57.7623C17.7447 57.6734 17.5448 57.6289 17.3448 57.5401V65.1387H15.3452V64.4277H11.2348V65.1387H9.25736V57.5845C9.01296 57.6956 8.81299 57.7845 8.61303 57.8733L7.34659 56.1848C9.07961 55.496 10.5905 54.7184 11.8347 53.8296C11.3014 53.2075 10.8126 52.541 10.4127 51.83C9.92391 52.3188 9.45732 52.7409 8.92408 53.1409L7.85761 51.7633V54.1851H5.96906V56.8069H7.74652V58.7621H5.96906V61.6727C6.72448 61.4283 7.4799 61.1617 8.16866 60.9173V63.028C6.05793 63.7834 3.65836 64.5166 0.903297 65.1609L0.325623 63.1391C0.636678 63.0502 0.925515 63.0058 1.21435 62.9391V56.0292H3.05847V62.4947L4.03607 62.2281V54.1851H1.25879V47.2975H7.85761H7.90205ZM5.92462 49.2082H3.30287V52.2521H5.92462V49.2082ZM13.3011 55.2072C12.2124 56.0515 10.9682 56.8069 9.56841 57.4734H17.1671C15.6784 56.8735 14.3898 56.1403 13.3011 55.2072ZM15.3674 62.5392V59.3398H11.257V62.5392H15.3674ZM13.3233 52.541C14.0787 51.7633 14.723 50.9413 15.2118 50.0525H11.8569L11.6791 50.3191C12.1679 51.119 12.7012 51.8522 13.3455 52.541H13.3233Z" fill="white"/>
<path d="M23.566 60.4062C23.4771 62.117 23.2327 63.6723 22.855 65.0276L21.0776 64.4722C21.4775 63.2279 21.7441 61.7838 21.8552 60.184L23.566 60.4062ZM28.454 58.6954L26.7877 59.1176C26.7432 58.8287 26.6988 58.6066 26.6544 58.3622C24.9213 58.9176 23.2772 59.2953 21.7441 59.4953L21.2109 57.6067C21.5664 57.4512 21.8997 57.2735 22.1441 57.0291C22.6551 56.4736 23.3216 55.5404 24.0993 54.2518C23.2994 54.3851 22.4551 54.5406 21.6108 54.6739L21.122 52.7854C21.4331 52.6521 21.7219 52.3854 21.9885 52.0299C22.7884 50.408 23.4994 48.6306 24.0993 46.7198L26.0767 47.5196C25.2324 49.5859 24.3659 51.2967 23.4771 52.6521C24.0326 52.5632 24.5881 52.4965 25.1657 52.3854C25.5434 51.6745 25.9434 50.8968 26.3877 50.0525L28.2985 50.7635C26.6544 53.7185 25.299 55.8737 24.1881 57.2735C24.8991 57.1401 25.6101 56.9846 26.2989 56.7624C26.1878 56.2736 26.0322 55.8071 25.8989 55.3627L27.4986 54.8294C27.8541 55.9404 28.1874 57.229 28.4763 58.6954H28.454ZM26.21 63.9389L24.4325 64.3833C24.3214 62.828 24.1881 61.4283 24.0548 60.2285L25.6101 59.8952C25.8323 61.1394 26.0322 62.4947 26.21 63.9611V63.9389ZM28.5429 62.0282L27.0543 62.6947C26.7654 61.606 26.4766 60.6728 26.1433 59.8508L27.5875 59.362C27.943 60.184 28.2763 61.0506 28.5207 62.0282H28.5429ZM32.2311 57.3179V58.7399C31.7201 61.295 30.6314 63.2724 28.9428 64.6055L27.8097 63.0946C29.0539 62.117 29.9204 60.7839 30.4315 59.0509H28.5873V57.3401H32.2311V57.3179ZM31.9423 48.3195C32.1645 47.8085 32.32 47.253 32.4311 46.6976L34.5418 46.9864C34.3863 47.4752 34.2086 47.9196 33.9864 48.3195H38.2078V55.9181H34.8529V57.2512C35.0306 57.6956 35.2528 58.14 35.5417 58.5621C36.5637 57.94 37.4524 57.2735 38.2301 56.5625L39.3854 57.9622C38.5633 58.651 37.5857 59.2953 36.4748 59.9396C37.3191 61.0283 38.3856 62.0504 39.6742 62.9835L38.4078 64.561C36.9414 63.2279 35.7638 61.7838 34.8751 60.2507V63.1391C34.8751 64.4722 34.2086 65.1609 32.9421 65.1609H31.4757L31.0314 63.3168C31.4757 63.3835 31.8756 63.4057 32.2756 63.4057C32.6755 63.4057 32.9199 63.1391 32.9199 62.6725V55.8959H29.0761V48.2973H31.9867L31.9423 48.3195ZM36.2971 51.2523V50.1192H30.9425V51.2523H36.2971ZM36.2971 52.9631H30.9425V54.0962H36.2971V52.9631Z" fill="white"/>
</svg>
