<svg width="40" height="66" viewBox="0 0 40 66" fill="none" xmlns="http://www.w3.org/2000/svg">
<path d="M18.6558 0.839767C25.0323 0.839767 29.8091 2.59497 33.0973 6.10538C36.23 9.39361 37.8296 14.1704 37.8296 20.4358C37.8296 26.7013 36.23 31.4114 33.0973 34.7663C29.8091 38.2767 25.0323 40.0319 18.6558 40.0319H4.32544V0.839767H18.6558ZM10.7463 34.5663H17.4561C22.3439 34.5663 25.921 33.411 28.165 31.167C30.3645 28.8564 31.4532 25.3015 31.4532 20.4581C31.4532 15.6146 30.3645 11.882 28.165 9.70466C25.921 7.46066 22.3439 6.34978 17.4561 6.34978H10.7463V34.5886V34.5663Z" fill="white"/>
<path d="M7.90251 47.2971V51.3408C9.54661 50.0521 10.6353 48.4969 11.2352 46.675L13.2347 47.075C13.1237 47.4749 12.9681 47.8748 12.8126 48.2303H17.4117V49.7189C16.8118 51.2519 15.9231 52.6294 14.79 53.8514C16.0342 54.7845 17.5005 55.5399 19.1446 56.0509L17.9671 57.7617C17.7449 57.6728 17.545 57.6284 17.345 57.5395V65.138H15.3454V64.427H11.2352V65.138H9.25778V57.584C9.01339 57.695 8.81343 57.7839 8.61347 57.8728L7.34707 56.1842C9.08004 55.4955 10.5908 54.7179 11.835 53.8292C11.3018 53.2071 10.813 52.5405 10.4131 51.8296C9.92431 52.3183 9.45774 52.7405 8.92452 53.1404L7.85807 51.7629V54.1846H5.96957V56.8063H7.74698V58.7615H5.96957V61.672C6.72497 61.4276 7.48037 61.161 8.16912 60.9166V63.0273C6.05844 63.7827 3.65894 64.5159 0.903953 65.1602L0.326294 63.1384C0.637341 63.0495 0.92617 63.0051 1.215 62.9384V56.0287H3.05906V62.4941L4.03664 62.2275V54.1846H1.25943V47.2971H7.85807H7.90251ZM5.92514 49.2079H3.30346V52.2517H5.92514V49.2079ZM13.3014 55.2067C12.2127 56.0509 10.9685 56.8063 9.56883 57.4729H17.1673C15.6787 56.873 14.3901 56.1398 13.3014 55.2067ZM15.3676 62.5385V59.3392H11.2574V62.5385H15.3676ZM13.3236 52.5405C14.079 51.7629 14.7233 50.9408 15.2121 50.0521H11.8572L11.6795 50.3187C12.1683 51.1186 12.7015 51.8518 13.3458 52.5405H13.3236Z" fill="white"/>
<path d="M23.566 60.4056C23.4771 62.1164 23.2327 63.6716 22.855 65.0269L21.0776 64.4715C21.4775 63.2273 21.7441 61.7831 21.8552 60.1834L23.566 60.4056ZM28.4538 58.6948L26.7875 59.117C26.7431 58.8282 26.6986 58.606 26.6542 58.3616C24.9212 58.917 23.2771 59.2947 21.7441 59.4947L21.2109 57.6062C21.5664 57.4507 21.8996 57.2729 22.144 57.0285C22.655 56.4731 23.3216 55.5399 24.0992 54.2513C23.2993 54.3846 22.4551 54.5401 21.6108 54.6734L21.122 52.7849C21.4331 52.6516 21.7219 52.385 21.9885 52.0295C22.7883 50.4076 23.4993 48.6302 24.0992 46.7195L26.0765 47.5193C25.2323 49.5856 24.3658 51.2963 23.4771 52.6516C24.0325 52.5627 24.588 52.4961 25.1656 52.385C25.5433 51.674 25.9432 50.8964 26.3876 50.0521L28.2983 50.7631C26.6542 53.7181 25.2989 55.8732 24.188 57.2729C24.899 57.1396 25.61 56.9841 26.2987 56.7619C26.1876 56.2731 26.0321 55.8065 25.8988 55.3622L27.4985 54.829C27.854 55.9398 28.1872 57.2285 28.4761 58.6948H28.4538ZM26.2099 63.9382L24.4324 64.3826C24.3214 62.8274 24.188 61.4276 24.0547 60.2279L25.61 59.8946C25.8321 61.1388 26.0321 62.4941 26.2099 63.9605V63.9382ZM28.5427 62.0275L27.0541 62.694C26.7653 61.6054 26.4765 60.6722 26.1432 59.8502L27.5873 59.3614C27.9428 60.1834 28.2761 61.0499 28.5205 62.0275H28.5427ZM32.2308 57.3173V58.7393C31.7198 61.2943 30.6312 63.2717 28.9426 64.6048L27.8095 63.094C29.0537 62.1164 29.9202 60.7833 30.4312 59.0503H28.5871V57.3396H32.2308V57.3173ZM31.942 48.3191C32.1642 47.8081 32.3197 47.2527 32.4308 46.6973L34.5415 46.9861C34.3859 47.4749 34.2082 47.9192 33.986 48.3191H38.2074V55.9176H34.8525V57.2507C35.0303 57.695 35.2524 58.1394 35.5413 58.5615C36.5633 57.9394 37.452 57.2729 38.2296 56.5619L39.3849 57.9617C38.5629 58.6504 37.5853 59.2947 36.4744 59.939C37.3187 61.0277 38.3851 62.0497 39.6737 62.9829L38.4073 64.5603C36.941 63.2273 35.7634 61.7831 34.8747 60.2501V63.1384C34.8747 64.4715 34.2082 65.1602 32.9418 65.1602H31.4754L31.0311 63.3161C31.4754 63.3828 31.8753 63.405 32.2753 63.405C32.6752 63.405 32.9196 63.1384 32.9196 62.6718V55.8954H29.0759V48.2969H31.9864L31.942 48.3191ZM36.2967 51.2519V50.1188H30.9422V51.2519H36.2967ZM36.2967 52.9627H30.9422V54.0958H36.2967V52.9627Z" fill="white"/>
</svg>
