<svg width="16" height="17" viewBox="0 0 16 17" fill="none" xmlns="http://www.w3.org/2000/svg">
<g clip-path="url(#clip0_7596_4936)">
<path d="M15.7649 15.4155L11.6502 11.3008C12.5123 10.1959 13.028 8.80792 13.028 7.30109C13.028 3.71098 10.1054 0.78833 6.51402 0.78833C2.92265 0.78833 0 3.71098 0 7.30235C0 10.8937 2.92265 13.8164 6.51402 13.8164C8.02086 13.8164 9.40886 13.3006 10.5137 12.4385L14.6284 16.5532C14.7852 16.71 14.9912 16.7883 15.1973 16.7883C15.4033 16.7883 15.6094 16.71 15.7661 16.5532C16.0796 16.2397 16.0796 15.7303 15.7661 15.4155H15.7649ZM1.60796 7.30235C1.60796 4.59713 3.8088 2.39629 6.51402 2.39629C9.21925 2.39629 11.4201 4.59713 11.4201 7.30235C11.4201 10.0076 9.21925 12.2084 6.51402 12.2084C3.8088 12.2084 1.60796 10.0076 1.60796 7.30235Z" fill="#4B4B4B"/>
</g>
<defs>
<clipPath id="clip0_7596_4936">
<rect width="16" height="16" fill="white" transform="translate(0 0.78833)"/>
</clipPath>
</defs>
</svg>
