<svg width="177" height="76" viewBox="0 0 177 76" fill="none" xmlns="http://www.w3.org/2000/svg">
<path d="M138.037 0.124756H37.9883C17.0079 0.124756 0 17.0712 0 37.9756C0 58.8801 17.0079 75.8265 37.9883 75.8265H138.037C159.017 75.8265 176.025 58.8801 176.025 37.9756C176.025 17.0712 159.017 0.124756 138.037 0.124756Z" fill="#76A035"/>
<path d="M38.3303 60.7931C38.0373 59.9174 38.3303 59.2849 39.258 58.7984C51.5139 53.2521 57.7151 44.203 57.7151 25.764V16.6176C57.7151 14.8174 58.6916 13.8931 60.4983 13.8931C62.3049 13.8931 63.3303 14.8174 63.3303 16.6176V25.6667C65.2346 39.2892 72.3635 50.479 82.4709 55.8793C84.3752 56.9497 84.717 58.6038 83.7405 60.1607C82.7151 61.9121 80.9084 62.0094 79.2483 60.8904C72.3147 56.6091 63.9651 46.7815 62.3537 33.0618C61.4748 48.2897 52.6858 57.8254 40.3811 61.4742C39.4534 61.7662 38.6721 61.4742 38.428 60.7931H38.3303ZM47.9006 37.0512C46.0451 32.9158 43.4573 28.0507 41.3576 24.4991C40.8694 23.672 41.1135 23.0395 41.6994 22.5044C42.2854 21.9692 43.0666 22.1152 43.7502 22.699C46.8752 25.6181 50.3908 30.1913 53.0764 34.1807C54.2971 36.0295 53.9065 37.5863 52.051 38.5594C50.2444 39.5324 48.7795 38.9972 47.9006 37.0025V37.0512ZM68.9455 38.1702C68.3596 37.489 68.3596 36.9052 68.9455 36.0782C71.2893 32.9158 73.5842 28.6831 75.3908 24.4018C76.2698 22.3098 77.7346 21.6773 79.6877 22.6017C81.592 23.5747 81.7385 25.3262 80.6155 27.1263C78.0276 31.4076 74.4143 35.6889 71.094 38.2188C70.3127 38.8026 69.4826 38.8513 68.9455 38.2188V38.1702Z" fill="white"/>
<path d="M137.891 50.8196C137.891 51.8899 137.256 52.5224 136.23 52.5224H117.725V59.6255C117.725 61.377 116.748 62.35 114.941 62.35C113.135 62.35 112.158 61.377 112.158 59.6255V52.5224H93.5547C92.4805 52.5224 91.8945 51.8899 91.8945 50.8196C91.8945 49.7493 92.4805 49.1168 93.5547 49.1168H112.158V45.322H100.195C98.4375 45.322 97.4609 44.3489 97.4609 42.5975V29.5589C97.4609 27.8074 98.4375 26.8344 100.195 26.8344H112.158V23.2828H95.459C94.3848 23.2828 93.75 22.699 93.75 21.58C93.75 20.461 94.3848 19.8772 95.459 19.8772H112.158V16.423C112.158 14.6715 113.135 13.6985 114.941 13.6985C116.748 13.6985 117.725 14.6715 117.725 16.423V19.8772H134.277C135.352 19.8772 135.938 20.5097 135.938 21.58C135.938 22.6504 135.352 23.2828 134.277 23.2828H117.725V26.8344H129.541C131.299 26.8344 132.275 27.8074 132.275 29.5589V42.5975C132.275 44.3489 131.299 45.322 129.541 45.322H117.725V49.1168H136.23C137.256 49.1168 137.891 49.7006 137.891 50.8196ZM102.979 34.4727H112.207V30.094H103.613C103.271 30.094 102.979 30.3373 102.979 30.7265V34.5213V34.4727ZM112.207 42.1596V37.5864H102.979V41.5758C102.979 41.9164 103.223 42.2083 103.613 42.2083H112.207V42.1596ZM117.725 30.0454V34.424H126.855V30.6292C126.855 30.2887 126.611 29.9967 126.221 29.9967H117.725V30.0454ZM126.855 37.5377H117.725V42.111H126.221C126.563 42.111 126.855 41.8677 126.855 41.4785V37.4891V37.5377Z" fill="white"/>
</svg>
