<svg width="177" height="76" viewBox="0 0 177 76" fill="none" xmlns="http://www.w3.org/2000/svg">
<path d="M138.037 0.124756H37.9883C17.0079 0.124756 0 17.0712 0 37.9756C0 58.8801 17.0079 75.8265 37.9883 75.8265H138.037C159.017 75.8265 176.025 58.8801 176.025 37.9756C176.025 17.0712 159.017 0.124756 138.037 0.124756Z" fill="#76A035"/>
<path d="M83.0078 21.1908C83.0078 22.2611 82.373 22.8936 81.3477 22.8936H40.7715C39.7461 22.8936 39.1113 22.2611 39.1113 21.1908C39.1113 20.1204 39.7461 19.5366 40.7715 19.5366H58.252V16.3743C58.252 14.7201 59.3262 13.7471 61.1328 13.7471C62.9395 13.7471 64.0137 14.7201 64.0137 16.3743V19.5366H81.3965C82.4219 19.5366 83.0566 20.1691 83.0566 21.1908H83.0078ZM81.2988 41.1379V56.1225C81.2988 61.5715 76.5137 63.031 68.5059 60.0147C67.627 59.7227 67.2852 59.1389 67.4805 58.3605C67.627 57.5821 68.2129 57.2415 69.1895 57.3388C75.2441 58.1172 76.123 57.6307 76.123 55.0035V42.0136C76.123 41.673 75.8789 41.3811 75.4883 41.3811H46.6309C46.2891 41.3811 45.9961 41.6244 45.9961 42.0136V59.4308C45.9961 61.085 45.0195 61.9607 43.457 61.9607C41.6992 61.9607 40.7715 61.0363 40.7715 59.4308V41.1379C40.7715 39.3378 41.8457 38.2188 43.6523 38.2188H78.418C80.2246 38.2188 81.3477 39.3864 81.3477 41.1379H81.2988ZM50 35.6402C48.2422 35.6402 47.2656 34.6672 47.2656 32.9158V28.0506C47.2656 26.2992 48.2422 25.3261 50 25.3261H72.168C73.9258 25.3261 74.9023 26.2992 74.9023 28.0506V32.9158C74.9023 34.6672 73.9258 35.6402 72.168 35.6402H50ZM68.7988 55.3441H53.2715C51.5137 55.3441 50.5371 54.3711 50.5371 52.6196V46.7814C50.5371 45.03 51.5137 44.057 53.2715 44.057H68.7988C70.5566 44.057 71.5332 45.03 71.5332 46.7814V52.6196C71.5332 54.3711 70.5566 55.3441 68.7988 55.3441ZM52.2461 31.8941C52.2461 32.2346 52.4902 32.4779 52.8809 32.4779H69.2871C69.6289 32.4779 69.9219 32.2346 69.9219 31.8941V29.0723C69.9219 28.7317 69.6777 28.4398 69.2871 28.4398H52.8809C52.5391 28.4398 52.2461 28.6831 52.2461 29.0723V31.8941ZM66.6504 47.7545C66.6504 47.4139 66.4063 47.122 66.0156 47.122H56.0059C55.6641 47.122 55.3711 47.3653 55.3711 47.7545V51.6952C55.3711 52.0358 55.6152 52.3277 56.0059 52.3277H66.0156C66.3574 52.3277 66.6504 52.0845 66.6504 51.6952V47.7545Z" fill="white"/>
<path d="M108.936 53.155C105.518 55.5389 99.7559 57.8256 94.7754 59.1392C93.1153 59.577 91.8946 58.9446 91.6504 57.2904C91.3575 55.8795 91.9922 54.7605 93.5059 54.4686C95.1661 54.2254 96.7286 53.8848 98.3399 53.5442V38.7542H93.6524C92.627 38.7542 92.0899 38.1217 92.0899 37.1487C92.0899 36.1756 92.627 35.5918 93.6524 35.5918H98.3399V30.678H95.5567C95.2637 30.678 94.9219 30.678 94.7266 30.4834C94.3848 30.824 93.9454 31.1159 93.6036 31.4078C92.8711 31.9916 92.2364 31.8943 91.7481 31.4078C91.3086 30.824 91.3575 30.2402 91.7969 29.559C94.9219 25.5696 97.168 20.9477 98.8282 15.5961C99.3164 13.9419 100.537 13.504 102.051 13.8446C103.516 14.2338 104.053 15.5474 103.564 16.9096L103.467 17.1529C105.176 18.5638 107.129 20.5585 108.594 22.4073C109.473 23.5263 109.375 24.5479 108.301 25.375C107.129 26.2994 106.055 26.0561 105.322 24.6939C104.346 22.8938 103.272 21.2883 102.344 19.926C101.074 22.6992 99.4629 25.2291 97.5586 27.467H106.055C107.08 27.467 107.666 28.0508 107.666 29.0239C107.666 30.0456 107.08 30.6294 106.055 30.6294H102.979V35.5432H107.129C108.106 35.5432 108.74 36.127 108.74 37.1C108.74 38.0731 108.106 38.7055 107.129 38.7055H102.979V52.3279C104.736 51.8901 106.299 51.3063 107.715 50.7225C108.496 50.4305 109.131 50.6251 109.522 51.3063C109.912 51.9874 109.668 52.6199 108.887 53.1064L108.936 53.155ZM93.5059 49.6521C93.3106 47.0736 92.92 44.5437 92.5293 42.1111C92.4317 41.2354 92.7246 40.7489 93.5059 40.457C94.1895 40.2624 94.7754 40.5543 95.1661 41.3814C96.2403 43.8626 96.9239 46.4411 97.2657 49.0683C97.5098 50.2846 96.9727 51.063 95.752 51.3063C94.4336 51.5495 93.6524 51.0144 93.5547 49.6521H93.5059ZM108.398 42.3057C107.959 44.7383 106.982 47.3168 105.762 49.4575C105.42 50.1873 104.883 50.4305 104.199 50.1873C103.516 49.9927 103.272 49.4575 103.418 48.7277C104.053 46.4411 104.59 43.9599 104.883 41.6246C105.029 40.4083 105.859 39.9218 106.982 40.2624C108.106 40.5543 108.594 41.2841 108.301 42.3544L108.398 42.3057ZM123.926 53.3983C120.654 55.393 114.893 57.3391 110.547 58.2148C108.936 58.5067 107.813 57.8742 107.568 56.2201C107.373 54.8578 108.154 53.7875 109.619 53.5929C111.231 53.4469 112.793 53.2037 114.356 52.9118V48.8737H110.84C109.961 48.8737 109.522 48.3872 109.522 47.5114C109.522 46.6357 109.961 46.1492 110.84 46.1492H114.356V43.0842H110.449C109.57 43.0842 109.082 42.5976 109.082 41.7219C109.082 40.8462 109.57 40.3597 110.449 40.3597H122.852C123.731 40.3597 124.219 40.8948 124.219 41.7219C124.219 42.549 123.682 43.0842 122.852 43.0842H118.897V46.1492H122.461C123.34 46.1492 123.779 46.6844 123.779 47.5114C123.779 48.3385 123.34 48.8737 122.461 48.8737H118.897V52.036C120.313 51.6955 121.631 51.3063 122.803 50.9657C123.584 50.7225 124.268 50.9171 124.561 51.6468C124.902 52.3766 124.658 52.9604 123.926 53.3983ZM134.424 61.3771C131.543 60.7447 129.492 58.0688 128.125 54.274C125.684 57.0958 122.607 59.3338 118.652 61.0366C117.773 61.3771 117.188 61.2312 116.797 60.5501C116.504 59.8689 116.699 59.3338 117.529 58.7986C121.68 56.2687 124.658 53.3983 126.856 49.9927C125.391 43.522 125 35.3972 124.951 28.586H109.375C108.398 28.586 107.861 27.9535 107.861 26.9805C107.861 26.0075 108.447 25.4237 109.375 25.4237H114.404V21.5802H110.596C109.619 21.5802 109.131 21.045 109.131 20.1693C109.131 19.2936 109.668 18.7584 110.596 18.7584H114.404V16.1312C114.404 14.769 115.234 13.9906 116.65 13.9906C118.066 13.9906 118.897 14.769 118.897 16.1312V18.7584H122.559C123.486 18.7584 124.023 19.2936 124.023 20.1693C124.023 21.045 123.438 21.5802 122.559 21.5802H118.897V25.4237H124.951V16.1312C124.951 14.769 125.781 13.9906 127.197 13.9906C128.613 13.9906 129.443 14.769 129.443 16.1312V25.4237H136.426C137.451 25.4237 138.037 26.0075 138.037 26.9805C138.037 27.9535 137.451 28.586 136.426 28.586H129.443C129.443 33.4025 129.59 38.6082 130.078 43.1328C131.104 40.2137 131.836 37.0027 132.471 33.3052C132.715 31.7484 133.74 31.1645 135.107 31.4078C136.475 31.6511 137.061 32.8187 136.719 34.4242C135.352 40.6516 133.643 45.76 131.25 49.944C131.982 52.9118 132.959 55.0524 134.326 55.7822C135.352 56.2687 135.449 54.6632 135.449 48.6304C135.449 47.6574 135.84 47.1709 136.621 47.1709C137.354 47.1709 137.891 47.6574 138.037 48.6304C139.16 58.5067 137.939 62.1556 134.473 61.3285L134.424 61.3771ZM112.256 38.7542C110.547 38.7542 109.619 37.8298 109.619 36.127V32.77C109.619 31.1159 110.547 30.1915 112.256 30.1915H120.703C122.412 30.1915 123.34 31.1159 123.34 32.77V36.127C123.34 37.8298 122.412 38.7542 120.703 38.7542H112.256ZM113.477 35.3972C113.477 35.6891 113.721 35.981 114.111 35.981H118.897C119.238 35.981 119.482 35.7378 119.482 35.3972V33.5971C119.482 33.2566 119.238 32.9646 118.897 32.9646H114.111C113.77 32.9646 113.477 33.2079 113.477 33.5971V35.3972ZM130.322 17.7854C129.981 17.007 130.127 16.4231 130.713 15.9366C131.397 15.4988 132.031 15.5961 132.617 16.2285C134.033 17.6394 135.254 19.3909 136.231 21.3369C136.963 22.5532 136.621 23.5263 135.449 24.2074C134.18 24.9371 133.154 24.4993 132.617 23.1857C131.934 21.1423 131.152 19.4395 130.322 17.7854Z" fill="white"/>
</svg>
