<svg width="177" height="76" viewBox="0 0 177 76" fill="none" xmlns="http://www.w3.org/2000/svg">
<path d="M138.037 0.124756H37.9883C17.0079 0.124756 0 17.0712 0 37.9756C0 58.8801 17.0079 75.8265 37.9883 75.8265H138.037C159.017 75.8265 176.025 58.8801 176.025 37.9756C176.025 17.0712 159.017 0.124756 138.037 0.124756Z" fill="#76A035"/>
<path d="M56.4453 31.9427H45.8496V59.5281C45.8496 61.1336 44.9219 61.9607 43.2617 61.9607C41.6016 61.9607 40.6738 61.0849 40.6738 59.5281V18.6122C40.6738 16.8607 41.6504 15.8877 43.4082 15.8877H56.4453C58.2031 15.8877 59.1797 16.8607 59.1797 18.6122V29.2182C59.1797 30.9697 58.2031 31.9427 56.4453 31.9427ZM54.2969 19.6339C54.2969 19.2933 54.0527 19.0014 53.7109 19.0014H46.4844C46.1426 19.0014 45.8984 19.2446 45.8984 19.6339V22.3583H54.3457V19.6339H54.2969ZM54.2969 25.3747H45.8496V28.829H53.7109C54.0527 28.829 54.2969 28.5857 54.2969 28.2452V25.3747ZM68.2617 47.122V57.5334C68.2617 58.9929 67.3828 59.82 65.8691 59.82C64.3555 59.82 63.4766 58.9929 63.4766 57.5334V47.122H58.7891C58.252 53.4953 55.6152 57.6793 49.9023 60.3065C49.0234 60.6471 48.3887 60.4525 47.9492 59.82C47.4121 59.0902 47.6562 58.5064 48.3887 57.8739C52.0996 55.0035 53.5156 52.3277 53.8574 47.1706H49.3164C48.291 47.1706 47.7539 46.5381 47.7539 45.6138C47.7539 44.6407 48.291 44.1056 49.3164 44.1056H54.0039V38.1701H50.6836C49.707 38.1701 49.1699 37.5376 49.1699 36.5646C49.1699 35.5916 49.7559 35.105 50.6836 35.105H71.3379C72.3633 35.105 72.9004 35.6402 72.9004 36.5646C72.9004 37.5863 72.3145 38.1701 71.3379 38.1701H68.3105V44.1056H72.7539C73.7305 44.1056 74.2676 44.6894 74.2676 45.6138C74.2676 46.5381 73.6816 47.1706 72.7539 47.1706H68.3105L68.2617 47.122ZM63.4277 44.0569V38.1214H58.7891V44.0569H63.4277ZM81.543 18.6122V56.5604C81.543 61.912 76.6113 62.7391 70.459 60.4038C69.5313 60.1119 69.2383 59.4308 69.4336 58.701C69.5801 57.8739 70.1172 57.582 71.0938 57.6793C75.9277 58.2145 76.416 57.874 76.416 55.6846V31.9427H65.8203C64.0625 31.9427 63.1348 30.9697 63.1348 29.2182V18.6122C63.1348 16.8607 64.1113 15.8877 65.8203 15.8877H78.8574C80.6152 15.8877 81.5918 16.8607 81.5918 18.6122H81.543ZM76.416 19.6339C76.416 19.2933 76.1719 19.0014 75.8301 19.0014H68.6523C68.3105 19.0014 68.0664 19.2446 68.0664 19.6339V22.3583H76.4648V19.6339H76.416ZM76.416 25.3747H68.0176V28.2452C68.0176 28.5857 68.2617 28.829 68.6035 28.829H76.416V25.3747Z" fill="white"/>
<path d="M137.891 50.8196C137.891 51.8899 137.305 52.5224 136.23 52.5224H117.725V59.6255C117.725 61.377 116.748 62.35 114.941 62.35C113.135 62.35 112.158 61.377 112.158 59.6255V52.5224H93.5547C92.4805 52.5224 91.8945 51.8899 91.8945 50.8196C91.8945 49.7493 92.4805 49.1168 93.5547 49.1168H112.158V45.322H100.195C98.4375 45.322 97.4609 44.3489 97.4609 42.5975V29.5589C97.4609 27.8074 98.4375 26.8344 100.195 26.8344H112.158V23.2828H95.459C94.3848 23.2828 93.75 22.699 93.75 21.58C93.75 20.461 94.3359 19.8772 95.459 19.8772H112.158V16.423C112.158 14.6715 113.135 13.6985 114.941 13.6985C116.748 13.6985 117.725 14.6715 117.725 16.423V19.8772H134.277C135.352 19.8772 135.938 20.5097 135.938 21.58C135.938 22.6504 135.352 23.2828 134.277 23.2828H117.725V26.8344H129.492C131.25 26.8344 132.227 27.8074 132.227 29.5589V42.5975C132.227 44.3489 131.25 45.322 129.492 45.322H117.725V49.1168H136.23C137.256 49.1168 137.891 49.7006 137.891 50.8196ZM102.979 34.4727H112.207V30.094H103.613C103.271 30.094 103.027 30.3373 103.027 30.7265V34.5213L102.979 34.4727ZM112.207 42.1596V37.5864H102.979V41.5758C102.979 41.9164 103.223 42.2083 103.564 42.2083H112.158L112.207 42.1596ZM117.725 30.0454V34.424H126.855V30.6292C126.855 30.2887 126.611 29.9967 126.221 29.9967H117.725V30.0454ZM126.855 37.5377H117.725V42.111H126.221C126.563 42.111 126.855 41.8677 126.855 41.4785V37.4891V37.5377Z" fill="white"/>
</svg>
