<svg width="285" height="62" viewBox="0 0 285 62" fill="none" xmlns="http://www.w3.org/2000/svg">
<g clip-path="url(#clip0_13102_1170)">
<path d="M56.7132 58.1378C55.9756 60.8907 53.7628 61.548 50.9353 60.8496C42.8627 58.672 35.6506 55.0563 29.545 49.8794C22.21 56.0424 13.0719 60.1511 2.25381 61.6713C1.06546 61.7946 0.204923 61.4248 0.0410124 60.3565C-0.163876 59.3704 0.122968 58.3844 1.27034 57.9735C11.4328 55.0974 19.0547 51.2763 24.9964 45.5242C21.1855 41.3744 17.9073 36.5262 15.2028 30.8562C14.6701 29.7879 15.0798 28.8019 15.9404 28.3088C16.7189 27.7747 17.6614 27.9801 18.44 28.9662C22.046 34.1021 25.4472 38.1286 29.0123 41.2512C31.7578 37.841 34.1345 33.8144 36.2243 29.0895C37.1258 26.994 39.1338 26.2545 41.2236 27.3227C43.3954 28.391 44.0511 30.1988 42.8627 32.4586C40.486 37.2657 37.6995 41.5388 34.2574 45.2777C39.5845 48.6879 45.6082 50.9476 53.394 52.8376C56.2215 53.495 57.4098 55.5494 56.6722 58.1789L56.7132 58.1378ZM0.573723 35.2936C0.163946 34.4307 0.245901 33.5268 1.31132 32.7462C6.47451 29.0073 11.6787 23.7482 15.1618 17.8317C16.3501 15.7362 18.3171 15.2843 20.325 16.5169C22.4148 17.9139 22.4968 20.0093 20.8987 21.8993C16.3092 27.7336 8.97415 33.3625 3.07336 35.951C1.96696 36.4029 1.02448 36.0742 0.573723 35.2936ZM0.491767 12.6547C0.491767 11.2167 1.3523 10.2717 2.86847 10.2717H24.9145V3.41021C24.9145 1.2326 26.2258 0 28.5205 0C30.8153 0 32.2085 1.2326 32.2085 3.41021V10.3128H54.2545C55.7707 10.3128 56.6312 11.1756 56.6312 12.6958C56.6312 14.216 55.7707 15.1199 54.2545 15.1199H2.86847C1.3523 15.1199 0.491767 14.2571 0.491767 12.6958V12.6547ZM54.2545 33.8144C52.4105 35.5812 50.1977 35.3757 48.5996 33.2803C44.256 27.4871 39.5026 22.7621 35.3638 19.2697C34.5033 18.4891 34.5033 17.4208 35.036 16.6402C35.5687 15.7362 36.4702 15.5719 37.5356 16.106C42.9857 18.8588 48.9684 22.9264 53.9267 27.8158C55.9756 29.7058 56.0985 32.0066 54.2545 33.8144Z" fill="#251E1C"/>
<path d="M133.423 55.4261C133.341 57.8091 132.112 59.165 129.694 59.2882C121.95 59.7402 115.475 59.8224 106.993 59.5348C97.3629 59.2882 91.7899 57.3572 87.8561 51.112C87.5282 50.5778 87.1185 50.5367 86.8726 50.9887C84.7008 54.6865 81.8733 58.0967 79.4556 60.3976C78.0214 61.7945 76.4233 61.7945 75.2759 60.3154C74.0466 58.7952 74.2105 57.275 75.8496 56.0424C78.8 53.6183 81.6684 50.9887 83.3895 48.8111V34.7183C83.3895 34.2664 83.0617 33.9377 82.6109 33.9377H76.3004C74.9891 33.9377 74.2515 33.1981 74.2515 31.8833C74.2515 30.5686 74.9891 29.829 76.3004 29.829H86.5448C88.7576 29.829 90.0279 31.0616 90.0279 33.3214V47.8661C93.429 52.057 97.5268 53.4539 105.886 53.4539C113.426 53.4539 122.4 52.9198 129.448 52.2213C132.071 51.9748 133.505 53.0841 133.464 55.385L133.423 55.4261ZM76.0955 17.1332C75.3169 16.3525 75.2349 15.5719 75.7676 14.7501C76.2184 13.9695 77.0789 13.8873 78.1443 14.2982C80.8489 15.4075 84.5778 17.5851 87.2004 19.8038C89.0444 21.3651 89.3722 23.0908 87.7741 24.8164C86.2579 26.542 84.373 26.542 82.8568 24.5699C80.7669 21.8582 78.1443 19.1875 76.0955 17.1332ZM79.7015 4.76604C78.9229 3.98539 78.841 3.12256 79.3737 2.383C79.9064 1.64344 80.685 1.52018 81.6684 1.93105C84.4139 3.16365 88.1019 5.34125 90.8474 7.84755C92.5685 9.28559 92.8144 11.0112 91.2982 12.6547C89.782 14.216 88.02 14.0517 86.5038 12.2438C84.209 9.40885 81.7914 6.90255 79.6605 4.72495L79.7015 4.76604ZM95.1091 5.01256C95.1091 3.82104 95.8467 3.12256 97.076 3.12256H119.573C121.745 1.47909 124.9 1.72561 126.252 3.57452C127.686 5.42343 127.236 7.72429 124.613 9.49102C122.113 11.2167 119.942 12.3671 117.729 13.2299C118.63 14.0927 118.917 15.0788 118.466 16.1882H126.334C128.547 16.1882 129.817 17.4208 129.817 19.6805V44.3326C129.817 50.3313 124.695 51.8926 118.016 48.8522C116.95 48.4002 116.581 47.5374 116.827 46.5513C117.032 45.6885 117.688 45.2365 118.794 45.3598C122.933 46.0172 123.466 45.4831 123.466 42.8535V38.0053H115.598V47.1265C115.598 49.0165 114.533 50.0848 112.525 50.0848C110.517 50.0848 109.451 49.0165 109.451 47.1265V38.0053H101.584V47.5374C101.584 49.5096 100.477 50.6189 98.4283 50.6189C96.3794 50.6189 95.232 49.5096 95.232 47.5374V19.6395C95.232 17.4208 96.4614 16.1471 98.7152 16.1471H111.787C109.492 14.5036 106.952 12.8601 104.37 11.4221C103.469 10.888 103.141 10.1073 103.469 9.20341C103.878 8.34059 104.575 8.01189 105.64 8.2995C108.509 9.08015 111.418 10.0662 114.082 11.2578C115.926 10.0662 117.237 9.03906 118.262 7.97081C118.794 7.43668 118.589 6.98472 117.852 6.98472H97.117C95.8877 6.98472 95.1501 6.24516 95.1501 5.01256H95.1091ZM101.543 20.9132V25.2684H109.41V20.1325H102.321C101.87 20.1325 101.543 20.4612 101.543 20.9132ZM109.41 34.1842V29.0483H101.543V34.1842H109.41ZM122.646 20.1325H115.557V25.2684H123.425V20.9132C123.425 20.4612 123.097 20.1325 122.646 20.1325ZM123.425 34.1842V29.0483H115.557V34.1842H123.425Z" fill="#251E1C"/>
<path d="M175.18 51.605C176.368 53.2484 175.712 55.1384 173.459 56.2067C167.353 59.0417 160.592 61.1371 153.011 61.7945C151.781 61.9177 150.921 61.4658 150.798 60.3975C150.593 59.3293 151.003 58.5075 152.314 58.2199C159.198 56.6586 165.058 54.0702 170.221 50.9065C170.549 50.701 170.877 50.5778 171.205 50.4545H162.272C160.059 50.4545 158.789 49.2219 158.789 46.9621V29.0072C158.789 26.7885 160.018 25.5148 162.272 25.5148H196.447C198.66 25.5148 199.93 26.7474 199.93 29.0072V46.9621C199.93 49.1808 198.701 50.4545 196.447 50.4545H173.827C174.36 50.66 174.811 51.0297 175.221 51.5639L175.18 51.605ZM151.495 26.2133C150.388 24.3644 150.839 22.8442 152.806 21.7348C157.068 19.2285 160.551 16.3936 163.583 13.312C164.362 12.5725 165.304 12.4492 166.083 13.1888C166.738 13.7229 166.943 14.7501 166.329 15.6129C163.911 19.2285 160.428 23.5837 156.248 26.5831C154.404 27.98 152.642 27.8979 151.536 26.1722L151.495 26.2133ZM153.052 2.42404C153.38 1.56122 154.158 1.23252 155.224 1.52013C158.051 2.05426 161.575 3.24578 164.853 4.80708C166.943 5.79316 167.353 7.51881 166.165 9.20336C164.976 11.0523 163.337 11.2577 161.493 9.94293C158.789 7.76533 156.125 5.99859 153.83 4.68382C152.929 4.1086 152.642 3.28686 153.052 2.46513V2.42404ZM165.468 32.6228H193.21V30.2398C193.21 29.7879 192.882 29.4592 192.431 29.4592H166.247C165.796 29.4592 165.468 29.7879 165.468 30.2398V32.6228ZM165.468 39.4022H193.21V36.3207H165.468V39.4022ZM166.247 46.5513H192.431C192.882 46.5513 193.21 46.2226 193.21 45.7706V43.0589H165.468V45.7706C165.468 46.2226 165.796 46.5513 166.247 46.5513ZM182.966 8.66924H177.515C175.467 12.1616 172.803 15.1199 170.099 17.092C169.238 17.8316 168.214 17.7494 167.599 16.9688C167.025 16.1881 166.943 15.5307 167.681 14.5857C170.426 11.381 172.475 7.43663 173.909 2.62947C174.483 0.534047 175.958 -0.205516 177.843 0.410787C179.687 0.944915 180.261 2.46513 179.4 4.68382H198.168C199.357 3.57447 201.201 3.12252 202.881 4.14969C204.602 5.25903 205.053 7.2312 203.782 9.16228C201.815 12.2438 199.398 14.5446 197.799 15.8183C197.021 16.3936 196.16 16.5579 195.423 15.9416C194.685 15.2842 194.644 14.5036 195.177 13.6407C196.037 12.4081 196.939 10.7647 197.472 9.57314C197.717 9.03902 197.267 8.71032 196.734 8.71032H189.768C189.522 9.90184 189.112 10.929 188.579 11.9973C192.841 16.9277 197.226 18.7766 204.52 20.0914C206.897 20.5433 207.552 21.8581 207.019 23.707C206.569 25.6792 204.848 26.2544 202.881 25.8024C196.078 24.0357 190.342 20.5433 186.858 15.0788C183.047 20.5844 176.491 24.0768 168.418 24.8164C167.353 24.9396 166.574 24.4055 166.451 23.4194C166.247 22.5155 166.656 21.8992 167.763 21.5705C176.901 19.3518 180.876 15.4075 182.843 8.66924H182.966ZM207.06 59.658C206.077 61.8356 204.315 62.4108 202.143 61.3014C197.103 58.6719 189.891 55.9191 184.236 54.1934C183.129 53.7826 182.72 53.0019 182.925 52.0158C183.17 51.0297 183.826 50.5778 185.014 50.701C190.792 51.2352 198.66 52.8786 204.766 55.0973C207.06 55.878 207.921 57.6036 207.06 59.6169V59.658Z" fill="#251E1C"/>
<path d="M248.612 15.572H227.099C225.787 15.572 225.05 14.8324 225.05 13.5176C225.05 12.2029 225.787 11.4633 227.099 11.4633H234.884V3.82116C234.884 1.84899 236.073 0.657471 238.163 0.657471C240.253 0.657471 241.523 1.84899 241.523 3.82116V11.5044H248.612C249.923 11.5044 250.661 12.244 250.661 13.5587C250.661 14.8735 249.923 15.6131 248.612 15.6131V15.572ZM248.489 22.9265C248.489 24.1591 247.751 24.9809 246.522 24.9809H229.352C228.041 24.9809 227.304 24.2002 227.304 22.9265C227.304 21.6117 228.041 20.8722 229.352 20.8722H246.522C247.751 20.8722 248.489 21.6117 248.489 22.9265ZM248.489 31.678C248.489 32.9928 247.751 33.7324 246.522 33.7324H229.352C228.041 33.7324 227.304 32.9928 227.304 31.678C227.304 30.3632 228.041 29.6237 229.352 29.6237H246.522C247.751 29.6237 248.489 30.4043 248.489 31.678ZM248.489 42.6482V59.0829C248.489 60.9729 247.424 61.959 245.539 61.959C243.654 61.959 242.588 60.9729 242.588 59.0829V56.7821H233.614V59.0007C233.614 60.8497 232.549 61.9179 230.664 61.9179C228.779 61.9179 227.631 60.8497 227.631 59.0007V42.6071C227.631 40.3884 228.861 39.1147 231.115 39.1147H245.006C247.219 39.1147 248.489 40.3473 248.489 42.6071V42.6482ZM242.506 43.8808C242.506 43.4288 242.179 43.1001 241.728 43.1001H234.393C233.942 43.1001 233.614 43.4288 233.614 43.8808V52.8377H242.547V43.8808H242.506ZM278.362 60.8497C271.355 58.0968 270.617 44.456 270.617 20.9954V8.95701C270.617 8.50505 270.289 8.17636 269.838 8.17636H262.749V26.9941H267.462C268.773 26.9941 269.634 27.7337 269.634 29.0485C269.634 30.3632 268.773 31.2261 267.462 31.2261H262.749V58.4666C262.749 60.521 261.561 61.6714 259.471 61.6714C257.381 61.6714 256.111 60.4799 256.111 58.4666V31.2261H251.194C249.8 31.2261 249.104 30.3632 249.104 29.0485C249.104 27.7337 249.841 26.9941 251.194 26.9941H256.111V8.21744H250.743C249.35 8.21744 248.571 7.35462 248.571 6.03984C248.571 4.72507 249.35 3.9855 250.743 3.9855H273.649C275.862 3.9855 277.132 5.21811 277.132 7.47788V21.4885C277.132 41.4978 278.321 52.2625 279.673 53.1253C280.739 53.8649 280.861 52.2625 280.861 43.7165C280.861 42.4017 281.394 41.5388 282.419 41.5388C283.443 41.5388 284.14 42.1962 284.263 43.3878C286.639 60.6853 282.705 62.5342 278.362 60.8907V60.8497Z" fill="#251E1C"/>
</g>
<defs>
<clipPath id="clip0_13102_1170">
<rect width="285" height="62" fill="white"/>
</clipPath>
</defs>
</svg>
