<svg width="70" height="70" viewBox="0 0 70 70" fill="none" xmlns="http://www.w3.org/2000/svg">
<path d="M15.9637 52.2053H53.5174C56.3363 52.2053 58.6426 49.9223 58.6426 47.0802V9.52646C58.6426 4.8206 54.822 1 50.1161 1H19.3883C14.6824 1 10.8618 4.8206 10.8618 9.52646V47.0802C10.8618 49.899 13.1449 52.2053 15.987 52.2053H15.9637ZM21.0889 46.2415C18.736 46.2415 16.8257 44.3312 16.8257 41.9783C16.8257 39.6253 18.736 37.715 21.0889 37.715C23.4418 37.715 25.3521 39.6253 25.3521 41.9783C25.3521 44.3312 23.4418 46.2415 21.0889 46.2415ZM48.3922 46.2415C46.0393 46.2415 44.129 44.3312 44.129 41.9783C44.129 39.6253 46.0393 37.715 48.3922 37.715C50.7451 37.715 52.6554 39.6253 52.6554 41.9783C52.6554 44.3312 50.7451 46.2415 48.3922 46.2415ZM27.9147 3.5626H41.5664C42.4982 3.5626 43.267 4.33138 43.267 5.26323C43.267 6.19508 42.4982 6.96386 41.5664 6.96386H27.9147C26.9829 6.96386 26.2141 6.19508 26.2141 5.26323C26.2141 4.33138 26.9829 3.5626 27.9147 3.5626ZM15.1017 12.0891C15.1017 10.668 16.2433 9.52646 17.6643 9.52646H51.8168C53.2378 9.52646 54.3794 10.668 54.3794 12.0891V28.3033C54.3794 29.7244 53.2378 30.8659 51.8168 30.8659H17.6876C16.2666 30.8659 15.125 29.7244 15.125 28.3033V12.0891H15.1017Z" fill="#009683"/>
<path d="M55.2415 69.2813H59.5047L52.7022 53.9058H48.439L49.5805 56.4684H19.9708L21.1124 53.9058H16.8491L10 69.2813H14.2632L15.7775 65.8568H53.7039L55.2182 69.2813H55.2415ZM17.315 62.4555L18.4566 59.8929H51.0714L52.213 62.4555H17.315Z" fill="#009683"/>
</svg>
