<svg width="28" height="28" viewBox="0 0 28 28" fill="none" xmlns="http://www.w3.org/2000/svg">
<g clip-path="url(#clip0_7596_4622)">
<path d="M28 14C28 6.26801 21.732 0 14 0C6.26801 0 0 6.26801 0 14C0 21.732 6.26801 28 14 28C21.732 28 28 21.732 28 14Z" fill="#4B4B4B"/>
<path d="M24.7336 8.57049C24.4761 7.59939 23.7183 6.83428 22.7546 6.57679C21.0037 6.10596 14 6.10596 14 6.10596C14 6.10596 6.98897 6.10596 5.24541 6.57679C4.28167 6.83428 3.52392 7.59939 3.26643 8.57049C2.79559 10.3288 2.79559 13.9998 2.79559 13.9998C2.79559 13.9998 2.79559 17.6709 3.26643 19.4291C3.52392 20.4002 4.28167 21.1653 5.24541 21.4228C6.99633 21.8937 14 21.8937 14 21.8937C14 21.8937 21.011 21.8937 22.7546 21.4228C23.7183 21.1653 24.4761 20.4002 24.7336 19.4291C25.2044 17.6709 25.2044 13.9998 25.2044 13.9998C25.2044 13.9998 25.2044 10.3288 24.7336 8.57049Z" fill="#E6E400"/>
<path d="M11.712 17.3323V10.667L17.5681 13.9996L11.712 17.3323Z" fill="#4B4B4B"/>
</g>
<defs>
<clipPath id="clip0_7596_4622">
<rect width="28" height="28" fill="white"/>
</clipPath>
</defs>
</svg>
